%TF.GenerationSoftware,KiCad,Pcbnew,(6.0.0-0)*%
%TF.CreationDate,2022-02-05T16:32:56-08:00*%
%TF.ProjectId,tentacle-raspi,74656e74-6163-46c6-952d-72617370692e,1.0*%
%TF.SameCoordinates,Original*%
%TF.FileFunction,Legend,Bot*%
%TF.FilePolarity,Positive*%
%FSLAX46Y46*%
G04 Gerber Fmt 4.6, Leading zero omitted, Abs format (unit mm)*
G04 Created by KiCad (PCBNEW (6.0.0-0)) date 2022-02-05 16:32:56*
%MOMM*%
%LPD*%
G01*
G04 APERTURE LIST*
%ADD10C,0.040000*%
G04 APERTURE END LIST*
D10*
%TO.C,C201*%
X119044285Y-94341142D02*
X119030000Y-94355428D01*
X118987142Y-94369714D01*
X118958571Y-94369714D01*
X118915714Y-94355428D01*
X118887142Y-94326857D01*
X118872857Y-94298285D01*
X118858571Y-94241142D01*
X118858571Y-94198285D01*
X118872857Y-94141142D01*
X118887142Y-94112571D01*
X118915714Y-94084000D01*
X118958571Y-94069714D01*
X118987142Y-94069714D01*
X119030000Y-94084000D01*
X119044285Y-94098285D01*
X119158571Y-94098285D02*
X119172857Y-94084000D01*
X119201428Y-94069714D01*
X119272857Y-94069714D01*
X119301428Y-94084000D01*
X119315714Y-94098285D01*
X119330000Y-94126857D01*
X119330000Y-94155428D01*
X119315714Y-94198285D01*
X119144285Y-94369714D01*
X119330000Y-94369714D01*
X119515714Y-94069714D02*
X119544285Y-94069714D01*
X119572857Y-94084000D01*
X119587142Y-94098285D01*
X119601428Y-94126857D01*
X119615714Y-94184000D01*
X119615714Y-94255428D01*
X119601428Y-94312571D01*
X119587142Y-94341142D01*
X119572857Y-94355428D01*
X119544285Y-94369714D01*
X119515714Y-94369714D01*
X119487142Y-94355428D01*
X119472857Y-94341142D01*
X119458571Y-94312571D01*
X119444285Y-94255428D01*
X119444285Y-94184000D01*
X119458571Y-94126857D01*
X119472857Y-94098285D01*
X119487142Y-94084000D01*
X119515714Y-94069714D01*
X119901428Y-94369714D02*
X119730000Y-94369714D01*
X119815714Y-94369714D02*
X119815714Y-94069714D01*
X119787142Y-94112571D01*
X119758571Y-94141142D01*
X119730000Y-94155428D01*
X119180000Y-94877714D02*
X119008571Y-94877714D01*
X119094285Y-94877714D02*
X119094285Y-94577714D01*
X119065714Y-94620571D01*
X119037142Y-94649142D01*
X119008571Y-94663428D01*
X119308571Y-94677714D02*
X119308571Y-94977714D01*
X119451428Y-94834857D02*
X119465714Y-94863428D01*
X119494285Y-94877714D01*
X119308571Y-94834857D02*
X119322857Y-94863428D01*
X119351428Y-94877714D01*
X119408571Y-94877714D01*
X119437142Y-94863428D01*
X119451428Y-94834857D01*
X119451428Y-94677714D01*
X119722857Y-94720571D02*
X119622857Y-94720571D01*
X119622857Y-94877714D02*
X119622857Y-94577714D01*
X119765714Y-94577714D01*
%TO.C,C202*%
X114661142Y-90188214D02*
X114675428Y-90202500D01*
X114689714Y-90245357D01*
X114689714Y-90273928D01*
X114675428Y-90316785D01*
X114646857Y-90345357D01*
X114618285Y-90359642D01*
X114561142Y-90373928D01*
X114518285Y-90373928D01*
X114461142Y-90359642D01*
X114432571Y-90345357D01*
X114404000Y-90316785D01*
X114389714Y-90273928D01*
X114389714Y-90245357D01*
X114404000Y-90202500D01*
X114418285Y-90188214D01*
X114418285Y-90073928D02*
X114404000Y-90059642D01*
X114389714Y-90031071D01*
X114389714Y-89959642D01*
X114404000Y-89931071D01*
X114418285Y-89916785D01*
X114446857Y-89902500D01*
X114475428Y-89902500D01*
X114518285Y-89916785D01*
X114689714Y-90088214D01*
X114689714Y-89902500D01*
X114389714Y-89716785D02*
X114389714Y-89688214D01*
X114404000Y-89659642D01*
X114418285Y-89645357D01*
X114446857Y-89631071D01*
X114504000Y-89616785D01*
X114575428Y-89616785D01*
X114632571Y-89631071D01*
X114661142Y-89645357D01*
X114675428Y-89659642D01*
X114689714Y-89688214D01*
X114689714Y-89716785D01*
X114675428Y-89745357D01*
X114661142Y-89759642D01*
X114632571Y-89773928D01*
X114575428Y-89788214D01*
X114504000Y-89788214D01*
X114446857Y-89773928D01*
X114418285Y-89759642D01*
X114404000Y-89745357D01*
X114389714Y-89716785D01*
X114418285Y-89502500D02*
X114404000Y-89488214D01*
X114389714Y-89459642D01*
X114389714Y-89388214D01*
X114404000Y-89359642D01*
X114418285Y-89345357D01*
X114446857Y-89331071D01*
X114475428Y-89331071D01*
X114518285Y-89345357D01*
X114689714Y-89516785D01*
X114689714Y-89331071D01*
X115197714Y-90116000D02*
X115197714Y-90287428D01*
X115197714Y-90201714D02*
X114897714Y-90201714D01*
X114940571Y-90230285D01*
X114969142Y-90258857D01*
X114983428Y-90287428D01*
X114997714Y-89987428D02*
X115297714Y-89987428D01*
X115154857Y-89844571D02*
X115183428Y-89830285D01*
X115197714Y-89801714D01*
X115154857Y-89987428D02*
X115183428Y-89973142D01*
X115197714Y-89944571D01*
X115197714Y-89887428D01*
X115183428Y-89858857D01*
X115154857Y-89844571D01*
X114997714Y-89844571D01*
X115040571Y-89573142D02*
X115040571Y-89673142D01*
X115197714Y-89673142D02*
X114897714Y-89673142D01*
X114897714Y-89530285D01*
%TO.C,C203*%
X118536285Y-86721142D02*
X118522000Y-86735428D01*
X118479142Y-86749714D01*
X118450571Y-86749714D01*
X118407714Y-86735428D01*
X118379142Y-86706857D01*
X118364857Y-86678285D01*
X118350571Y-86621142D01*
X118350571Y-86578285D01*
X118364857Y-86521142D01*
X118379142Y-86492571D01*
X118407714Y-86464000D01*
X118450571Y-86449714D01*
X118479142Y-86449714D01*
X118522000Y-86464000D01*
X118536285Y-86478285D01*
X118650571Y-86478285D02*
X118664857Y-86464000D01*
X118693428Y-86449714D01*
X118764857Y-86449714D01*
X118793428Y-86464000D01*
X118807714Y-86478285D01*
X118822000Y-86506857D01*
X118822000Y-86535428D01*
X118807714Y-86578285D01*
X118636285Y-86749714D01*
X118822000Y-86749714D01*
X119007714Y-86449714D02*
X119036285Y-86449714D01*
X119064857Y-86464000D01*
X119079142Y-86478285D01*
X119093428Y-86506857D01*
X119107714Y-86564000D01*
X119107714Y-86635428D01*
X119093428Y-86692571D01*
X119079142Y-86721142D01*
X119064857Y-86735428D01*
X119036285Y-86749714D01*
X119007714Y-86749714D01*
X118979142Y-86735428D01*
X118964857Y-86721142D01*
X118950571Y-86692571D01*
X118936285Y-86635428D01*
X118936285Y-86564000D01*
X118950571Y-86506857D01*
X118964857Y-86478285D01*
X118979142Y-86464000D01*
X119007714Y-86449714D01*
X119207714Y-86449714D02*
X119393428Y-86449714D01*
X119293428Y-86564000D01*
X119336285Y-86564000D01*
X119364857Y-86578285D01*
X119379142Y-86592571D01*
X119393428Y-86621142D01*
X119393428Y-86692571D01*
X119379142Y-86721142D01*
X119364857Y-86735428D01*
X119336285Y-86749714D01*
X119250571Y-86749714D01*
X119222000Y-86735428D01*
X119207714Y-86721142D01*
X118286285Y-86986285D02*
X118300571Y-86972000D01*
X118329142Y-86957714D01*
X118400571Y-86957714D01*
X118429142Y-86972000D01*
X118443428Y-86986285D01*
X118457714Y-87014857D01*
X118457714Y-87043428D01*
X118443428Y-87086285D01*
X118272000Y-87257714D01*
X118457714Y-87257714D01*
X118586285Y-87229142D02*
X118600571Y-87243428D01*
X118586285Y-87257714D01*
X118572000Y-87243428D01*
X118586285Y-87229142D01*
X118586285Y-87257714D01*
X118714857Y-86986285D02*
X118729142Y-86972000D01*
X118757714Y-86957714D01*
X118829142Y-86957714D01*
X118857714Y-86972000D01*
X118872000Y-86986285D01*
X118886285Y-87014857D01*
X118886285Y-87043428D01*
X118872000Y-87086285D01*
X118700571Y-87257714D01*
X118886285Y-87257714D01*
X119014857Y-87057714D02*
X119014857Y-87357714D01*
X119157714Y-87214857D02*
X119172000Y-87243428D01*
X119200571Y-87257714D01*
X119014857Y-87214857D02*
X119029142Y-87243428D01*
X119057714Y-87257714D01*
X119114857Y-87257714D01*
X119143428Y-87243428D01*
X119157714Y-87214857D01*
X119157714Y-87057714D01*
X119429142Y-87100571D02*
X119329142Y-87100571D01*
X119329142Y-87257714D02*
X119329142Y-86957714D01*
X119472000Y-86957714D01*
%TO.C,C204*%
X119044285Y-98151142D02*
X119030000Y-98165428D01*
X118987142Y-98179714D01*
X118958571Y-98179714D01*
X118915714Y-98165428D01*
X118887142Y-98136857D01*
X118872857Y-98108285D01*
X118858571Y-98051142D01*
X118858571Y-98008285D01*
X118872857Y-97951142D01*
X118887142Y-97922571D01*
X118915714Y-97894000D01*
X118958571Y-97879714D01*
X118987142Y-97879714D01*
X119030000Y-97894000D01*
X119044285Y-97908285D01*
X119158571Y-97908285D02*
X119172857Y-97894000D01*
X119201428Y-97879714D01*
X119272857Y-97879714D01*
X119301428Y-97894000D01*
X119315714Y-97908285D01*
X119330000Y-97936857D01*
X119330000Y-97965428D01*
X119315714Y-98008285D01*
X119144285Y-98179714D01*
X119330000Y-98179714D01*
X119515714Y-97879714D02*
X119544285Y-97879714D01*
X119572857Y-97894000D01*
X119587142Y-97908285D01*
X119601428Y-97936857D01*
X119615714Y-97994000D01*
X119615714Y-98065428D01*
X119601428Y-98122571D01*
X119587142Y-98151142D01*
X119572857Y-98165428D01*
X119544285Y-98179714D01*
X119515714Y-98179714D01*
X119487142Y-98165428D01*
X119472857Y-98151142D01*
X119458571Y-98122571D01*
X119444285Y-98065428D01*
X119444285Y-97994000D01*
X119458571Y-97936857D01*
X119472857Y-97908285D01*
X119487142Y-97894000D01*
X119515714Y-97879714D01*
X119872857Y-97979714D02*
X119872857Y-98179714D01*
X119801428Y-97865428D02*
X119730000Y-98079714D01*
X119915714Y-98079714D01*
X118751428Y-98641714D02*
X118780000Y-98641714D01*
X118808571Y-98656000D01*
X118822857Y-98670285D01*
X118837142Y-98698857D01*
X118851428Y-98756000D01*
X118851428Y-98827428D01*
X118837142Y-98884571D01*
X118822857Y-98913142D01*
X118808571Y-98927428D01*
X118780000Y-98941714D01*
X118751428Y-98941714D01*
X118722857Y-98927428D01*
X118708571Y-98913142D01*
X118694285Y-98884571D01*
X118680000Y-98827428D01*
X118680000Y-98756000D01*
X118694285Y-98698857D01*
X118708571Y-98670285D01*
X118722857Y-98656000D01*
X118751428Y-98641714D01*
X118980000Y-98913142D02*
X118994285Y-98927428D01*
X118980000Y-98941714D01*
X118965714Y-98927428D01*
X118980000Y-98913142D01*
X118980000Y-98941714D01*
X119280000Y-98941714D02*
X119108571Y-98941714D01*
X119194285Y-98941714D02*
X119194285Y-98641714D01*
X119165714Y-98684571D01*
X119137142Y-98713142D01*
X119108571Y-98727428D01*
X119637142Y-98741714D02*
X119637142Y-99041714D01*
X119780000Y-98898857D02*
X119794285Y-98927428D01*
X119822857Y-98941714D01*
X119637142Y-98898857D02*
X119651428Y-98927428D01*
X119680000Y-98941714D01*
X119737142Y-98941714D01*
X119765714Y-98927428D01*
X119780000Y-98898857D01*
X119780000Y-98741714D01*
X120051428Y-98784571D02*
X119951428Y-98784571D01*
X119951428Y-98941714D02*
X119951428Y-98641714D01*
X120094285Y-98641714D01*
%TO.C,C205*%
X125394285Y-75545142D02*
X125380000Y-75559428D01*
X125337142Y-75573714D01*
X125308571Y-75573714D01*
X125265714Y-75559428D01*
X125237142Y-75530857D01*
X125222857Y-75502285D01*
X125208571Y-75445142D01*
X125208571Y-75402285D01*
X125222857Y-75345142D01*
X125237142Y-75316571D01*
X125265714Y-75288000D01*
X125308571Y-75273714D01*
X125337142Y-75273714D01*
X125380000Y-75288000D01*
X125394285Y-75302285D01*
X125508571Y-75302285D02*
X125522857Y-75288000D01*
X125551428Y-75273714D01*
X125622857Y-75273714D01*
X125651428Y-75288000D01*
X125665714Y-75302285D01*
X125680000Y-75330857D01*
X125680000Y-75359428D01*
X125665714Y-75402285D01*
X125494285Y-75573714D01*
X125680000Y-75573714D01*
X125865714Y-75273714D02*
X125894285Y-75273714D01*
X125922857Y-75288000D01*
X125937142Y-75302285D01*
X125951428Y-75330857D01*
X125965714Y-75388000D01*
X125965714Y-75459428D01*
X125951428Y-75516571D01*
X125937142Y-75545142D01*
X125922857Y-75559428D01*
X125894285Y-75573714D01*
X125865714Y-75573714D01*
X125837142Y-75559428D01*
X125822857Y-75545142D01*
X125808571Y-75516571D01*
X125794285Y-75459428D01*
X125794285Y-75388000D01*
X125808571Y-75330857D01*
X125822857Y-75302285D01*
X125837142Y-75288000D01*
X125865714Y-75273714D01*
X126237142Y-75273714D02*
X126094285Y-75273714D01*
X126080000Y-75416571D01*
X126094285Y-75402285D01*
X126122857Y-75388000D01*
X126194285Y-75388000D01*
X126222857Y-75402285D01*
X126237142Y-75416571D01*
X126251428Y-75445142D01*
X126251428Y-75516571D01*
X126237142Y-75545142D01*
X126222857Y-75559428D01*
X126194285Y-75573714D01*
X126122857Y-75573714D01*
X126094285Y-75559428D01*
X126080000Y-75545142D01*
X125101428Y-75781714D02*
X125130000Y-75781714D01*
X125158571Y-75796000D01*
X125172857Y-75810285D01*
X125187142Y-75838857D01*
X125201428Y-75896000D01*
X125201428Y-75967428D01*
X125187142Y-76024571D01*
X125172857Y-76053142D01*
X125158571Y-76067428D01*
X125130000Y-76081714D01*
X125101428Y-76081714D01*
X125072857Y-76067428D01*
X125058571Y-76053142D01*
X125044285Y-76024571D01*
X125030000Y-75967428D01*
X125030000Y-75896000D01*
X125044285Y-75838857D01*
X125058571Y-75810285D01*
X125072857Y-75796000D01*
X125101428Y-75781714D01*
X125330000Y-76053142D02*
X125344285Y-76067428D01*
X125330000Y-76081714D01*
X125315714Y-76067428D01*
X125330000Y-76053142D01*
X125330000Y-76081714D01*
X125630000Y-76081714D02*
X125458571Y-76081714D01*
X125544285Y-76081714D02*
X125544285Y-75781714D01*
X125515714Y-75824571D01*
X125487142Y-75853142D01*
X125458571Y-75867428D01*
X125987142Y-75881714D02*
X125987142Y-76181714D01*
X126130000Y-76038857D02*
X126144285Y-76067428D01*
X126172857Y-76081714D01*
X125987142Y-76038857D02*
X126001428Y-76067428D01*
X126030000Y-76081714D01*
X126087142Y-76081714D01*
X126115714Y-76067428D01*
X126130000Y-76038857D01*
X126130000Y-75881714D01*
X126401428Y-75924571D02*
X126301428Y-75924571D01*
X126301428Y-76081714D02*
X126301428Y-75781714D01*
X126444285Y-75781714D01*
%TO.C,C301*%
X136570285Y-90785142D02*
X136556000Y-90799428D01*
X136513142Y-90813714D01*
X136484571Y-90813714D01*
X136441714Y-90799428D01*
X136413142Y-90770857D01*
X136398857Y-90742285D01*
X136384571Y-90685142D01*
X136384571Y-90642285D01*
X136398857Y-90585142D01*
X136413142Y-90556571D01*
X136441714Y-90528000D01*
X136484571Y-90513714D01*
X136513142Y-90513714D01*
X136556000Y-90528000D01*
X136570285Y-90542285D01*
X136670285Y-90513714D02*
X136856000Y-90513714D01*
X136756000Y-90628000D01*
X136798857Y-90628000D01*
X136827428Y-90642285D01*
X136841714Y-90656571D01*
X136856000Y-90685142D01*
X136856000Y-90756571D01*
X136841714Y-90785142D01*
X136827428Y-90799428D01*
X136798857Y-90813714D01*
X136713142Y-90813714D01*
X136684571Y-90799428D01*
X136670285Y-90785142D01*
X137041714Y-90513714D02*
X137070285Y-90513714D01*
X137098857Y-90528000D01*
X137113142Y-90542285D01*
X137127428Y-90570857D01*
X137141714Y-90628000D01*
X137141714Y-90699428D01*
X137127428Y-90756571D01*
X137113142Y-90785142D01*
X137098857Y-90799428D01*
X137070285Y-90813714D01*
X137041714Y-90813714D01*
X137013142Y-90799428D01*
X136998857Y-90785142D01*
X136984571Y-90756571D01*
X136970285Y-90699428D01*
X136970285Y-90628000D01*
X136984571Y-90570857D01*
X136998857Y-90542285D01*
X137013142Y-90528000D01*
X137041714Y-90513714D01*
X137427428Y-90813714D02*
X137256000Y-90813714D01*
X137341714Y-90813714D02*
X137341714Y-90513714D01*
X137313142Y-90556571D01*
X137284571Y-90585142D01*
X137256000Y-90599428D01*
X136706000Y-91321714D02*
X136534571Y-91321714D01*
X136620285Y-91321714D02*
X136620285Y-91021714D01*
X136591714Y-91064571D01*
X136563142Y-91093142D01*
X136534571Y-91107428D01*
X136834571Y-91121714D02*
X136834571Y-91421714D01*
X136977428Y-91278857D02*
X136991714Y-91307428D01*
X137020285Y-91321714D01*
X136834571Y-91278857D02*
X136848857Y-91307428D01*
X136877428Y-91321714D01*
X136934571Y-91321714D01*
X136963142Y-91307428D01*
X136977428Y-91278857D01*
X136977428Y-91121714D01*
X137248857Y-91164571D02*
X137148857Y-91164571D01*
X137148857Y-91321714D02*
X137148857Y-91021714D01*
X137291714Y-91021714D01*
%TO.C,C302*%
X133711142Y-90188214D02*
X133725428Y-90202500D01*
X133739714Y-90245357D01*
X133739714Y-90273928D01*
X133725428Y-90316785D01*
X133696857Y-90345357D01*
X133668285Y-90359642D01*
X133611142Y-90373928D01*
X133568285Y-90373928D01*
X133511142Y-90359642D01*
X133482571Y-90345357D01*
X133454000Y-90316785D01*
X133439714Y-90273928D01*
X133439714Y-90245357D01*
X133454000Y-90202500D01*
X133468285Y-90188214D01*
X133439714Y-90088214D02*
X133439714Y-89902500D01*
X133554000Y-90002500D01*
X133554000Y-89959642D01*
X133568285Y-89931071D01*
X133582571Y-89916785D01*
X133611142Y-89902500D01*
X133682571Y-89902500D01*
X133711142Y-89916785D01*
X133725428Y-89931071D01*
X133739714Y-89959642D01*
X133739714Y-90045357D01*
X133725428Y-90073928D01*
X133711142Y-90088214D01*
X133439714Y-89716785D02*
X133439714Y-89688214D01*
X133454000Y-89659642D01*
X133468285Y-89645357D01*
X133496857Y-89631071D01*
X133554000Y-89616785D01*
X133625428Y-89616785D01*
X133682571Y-89631071D01*
X133711142Y-89645357D01*
X133725428Y-89659642D01*
X133739714Y-89688214D01*
X133739714Y-89716785D01*
X133725428Y-89745357D01*
X133711142Y-89759642D01*
X133682571Y-89773928D01*
X133625428Y-89788214D01*
X133554000Y-89788214D01*
X133496857Y-89773928D01*
X133468285Y-89759642D01*
X133454000Y-89745357D01*
X133439714Y-89716785D01*
X133468285Y-89502500D02*
X133454000Y-89488214D01*
X133439714Y-89459642D01*
X133439714Y-89388214D01*
X133454000Y-89359642D01*
X133468285Y-89345357D01*
X133496857Y-89331071D01*
X133525428Y-89331071D01*
X133568285Y-89345357D01*
X133739714Y-89516785D01*
X133739714Y-89331071D01*
X134247714Y-90052500D02*
X134247714Y-90223928D01*
X134247714Y-90138214D02*
X133947714Y-90138214D01*
X133990571Y-90166785D01*
X134019142Y-90195357D01*
X134033428Y-90223928D01*
X134047714Y-89923928D02*
X134347714Y-89923928D01*
X134204857Y-89781071D02*
X134233428Y-89766785D01*
X134247714Y-89738214D01*
X134204857Y-89923928D02*
X134233428Y-89909642D01*
X134247714Y-89881071D01*
X134247714Y-89823928D01*
X134233428Y-89795357D01*
X134204857Y-89781071D01*
X134047714Y-89781071D01*
X134090571Y-89509642D02*
X134090571Y-89609642D01*
X134247714Y-89609642D02*
X133947714Y-89609642D01*
X133947714Y-89466785D01*
%TO.C,C303*%
X136570285Y-86721142D02*
X136556000Y-86735428D01*
X136513142Y-86749714D01*
X136484571Y-86749714D01*
X136441714Y-86735428D01*
X136413142Y-86706857D01*
X136398857Y-86678285D01*
X136384571Y-86621142D01*
X136384571Y-86578285D01*
X136398857Y-86521142D01*
X136413142Y-86492571D01*
X136441714Y-86464000D01*
X136484571Y-86449714D01*
X136513142Y-86449714D01*
X136556000Y-86464000D01*
X136570285Y-86478285D01*
X136670285Y-86449714D02*
X136856000Y-86449714D01*
X136756000Y-86564000D01*
X136798857Y-86564000D01*
X136827428Y-86578285D01*
X136841714Y-86592571D01*
X136856000Y-86621142D01*
X136856000Y-86692571D01*
X136841714Y-86721142D01*
X136827428Y-86735428D01*
X136798857Y-86749714D01*
X136713142Y-86749714D01*
X136684571Y-86735428D01*
X136670285Y-86721142D01*
X137041714Y-86449714D02*
X137070285Y-86449714D01*
X137098857Y-86464000D01*
X137113142Y-86478285D01*
X137127428Y-86506857D01*
X137141714Y-86564000D01*
X137141714Y-86635428D01*
X137127428Y-86692571D01*
X137113142Y-86721142D01*
X137098857Y-86735428D01*
X137070285Y-86749714D01*
X137041714Y-86749714D01*
X137013142Y-86735428D01*
X136998857Y-86721142D01*
X136984571Y-86692571D01*
X136970285Y-86635428D01*
X136970285Y-86564000D01*
X136984571Y-86506857D01*
X136998857Y-86478285D01*
X137013142Y-86464000D01*
X137041714Y-86449714D01*
X137241714Y-86449714D02*
X137427428Y-86449714D01*
X137327428Y-86564000D01*
X137370285Y-86564000D01*
X137398857Y-86578285D01*
X137413142Y-86592571D01*
X137427428Y-86621142D01*
X137427428Y-86692571D01*
X137413142Y-86721142D01*
X137398857Y-86735428D01*
X137370285Y-86749714D01*
X137284571Y-86749714D01*
X137256000Y-86735428D01*
X137241714Y-86721142D01*
X136320285Y-86986285D02*
X136334571Y-86972000D01*
X136363142Y-86957714D01*
X136434571Y-86957714D01*
X136463142Y-86972000D01*
X136477428Y-86986285D01*
X136491714Y-87014857D01*
X136491714Y-87043428D01*
X136477428Y-87086285D01*
X136306000Y-87257714D01*
X136491714Y-87257714D01*
X136620285Y-87229142D02*
X136634571Y-87243428D01*
X136620285Y-87257714D01*
X136606000Y-87243428D01*
X136620285Y-87229142D01*
X136620285Y-87257714D01*
X136748857Y-86986285D02*
X136763142Y-86972000D01*
X136791714Y-86957714D01*
X136863142Y-86957714D01*
X136891714Y-86972000D01*
X136906000Y-86986285D01*
X136920285Y-87014857D01*
X136920285Y-87043428D01*
X136906000Y-87086285D01*
X136734571Y-87257714D01*
X136920285Y-87257714D01*
X137048857Y-87057714D02*
X137048857Y-87357714D01*
X137191714Y-87214857D02*
X137206000Y-87243428D01*
X137234571Y-87257714D01*
X137048857Y-87214857D02*
X137063142Y-87243428D01*
X137091714Y-87257714D01*
X137148857Y-87257714D01*
X137177428Y-87243428D01*
X137191714Y-87214857D01*
X137191714Y-87057714D01*
X137463142Y-87100571D02*
X137363142Y-87100571D01*
X137363142Y-87257714D02*
X137363142Y-86957714D01*
X137506000Y-86957714D01*
%TO.C,C304*%
X136824285Y-98405142D02*
X136810000Y-98419428D01*
X136767142Y-98433714D01*
X136738571Y-98433714D01*
X136695714Y-98419428D01*
X136667142Y-98390857D01*
X136652857Y-98362285D01*
X136638571Y-98305142D01*
X136638571Y-98262285D01*
X136652857Y-98205142D01*
X136667142Y-98176571D01*
X136695714Y-98148000D01*
X136738571Y-98133714D01*
X136767142Y-98133714D01*
X136810000Y-98148000D01*
X136824285Y-98162285D01*
X136924285Y-98133714D02*
X137110000Y-98133714D01*
X137010000Y-98248000D01*
X137052857Y-98248000D01*
X137081428Y-98262285D01*
X137095714Y-98276571D01*
X137110000Y-98305142D01*
X137110000Y-98376571D01*
X137095714Y-98405142D01*
X137081428Y-98419428D01*
X137052857Y-98433714D01*
X136967142Y-98433714D01*
X136938571Y-98419428D01*
X136924285Y-98405142D01*
X137295714Y-98133714D02*
X137324285Y-98133714D01*
X137352857Y-98148000D01*
X137367142Y-98162285D01*
X137381428Y-98190857D01*
X137395714Y-98248000D01*
X137395714Y-98319428D01*
X137381428Y-98376571D01*
X137367142Y-98405142D01*
X137352857Y-98419428D01*
X137324285Y-98433714D01*
X137295714Y-98433714D01*
X137267142Y-98419428D01*
X137252857Y-98405142D01*
X137238571Y-98376571D01*
X137224285Y-98319428D01*
X137224285Y-98248000D01*
X137238571Y-98190857D01*
X137252857Y-98162285D01*
X137267142Y-98148000D01*
X137295714Y-98133714D01*
X137652857Y-98233714D02*
X137652857Y-98433714D01*
X137581428Y-98119428D02*
X137510000Y-98333714D01*
X137695714Y-98333714D01*
X136531428Y-98641714D02*
X136560000Y-98641714D01*
X136588571Y-98656000D01*
X136602857Y-98670285D01*
X136617142Y-98698857D01*
X136631428Y-98756000D01*
X136631428Y-98827428D01*
X136617142Y-98884571D01*
X136602857Y-98913142D01*
X136588571Y-98927428D01*
X136560000Y-98941714D01*
X136531428Y-98941714D01*
X136502857Y-98927428D01*
X136488571Y-98913142D01*
X136474285Y-98884571D01*
X136460000Y-98827428D01*
X136460000Y-98756000D01*
X136474285Y-98698857D01*
X136488571Y-98670285D01*
X136502857Y-98656000D01*
X136531428Y-98641714D01*
X136760000Y-98913142D02*
X136774285Y-98927428D01*
X136760000Y-98941714D01*
X136745714Y-98927428D01*
X136760000Y-98913142D01*
X136760000Y-98941714D01*
X137060000Y-98941714D02*
X136888571Y-98941714D01*
X136974285Y-98941714D02*
X136974285Y-98641714D01*
X136945714Y-98684571D01*
X136917142Y-98713142D01*
X136888571Y-98727428D01*
X137417142Y-98741714D02*
X137417142Y-99041714D01*
X137560000Y-98898857D02*
X137574285Y-98927428D01*
X137602857Y-98941714D01*
X137417142Y-98898857D02*
X137431428Y-98927428D01*
X137460000Y-98941714D01*
X137517142Y-98941714D01*
X137545714Y-98927428D01*
X137560000Y-98898857D01*
X137560000Y-98741714D01*
X137831428Y-98784571D02*
X137731428Y-98784571D01*
X137731428Y-98941714D02*
X137731428Y-98641714D01*
X137874285Y-98641714D01*
%TO.C,C305*%
X144698285Y-75545142D02*
X144684000Y-75559428D01*
X144641142Y-75573714D01*
X144612571Y-75573714D01*
X144569714Y-75559428D01*
X144541142Y-75530857D01*
X144526857Y-75502285D01*
X144512571Y-75445142D01*
X144512571Y-75402285D01*
X144526857Y-75345142D01*
X144541142Y-75316571D01*
X144569714Y-75288000D01*
X144612571Y-75273714D01*
X144641142Y-75273714D01*
X144684000Y-75288000D01*
X144698285Y-75302285D01*
X144798285Y-75273714D02*
X144984000Y-75273714D01*
X144884000Y-75388000D01*
X144926857Y-75388000D01*
X144955428Y-75402285D01*
X144969714Y-75416571D01*
X144984000Y-75445142D01*
X144984000Y-75516571D01*
X144969714Y-75545142D01*
X144955428Y-75559428D01*
X144926857Y-75573714D01*
X144841142Y-75573714D01*
X144812571Y-75559428D01*
X144798285Y-75545142D01*
X145169714Y-75273714D02*
X145198285Y-75273714D01*
X145226857Y-75288000D01*
X145241142Y-75302285D01*
X145255428Y-75330857D01*
X145269714Y-75388000D01*
X145269714Y-75459428D01*
X145255428Y-75516571D01*
X145241142Y-75545142D01*
X145226857Y-75559428D01*
X145198285Y-75573714D01*
X145169714Y-75573714D01*
X145141142Y-75559428D01*
X145126857Y-75545142D01*
X145112571Y-75516571D01*
X145098285Y-75459428D01*
X145098285Y-75388000D01*
X145112571Y-75330857D01*
X145126857Y-75302285D01*
X145141142Y-75288000D01*
X145169714Y-75273714D01*
X145541142Y-75273714D02*
X145398285Y-75273714D01*
X145384000Y-75416571D01*
X145398285Y-75402285D01*
X145426857Y-75388000D01*
X145498285Y-75388000D01*
X145526857Y-75402285D01*
X145541142Y-75416571D01*
X145555428Y-75445142D01*
X145555428Y-75516571D01*
X145541142Y-75545142D01*
X145526857Y-75559428D01*
X145498285Y-75573714D01*
X145426857Y-75573714D01*
X145398285Y-75559428D01*
X145384000Y-75545142D01*
X144405428Y-75781714D02*
X144434000Y-75781714D01*
X144462571Y-75796000D01*
X144476857Y-75810285D01*
X144491142Y-75838857D01*
X144505428Y-75896000D01*
X144505428Y-75967428D01*
X144491142Y-76024571D01*
X144476857Y-76053142D01*
X144462571Y-76067428D01*
X144434000Y-76081714D01*
X144405428Y-76081714D01*
X144376857Y-76067428D01*
X144362571Y-76053142D01*
X144348285Y-76024571D01*
X144334000Y-75967428D01*
X144334000Y-75896000D01*
X144348285Y-75838857D01*
X144362571Y-75810285D01*
X144376857Y-75796000D01*
X144405428Y-75781714D01*
X144634000Y-76053142D02*
X144648285Y-76067428D01*
X144634000Y-76081714D01*
X144619714Y-76067428D01*
X144634000Y-76053142D01*
X144634000Y-76081714D01*
X144934000Y-76081714D02*
X144762571Y-76081714D01*
X144848285Y-76081714D02*
X144848285Y-75781714D01*
X144819714Y-75824571D01*
X144791142Y-75853142D01*
X144762571Y-75867428D01*
X145291142Y-75881714D02*
X145291142Y-76181714D01*
X145434000Y-76038857D02*
X145448285Y-76067428D01*
X145476857Y-76081714D01*
X145291142Y-76038857D02*
X145305428Y-76067428D01*
X145334000Y-76081714D01*
X145391142Y-76081714D01*
X145419714Y-76067428D01*
X145434000Y-76038857D01*
X145434000Y-75881714D01*
X145705428Y-75924571D02*
X145605428Y-75924571D01*
X145605428Y-76081714D02*
X145605428Y-75781714D01*
X145748285Y-75781714D01*
%TO.C,R201*%
X122563714Y-90505714D02*
X122420857Y-90605714D01*
X122563714Y-90677142D02*
X122263714Y-90677142D01*
X122263714Y-90562857D01*
X122278000Y-90534285D01*
X122292285Y-90520000D01*
X122320857Y-90505714D01*
X122363714Y-90505714D01*
X122392285Y-90520000D01*
X122406571Y-90534285D01*
X122420857Y-90562857D01*
X122420857Y-90677142D01*
X122292285Y-90391428D02*
X122278000Y-90377142D01*
X122263714Y-90348571D01*
X122263714Y-90277142D01*
X122278000Y-90248571D01*
X122292285Y-90234285D01*
X122320857Y-90220000D01*
X122349428Y-90220000D01*
X122392285Y-90234285D01*
X122563714Y-90405714D01*
X122563714Y-90220000D01*
X122263714Y-90034285D02*
X122263714Y-90005714D01*
X122278000Y-89977142D01*
X122292285Y-89962857D01*
X122320857Y-89948571D01*
X122378000Y-89934285D01*
X122449428Y-89934285D01*
X122506571Y-89948571D01*
X122535142Y-89962857D01*
X122549428Y-89977142D01*
X122563714Y-90005714D01*
X122563714Y-90034285D01*
X122549428Y-90062857D01*
X122535142Y-90077142D01*
X122506571Y-90091428D01*
X122449428Y-90105714D01*
X122378000Y-90105714D01*
X122320857Y-90091428D01*
X122292285Y-90077142D01*
X122278000Y-90062857D01*
X122263714Y-90034285D01*
X122563714Y-89648571D02*
X122563714Y-89820000D01*
X122563714Y-89734285D02*
X122263714Y-89734285D01*
X122306571Y-89762857D01*
X122335142Y-89791428D01*
X122349428Y-89820000D01*
X122871714Y-90477142D02*
X123071714Y-90477142D01*
X122757428Y-90548571D02*
X122971714Y-90620000D01*
X122971714Y-90434285D01*
X123043142Y-90320000D02*
X123057428Y-90305714D01*
X123071714Y-90320000D01*
X123057428Y-90334285D01*
X123043142Y-90320000D01*
X123071714Y-90320000D01*
X122771714Y-90205714D02*
X122771714Y-90005714D01*
X123071714Y-90134285D01*
X123071714Y-89891428D02*
X122771714Y-89891428D01*
X123071714Y-89720000D02*
X122900285Y-89848571D01*
X122771714Y-89720000D02*
X122943142Y-89891428D01*
%TO.C,R202*%
X128405714Y-93299714D02*
X128262857Y-93399714D01*
X128405714Y-93471142D02*
X128105714Y-93471142D01*
X128105714Y-93356857D01*
X128120000Y-93328285D01*
X128134285Y-93314000D01*
X128162857Y-93299714D01*
X128205714Y-93299714D01*
X128234285Y-93314000D01*
X128248571Y-93328285D01*
X128262857Y-93356857D01*
X128262857Y-93471142D01*
X128134285Y-93185428D02*
X128120000Y-93171142D01*
X128105714Y-93142571D01*
X128105714Y-93071142D01*
X128120000Y-93042571D01*
X128134285Y-93028285D01*
X128162857Y-93014000D01*
X128191428Y-93014000D01*
X128234285Y-93028285D01*
X128405714Y-93199714D01*
X128405714Y-93014000D01*
X128105714Y-92828285D02*
X128105714Y-92799714D01*
X128120000Y-92771142D01*
X128134285Y-92756857D01*
X128162857Y-92742571D01*
X128220000Y-92728285D01*
X128291428Y-92728285D01*
X128348571Y-92742571D01*
X128377142Y-92756857D01*
X128391428Y-92771142D01*
X128405714Y-92799714D01*
X128405714Y-92828285D01*
X128391428Y-92856857D01*
X128377142Y-92871142D01*
X128348571Y-92885428D01*
X128291428Y-92899714D01*
X128220000Y-92899714D01*
X128162857Y-92885428D01*
X128134285Y-92871142D01*
X128120000Y-92856857D01*
X128105714Y-92828285D01*
X128134285Y-92614000D02*
X128120000Y-92599714D01*
X128105714Y-92571142D01*
X128105714Y-92499714D01*
X128120000Y-92471142D01*
X128134285Y-92456857D01*
X128162857Y-92442571D01*
X128191428Y-92442571D01*
X128234285Y-92456857D01*
X128405714Y-92628285D01*
X128405714Y-92442571D01*
X128713714Y-93271142D02*
X128913714Y-93271142D01*
X128599428Y-93342571D02*
X128813714Y-93414000D01*
X128813714Y-93228285D01*
X128885142Y-93114000D02*
X128899428Y-93099714D01*
X128913714Y-93114000D01*
X128899428Y-93128285D01*
X128885142Y-93114000D01*
X128913714Y-93114000D01*
X128613714Y-92999714D02*
X128613714Y-92799714D01*
X128913714Y-92928285D01*
X128913714Y-92685428D02*
X128613714Y-92685428D01*
X128913714Y-92514000D02*
X128742285Y-92642571D01*
X128613714Y-92514000D02*
X128785142Y-92685428D01*
%TO.C,R301*%
X141613714Y-91521714D02*
X141470857Y-91621714D01*
X141613714Y-91693142D02*
X141313714Y-91693142D01*
X141313714Y-91578857D01*
X141328000Y-91550285D01*
X141342285Y-91536000D01*
X141370857Y-91521714D01*
X141413714Y-91521714D01*
X141442285Y-91536000D01*
X141456571Y-91550285D01*
X141470857Y-91578857D01*
X141470857Y-91693142D01*
X141313714Y-91421714D02*
X141313714Y-91236000D01*
X141428000Y-91336000D01*
X141428000Y-91293142D01*
X141442285Y-91264571D01*
X141456571Y-91250285D01*
X141485142Y-91236000D01*
X141556571Y-91236000D01*
X141585142Y-91250285D01*
X141599428Y-91264571D01*
X141613714Y-91293142D01*
X141613714Y-91378857D01*
X141599428Y-91407428D01*
X141585142Y-91421714D01*
X141313714Y-91050285D02*
X141313714Y-91021714D01*
X141328000Y-90993142D01*
X141342285Y-90978857D01*
X141370857Y-90964571D01*
X141428000Y-90950285D01*
X141499428Y-90950285D01*
X141556571Y-90964571D01*
X141585142Y-90978857D01*
X141599428Y-90993142D01*
X141613714Y-91021714D01*
X141613714Y-91050285D01*
X141599428Y-91078857D01*
X141585142Y-91093142D01*
X141556571Y-91107428D01*
X141499428Y-91121714D01*
X141428000Y-91121714D01*
X141370857Y-91107428D01*
X141342285Y-91093142D01*
X141328000Y-91078857D01*
X141313714Y-91050285D01*
X141613714Y-90664571D02*
X141613714Y-90836000D01*
X141613714Y-90750285D02*
X141313714Y-90750285D01*
X141356571Y-90778857D01*
X141385142Y-90807428D01*
X141399428Y-90836000D01*
X141921714Y-91493142D02*
X142121714Y-91493142D01*
X141807428Y-91564571D02*
X142021714Y-91636000D01*
X142021714Y-91450285D01*
X142093142Y-91336000D02*
X142107428Y-91321714D01*
X142121714Y-91336000D01*
X142107428Y-91350285D01*
X142093142Y-91336000D01*
X142121714Y-91336000D01*
X141821714Y-91221714D02*
X141821714Y-91021714D01*
X142121714Y-91150285D01*
X142121714Y-90907428D02*
X141821714Y-90907428D01*
X142121714Y-90736000D02*
X141950285Y-90864571D01*
X141821714Y-90736000D02*
X141993142Y-90907428D01*
%TO.C,R302*%
X147455714Y-90505714D02*
X147312857Y-90605714D01*
X147455714Y-90677142D02*
X147155714Y-90677142D01*
X147155714Y-90562857D01*
X147170000Y-90534285D01*
X147184285Y-90520000D01*
X147212857Y-90505714D01*
X147255714Y-90505714D01*
X147284285Y-90520000D01*
X147298571Y-90534285D01*
X147312857Y-90562857D01*
X147312857Y-90677142D01*
X147155714Y-90405714D02*
X147155714Y-90220000D01*
X147270000Y-90320000D01*
X147270000Y-90277142D01*
X147284285Y-90248571D01*
X147298571Y-90234285D01*
X147327142Y-90220000D01*
X147398571Y-90220000D01*
X147427142Y-90234285D01*
X147441428Y-90248571D01*
X147455714Y-90277142D01*
X147455714Y-90362857D01*
X147441428Y-90391428D01*
X147427142Y-90405714D01*
X147155714Y-90034285D02*
X147155714Y-90005714D01*
X147170000Y-89977142D01*
X147184285Y-89962857D01*
X147212857Y-89948571D01*
X147270000Y-89934285D01*
X147341428Y-89934285D01*
X147398571Y-89948571D01*
X147427142Y-89962857D01*
X147441428Y-89977142D01*
X147455714Y-90005714D01*
X147455714Y-90034285D01*
X147441428Y-90062857D01*
X147427142Y-90077142D01*
X147398571Y-90091428D01*
X147341428Y-90105714D01*
X147270000Y-90105714D01*
X147212857Y-90091428D01*
X147184285Y-90077142D01*
X147170000Y-90062857D01*
X147155714Y-90034285D01*
X147184285Y-89820000D02*
X147170000Y-89805714D01*
X147155714Y-89777142D01*
X147155714Y-89705714D01*
X147170000Y-89677142D01*
X147184285Y-89662857D01*
X147212857Y-89648571D01*
X147241428Y-89648571D01*
X147284285Y-89662857D01*
X147455714Y-89834285D01*
X147455714Y-89648571D01*
X147255714Y-93017142D02*
X147455714Y-93017142D01*
X147141428Y-93088571D02*
X147355714Y-93160000D01*
X147355714Y-92974285D01*
X147427142Y-92860000D02*
X147441428Y-92845714D01*
X147455714Y-92860000D01*
X147441428Y-92874285D01*
X147427142Y-92860000D01*
X147455714Y-92860000D01*
X147155714Y-92745714D02*
X147155714Y-92545714D01*
X147455714Y-92674285D01*
X147455714Y-92431428D02*
X147155714Y-92431428D01*
X147455714Y-92260000D02*
X147284285Y-92388571D01*
X147155714Y-92260000D02*
X147327142Y-92431428D01*
%TO.C,REG201*%
X117234571Y-84209714D02*
X117134571Y-84066857D01*
X117063142Y-84209714D02*
X117063142Y-83909714D01*
X117177428Y-83909714D01*
X117206000Y-83924000D01*
X117220285Y-83938285D01*
X117234571Y-83966857D01*
X117234571Y-84009714D01*
X117220285Y-84038285D01*
X117206000Y-84052571D01*
X117177428Y-84066857D01*
X117063142Y-84066857D01*
X117363142Y-84052571D02*
X117463142Y-84052571D01*
X117506000Y-84209714D02*
X117363142Y-84209714D01*
X117363142Y-83909714D01*
X117506000Y-83909714D01*
X117791714Y-83924000D02*
X117763142Y-83909714D01*
X117720285Y-83909714D01*
X117677428Y-83924000D01*
X117648857Y-83952571D01*
X117634571Y-83981142D01*
X117620285Y-84038285D01*
X117620285Y-84081142D01*
X117634571Y-84138285D01*
X117648857Y-84166857D01*
X117677428Y-84195428D01*
X117720285Y-84209714D01*
X117748857Y-84209714D01*
X117791714Y-84195428D01*
X117806000Y-84181142D01*
X117806000Y-84081142D01*
X117748857Y-84081142D01*
X117920285Y-83938285D02*
X117934571Y-83924000D01*
X117963142Y-83909714D01*
X118034571Y-83909714D01*
X118063142Y-83924000D01*
X118077428Y-83938285D01*
X118091714Y-83966857D01*
X118091714Y-83995428D01*
X118077428Y-84038285D01*
X117906000Y-84209714D01*
X118091714Y-84209714D01*
X118277428Y-83909714D02*
X118306000Y-83909714D01*
X118334571Y-83924000D01*
X118348857Y-83938285D01*
X118363142Y-83966857D01*
X118377428Y-84024000D01*
X118377428Y-84095428D01*
X118363142Y-84152571D01*
X118348857Y-84181142D01*
X118334571Y-84195428D01*
X118306000Y-84209714D01*
X118277428Y-84209714D01*
X118248857Y-84195428D01*
X118234571Y-84181142D01*
X118220285Y-84152571D01*
X118206000Y-84095428D01*
X118206000Y-84024000D01*
X118220285Y-83966857D01*
X118234571Y-83938285D01*
X118248857Y-83924000D01*
X118277428Y-83909714D01*
X118663142Y-84209714D02*
X118491714Y-84209714D01*
X118577428Y-84209714D02*
X118577428Y-83909714D01*
X118548857Y-83952571D01*
X118520285Y-83981142D01*
X118491714Y-83995428D01*
X116241714Y-84971714D02*
X116098857Y-84971714D01*
X116098857Y-84671714D01*
X116341714Y-84971714D02*
X116341714Y-84671714D01*
X116413142Y-84671714D01*
X116456000Y-84686000D01*
X116484571Y-84714571D01*
X116498857Y-84743142D01*
X116513142Y-84800285D01*
X116513142Y-84843142D01*
X116498857Y-84900285D01*
X116484571Y-84928857D01*
X116456000Y-84957428D01*
X116413142Y-84971714D01*
X116341714Y-84971714D01*
X116627428Y-84700285D02*
X116641714Y-84686000D01*
X116670285Y-84671714D01*
X116741714Y-84671714D01*
X116770285Y-84686000D01*
X116784571Y-84700285D01*
X116798857Y-84728857D01*
X116798857Y-84757428D01*
X116784571Y-84800285D01*
X116613142Y-84971714D01*
X116798857Y-84971714D01*
X116941714Y-84971714D02*
X116998857Y-84971714D01*
X117027428Y-84957428D01*
X117041714Y-84943142D01*
X117070285Y-84900285D01*
X117084571Y-84843142D01*
X117084571Y-84728857D01*
X117070285Y-84700285D01*
X117056000Y-84686000D01*
X117027428Y-84671714D01*
X116970285Y-84671714D01*
X116941714Y-84686000D01*
X116927428Y-84700285D01*
X116913142Y-84728857D01*
X116913142Y-84800285D01*
X116927428Y-84828857D01*
X116941714Y-84843142D01*
X116970285Y-84857428D01*
X117027428Y-84857428D01*
X117056000Y-84843142D01*
X117070285Y-84828857D01*
X117084571Y-84800285D01*
X117256000Y-84800285D02*
X117227428Y-84786000D01*
X117213142Y-84771714D01*
X117198857Y-84743142D01*
X117198857Y-84728857D01*
X117213142Y-84700285D01*
X117227428Y-84686000D01*
X117256000Y-84671714D01*
X117313142Y-84671714D01*
X117341714Y-84686000D01*
X117356000Y-84700285D01*
X117370285Y-84728857D01*
X117370285Y-84743142D01*
X117356000Y-84771714D01*
X117341714Y-84786000D01*
X117313142Y-84800285D01*
X117256000Y-84800285D01*
X117227428Y-84814571D01*
X117213142Y-84828857D01*
X117198857Y-84857428D01*
X117198857Y-84914571D01*
X117213142Y-84943142D01*
X117227428Y-84957428D01*
X117256000Y-84971714D01*
X117313142Y-84971714D01*
X117341714Y-84957428D01*
X117356000Y-84943142D01*
X117370285Y-84914571D01*
X117370285Y-84857428D01*
X117356000Y-84828857D01*
X117341714Y-84814571D01*
X117313142Y-84800285D01*
X117656000Y-84971714D02*
X117484571Y-84971714D01*
X117570285Y-84971714D02*
X117570285Y-84671714D01*
X117541714Y-84714571D01*
X117513142Y-84743142D01*
X117484571Y-84757428D01*
X117770285Y-84886000D02*
X117913142Y-84886000D01*
X117741714Y-84971714D02*
X117841714Y-84671714D01*
X117941714Y-84971714D01*
X118141714Y-84814571D02*
X118184571Y-84828857D01*
X118198857Y-84843142D01*
X118213142Y-84871714D01*
X118213142Y-84914571D01*
X118198857Y-84943142D01*
X118184571Y-84957428D01*
X118156000Y-84971714D01*
X118041714Y-84971714D01*
X118041714Y-84671714D01*
X118141714Y-84671714D01*
X118170285Y-84686000D01*
X118184571Y-84700285D01*
X118198857Y-84728857D01*
X118198857Y-84757428D01*
X118184571Y-84786000D01*
X118170285Y-84800285D01*
X118141714Y-84814571D01*
X118041714Y-84814571D01*
X118341714Y-84671714D02*
X118341714Y-84914571D01*
X118356000Y-84943142D01*
X118370285Y-84957428D01*
X118398857Y-84971714D01*
X118456000Y-84971714D01*
X118484571Y-84957428D01*
X118498857Y-84943142D01*
X118513142Y-84914571D01*
X118513142Y-84671714D01*
X118798857Y-84671714D02*
X118656000Y-84671714D01*
X118641714Y-84814571D01*
X118656000Y-84800285D01*
X118684571Y-84786000D01*
X118756000Y-84786000D01*
X118784571Y-84800285D01*
X118798857Y-84814571D01*
X118813142Y-84843142D01*
X118813142Y-84914571D01*
X118798857Y-84943142D01*
X118784571Y-84957428D01*
X118756000Y-84971714D01*
X118684571Y-84971714D01*
X118656000Y-84957428D01*
X118641714Y-84943142D01*
X118998857Y-84671714D02*
X119027428Y-84671714D01*
X119056000Y-84686000D01*
X119070285Y-84700285D01*
X119084571Y-84728857D01*
X119098857Y-84786000D01*
X119098857Y-84857428D01*
X119084571Y-84914571D01*
X119070285Y-84943142D01*
X119056000Y-84957428D01*
X119027428Y-84971714D01*
X118998857Y-84971714D01*
X118970285Y-84957428D01*
X118956000Y-84943142D01*
X118941714Y-84914571D01*
X118927428Y-84857428D01*
X118927428Y-84786000D01*
X118941714Y-84728857D01*
X118956000Y-84700285D01*
X118970285Y-84686000D01*
X118998857Y-84671714D01*
X119184571Y-84671714D02*
X119356000Y-84671714D01*
X119270285Y-84971714D02*
X119270285Y-84671714D01*
X119627428Y-84971714D02*
X119527428Y-84828857D01*
X119456000Y-84971714D02*
X119456000Y-84671714D01*
X119570285Y-84671714D01*
X119598857Y-84686000D01*
X119613142Y-84700285D01*
X119627428Y-84728857D01*
X119627428Y-84771714D01*
X119613142Y-84800285D01*
X119598857Y-84814571D01*
X119570285Y-84828857D01*
X119456000Y-84828857D01*
%TO.C,REG301*%
X133998571Y-78113714D02*
X133898571Y-77970857D01*
X133827142Y-78113714D02*
X133827142Y-77813714D01*
X133941428Y-77813714D01*
X133970000Y-77828000D01*
X133984285Y-77842285D01*
X133998571Y-77870857D01*
X133998571Y-77913714D01*
X133984285Y-77942285D01*
X133970000Y-77956571D01*
X133941428Y-77970857D01*
X133827142Y-77970857D01*
X134127142Y-77956571D02*
X134227142Y-77956571D01*
X134270000Y-78113714D02*
X134127142Y-78113714D01*
X134127142Y-77813714D01*
X134270000Y-77813714D01*
X134555714Y-77828000D02*
X134527142Y-77813714D01*
X134484285Y-77813714D01*
X134441428Y-77828000D01*
X134412857Y-77856571D01*
X134398571Y-77885142D01*
X134384285Y-77942285D01*
X134384285Y-77985142D01*
X134398571Y-78042285D01*
X134412857Y-78070857D01*
X134441428Y-78099428D01*
X134484285Y-78113714D01*
X134512857Y-78113714D01*
X134555714Y-78099428D01*
X134570000Y-78085142D01*
X134570000Y-77985142D01*
X134512857Y-77985142D01*
X134670000Y-77813714D02*
X134855714Y-77813714D01*
X134755714Y-77928000D01*
X134798571Y-77928000D01*
X134827142Y-77942285D01*
X134841428Y-77956571D01*
X134855714Y-77985142D01*
X134855714Y-78056571D01*
X134841428Y-78085142D01*
X134827142Y-78099428D01*
X134798571Y-78113714D01*
X134712857Y-78113714D01*
X134684285Y-78099428D01*
X134670000Y-78085142D01*
X135041428Y-77813714D02*
X135070000Y-77813714D01*
X135098571Y-77828000D01*
X135112857Y-77842285D01*
X135127142Y-77870857D01*
X135141428Y-77928000D01*
X135141428Y-77999428D01*
X135127142Y-78056571D01*
X135112857Y-78085142D01*
X135098571Y-78099428D01*
X135070000Y-78113714D01*
X135041428Y-78113714D01*
X135012857Y-78099428D01*
X134998571Y-78085142D01*
X134984285Y-78056571D01*
X134970000Y-77999428D01*
X134970000Y-77928000D01*
X134984285Y-77870857D01*
X134998571Y-77842285D01*
X135012857Y-77828000D01*
X135041428Y-77813714D01*
X135427142Y-78113714D02*
X135255714Y-78113714D01*
X135341428Y-78113714D02*
X135341428Y-77813714D01*
X135312857Y-77856571D01*
X135284285Y-77885142D01*
X135255714Y-77899428D01*
X132243714Y-78875714D02*
X132100857Y-78875714D01*
X132100857Y-78575714D01*
X132343714Y-78875714D02*
X132343714Y-78575714D01*
X132415142Y-78575714D01*
X132458000Y-78590000D01*
X132486571Y-78618571D01*
X132500857Y-78647142D01*
X132515142Y-78704285D01*
X132515142Y-78747142D01*
X132500857Y-78804285D01*
X132486571Y-78832857D01*
X132458000Y-78861428D01*
X132415142Y-78875714D01*
X132343714Y-78875714D01*
X132629428Y-78604285D02*
X132643714Y-78590000D01*
X132672285Y-78575714D01*
X132743714Y-78575714D01*
X132772285Y-78590000D01*
X132786571Y-78604285D01*
X132800857Y-78632857D01*
X132800857Y-78661428D01*
X132786571Y-78704285D01*
X132615142Y-78875714D01*
X132800857Y-78875714D01*
X132943714Y-78875714D02*
X133000857Y-78875714D01*
X133029428Y-78861428D01*
X133043714Y-78847142D01*
X133072285Y-78804285D01*
X133086571Y-78747142D01*
X133086571Y-78632857D01*
X133072285Y-78604285D01*
X133058000Y-78590000D01*
X133029428Y-78575714D01*
X132972285Y-78575714D01*
X132943714Y-78590000D01*
X132929428Y-78604285D01*
X132915142Y-78632857D01*
X132915142Y-78704285D01*
X132929428Y-78732857D01*
X132943714Y-78747142D01*
X132972285Y-78761428D01*
X133029428Y-78761428D01*
X133058000Y-78747142D01*
X133072285Y-78732857D01*
X133086571Y-78704285D01*
X133258000Y-78704285D02*
X133229428Y-78690000D01*
X133215142Y-78675714D01*
X133200857Y-78647142D01*
X133200857Y-78632857D01*
X133215142Y-78604285D01*
X133229428Y-78590000D01*
X133258000Y-78575714D01*
X133315142Y-78575714D01*
X133343714Y-78590000D01*
X133358000Y-78604285D01*
X133372285Y-78632857D01*
X133372285Y-78647142D01*
X133358000Y-78675714D01*
X133343714Y-78690000D01*
X133315142Y-78704285D01*
X133258000Y-78704285D01*
X133229428Y-78718571D01*
X133215142Y-78732857D01*
X133200857Y-78761428D01*
X133200857Y-78818571D01*
X133215142Y-78847142D01*
X133229428Y-78861428D01*
X133258000Y-78875714D01*
X133315142Y-78875714D01*
X133343714Y-78861428D01*
X133358000Y-78847142D01*
X133372285Y-78818571D01*
X133372285Y-78761428D01*
X133358000Y-78732857D01*
X133343714Y-78718571D01*
X133315142Y-78704285D01*
X133658000Y-78875714D02*
X133486571Y-78875714D01*
X133572285Y-78875714D02*
X133572285Y-78575714D01*
X133543714Y-78618571D01*
X133515142Y-78647142D01*
X133486571Y-78661428D01*
X133772285Y-78790000D02*
X133915142Y-78790000D01*
X133743714Y-78875714D02*
X133843714Y-78575714D01*
X133943714Y-78875714D01*
X134143714Y-78718571D02*
X134186571Y-78732857D01*
X134200857Y-78747142D01*
X134215142Y-78775714D01*
X134215142Y-78818571D01*
X134200857Y-78847142D01*
X134186571Y-78861428D01*
X134158000Y-78875714D01*
X134043714Y-78875714D01*
X134043714Y-78575714D01*
X134143714Y-78575714D01*
X134172285Y-78590000D01*
X134186571Y-78604285D01*
X134200857Y-78632857D01*
X134200857Y-78661428D01*
X134186571Y-78690000D01*
X134172285Y-78704285D01*
X134143714Y-78718571D01*
X134043714Y-78718571D01*
X134343714Y-78575714D02*
X134343714Y-78818571D01*
X134358000Y-78847142D01*
X134372285Y-78861428D01*
X134400857Y-78875714D01*
X134458000Y-78875714D01*
X134486571Y-78861428D01*
X134500857Y-78847142D01*
X134515142Y-78818571D01*
X134515142Y-78575714D01*
X134800857Y-78575714D02*
X134658000Y-78575714D01*
X134643714Y-78718571D01*
X134658000Y-78704285D01*
X134686571Y-78690000D01*
X134758000Y-78690000D01*
X134786571Y-78704285D01*
X134800857Y-78718571D01*
X134815142Y-78747142D01*
X134815142Y-78818571D01*
X134800857Y-78847142D01*
X134786571Y-78861428D01*
X134758000Y-78875714D01*
X134686571Y-78875714D01*
X134658000Y-78861428D01*
X134643714Y-78847142D01*
X135000857Y-78575714D02*
X135029428Y-78575714D01*
X135058000Y-78590000D01*
X135072285Y-78604285D01*
X135086571Y-78632857D01*
X135100857Y-78690000D01*
X135100857Y-78761428D01*
X135086571Y-78818571D01*
X135072285Y-78847142D01*
X135058000Y-78861428D01*
X135029428Y-78875714D01*
X135000857Y-78875714D01*
X134972285Y-78861428D01*
X134958000Y-78847142D01*
X134943714Y-78818571D01*
X134929428Y-78761428D01*
X134929428Y-78690000D01*
X134943714Y-78632857D01*
X134958000Y-78604285D01*
X134972285Y-78590000D01*
X135000857Y-78575714D01*
X135186571Y-78575714D02*
X135358000Y-78575714D01*
X135272285Y-78875714D02*
X135272285Y-78575714D01*
X135629428Y-78875714D02*
X135529428Y-78732857D01*
X135458000Y-78875714D02*
X135458000Y-78575714D01*
X135572285Y-78575714D01*
X135600857Y-78590000D01*
X135615142Y-78604285D01*
X135629428Y-78632857D01*
X135629428Y-78675714D01*
X135615142Y-78704285D01*
X135600857Y-78718571D01*
X135572285Y-78732857D01*
X135458000Y-78732857D01*
%TO.C,SIG_ISO301*%
X142288571Y-83433428D02*
X142331428Y-83447714D01*
X142402857Y-83447714D01*
X142431428Y-83433428D01*
X142445714Y-83419142D01*
X142460000Y-83390571D01*
X142460000Y-83362000D01*
X142445714Y-83333428D01*
X142431428Y-83319142D01*
X142402857Y-83304857D01*
X142345714Y-83290571D01*
X142317142Y-83276285D01*
X142302857Y-83262000D01*
X142288571Y-83233428D01*
X142288571Y-83204857D01*
X142302857Y-83176285D01*
X142317142Y-83162000D01*
X142345714Y-83147714D01*
X142417142Y-83147714D01*
X142460000Y-83162000D01*
X142588571Y-83447714D02*
X142588571Y-83147714D01*
X142888571Y-83162000D02*
X142860000Y-83147714D01*
X142817142Y-83147714D01*
X142774285Y-83162000D01*
X142745714Y-83190571D01*
X142731428Y-83219142D01*
X142717142Y-83276285D01*
X142717142Y-83319142D01*
X142731428Y-83376285D01*
X142745714Y-83404857D01*
X142774285Y-83433428D01*
X142817142Y-83447714D01*
X142845714Y-83447714D01*
X142888571Y-83433428D01*
X142902857Y-83419142D01*
X142902857Y-83319142D01*
X142845714Y-83319142D01*
X142960000Y-83476285D02*
X143188571Y-83476285D01*
X143260000Y-83447714D02*
X143260000Y-83147714D01*
X143388571Y-83433428D02*
X143431428Y-83447714D01*
X143502857Y-83447714D01*
X143531428Y-83433428D01*
X143545714Y-83419142D01*
X143560000Y-83390571D01*
X143560000Y-83362000D01*
X143545714Y-83333428D01*
X143531428Y-83319142D01*
X143502857Y-83304857D01*
X143445714Y-83290571D01*
X143417142Y-83276285D01*
X143402857Y-83262000D01*
X143388571Y-83233428D01*
X143388571Y-83204857D01*
X143402857Y-83176285D01*
X143417142Y-83162000D01*
X143445714Y-83147714D01*
X143517142Y-83147714D01*
X143560000Y-83162000D01*
X143745714Y-83147714D02*
X143802857Y-83147714D01*
X143831428Y-83162000D01*
X143860000Y-83190571D01*
X143874285Y-83247714D01*
X143874285Y-83347714D01*
X143860000Y-83404857D01*
X143831428Y-83433428D01*
X143802857Y-83447714D01*
X143745714Y-83447714D01*
X143717142Y-83433428D01*
X143688571Y-83404857D01*
X143674285Y-83347714D01*
X143674285Y-83247714D01*
X143688571Y-83190571D01*
X143717142Y-83162000D01*
X143745714Y-83147714D01*
X143974285Y-83147714D02*
X144160000Y-83147714D01*
X144060000Y-83262000D01*
X144102857Y-83262000D01*
X144131428Y-83276285D01*
X144145714Y-83290571D01*
X144160000Y-83319142D01*
X144160000Y-83390571D01*
X144145714Y-83419142D01*
X144131428Y-83433428D01*
X144102857Y-83447714D01*
X144017142Y-83447714D01*
X143988571Y-83433428D01*
X143974285Y-83419142D01*
X144345714Y-83147714D02*
X144374285Y-83147714D01*
X144402857Y-83162000D01*
X144417142Y-83176285D01*
X144431428Y-83204857D01*
X144445714Y-83262000D01*
X144445714Y-83333428D01*
X144431428Y-83390571D01*
X144417142Y-83419142D01*
X144402857Y-83433428D01*
X144374285Y-83447714D01*
X144345714Y-83447714D01*
X144317142Y-83433428D01*
X144302857Y-83419142D01*
X144288571Y-83390571D01*
X144274285Y-83333428D01*
X144274285Y-83262000D01*
X144288571Y-83204857D01*
X144302857Y-83176285D01*
X144317142Y-83162000D01*
X144345714Y-83147714D01*
X144731428Y-83447714D02*
X144560000Y-83447714D01*
X144645714Y-83447714D02*
X144645714Y-83147714D01*
X144617142Y-83190571D01*
X144588571Y-83219142D01*
X144560000Y-83233428D01*
X142781428Y-84449428D02*
X142824285Y-84463714D01*
X142895714Y-84463714D01*
X142924285Y-84449428D01*
X142938571Y-84435142D01*
X142952857Y-84406571D01*
X142952857Y-84378000D01*
X142938571Y-84349428D01*
X142924285Y-84335142D01*
X142895714Y-84320857D01*
X142838571Y-84306571D01*
X142810000Y-84292285D01*
X142795714Y-84278000D01*
X142781428Y-84249428D01*
X142781428Y-84220857D01*
X142795714Y-84192285D01*
X142810000Y-84178000D01*
X142838571Y-84163714D01*
X142910000Y-84163714D01*
X142952857Y-84178000D01*
X143081428Y-84463714D02*
X143081428Y-84163714D01*
X143267142Y-84292285D02*
X143238571Y-84278000D01*
X143224285Y-84263714D01*
X143210000Y-84235142D01*
X143210000Y-84220857D01*
X143224285Y-84192285D01*
X143238571Y-84178000D01*
X143267142Y-84163714D01*
X143324285Y-84163714D01*
X143352857Y-84178000D01*
X143367142Y-84192285D01*
X143381428Y-84220857D01*
X143381428Y-84235142D01*
X143367142Y-84263714D01*
X143352857Y-84278000D01*
X143324285Y-84292285D01*
X143267142Y-84292285D01*
X143238571Y-84306571D01*
X143224285Y-84320857D01*
X143210000Y-84349428D01*
X143210000Y-84406571D01*
X143224285Y-84435142D01*
X143238571Y-84449428D01*
X143267142Y-84463714D01*
X143324285Y-84463714D01*
X143352857Y-84449428D01*
X143367142Y-84435142D01*
X143381428Y-84406571D01*
X143381428Y-84349428D01*
X143367142Y-84320857D01*
X143352857Y-84306571D01*
X143324285Y-84292285D01*
X143638571Y-84163714D02*
X143581428Y-84163714D01*
X143552857Y-84178000D01*
X143538571Y-84192285D01*
X143510000Y-84235142D01*
X143495714Y-84292285D01*
X143495714Y-84406571D01*
X143510000Y-84435142D01*
X143524285Y-84449428D01*
X143552857Y-84463714D01*
X143610000Y-84463714D01*
X143638571Y-84449428D01*
X143652857Y-84435142D01*
X143667142Y-84406571D01*
X143667142Y-84335142D01*
X143652857Y-84306571D01*
X143638571Y-84292285D01*
X143610000Y-84278000D01*
X143552857Y-84278000D01*
X143524285Y-84292285D01*
X143510000Y-84306571D01*
X143495714Y-84335142D01*
X143852857Y-84163714D02*
X143881428Y-84163714D01*
X143910000Y-84178000D01*
X143924285Y-84192285D01*
X143938571Y-84220857D01*
X143952857Y-84278000D01*
X143952857Y-84349428D01*
X143938571Y-84406571D01*
X143924285Y-84435142D01*
X143910000Y-84449428D01*
X143881428Y-84463714D01*
X143852857Y-84463714D01*
X143824285Y-84449428D01*
X143810000Y-84435142D01*
X143795714Y-84406571D01*
X143781428Y-84349428D01*
X143781428Y-84278000D01*
X143795714Y-84220857D01*
X143810000Y-84192285D01*
X143824285Y-84178000D01*
X143852857Y-84163714D01*
X144138571Y-84163714D02*
X144167142Y-84163714D01*
X144195714Y-84178000D01*
X144210000Y-84192285D01*
X144224285Y-84220857D01*
X144238571Y-84278000D01*
X144238571Y-84349428D01*
X144224285Y-84406571D01*
X144210000Y-84435142D01*
X144195714Y-84449428D01*
X144167142Y-84463714D01*
X144138571Y-84463714D01*
X144110000Y-84449428D01*
X144095714Y-84435142D01*
X144081428Y-84406571D01*
X144067142Y-84349428D01*
X144067142Y-84278000D01*
X144081428Y-84220857D01*
X144095714Y-84192285D01*
X144110000Y-84178000D01*
X144138571Y-84163714D01*
%TO.C,SIG_ISO201*%
X122984571Y-83433428D02*
X123027428Y-83447714D01*
X123098857Y-83447714D01*
X123127428Y-83433428D01*
X123141714Y-83419142D01*
X123156000Y-83390571D01*
X123156000Y-83362000D01*
X123141714Y-83333428D01*
X123127428Y-83319142D01*
X123098857Y-83304857D01*
X123041714Y-83290571D01*
X123013142Y-83276285D01*
X122998857Y-83262000D01*
X122984571Y-83233428D01*
X122984571Y-83204857D01*
X122998857Y-83176285D01*
X123013142Y-83162000D01*
X123041714Y-83147714D01*
X123113142Y-83147714D01*
X123156000Y-83162000D01*
X123284571Y-83447714D02*
X123284571Y-83147714D01*
X123584571Y-83162000D02*
X123556000Y-83147714D01*
X123513142Y-83147714D01*
X123470285Y-83162000D01*
X123441714Y-83190571D01*
X123427428Y-83219142D01*
X123413142Y-83276285D01*
X123413142Y-83319142D01*
X123427428Y-83376285D01*
X123441714Y-83404857D01*
X123470285Y-83433428D01*
X123513142Y-83447714D01*
X123541714Y-83447714D01*
X123584571Y-83433428D01*
X123598857Y-83419142D01*
X123598857Y-83319142D01*
X123541714Y-83319142D01*
X123656000Y-83476285D02*
X123884571Y-83476285D01*
X123956000Y-83447714D02*
X123956000Y-83147714D01*
X124084571Y-83433428D02*
X124127428Y-83447714D01*
X124198857Y-83447714D01*
X124227428Y-83433428D01*
X124241714Y-83419142D01*
X124256000Y-83390571D01*
X124256000Y-83362000D01*
X124241714Y-83333428D01*
X124227428Y-83319142D01*
X124198857Y-83304857D01*
X124141714Y-83290571D01*
X124113142Y-83276285D01*
X124098857Y-83262000D01*
X124084571Y-83233428D01*
X124084571Y-83204857D01*
X124098857Y-83176285D01*
X124113142Y-83162000D01*
X124141714Y-83147714D01*
X124213142Y-83147714D01*
X124256000Y-83162000D01*
X124441714Y-83147714D02*
X124498857Y-83147714D01*
X124527428Y-83162000D01*
X124556000Y-83190571D01*
X124570285Y-83247714D01*
X124570285Y-83347714D01*
X124556000Y-83404857D01*
X124527428Y-83433428D01*
X124498857Y-83447714D01*
X124441714Y-83447714D01*
X124413142Y-83433428D01*
X124384571Y-83404857D01*
X124370285Y-83347714D01*
X124370285Y-83247714D01*
X124384571Y-83190571D01*
X124413142Y-83162000D01*
X124441714Y-83147714D01*
X124684571Y-83176285D02*
X124698857Y-83162000D01*
X124727428Y-83147714D01*
X124798857Y-83147714D01*
X124827428Y-83162000D01*
X124841714Y-83176285D01*
X124856000Y-83204857D01*
X124856000Y-83233428D01*
X124841714Y-83276285D01*
X124670285Y-83447714D01*
X124856000Y-83447714D01*
X125041714Y-83147714D02*
X125070285Y-83147714D01*
X125098857Y-83162000D01*
X125113142Y-83176285D01*
X125127428Y-83204857D01*
X125141714Y-83262000D01*
X125141714Y-83333428D01*
X125127428Y-83390571D01*
X125113142Y-83419142D01*
X125098857Y-83433428D01*
X125070285Y-83447714D01*
X125041714Y-83447714D01*
X125013142Y-83433428D01*
X124998857Y-83419142D01*
X124984571Y-83390571D01*
X124970285Y-83333428D01*
X124970285Y-83262000D01*
X124984571Y-83204857D01*
X124998857Y-83176285D01*
X125013142Y-83162000D01*
X125041714Y-83147714D01*
X125427428Y-83447714D02*
X125256000Y-83447714D01*
X125341714Y-83447714D02*
X125341714Y-83147714D01*
X125313142Y-83190571D01*
X125284571Y-83219142D01*
X125256000Y-83233428D01*
X123985428Y-84449428D02*
X124028285Y-84463714D01*
X124099714Y-84463714D01*
X124128285Y-84449428D01*
X124142571Y-84435142D01*
X124156857Y-84406571D01*
X124156857Y-84378000D01*
X124142571Y-84349428D01*
X124128285Y-84335142D01*
X124099714Y-84320857D01*
X124042571Y-84306571D01*
X124014000Y-84292285D01*
X123999714Y-84278000D01*
X123985428Y-84249428D01*
X123985428Y-84220857D01*
X123999714Y-84192285D01*
X124014000Y-84178000D01*
X124042571Y-84163714D01*
X124114000Y-84163714D01*
X124156857Y-84178000D01*
X124285428Y-84463714D02*
X124285428Y-84163714D01*
X124471142Y-84292285D02*
X124442571Y-84278000D01*
X124428285Y-84263714D01*
X124414000Y-84235142D01*
X124414000Y-84220857D01*
X124428285Y-84192285D01*
X124442571Y-84178000D01*
X124471142Y-84163714D01*
X124528285Y-84163714D01*
X124556857Y-84178000D01*
X124571142Y-84192285D01*
X124585428Y-84220857D01*
X124585428Y-84235142D01*
X124571142Y-84263714D01*
X124556857Y-84278000D01*
X124528285Y-84292285D01*
X124471142Y-84292285D01*
X124442571Y-84306571D01*
X124428285Y-84320857D01*
X124414000Y-84349428D01*
X124414000Y-84406571D01*
X124428285Y-84435142D01*
X124442571Y-84449428D01*
X124471142Y-84463714D01*
X124528285Y-84463714D01*
X124556857Y-84449428D01*
X124571142Y-84435142D01*
X124585428Y-84406571D01*
X124585428Y-84349428D01*
X124571142Y-84320857D01*
X124556857Y-84306571D01*
X124528285Y-84292285D01*
X124842571Y-84163714D02*
X124785428Y-84163714D01*
X124756857Y-84178000D01*
X124742571Y-84192285D01*
X124714000Y-84235142D01*
X124699714Y-84292285D01*
X124699714Y-84406571D01*
X124714000Y-84435142D01*
X124728285Y-84449428D01*
X124756857Y-84463714D01*
X124814000Y-84463714D01*
X124842571Y-84449428D01*
X124856857Y-84435142D01*
X124871142Y-84406571D01*
X124871142Y-84335142D01*
X124856857Y-84306571D01*
X124842571Y-84292285D01*
X124814000Y-84278000D01*
X124756857Y-84278000D01*
X124728285Y-84292285D01*
X124714000Y-84306571D01*
X124699714Y-84335142D01*
X125056857Y-84163714D02*
X125085428Y-84163714D01*
X125114000Y-84178000D01*
X125128285Y-84192285D01*
X125142571Y-84220857D01*
X125156857Y-84278000D01*
X125156857Y-84349428D01*
X125142571Y-84406571D01*
X125128285Y-84435142D01*
X125114000Y-84449428D01*
X125085428Y-84463714D01*
X125056857Y-84463714D01*
X125028285Y-84449428D01*
X125014000Y-84435142D01*
X124999714Y-84406571D01*
X124985428Y-84349428D01*
X124985428Y-84278000D01*
X124999714Y-84220857D01*
X125014000Y-84192285D01*
X125028285Y-84178000D01*
X125056857Y-84163714D01*
X125342571Y-84163714D02*
X125371142Y-84163714D01*
X125399714Y-84178000D01*
X125414000Y-84192285D01*
X125428285Y-84220857D01*
X125442571Y-84278000D01*
X125442571Y-84349428D01*
X125428285Y-84406571D01*
X125414000Y-84435142D01*
X125399714Y-84449428D01*
X125371142Y-84463714D01*
X125342571Y-84463714D01*
X125314000Y-84449428D01*
X125299714Y-84435142D01*
X125285428Y-84406571D01*
X125271142Y-84349428D01*
X125271142Y-84278000D01*
X125285428Y-84220857D01*
X125299714Y-84192285D01*
X125314000Y-84178000D01*
X125342571Y-84163714D01*
%TD*%
M02*
