%TF.GenerationSoftware,KiCad,Pcbnew,(6.0.0-0)*%
%TF.CreationDate,2022-08-16T11:14:51-07:00*%
%TF.ProjectId,tentacle-raspi,74656e74-6163-46c6-952d-72617370692e,1.0*%
%TF.SameCoordinates,Original*%
%TF.FileFunction,Legend,Top*%
%TF.FilePolarity,Positive*%
%FSLAX46Y46*%
G04 Gerber Fmt 4.6, Leading zero omitted, Abs format (unit mm)*
G04 Created by KiCad (PCBNEW (6.0.0-0)) date 2022-08-16 11:14:51*
%MOMM*%
%LPD*%
G01*
G04 APERTURE LIST*
%ADD10C,0.080000*%
%ADD11C,0.150000*%
%ADD12C,0.200000*%
%ADD13C,0.050000*%
%ADD14C,0.090000*%
%ADD15C,0.120000*%
%ADD16C,4.000000*%
%ADD17R,1.524000X1.524000*%
%ADD18C,1.524000*%
%ADD19C,3.500000*%
%ADD20R,1.800000X1.800000*%
%ADD21C,1.800000*%
G04 APERTURE END LIST*
D10*
X135985714Y-89771428D02*
X135985714Y-89171428D01*
X136242857Y-89742857D02*
X136328571Y-89771428D01*
X136471428Y-89771428D01*
X136528571Y-89742857D01*
X136557142Y-89714285D01*
X136585714Y-89657142D01*
X136585714Y-89600000D01*
X136557142Y-89542857D01*
X136528571Y-89514285D01*
X136471428Y-89485714D01*
X136357142Y-89457142D01*
X136300000Y-89428571D01*
X136271428Y-89400000D01*
X136242857Y-89342857D01*
X136242857Y-89285714D01*
X136271428Y-89228571D01*
X136300000Y-89200000D01*
X136357142Y-89171428D01*
X136500000Y-89171428D01*
X136585714Y-89200000D01*
X136957142Y-89171428D02*
X137071428Y-89171428D01*
X137128571Y-89200000D01*
X137185714Y-89257142D01*
X137214285Y-89371428D01*
X137214285Y-89571428D01*
X137185714Y-89685714D01*
X137128571Y-89742857D01*
X137071428Y-89771428D01*
X136957142Y-89771428D01*
X136900000Y-89742857D01*
X136842857Y-89685714D01*
X136814285Y-89571428D01*
X136814285Y-89371428D01*
X136842857Y-89257142D01*
X136900000Y-89200000D01*
X136957142Y-89171428D01*
X137757142Y-89771428D02*
X137471428Y-89771428D01*
X137471428Y-89171428D01*
X137928571Y-89600000D02*
X138214285Y-89600000D01*
X137871428Y-89771428D02*
X138071428Y-89171428D01*
X138271428Y-89771428D01*
X138385714Y-89171428D02*
X138728571Y-89171428D01*
X138557142Y-89771428D02*
X138557142Y-89171428D01*
X138928571Y-89457142D02*
X139128571Y-89457142D01*
X139214285Y-89771428D02*
X138928571Y-89771428D01*
X138928571Y-89171428D01*
X139214285Y-89171428D01*
X139471428Y-89771428D02*
X139471428Y-89171428D01*
X139614285Y-89171428D01*
X139700000Y-89200000D01*
X139757142Y-89257142D01*
X139785714Y-89314285D01*
X139814285Y-89428571D01*
X139814285Y-89514285D01*
X139785714Y-89628571D01*
X139757142Y-89685714D01*
X139700000Y-89742857D01*
X139614285Y-89771428D01*
X139471428Y-89771428D01*
X140500000Y-89228571D02*
X140528571Y-89200000D01*
X140585714Y-89171428D01*
X140728571Y-89171428D01*
X140785714Y-89200000D01*
X140814285Y-89228571D01*
X140842857Y-89285714D01*
X140842857Y-89342857D01*
X140814285Y-89428571D01*
X140471428Y-89771428D01*
X140842857Y-89771428D01*
D11*
X136904761Y-111252380D02*
X137095238Y-111252380D01*
X137190476Y-111300000D01*
X137285714Y-111395238D01*
X137333333Y-111585714D01*
X137333333Y-111919047D01*
X137285714Y-112109523D01*
X137190476Y-112204761D01*
X137095238Y-112252380D01*
X136904761Y-112252380D01*
X136809523Y-112204761D01*
X136714285Y-112109523D01*
X136666666Y-111919047D01*
X136666666Y-111585714D01*
X136714285Y-111395238D01*
X136809523Y-111300000D01*
X136904761Y-111252380D01*
X138333333Y-112252380D02*
X138000000Y-111776190D01*
X137761904Y-112252380D02*
X137761904Y-111252380D01*
X138142857Y-111252380D01*
X138238095Y-111300000D01*
X138285714Y-111347619D01*
X138333333Y-111442857D01*
X138333333Y-111585714D01*
X138285714Y-111680952D01*
X138238095Y-111728571D01*
X138142857Y-111776190D01*
X137761904Y-111776190D01*
X138761904Y-112252380D02*
X138761904Y-111252380D01*
X139142857Y-111252380D01*
X139238095Y-111300000D01*
X139285714Y-111347619D01*
X139333333Y-111442857D01*
X139333333Y-111585714D01*
X139285714Y-111680952D01*
X139238095Y-111728571D01*
X139142857Y-111776190D01*
X138761904Y-111776190D01*
D12*
X155795491Y-65807142D02*
X156000848Y-65878571D01*
X156357991Y-65878571D01*
X156509776Y-65807142D01*
X156590133Y-65735714D01*
X156679419Y-65592857D01*
X156697276Y-65450000D01*
X156643705Y-65307142D01*
X156581205Y-65235714D01*
X156447276Y-65164285D01*
X156170491Y-65092857D01*
X156036562Y-65021428D01*
X155974062Y-64950000D01*
X155920491Y-64807142D01*
X155938348Y-64664285D01*
X156027633Y-64521428D01*
X156107991Y-64450000D01*
X156259776Y-64378571D01*
X156616919Y-64378571D01*
X156822276Y-64450000D01*
X157411562Y-64878571D02*
X157224062Y-66378571D01*
X157402633Y-64950000D02*
X157554419Y-64878571D01*
X157840133Y-64878571D01*
X157974062Y-64950000D01*
X158036562Y-65021428D01*
X158090133Y-65164285D01*
X158036562Y-65592857D01*
X157947276Y-65735714D01*
X157866919Y-65807142D01*
X157715133Y-65878571D01*
X157429419Y-65878571D01*
X157295491Y-65807142D01*
X159286562Y-65878571D02*
X159384776Y-65092857D01*
X159331205Y-64950000D01*
X159197276Y-64878571D01*
X158911562Y-64878571D01*
X158759776Y-64950000D01*
X159295491Y-65807142D02*
X159143705Y-65878571D01*
X158786562Y-65878571D01*
X158652633Y-65807142D01*
X158599062Y-65664285D01*
X158616919Y-65521428D01*
X158706205Y-65378571D01*
X158857991Y-65307142D01*
X159215133Y-65307142D01*
X159366919Y-65235714D01*
X160000848Y-65878571D02*
X160125848Y-64878571D01*
X160090133Y-65164285D02*
X160179419Y-65021428D01*
X160259776Y-64950000D01*
X160411562Y-64878571D01*
X160554419Y-64878571D01*
X160929419Y-65878571D02*
X161116919Y-64378571D01*
X161143705Y-65307142D02*
X161500848Y-65878571D01*
X161625848Y-64878571D02*
X160982991Y-65450000D01*
X162357991Y-65878571D02*
X162224062Y-65807142D01*
X162170491Y-65664285D01*
X162331205Y-64378571D01*
X162911562Y-64878571D02*
X163143705Y-65878571D01*
X163625848Y-64878571D02*
X163143705Y-65878571D01*
X162956205Y-66235714D01*
X162875848Y-66307142D01*
X162724062Y-66378571D01*
D11*
X118414285Y-112152380D02*
X118414285Y-111152380D01*
X118795238Y-111152380D01*
X118890476Y-111200000D01*
X118938095Y-111247619D01*
X118985714Y-111342857D01*
X118985714Y-111485714D01*
X118938095Y-111580952D01*
X118890476Y-111628571D01*
X118795238Y-111676190D01*
X118414285Y-111676190D01*
X119414285Y-112152380D02*
X119414285Y-111152380D01*
X119414285Y-111628571D02*
X119985714Y-111628571D01*
X119985714Y-112152380D02*
X119985714Y-111152380D01*
D13*
X159050000Y-100580952D02*
X159026190Y-100628571D01*
X159026190Y-100700000D01*
X159050000Y-100771428D01*
X159097619Y-100819047D01*
X159145238Y-100842857D01*
X159240476Y-100866666D01*
X159311904Y-100866666D01*
X159407142Y-100842857D01*
X159454761Y-100819047D01*
X159502380Y-100771428D01*
X159526190Y-100700000D01*
X159526190Y-100652380D01*
X159502380Y-100580952D01*
X159478571Y-100557142D01*
X159311904Y-100557142D01*
X159311904Y-100652380D01*
X159526190Y-100342857D02*
X159026190Y-100342857D01*
X159526190Y-100057142D01*
X159026190Y-100057142D01*
X159526190Y-99819047D02*
X159026190Y-99819047D01*
X159026190Y-99700000D01*
X159050000Y-99628571D01*
X159097619Y-99580952D01*
X159145238Y-99557142D01*
X159240476Y-99533333D01*
X159311904Y-99533333D01*
X159407142Y-99557142D01*
X159454761Y-99580952D01*
X159502380Y-99628571D01*
X159526190Y-99700000D01*
X159526190Y-99819047D01*
D14*
X150535714Y-67907142D02*
X150535714Y-67007142D01*
X150535714Y-67864285D02*
X150450000Y-67907142D01*
X150278571Y-67907142D01*
X150192857Y-67864285D01*
X150150000Y-67821428D01*
X150107142Y-67735714D01*
X150107142Y-67478571D01*
X150150000Y-67392857D01*
X150192857Y-67350000D01*
X150278571Y-67307142D01*
X150450000Y-67307142D01*
X150535714Y-67350000D01*
X151307142Y-67864285D02*
X151221428Y-67907142D01*
X151050000Y-67907142D01*
X150964285Y-67864285D01*
X150921428Y-67778571D01*
X150921428Y-67435714D01*
X150964285Y-67350000D01*
X151050000Y-67307142D01*
X151221428Y-67307142D01*
X151307142Y-67350000D01*
X151350000Y-67435714D01*
X151350000Y-67521428D01*
X150921428Y-67607142D01*
X151692857Y-67864285D02*
X151778571Y-67907142D01*
X151950000Y-67907142D01*
X152035714Y-67864285D01*
X152078571Y-67778571D01*
X152078571Y-67735714D01*
X152035714Y-67650000D01*
X151950000Y-67607142D01*
X151821428Y-67607142D01*
X151735714Y-67564285D01*
X151692857Y-67478571D01*
X151692857Y-67435714D01*
X151735714Y-67350000D01*
X151821428Y-67307142D01*
X151950000Y-67307142D01*
X152035714Y-67350000D01*
X152464285Y-67907142D02*
X152464285Y-67307142D01*
X152464285Y-67007142D02*
X152421428Y-67050000D01*
X152464285Y-67092857D01*
X152507142Y-67050000D01*
X152464285Y-67007142D01*
X152464285Y-67092857D01*
X153278571Y-67307142D02*
X153278571Y-68035714D01*
X153235714Y-68121428D01*
X153192857Y-68164285D01*
X153107142Y-68207142D01*
X152978571Y-68207142D01*
X152892857Y-68164285D01*
X153278571Y-67864285D02*
X153192857Y-67907142D01*
X153021428Y-67907142D01*
X152935714Y-67864285D01*
X152892857Y-67821428D01*
X152850000Y-67735714D01*
X152850000Y-67478571D01*
X152892857Y-67392857D01*
X152935714Y-67350000D01*
X153021428Y-67307142D01*
X153192857Y-67307142D01*
X153278571Y-67350000D01*
X153707142Y-67307142D02*
X153707142Y-67907142D01*
X153707142Y-67392857D02*
X153750000Y-67350000D01*
X153835714Y-67307142D01*
X153964285Y-67307142D01*
X154050000Y-67350000D01*
X154092857Y-67435714D01*
X154092857Y-67907142D01*
X154864285Y-67864285D02*
X154778571Y-67907142D01*
X154607142Y-67907142D01*
X154521428Y-67864285D01*
X154478571Y-67778571D01*
X154478571Y-67435714D01*
X154521428Y-67350000D01*
X154607142Y-67307142D01*
X154778571Y-67307142D01*
X154864285Y-67350000D01*
X154907142Y-67435714D01*
X154907142Y-67521428D01*
X154478571Y-67607142D01*
X155678571Y-67907142D02*
X155678571Y-67007142D01*
X155678571Y-67864285D02*
X155592857Y-67907142D01*
X155421428Y-67907142D01*
X155335714Y-67864285D01*
X155292857Y-67821428D01*
X155250000Y-67735714D01*
X155250000Y-67478571D01*
X155292857Y-67392857D01*
X155335714Y-67350000D01*
X155421428Y-67307142D01*
X155592857Y-67307142D01*
X155678571Y-67350000D01*
X156792857Y-67907142D02*
X156792857Y-67307142D01*
X156792857Y-67007142D02*
X156750000Y-67050000D01*
X156792857Y-67092857D01*
X156835714Y-67050000D01*
X156792857Y-67007142D01*
X156792857Y-67092857D01*
X157221428Y-67307142D02*
X157221428Y-67907142D01*
X157221428Y-67392857D02*
X157264285Y-67350000D01*
X157350000Y-67307142D01*
X157478571Y-67307142D01*
X157564285Y-67350000D01*
X157607142Y-67435714D01*
X157607142Y-67907142D01*
X159235714Y-67821428D02*
X159192857Y-67864285D01*
X159064285Y-67907142D01*
X158978571Y-67907142D01*
X158850000Y-67864285D01*
X158764285Y-67778571D01*
X158721428Y-67692857D01*
X158678571Y-67521428D01*
X158678571Y-67392857D01*
X158721428Y-67221428D01*
X158764285Y-67135714D01*
X158850000Y-67050000D01*
X158978571Y-67007142D01*
X159064285Y-67007142D01*
X159192857Y-67050000D01*
X159235714Y-67092857D01*
X160007142Y-67907142D02*
X160007142Y-67435714D01*
X159964285Y-67350000D01*
X159878571Y-67307142D01*
X159707142Y-67307142D01*
X159621428Y-67350000D01*
X160007142Y-67864285D02*
X159921428Y-67907142D01*
X159707142Y-67907142D01*
X159621428Y-67864285D01*
X159578571Y-67778571D01*
X159578571Y-67692857D01*
X159621428Y-67607142D01*
X159707142Y-67564285D01*
X159921428Y-67564285D01*
X160007142Y-67521428D01*
X160564285Y-67907142D02*
X160478571Y-67864285D01*
X160435714Y-67778571D01*
X160435714Y-67007142D01*
X160907142Y-67907142D02*
X160907142Y-67307142D01*
X160907142Y-67007142D02*
X160864285Y-67050000D01*
X160907142Y-67092857D01*
X160950000Y-67050000D01*
X160907142Y-67007142D01*
X160907142Y-67092857D01*
X161207142Y-67307142D02*
X161550000Y-67307142D01*
X161335714Y-67907142D02*
X161335714Y-67135714D01*
X161378571Y-67050000D01*
X161464285Y-67007142D01*
X161550000Y-67007142D01*
X161978571Y-67907142D02*
X161892857Y-67864285D01*
X161850000Y-67821428D01*
X161807142Y-67735714D01*
X161807142Y-67478571D01*
X161850000Y-67392857D01*
X161892857Y-67350000D01*
X161978571Y-67307142D01*
X162107142Y-67307142D01*
X162192857Y-67350000D01*
X162235714Y-67392857D01*
X162278571Y-67478571D01*
X162278571Y-67735714D01*
X162235714Y-67821428D01*
X162192857Y-67864285D01*
X162107142Y-67907142D01*
X161978571Y-67907142D01*
X162664285Y-67907142D02*
X162664285Y-67307142D01*
X162664285Y-67478571D02*
X162707142Y-67392857D01*
X162750000Y-67350000D01*
X162835714Y-67307142D01*
X162921428Y-67307142D01*
X163221428Y-67307142D02*
X163221428Y-67907142D01*
X163221428Y-67392857D02*
X163264285Y-67350000D01*
X163350000Y-67307142D01*
X163478571Y-67307142D01*
X163564285Y-67350000D01*
X163607142Y-67435714D01*
X163607142Y-67907142D01*
X164035714Y-67907142D02*
X164035714Y-67307142D01*
X164035714Y-67007142D02*
X163992857Y-67050000D01*
X164035714Y-67092857D01*
X164078571Y-67050000D01*
X164035714Y-67007142D01*
X164035714Y-67092857D01*
X164850000Y-67907142D02*
X164850000Y-67435714D01*
X164807142Y-67350000D01*
X164721428Y-67307142D01*
X164550000Y-67307142D01*
X164464285Y-67350000D01*
X164850000Y-67864285D02*
X164764285Y-67907142D01*
X164550000Y-67907142D01*
X164464285Y-67864285D01*
X164421428Y-67778571D01*
X164421428Y-67692857D01*
X164464285Y-67607142D01*
X164550000Y-67564285D01*
X164764285Y-67564285D01*
X164850000Y-67521428D01*
D13*
X165526190Y-69352380D02*
X165026190Y-69352380D01*
X165526190Y-69114285D02*
X165026190Y-69114285D01*
X165526190Y-68828571D01*
X165026190Y-68828571D01*
X165026190Y-68661904D02*
X165026190Y-68376190D01*
X165526190Y-68519047D02*
X165026190Y-68519047D01*
D11*
X113514285Y-93252380D02*
X113514285Y-92252380D01*
X113895238Y-92252380D01*
X113990476Y-92300000D01*
X114038095Y-92347619D01*
X114085714Y-92442857D01*
X114085714Y-92585714D01*
X114038095Y-92680952D01*
X113990476Y-92728571D01*
X113895238Y-92776190D01*
X113514285Y-92776190D01*
X114514285Y-93252380D02*
X114514285Y-92252380D01*
X114514285Y-92728571D02*
X115085714Y-92728571D01*
X115085714Y-93252380D02*
X115085714Y-92252380D01*
D13*
X159026190Y-90766666D02*
X159526190Y-90600000D01*
X159026190Y-90433333D01*
X159478571Y-89980952D02*
X159502380Y-90004761D01*
X159526190Y-90076190D01*
X159526190Y-90123809D01*
X159502380Y-90195238D01*
X159454761Y-90242857D01*
X159407142Y-90266666D01*
X159311904Y-90290476D01*
X159240476Y-90290476D01*
X159145238Y-90266666D01*
X159097619Y-90242857D01*
X159050000Y-90195238D01*
X159026190Y-90123809D01*
X159026190Y-90076190D01*
X159050000Y-90004761D01*
X159073809Y-89980952D01*
X159478571Y-89480952D02*
X159502380Y-89504761D01*
X159526190Y-89576190D01*
X159526190Y-89623809D01*
X159502380Y-89695238D01*
X159454761Y-89742857D01*
X159407142Y-89766666D01*
X159311904Y-89790476D01*
X159240476Y-89790476D01*
X159145238Y-89766666D01*
X159097619Y-89742857D01*
X159050000Y-89695238D01*
X159026190Y-89623809D01*
X159026190Y-89576190D01*
X159050000Y-89504761D01*
X159073809Y-89480952D01*
D11*
X170202380Y-79421809D02*
X169202380Y-79421809D01*
X169297619Y-78993238D02*
X169250000Y-78945619D01*
X169202380Y-78850380D01*
X169202380Y-78612285D01*
X169250000Y-78517047D01*
X169297619Y-78469428D01*
X169392857Y-78421809D01*
X169488095Y-78421809D01*
X169630952Y-78469428D01*
X170202380Y-79040857D01*
X170202380Y-78421809D01*
X170107142Y-77421809D02*
X170154761Y-77469428D01*
X170202380Y-77612285D01*
X170202380Y-77707523D01*
X170154761Y-77850380D01*
X170059523Y-77945619D01*
X169964285Y-77993238D01*
X169773809Y-78040857D01*
X169630952Y-78040857D01*
X169440476Y-77993238D01*
X169345238Y-77945619D01*
X169250000Y-77850380D01*
X169202380Y-77707523D01*
X169202380Y-77612285D01*
X169250000Y-77469428D01*
X169297619Y-77421809D01*
X169916666Y-76278952D02*
X169916666Y-75802761D01*
X170202380Y-76374190D02*
X169202380Y-76040857D01*
X170202380Y-75707523D01*
X169202380Y-75374190D02*
X170011904Y-75374190D01*
X170107142Y-75326571D01*
X170154761Y-75278952D01*
X170202380Y-75183714D01*
X170202380Y-74993238D01*
X170154761Y-74898000D01*
X170107142Y-74850380D01*
X170011904Y-74802761D01*
X169202380Y-74802761D01*
X169202380Y-74421809D02*
X170202380Y-73755142D01*
X169202380Y-73755142D02*
X170202380Y-74421809D01*
X170107142Y-72040857D02*
X170154761Y-72088476D01*
X170202380Y-72231333D01*
X170202380Y-72326571D01*
X170154761Y-72469428D01*
X170059523Y-72564666D01*
X169964285Y-72612285D01*
X169773809Y-72659904D01*
X169630952Y-72659904D01*
X169440476Y-72612285D01*
X169345238Y-72564666D01*
X169250000Y-72469428D01*
X169202380Y-72326571D01*
X169202380Y-72231333D01*
X169250000Y-72088476D01*
X169297619Y-72040857D01*
X170202380Y-71612285D02*
X169202380Y-71612285D01*
X169678571Y-71612285D02*
X169678571Y-71040857D01*
X170202380Y-71040857D02*
X169202380Y-71040857D01*
X169916666Y-70612285D02*
X169916666Y-70136095D01*
X170202380Y-70707523D02*
X169202380Y-70374190D01*
X170202380Y-70040857D01*
X170202380Y-69707523D02*
X169202380Y-69707523D01*
X170202380Y-69136095D01*
X169202380Y-69136095D01*
X170202380Y-68659904D02*
X169202380Y-68659904D01*
X170202380Y-68088476D01*
X169202380Y-68088476D01*
X169678571Y-67612285D02*
X169678571Y-67278952D01*
X170202380Y-67136095D02*
X170202380Y-67612285D01*
X169202380Y-67612285D01*
X169202380Y-67136095D01*
X170202380Y-66231333D02*
X170202380Y-66707523D01*
X169202380Y-66707523D01*
D10*
X115085714Y-89771428D02*
X115085714Y-89171428D01*
X115342857Y-89742857D02*
X115428571Y-89771428D01*
X115571428Y-89771428D01*
X115628571Y-89742857D01*
X115657142Y-89714285D01*
X115685714Y-89657142D01*
X115685714Y-89600000D01*
X115657142Y-89542857D01*
X115628571Y-89514285D01*
X115571428Y-89485714D01*
X115457142Y-89457142D01*
X115400000Y-89428571D01*
X115371428Y-89400000D01*
X115342857Y-89342857D01*
X115342857Y-89285714D01*
X115371428Y-89228571D01*
X115400000Y-89200000D01*
X115457142Y-89171428D01*
X115600000Y-89171428D01*
X115685714Y-89200000D01*
X116057142Y-89171428D02*
X116171428Y-89171428D01*
X116228571Y-89200000D01*
X116285714Y-89257142D01*
X116314285Y-89371428D01*
X116314285Y-89571428D01*
X116285714Y-89685714D01*
X116228571Y-89742857D01*
X116171428Y-89771428D01*
X116057142Y-89771428D01*
X116000000Y-89742857D01*
X115942857Y-89685714D01*
X115914285Y-89571428D01*
X115914285Y-89371428D01*
X115942857Y-89257142D01*
X116000000Y-89200000D01*
X116057142Y-89171428D01*
X116857142Y-89771428D02*
X116571428Y-89771428D01*
X116571428Y-89171428D01*
X117028571Y-89600000D02*
X117314285Y-89600000D01*
X116971428Y-89771428D02*
X117171428Y-89171428D01*
X117371428Y-89771428D01*
X117485714Y-89171428D02*
X117828571Y-89171428D01*
X117657142Y-89771428D02*
X117657142Y-89171428D01*
X118028571Y-89457142D02*
X118228571Y-89457142D01*
X118314285Y-89771428D02*
X118028571Y-89771428D01*
X118028571Y-89171428D01*
X118314285Y-89171428D01*
X118571428Y-89771428D02*
X118571428Y-89171428D01*
X118714285Y-89171428D01*
X118800000Y-89200000D01*
X118857142Y-89257142D01*
X118885714Y-89314285D01*
X118914285Y-89428571D01*
X118914285Y-89514285D01*
X118885714Y-89628571D01*
X118857142Y-89685714D01*
X118800000Y-89742857D01*
X118714285Y-89771428D01*
X118571428Y-89771428D01*
X119942857Y-89771428D02*
X119600000Y-89771428D01*
X119771428Y-89771428D02*
X119771428Y-89171428D01*
X119714285Y-89257142D01*
X119657142Y-89314285D01*
X119600000Y-89342857D01*
D11*
X148490476Y-101252380D02*
X149061904Y-101252380D01*
X148776190Y-102252380D02*
X148776190Y-101252380D01*
X149395238Y-101728571D02*
X149728571Y-101728571D01*
X149871428Y-102252380D02*
X149395238Y-102252380D01*
X149395238Y-101252380D01*
X149871428Y-101252380D01*
X150300000Y-102252380D02*
X150300000Y-101252380D01*
X150633333Y-101966666D01*
X150966666Y-101252380D01*
X150966666Y-102252380D01*
X151442857Y-102252380D02*
X151442857Y-101252380D01*
X151823809Y-101252380D01*
X151919047Y-101300000D01*
X151966666Y-101347619D01*
X152014285Y-101442857D01*
X152014285Y-101585714D01*
X151966666Y-101680952D01*
X151919047Y-101728571D01*
X151823809Y-101776190D01*
X151442857Y-101776190D01*
D13*
X165402380Y-77007142D02*
X165426190Y-76935714D01*
X165426190Y-76816666D01*
X165402380Y-76769047D01*
X165378571Y-76745238D01*
X165330952Y-76721428D01*
X165283333Y-76721428D01*
X165235714Y-76745238D01*
X165211904Y-76769047D01*
X165188095Y-76816666D01*
X165164285Y-76911904D01*
X165140476Y-76959523D01*
X165116666Y-76983333D01*
X165069047Y-77007142D01*
X165021428Y-77007142D01*
X164973809Y-76983333D01*
X164950000Y-76959523D01*
X164926190Y-76911904D01*
X164926190Y-76792857D01*
X164950000Y-76721428D01*
X165426190Y-76507142D02*
X164926190Y-76507142D01*
X164926190Y-76388095D01*
X164950000Y-76316666D01*
X164997619Y-76269047D01*
X165045238Y-76245238D01*
X165140476Y-76221428D01*
X165211904Y-76221428D01*
X165307142Y-76245238D01*
X165354761Y-76269047D01*
X165402380Y-76316666D01*
X165426190Y-76388095D01*
X165426190Y-76507142D01*
X165283333Y-76030952D02*
X165283333Y-75792857D01*
X165426190Y-76078571D02*
X164926190Y-75911904D01*
X165426190Y-75745238D01*
D11*
X159428571Y-88457142D02*
X159428571Y-88790476D01*
X159952380Y-88790476D02*
X158952380Y-88790476D01*
X158952380Y-88314285D01*
X159952380Y-87457142D02*
X159952380Y-87933333D01*
X158952380Y-87933333D01*
X158952380Y-86933333D02*
X158952380Y-86742857D01*
X159000000Y-86647619D01*
X159095238Y-86552380D01*
X159285714Y-86504761D01*
X159619047Y-86504761D01*
X159809523Y-86552380D01*
X159904761Y-86647619D01*
X159952380Y-86742857D01*
X159952380Y-86933333D01*
X159904761Y-87028571D01*
X159809523Y-87123809D01*
X159619047Y-87171428D01*
X159285714Y-87171428D01*
X159095238Y-87123809D01*
X159000000Y-87028571D01*
X158952380Y-86933333D01*
X158952380Y-86171428D02*
X159952380Y-85933333D01*
X159238095Y-85742857D01*
X159952380Y-85552380D01*
X158952380Y-85314285D01*
D13*
X165402380Y-79595238D02*
X165426190Y-79523809D01*
X165426190Y-79404761D01*
X165402380Y-79357142D01*
X165378571Y-79333333D01*
X165330952Y-79309523D01*
X165283333Y-79309523D01*
X165235714Y-79333333D01*
X165211904Y-79357142D01*
X165188095Y-79404761D01*
X165164285Y-79500000D01*
X165140476Y-79547619D01*
X165116666Y-79571428D01*
X165069047Y-79595238D01*
X165021428Y-79595238D01*
X164973809Y-79571428D01*
X164950000Y-79547619D01*
X164926190Y-79500000D01*
X164926190Y-79380952D01*
X164950000Y-79309523D01*
X165378571Y-78809523D02*
X165402380Y-78833333D01*
X165426190Y-78904761D01*
X165426190Y-78952380D01*
X165402380Y-79023809D01*
X165354761Y-79071428D01*
X165307142Y-79095238D01*
X165211904Y-79119047D01*
X165140476Y-79119047D01*
X165045238Y-79095238D01*
X164997619Y-79071428D01*
X164950000Y-79023809D01*
X164926190Y-78952380D01*
X164926190Y-78904761D01*
X164950000Y-78833333D01*
X164973809Y-78809523D01*
X165426190Y-78357142D02*
X165426190Y-78595238D01*
X164926190Y-78595238D01*
X159526190Y-96150000D02*
X159026190Y-96150000D01*
X159026190Y-96030952D01*
X159050000Y-95959523D01*
X159097619Y-95911904D01*
X159145238Y-95888095D01*
X159240476Y-95864285D01*
X159311904Y-95864285D01*
X159407142Y-95888095D01*
X159454761Y-95911904D01*
X159502380Y-95959523D01*
X159526190Y-96030952D01*
X159526190Y-96150000D01*
X159383333Y-95673809D02*
X159383333Y-95435714D01*
X159526190Y-95721428D02*
X159026190Y-95554761D01*
X159526190Y-95388095D01*
X159026190Y-95292857D02*
X159026190Y-95007142D01*
X159526190Y-95150000D02*
X159026190Y-95150000D01*
X159383333Y-94864285D02*
X159383333Y-94626190D01*
X159526190Y-94911904D02*
X159026190Y-94745238D01*
X159526190Y-94578571D01*
X155250000Y-103126190D02*
X155250000Y-102626190D01*
X155369047Y-102626190D01*
X155440476Y-102650000D01*
X155488095Y-102697619D01*
X155511904Y-102745238D01*
X155535714Y-102840476D01*
X155535714Y-102911904D01*
X155511904Y-103007142D01*
X155488095Y-103054761D01*
X155440476Y-103102380D01*
X155369047Y-103126190D01*
X155250000Y-103126190D01*
X155726190Y-102983333D02*
X155964285Y-102983333D01*
X155678571Y-103126190D02*
X155845238Y-102626190D01*
X156011904Y-103126190D01*
X156107142Y-102626190D02*
X156392857Y-102626190D01*
X156250000Y-103126190D02*
X156250000Y-102626190D01*
X156535714Y-102983333D02*
X156773809Y-102983333D01*
X156488095Y-103126190D02*
X156654761Y-102626190D01*
X156821428Y-103126190D01*
D11*
X134504761Y-92152380D02*
X134695238Y-92152380D01*
X134790476Y-92200000D01*
X134885714Y-92295238D01*
X134933333Y-92485714D01*
X134933333Y-92819047D01*
X134885714Y-93009523D01*
X134790476Y-93104761D01*
X134695238Y-93152380D01*
X134504761Y-93152380D01*
X134409523Y-93104761D01*
X134314285Y-93009523D01*
X134266666Y-92819047D01*
X134266666Y-92485714D01*
X134314285Y-92295238D01*
X134409523Y-92200000D01*
X134504761Y-92152380D01*
X135933333Y-93152380D02*
X135600000Y-92676190D01*
X135361904Y-93152380D02*
X135361904Y-92152380D01*
X135742857Y-92152380D01*
X135838095Y-92200000D01*
X135885714Y-92247619D01*
X135933333Y-92342857D01*
X135933333Y-92485714D01*
X135885714Y-92580952D01*
X135838095Y-92628571D01*
X135742857Y-92676190D01*
X135361904Y-92676190D01*
X136361904Y-93152380D02*
X136361904Y-92152380D01*
X136742857Y-92152380D01*
X136838095Y-92200000D01*
X136885714Y-92247619D01*
X136933333Y-92342857D01*
X136933333Y-92485714D01*
X136885714Y-92580952D01*
X136838095Y-92628571D01*
X136742857Y-92676190D01*
X136361904Y-92676190D01*
D13*
X150619047Y-102650000D02*
X150571428Y-102626190D01*
X150500000Y-102626190D01*
X150428571Y-102650000D01*
X150380952Y-102697619D01*
X150357142Y-102745238D01*
X150333333Y-102840476D01*
X150333333Y-102911904D01*
X150357142Y-103007142D01*
X150380952Y-103054761D01*
X150428571Y-103102380D01*
X150500000Y-103126190D01*
X150547619Y-103126190D01*
X150619047Y-103102380D01*
X150642857Y-103078571D01*
X150642857Y-102911904D01*
X150547619Y-102911904D01*
X150857142Y-103126190D02*
X150857142Y-102626190D01*
X151142857Y-103126190D01*
X151142857Y-102626190D01*
X151380952Y-103126190D02*
X151380952Y-102626190D01*
X151500000Y-102626190D01*
X151571428Y-102650000D01*
X151619047Y-102697619D01*
X151642857Y-102745238D01*
X151666666Y-102840476D01*
X151666666Y-102911904D01*
X151642857Y-103007142D01*
X151619047Y-103054761D01*
X151571428Y-103102380D01*
X151500000Y-103126190D01*
X151380952Y-103126190D01*
X164950000Y-74280952D02*
X164926190Y-74328571D01*
X164926190Y-74400000D01*
X164950000Y-74471428D01*
X164997619Y-74519047D01*
X165045238Y-74542857D01*
X165140476Y-74566666D01*
X165211904Y-74566666D01*
X165307142Y-74542857D01*
X165354761Y-74519047D01*
X165402380Y-74471428D01*
X165426190Y-74400000D01*
X165426190Y-74352380D01*
X165402380Y-74280952D01*
X165378571Y-74257142D01*
X165211904Y-74257142D01*
X165211904Y-74352380D01*
X165426190Y-74042857D02*
X164926190Y-74042857D01*
X165426190Y-73757142D01*
X164926190Y-73757142D01*
X165426190Y-73519047D02*
X164926190Y-73519047D01*
X164926190Y-73400000D01*
X164950000Y-73328571D01*
X164997619Y-73280952D01*
X165045238Y-73257142D01*
X165140476Y-73233333D01*
X165211904Y-73233333D01*
X165307142Y-73257142D01*
X165354761Y-73280952D01*
X165402380Y-73328571D01*
X165426190Y-73400000D01*
X165426190Y-73519047D01*
X159533333Y-102626190D02*
X159700000Y-103126190D01*
X159866666Y-102626190D01*
X160319047Y-103078571D02*
X160295238Y-103102380D01*
X160223809Y-103126190D01*
X160176190Y-103126190D01*
X160104761Y-103102380D01*
X160057142Y-103054761D01*
X160033333Y-103007142D01*
X160009523Y-102911904D01*
X160009523Y-102840476D01*
X160033333Y-102745238D01*
X160057142Y-102697619D01*
X160104761Y-102650000D01*
X160176190Y-102626190D01*
X160223809Y-102626190D01*
X160295238Y-102650000D01*
X160319047Y-102673809D01*
X160819047Y-103078571D02*
X160795238Y-103102380D01*
X160723809Y-103126190D01*
X160676190Y-103126190D01*
X160604761Y-103102380D01*
X160557142Y-103054761D01*
X160533333Y-103007142D01*
X160509523Y-102911904D01*
X160509523Y-102840476D01*
X160533333Y-102745238D01*
X160557142Y-102697619D01*
X160604761Y-102650000D01*
X160676190Y-102626190D01*
X160723809Y-102626190D01*
X160795238Y-102650000D01*
X160819047Y-102673809D01*
X164926190Y-72066666D02*
X165426190Y-71900000D01*
X164926190Y-71733333D01*
X165378571Y-71280952D02*
X165402380Y-71304761D01*
X165426190Y-71376190D01*
X165426190Y-71423809D01*
X165402380Y-71495238D01*
X165354761Y-71542857D01*
X165307142Y-71566666D01*
X165211904Y-71590476D01*
X165140476Y-71590476D01*
X165045238Y-71566666D01*
X164997619Y-71542857D01*
X164950000Y-71495238D01*
X164926190Y-71423809D01*
X164926190Y-71376190D01*
X164950000Y-71304761D01*
X164973809Y-71280952D01*
X165378571Y-70780952D02*
X165402380Y-70804761D01*
X165426190Y-70876190D01*
X165426190Y-70923809D01*
X165402380Y-70995238D01*
X165354761Y-71042857D01*
X165307142Y-71066666D01*
X165211904Y-71090476D01*
X165140476Y-71090476D01*
X165045238Y-71066666D01*
X164997619Y-71042857D01*
X164950000Y-70995238D01*
X164926190Y-70923809D01*
X164926190Y-70876190D01*
X164950000Y-70804761D01*
X164973809Y-70780952D01*
D11*
%TO.C,J2*%
X156702380Y-87583333D02*
X157416666Y-87583333D01*
X157559523Y-87630952D01*
X157654761Y-87726190D01*
X157702380Y-87869047D01*
X157702380Y-87964285D01*
X156797619Y-87154761D02*
X156750000Y-87107142D01*
X156702380Y-87011904D01*
X156702380Y-86773809D01*
X156750000Y-86678571D01*
X156797619Y-86630952D01*
X156892857Y-86583333D01*
X156988095Y-86583333D01*
X157130952Y-86630952D01*
X157702380Y-87202380D01*
X157702380Y-86583333D01*
%TO.C,J1*%
X149916666Y-99452380D02*
X149916666Y-100166666D01*
X149869047Y-100309523D01*
X149773809Y-100404761D01*
X149630952Y-100452380D01*
X149535714Y-100452380D01*
X150916666Y-100452380D02*
X150345238Y-100452380D01*
X150630952Y-100452380D02*
X150630952Y-99452380D01*
X150535714Y-99595238D01*
X150440476Y-99690476D01*
X150345238Y-99738095D01*
D13*
%TO.C,C101*%
X108778571Y-71809523D02*
X108802380Y-71833333D01*
X108826190Y-71904761D01*
X108826190Y-71952380D01*
X108802380Y-72023809D01*
X108754761Y-72071428D01*
X108707142Y-72095238D01*
X108611904Y-72119047D01*
X108540476Y-72119047D01*
X108445238Y-72095238D01*
X108397619Y-72071428D01*
X108350000Y-72023809D01*
X108326190Y-71952380D01*
X108326190Y-71904761D01*
X108350000Y-71833333D01*
X108373809Y-71809523D01*
X108826190Y-71333333D02*
X108826190Y-71619047D01*
X108826190Y-71476190D02*
X108326190Y-71476190D01*
X108397619Y-71523809D01*
X108445238Y-71571428D01*
X108469047Y-71619047D01*
X108326190Y-71023809D02*
X108326190Y-70976190D01*
X108350000Y-70928571D01*
X108373809Y-70904761D01*
X108421428Y-70880952D01*
X108516666Y-70857142D01*
X108635714Y-70857142D01*
X108730952Y-70880952D01*
X108778571Y-70904761D01*
X108802380Y-70928571D01*
X108826190Y-70976190D01*
X108826190Y-71023809D01*
X108802380Y-71071428D01*
X108778571Y-71095238D01*
X108730952Y-71119047D01*
X108635714Y-71142857D01*
X108516666Y-71142857D01*
X108421428Y-71119047D01*
X108373809Y-71095238D01*
X108350000Y-71071428D01*
X108326190Y-71023809D01*
X108826190Y-70380952D02*
X108826190Y-70666666D01*
X108826190Y-70523809D02*
X108326190Y-70523809D01*
X108397619Y-70571428D01*
X108445238Y-70619047D01*
X108469047Y-70666666D01*
X109292857Y-72107142D02*
X109626190Y-72107142D01*
X109102380Y-72226190D02*
X109459523Y-72345238D01*
X109459523Y-72035714D01*
X109126190Y-71892857D02*
X109126190Y-71559523D01*
X109626190Y-71773809D01*
X109126190Y-71273809D02*
X109126190Y-71226190D01*
X109150000Y-71178571D01*
X109173809Y-71154761D01*
X109221428Y-71130952D01*
X109316666Y-71107142D01*
X109435714Y-71107142D01*
X109530952Y-71130952D01*
X109578571Y-71154761D01*
X109602380Y-71178571D01*
X109626190Y-71226190D01*
X109626190Y-71273809D01*
X109602380Y-71321428D01*
X109578571Y-71345238D01*
X109530952Y-71369047D01*
X109435714Y-71392857D01*
X109316666Y-71392857D01*
X109221428Y-71369047D01*
X109173809Y-71345238D01*
X109150000Y-71321428D01*
X109126190Y-71273809D01*
X109292857Y-70892857D02*
X109792857Y-70892857D01*
X109554761Y-70654761D02*
X109602380Y-70630952D01*
X109626190Y-70583333D01*
X109554761Y-70892857D02*
X109602380Y-70869047D01*
X109626190Y-70821428D01*
X109626190Y-70726190D01*
X109602380Y-70678571D01*
X109554761Y-70654761D01*
X109292857Y-70654761D01*
X109364285Y-70202380D02*
X109364285Y-70369047D01*
X109626190Y-70369047D02*
X109126190Y-70369047D01*
X109126190Y-70130952D01*
%TO.C,C201*%
X125440476Y-87978571D02*
X125416666Y-88002380D01*
X125345238Y-88026190D01*
X125297619Y-88026190D01*
X125226190Y-88002380D01*
X125178571Y-87954761D01*
X125154761Y-87907142D01*
X125130952Y-87811904D01*
X125130952Y-87740476D01*
X125154761Y-87645238D01*
X125178571Y-87597619D01*
X125226190Y-87550000D01*
X125297619Y-87526190D01*
X125345238Y-87526190D01*
X125416666Y-87550000D01*
X125440476Y-87573809D01*
X125630952Y-87573809D02*
X125654761Y-87550000D01*
X125702380Y-87526190D01*
X125821428Y-87526190D01*
X125869047Y-87550000D01*
X125892857Y-87573809D01*
X125916666Y-87621428D01*
X125916666Y-87669047D01*
X125892857Y-87740476D01*
X125607142Y-88026190D01*
X125916666Y-88026190D01*
X126226190Y-87526190D02*
X126273809Y-87526190D01*
X126321428Y-87550000D01*
X126345238Y-87573809D01*
X126369047Y-87621428D01*
X126392857Y-87716666D01*
X126392857Y-87835714D01*
X126369047Y-87930952D01*
X126345238Y-87978571D01*
X126321428Y-88002380D01*
X126273809Y-88026190D01*
X126226190Y-88026190D01*
X126178571Y-88002380D01*
X126154761Y-87978571D01*
X126130952Y-87930952D01*
X126107142Y-87835714D01*
X126107142Y-87716666D01*
X126130952Y-87621428D01*
X126154761Y-87573809D01*
X126178571Y-87550000D01*
X126226190Y-87526190D01*
X126869047Y-88026190D02*
X126583333Y-88026190D01*
X126726190Y-88026190D02*
X126726190Y-87526190D01*
X126678571Y-87597619D01*
X126630952Y-87645238D01*
X126583333Y-87669047D01*
X125466666Y-88776190D02*
X125180952Y-88776190D01*
X125323809Y-88776190D02*
X125323809Y-88276190D01*
X125276190Y-88347619D01*
X125228571Y-88395238D01*
X125180952Y-88419047D01*
X125680952Y-88442857D02*
X125680952Y-88942857D01*
X125919047Y-88704761D02*
X125942857Y-88752380D01*
X125990476Y-88776190D01*
X125680952Y-88704761D02*
X125704761Y-88752380D01*
X125752380Y-88776190D01*
X125847619Y-88776190D01*
X125895238Y-88752380D01*
X125919047Y-88704761D01*
X125919047Y-88442857D01*
X126371428Y-88514285D02*
X126204761Y-88514285D01*
X126204761Y-88776190D02*
X126204761Y-88276190D01*
X126442857Y-88276190D01*
%TO.C,C202*%
X116140476Y-77878571D02*
X116116666Y-77902380D01*
X116045238Y-77926190D01*
X115997619Y-77926190D01*
X115926190Y-77902380D01*
X115878571Y-77854761D01*
X115854761Y-77807142D01*
X115830952Y-77711904D01*
X115830952Y-77640476D01*
X115854761Y-77545238D01*
X115878571Y-77497619D01*
X115926190Y-77450000D01*
X115997619Y-77426190D01*
X116045238Y-77426190D01*
X116116666Y-77450000D01*
X116140476Y-77473809D01*
X116330952Y-77473809D02*
X116354761Y-77450000D01*
X116402380Y-77426190D01*
X116521428Y-77426190D01*
X116569047Y-77450000D01*
X116592857Y-77473809D01*
X116616666Y-77521428D01*
X116616666Y-77569047D01*
X116592857Y-77640476D01*
X116307142Y-77926190D01*
X116616666Y-77926190D01*
X116926190Y-77426190D02*
X116973809Y-77426190D01*
X117021428Y-77450000D01*
X117045238Y-77473809D01*
X117069047Y-77521428D01*
X117092857Y-77616666D01*
X117092857Y-77735714D01*
X117069047Y-77830952D01*
X117045238Y-77878571D01*
X117021428Y-77902380D01*
X116973809Y-77926190D01*
X116926190Y-77926190D01*
X116878571Y-77902380D01*
X116854761Y-77878571D01*
X116830952Y-77830952D01*
X116807142Y-77735714D01*
X116807142Y-77616666D01*
X116830952Y-77521428D01*
X116854761Y-77473809D01*
X116878571Y-77450000D01*
X116926190Y-77426190D01*
X117283333Y-77473809D02*
X117307142Y-77450000D01*
X117354761Y-77426190D01*
X117473809Y-77426190D01*
X117521428Y-77450000D01*
X117545238Y-77473809D01*
X117569047Y-77521428D01*
X117569047Y-77569047D01*
X117545238Y-77640476D01*
X117259523Y-77926190D01*
X117569047Y-77926190D01*
X116566666Y-78826190D02*
X116280952Y-78826190D01*
X116423809Y-78826190D02*
X116423809Y-78326190D01*
X116376190Y-78397619D01*
X116328571Y-78445238D01*
X116280952Y-78469047D01*
X116780952Y-78492857D02*
X116780952Y-78992857D01*
X117019047Y-78754761D02*
X117042857Y-78802380D01*
X117090476Y-78826190D01*
X116780952Y-78754761D02*
X116804761Y-78802380D01*
X116852380Y-78826190D01*
X116947619Y-78826190D01*
X116995238Y-78802380D01*
X117019047Y-78754761D01*
X117019047Y-78492857D01*
X117471428Y-78564285D02*
X117304761Y-78564285D01*
X117304761Y-78826190D02*
X117304761Y-78326190D01*
X117542857Y-78326190D01*
%TO.C,C203*%
X107340476Y-77478571D02*
X107316666Y-77502380D01*
X107245238Y-77526190D01*
X107197619Y-77526190D01*
X107126190Y-77502380D01*
X107078571Y-77454761D01*
X107054761Y-77407142D01*
X107030952Y-77311904D01*
X107030952Y-77240476D01*
X107054761Y-77145238D01*
X107078571Y-77097619D01*
X107126190Y-77050000D01*
X107197619Y-77026190D01*
X107245238Y-77026190D01*
X107316666Y-77050000D01*
X107340476Y-77073809D01*
X107530952Y-77073809D02*
X107554761Y-77050000D01*
X107602380Y-77026190D01*
X107721428Y-77026190D01*
X107769047Y-77050000D01*
X107792857Y-77073809D01*
X107816666Y-77121428D01*
X107816666Y-77169047D01*
X107792857Y-77240476D01*
X107507142Y-77526190D01*
X107816666Y-77526190D01*
X108126190Y-77026190D02*
X108173809Y-77026190D01*
X108221428Y-77050000D01*
X108245238Y-77073809D01*
X108269047Y-77121428D01*
X108292857Y-77216666D01*
X108292857Y-77335714D01*
X108269047Y-77430952D01*
X108245238Y-77478571D01*
X108221428Y-77502380D01*
X108173809Y-77526190D01*
X108126190Y-77526190D01*
X108078571Y-77502380D01*
X108054761Y-77478571D01*
X108030952Y-77430952D01*
X108007142Y-77335714D01*
X108007142Y-77216666D01*
X108030952Y-77121428D01*
X108054761Y-77073809D01*
X108078571Y-77050000D01*
X108126190Y-77026190D01*
X108459523Y-77026190D02*
X108769047Y-77026190D01*
X108602380Y-77216666D01*
X108673809Y-77216666D01*
X108721428Y-77240476D01*
X108745238Y-77264285D01*
X108769047Y-77311904D01*
X108769047Y-77430952D01*
X108745238Y-77478571D01*
X108721428Y-77502380D01*
X108673809Y-77526190D01*
X108530952Y-77526190D01*
X108483333Y-77502380D01*
X108459523Y-77478571D01*
X109523809Y-77073809D02*
X109547619Y-77050000D01*
X109595238Y-77026190D01*
X109714285Y-77026190D01*
X109761904Y-77050000D01*
X109785714Y-77073809D01*
X109809523Y-77121428D01*
X109809523Y-77169047D01*
X109785714Y-77240476D01*
X109500000Y-77526190D01*
X109809523Y-77526190D01*
X110023809Y-77478571D02*
X110047619Y-77502380D01*
X110023809Y-77526190D01*
X110000000Y-77502380D01*
X110023809Y-77478571D01*
X110023809Y-77526190D01*
X110238095Y-77073809D02*
X110261904Y-77050000D01*
X110309523Y-77026190D01*
X110428571Y-77026190D01*
X110476190Y-77050000D01*
X110500000Y-77073809D01*
X110523809Y-77121428D01*
X110523809Y-77169047D01*
X110500000Y-77240476D01*
X110214285Y-77526190D01*
X110523809Y-77526190D01*
X110738095Y-77192857D02*
X110738095Y-77692857D01*
X110976190Y-77454761D02*
X111000000Y-77502380D01*
X111047619Y-77526190D01*
X110738095Y-77454761D02*
X110761904Y-77502380D01*
X110809523Y-77526190D01*
X110904761Y-77526190D01*
X110952380Y-77502380D01*
X110976190Y-77454761D01*
X110976190Y-77192857D01*
X111428571Y-77264285D02*
X111261904Y-77264285D01*
X111261904Y-77526190D02*
X111261904Y-77026190D01*
X111500000Y-77026190D01*
%TO.C,C204*%
X109240476Y-89978571D02*
X109216666Y-90002380D01*
X109145238Y-90026190D01*
X109097619Y-90026190D01*
X109026190Y-90002380D01*
X108978571Y-89954761D01*
X108954761Y-89907142D01*
X108930952Y-89811904D01*
X108930952Y-89740476D01*
X108954761Y-89645238D01*
X108978571Y-89597619D01*
X109026190Y-89550000D01*
X109097619Y-89526190D01*
X109145238Y-89526190D01*
X109216666Y-89550000D01*
X109240476Y-89573809D01*
X109430952Y-89573809D02*
X109454761Y-89550000D01*
X109502380Y-89526190D01*
X109621428Y-89526190D01*
X109669047Y-89550000D01*
X109692857Y-89573809D01*
X109716666Y-89621428D01*
X109716666Y-89669047D01*
X109692857Y-89740476D01*
X109407142Y-90026190D01*
X109716666Y-90026190D01*
X110026190Y-89526190D02*
X110073809Y-89526190D01*
X110121428Y-89550000D01*
X110145238Y-89573809D01*
X110169047Y-89621428D01*
X110192857Y-89716666D01*
X110192857Y-89835714D01*
X110169047Y-89930952D01*
X110145238Y-89978571D01*
X110121428Y-90002380D01*
X110073809Y-90026190D01*
X110026190Y-90026190D01*
X109978571Y-90002380D01*
X109954761Y-89978571D01*
X109930952Y-89930952D01*
X109907142Y-89835714D01*
X109907142Y-89716666D01*
X109930952Y-89621428D01*
X109954761Y-89573809D01*
X109978571Y-89550000D01*
X110026190Y-89526190D01*
X110621428Y-89692857D02*
X110621428Y-90026190D01*
X110502380Y-89502380D02*
X110383333Y-89859523D01*
X110692857Y-89859523D01*
X108552380Y-90226190D02*
X108600000Y-90226190D01*
X108647619Y-90250000D01*
X108671428Y-90273809D01*
X108695238Y-90321428D01*
X108719047Y-90416666D01*
X108719047Y-90535714D01*
X108695238Y-90630952D01*
X108671428Y-90678571D01*
X108647619Y-90702380D01*
X108600000Y-90726190D01*
X108552380Y-90726190D01*
X108504761Y-90702380D01*
X108480952Y-90678571D01*
X108457142Y-90630952D01*
X108433333Y-90535714D01*
X108433333Y-90416666D01*
X108457142Y-90321428D01*
X108480952Y-90273809D01*
X108504761Y-90250000D01*
X108552380Y-90226190D01*
X108933333Y-90678571D02*
X108957142Y-90702380D01*
X108933333Y-90726190D01*
X108909523Y-90702380D01*
X108933333Y-90678571D01*
X108933333Y-90726190D01*
X109433333Y-90726190D02*
X109147619Y-90726190D01*
X109290476Y-90726190D02*
X109290476Y-90226190D01*
X109242857Y-90297619D01*
X109195238Y-90345238D01*
X109147619Y-90369047D01*
X110028571Y-90392857D02*
X110028571Y-90892857D01*
X110266666Y-90654761D02*
X110290476Y-90702380D01*
X110338095Y-90726190D01*
X110028571Y-90654761D02*
X110052380Y-90702380D01*
X110100000Y-90726190D01*
X110195238Y-90726190D01*
X110242857Y-90702380D01*
X110266666Y-90654761D01*
X110266666Y-90392857D01*
X110719047Y-90464285D02*
X110552380Y-90464285D01*
X110552380Y-90726190D02*
X110552380Y-90226190D01*
X110790476Y-90226190D01*
%TO.C,C205*%
X129828571Y-77734523D02*
X129852380Y-77758333D01*
X129876190Y-77829761D01*
X129876190Y-77877380D01*
X129852380Y-77948809D01*
X129804761Y-77996428D01*
X129757142Y-78020238D01*
X129661904Y-78044047D01*
X129590476Y-78044047D01*
X129495238Y-78020238D01*
X129447619Y-77996428D01*
X129400000Y-77948809D01*
X129376190Y-77877380D01*
X129376190Y-77829761D01*
X129400000Y-77758333D01*
X129423809Y-77734523D01*
X129423809Y-77544047D02*
X129400000Y-77520238D01*
X129376190Y-77472619D01*
X129376190Y-77353571D01*
X129400000Y-77305952D01*
X129423809Y-77282142D01*
X129471428Y-77258333D01*
X129519047Y-77258333D01*
X129590476Y-77282142D01*
X129876190Y-77567857D01*
X129876190Y-77258333D01*
X129376190Y-76948809D02*
X129376190Y-76901190D01*
X129400000Y-76853571D01*
X129423809Y-76829761D01*
X129471428Y-76805952D01*
X129566666Y-76782142D01*
X129685714Y-76782142D01*
X129780952Y-76805952D01*
X129828571Y-76829761D01*
X129852380Y-76853571D01*
X129876190Y-76901190D01*
X129876190Y-76948809D01*
X129852380Y-76996428D01*
X129828571Y-77020238D01*
X129780952Y-77044047D01*
X129685714Y-77067857D01*
X129566666Y-77067857D01*
X129471428Y-77044047D01*
X129423809Y-77020238D01*
X129400000Y-76996428D01*
X129376190Y-76948809D01*
X129376190Y-76329761D02*
X129376190Y-76567857D01*
X129614285Y-76591666D01*
X129590476Y-76567857D01*
X129566666Y-76520238D01*
X129566666Y-76401190D01*
X129590476Y-76353571D01*
X129614285Y-76329761D01*
X129661904Y-76305952D01*
X129780952Y-76305952D01*
X129828571Y-76329761D01*
X129852380Y-76353571D01*
X129876190Y-76401190D01*
X129876190Y-76520238D01*
X129852380Y-76567857D01*
X129828571Y-76591666D01*
X128676190Y-78222619D02*
X128676190Y-78175000D01*
X128700000Y-78127380D01*
X128723809Y-78103571D01*
X128771428Y-78079761D01*
X128866666Y-78055952D01*
X128985714Y-78055952D01*
X129080952Y-78079761D01*
X129128571Y-78103571D01*
X129152380Y-78127380D01*
X129176190Y-78175000D01*
X129176190Y-78222619D01*
X129152380Y-78270238D01*
X129128571Y-78294047D01*
X129080952Y-78317857D01*
X128985714Y-78341666D01*
X128866666Y-78341666D01*
X128771428Y-78317857D01*
X128723809Y-78294047D01*
X128700000Y-78270238D01*
X128676190Y-78222619D01*
X129128571Y-77841666D02*
X129152380Y-77817857D01*
X129176190Y-77841666D01*
X129152380Y-77865476D01*
X129128571Y-77841666D01*
X129176190Y-77841666D01*
X129176190Y-77341666D02*
X129176190Y-77627380D01*
X129176190Y-77484523D02*
X128676190Y-77484523D01*
X128747619Y-77532142D01*
X128795238Y-77579761D01*
X128819047Y-77627380D01*
X128842857Y-76746428D02*
X129342857Y-76746428D01*
X129104761Y-76508333D02*
X129152380Y-76484523D01*
X129176190Y-76436904D01*
X129104761Y-76746428D02*
X129152380Y-76722619D01*
X129176190Y-76675000D01*
X129176190Y-76579761D01*
X129152380Y-76532142D01*
X129104761Y-76508333D01*
X128842857Y-76508333D01*
X128914285Y-76055952D02*
X128914285Y-76222619D01*
X129176190Y-76222619D02*
X128676190Y-76222619D01*
X128676190Y-75984523D01*
%TO.C,C301*%
X146840476Y-88678571D02*
X146816666Y-88702380D01*
X146745238Y-88726190D01*
X146697619Y-88726190D01*
X146626190Y-88702380D01*
X146578571Y-88654761D01*
X146554761Y-88607142D01*
X146530952Y-88511904D01*
X146530952Y-88440476D01*
X146554761Y-88345238D01*
X146578571Y-88297619D01*
X146626190Y-88250000D01*
X146697619Y-88226190D01*
X146745238Y-88226190D01*
X146816666Y-88250000D01*
X146840476Y-88273809D01*
X147007142Y-88226190D02*
X147316666Y-88226190D01*
X147150000Y-88416666D01*
X147221428Y-88416666D01*
X147269047Y-88440476D01*
X147292857Y-88464285D01*
X147316666Y-88511904D01*
X147316666Y-88630952D01*
X147292857Y-88678571D01*
X147269047Y-88702380D01*
X147221428Y-88726190D01*
X147078571Y-88726190D01*
X147030952Y-88702380D01*
X147007142Y-88678571D01*
X147626190Y-88226190D02*
X147673809Y-88226190D01*
X147721428Y-88250000D01*
X147745238Y-88273809D01*
X147769047Y-88321428D01*
X147792857Y-88416666D01*
X147792857Y-88535714D01*
X147769047Y-88630952D01*
X147745238Y-88678571D01*
X147721428Y-88702380D01*
X147673809Y-88726190D01*
X147626190Y-88726190D01*
X147578571Y-88702380D01*
X147554761Y-88678571D01*
X147530952Y-88630952D01*
X147507142Y-88535714D01*
X147507142Y-88416666D01*
X147530952Y-88321428D01*
X147554761Y-88273809D01*
X147578571Y-88250000D01*
X147626190Y-88226190D01*
X148269047Y-88726190D02*
X147983333Y-88726190D01*
X148126190Y-88726190D02*
X148126190Y-88226190D01*
X148078571Y-88297619D01*
X148030952Y-88345238D01*
X147983333Y-88369047D01*
X147066666Y-92126190D02*
X146780952Y-92126190D01*
X146923809Y-92126190D02*
X146923809Y-91626190D01*
X146876190Y-91697619D01*
X146828571Y-91745238D01*
X146780952Y-91769047D01*
X147280952Y-91792857D02*
X147280952Y-92292857D01*
X147519047Y-92054761D02*
X147542857Y-92102380D01*
X147590476Y-92126190D01*
X147280952Y-92054761D02*
X147304761Y-92102380D01*
X147352380Y-92126190D01*
X147447619Y-92126190D01*
X147495238Y-92102380D01*
X147519047Y-92054761D01*
X147519047Y-91792857D01*
X147971428Y-91864285D02*
X147804761Y-91864285D01*
X147804761Y-92126190D02*
X147804761Y-91626190D01*
X148042857Y-91626190D01*
%TO.C,C302*%
X143478571Y-82259523D02*
X143502380Y-82283333D01*
X143526190Y-82354761D01*
X143526190Y-82402380D01*
X143502380Y-82473809D01*
X143454761Y-82521428D01*
X143407142Y-82545238D01*
X143311904Y-82569047D01*
X143240476Y-82569047D01*
X143145238Y-82545238D01*
X143097619Y-82521428D01*
X143050000Y-82473809D01*
X143026190Y-82402380D01*
X143026190Y-82354761D01*
X143050000Y-82283333D01*
X143073809Y-82259523D01*
X143026190Y-82092857D02*
X143026190Y-81783333D01*
X143216666Y-81950000D01*
X143216666Y-81878571D01*
X143240476Y-81830952D01*
X143264285Y-81807142D01*
X143311904Y-81783333D01*
X143430952Y-81783333D01*
X143478571Y-81807142D01*
X143502380Y-81830952D01*
X143526190Y-81878571D01*
X143526190Y-82021428D01*
X143502380Y-82069047D01*
X143478571Y-82092857D01*
X143026190Y-81473809D02*
X143026190Y-81426190D01*
X143050000Y-81378571D01*
X143073809Y-81354761D01*
X143121428Y-81330952D01*
X143216666Y-81307142D01*
X143335714Y-81307142D01*
X143430952Y-81330952D01*
X143478571Y-81354761D01*
X143502380Y-81378571D01*
X143526190Y-81426190D01*
X143526190Y-81473809D01*
X143502380Y-81521428D01*
X143478571Y-81545238D01*
X143430952Y-81569047D01*
X143335714Y-81592857D01*
X143216666Y-81592857D01*
X143121428Y-81569047D01*
X143073809Y-81545238D01*
X143050000Y-81521428D01*
X143026190Y-81473809D01*
X143073809Y-81116666D02*
X143050000Y-81092857D01*
X143026190Y-81045238D01*
X143026190Y-80926190D01*
X143050000Y-80878571D01*
X143073809Y-80854761D01*
X143121428Y-80830952D01*
X143169047Y-80830952D01*
X143240476Y-80854761D01*
X143526190Y-81140476D01*
X143526190Y-80830952D01*
X143526190Y-79833333D02*
X143526190Y-80119047D01*
X143526190Y-79976190D02*
X143026190Y-79976190D01*
X143097619Y-80023809D01*
X143145238Y-80071428D01*
X143169047Y-80119047D01*
X143192857Y-79619047D02*
X143692857Y-79619047D01*
X143454761Y-79380952D02*
X143502380Y-79357142D01*
X143526190Y-79309523D01*
X143454761Y-79619047D02*
X143502380Y-79595238D01*
X143526190Y-79547619D01*
X143526190Y-79452380D01*
X143502380Y-79404761D01*
X143454761Y-79380952D01*
X143192857Y-79380952D01*
X143264285Y-78928571D02*
X143264285Y-79095238D01*
X143526190Y-79095238D02*
X143026190Y-79095238D01*
X143026190Y-78857142D01*
%TO.C,C303*%
X129678571Y-83859523D02*
X129702380Y-83883333D01*
X129726190Y-83954761D01*
X129726190Y-84002380D01*
X129702380Y-84073809D01*
X129654761Y-84121428D01*
X129607142Y-84145238D01*
X129511904Y-84169047D01*
X129440476Y-84169047D01*
X129345238Y-84145238D01*
X129297619Y-84121428D01*
X129250000Y-84073809D01*
X129226190Y-84002380D01*
X129226190Y-83954761D01*
X129250000Y-83883333D01*
X129273809Y-83859523D01*
X129226190Y-83692857D02*
X129226190Y-83383333D01*
X129416666Y-83550000D01*
X129416666Y-83478571D01*
X129440476Y-83430952D01*
X129464285Y-83407142D01*
X129511904Y-83383333D01*
X129630952Y-83383333D01*
X129678571Y-83407142D01*
X129702380Y-83430952D01*
X129726190Y-83478571D01*
X129726190Y-83621428D01*
X129702380Y-83669047D01*
X129678571Y-83692857D01*
X129226190Y-83073809D02*
X129226190Y-83026190D01*
X129250000Y-82978571D01*
X129273809Y-82954761D01*
X129321428Y-82930952D01*
X129416666Y-82907142D01*
X129535714Y-82907142D01*
X129630952Y-82930952D01*
X129678571Y-82954761D01*
X129702380Y-82978571D01*
X129726190Y-83026190D01*
X129726190Y-83073809D01*
X129702380Y-83121428D01*
X129678571Y-83145238D01*
X129630952Y-83169047D01*
X129535714Y-83192857D01*
X129416666Y-83192857D01*
X129321428Y-83169047D01*
X129273809Y-83145238D01*
X129250000Y-83121428D01*
X129226190Y-83073809D01*
X129226190Y-82740476D02*
X129226190Y-82430952D01*
X129416666Y-82597619D01*
X129416666Y-82526190D01*
X129440476Y-82478571D01*
X129464285Y-82454761D01*
X129511904Y-82430952D01*
X129630952Y-82430952D01*
X129678571Y-82454761D01*
X129702380Y-82478571D01*
X129726190Y-82526190D01*
X129726190Y-82669047D01*
X129702380Y-82716666D01*
X129678571Y-82740476D01*
X129273809Y-81776190D02*
X129250000Y-81752380D01*
X129226190Y-81704761D01*
X129226190Y-81585714D01*
X129250000Y-81538095D01*
X129273809Y-81514285D01*
X129321428Y-81490476D01*
X129369047Y-81490476D01*
X129440476Y-81514285D01*
X129726190Y-81800000D01*
X129726190Y-81490476D01*
X129678571Y-81276190D02*
X129702380Y-81252380D01*
X129726190Y-81276190D01*
X129702380Y-81300000D01*
X129678571Y-81276190D01*
X129726190Y-81276190D01*
X129273809Y-81061904D02*
X129250000Y-81038095D01*
X129226190Y-80990476D01*
X129226190Y-80871428D01*
X129250000Y-80823809D01*
X129273809Y-80800000D01*
X129321428Y-80776190D01*
X129369047Y-80776190D01*
X129440476Y-80800000D01*
X129726190Y-81085714D01*
X129726190Y-80776190D01*
X129392857Y-80561904D02*
X129892857Y-80561904D01*
X129654761Y-80323809D02*
X129702380Y-80300000D01*
X129726190Y-80252380D01*
X129654761Y-80561904D02*
X129702380Y-80538095D01*
X129726190Y-80490476D01*
X129726190Y-80395238D01*
X129702380Y-80347619D01*
X129654761Y-80323809D01*
X129392857Y-80323809D01*
X129464285Y-79871428D02*
X129464285Y-80038095D01*
X129726190Y-80038095D02*
X129226190Y-80038095D01*
X129226190Y-79800000D01*
%TO.C,C304*%
X129578571Y-90459523D02*
X129602380Y-90483333D01*
X129626190Y-90554761D01*
X129626190Y-90602380D01*
X129602380Y-90673809D01*
X129554761Y-90721428D01*
X129507142Y-90745238D01*
X129411904Y-90769047D01*
X129340476Y-90769047D01*
X129245238Y-90745238D01*
X129197619Y-90721428D01*
X129150000Y-90673809D01*
X129126190Y-90602380D01*
X129126190Y-90554761D01*
X129150000Y-90483333D01*
X129173809Y-90459523D01*
X129126190Y-90292857D02*
X129126190Y-89983333D01*
X129316666Y-90150000D01*
X129316666Y-90078571D01*
X129340476Y-90030952D01*
X129364285Y-90007142D01*
X129411904Y-89983333D01*
X129530952Y-89983333D01*
X129578571Y-90007142D01*
X129602380Y-90030952D01*
X129626190Y-90078571D01*
X129626190Y-90221428D01*
X129602380Y-90269047D01*
X129578571Y-90292857D01*
X129126190Y-89673809D02*
X129126190Y-89626190D01*
X129150000Y-89578571D01*
X129173809Y-89554761D01*
X129221428Y-89530952D01*
X129316666Y-89507142D01*
X129435714Y-89507142D01*
X129530952Y-89530952D01*
X129578571Y-89554761D01*
X129602380Y-89578571D01*
X129626190Y-89626190D01*
X129626190Y-89673809D01*
X129602380Y-89721428D01*
X129578571Y-89745238D01*
X129530952Y-89769047D01*
X129435714Y-89792857D01*
X129316666Y-89792857D01*
X129221428Y-89769047D01*
X129173809Y-89745238D01*
X129150000Y-89721428D01*
X129126190Y-89673809D01*
X129292857Y-89078571D02*
X129626190Y-89078571D01*
X129102380Y-89197619D02*
X129459523Y-89316666D01*
X129459523Y-89007142D01*
X129826190Y-90747619D02*
X129826190Y-90700000D01*
X129850000Y-90652380D01*
X129873809Y-90628571D01*
X129921428Y-90604761D01*
X130016666Y-90580952D01*
X130135714Y-90580952D01*
X130230952Y-90604761D01*
X130278571Y-90628571D01*
X130302380Y-90652380D01*
X130326190Y-90700000D01*
X130326190Y-90747619D01*
X130302380Y-90795238D01*
X130278571Y-90819047D01*
X130230952Y-90842857D01*
X130135714Y-90866666D01*
X130016666Y-90866666D01*
X129921428Y-90842857D01*
X129873809Y-90819047D01*
X129850000Y-90795238D01*
X129826190Y-90747619D01*
X130278571Y-90366666D02*
X130302380Y-90342857D01*
X130326190Y-90366666D01*
X130302380Y-90390476D01*
X130278571Y-90366666D01*
X130326190Y-90366666D01*
X130326190Y-89866666D02*
X130326190Y-90152380D01*
X130326190Y-90009523D02*
X129826190Y-90009523D01*
X129897619Y-90057142D01*
X129945238Y-90104761D01*
X129969047Y-90152380D01*
X129992857Y-89271428D02*
X130492857Y-89271428D01*
X130254761Y-89033333D02*
X130302380Y-89009523D01*
X130326190Y-88961904D01*
X130254761Y-89271428D02*
X130302380Y-89247619D01*
X130326190Y-89200000D01*
X130326190Y-89104761D01*
X130302380Y-89057142D01*
X130254761Y-89033333D01*
X129992857Y-89033333D01*
X130064285Y-88580952D02*
X130064285Y-88747619D01*
X130326190Y-88747619D02*
X129826190Y-88747619D01*
X129826190Y-88509523D01*
%TO.C,C305*%
X149778571Y-73512023D02*
X149802380Y-73535833D01*
X149826190Y-73607261D01*
X149826190Y-73654880D01*
X149802380Y-73726309D01*
X149754761Y-73773928D01*
X149707142Y-73797738D01*
X149611904Y-73821547D01*
X149540476Y-73821547D01*
X149445238Y-73797738D01*
X149397619Y-73773928D01*
X149350000Y-73726309D01*
X149326190Y-73654880D01*
X149326190Y-73607261D01*
X149350000Y-73535833D01*
X149373809Y-73512023D01*
X149326190Y-73345357D02*
X149326190Y-73035833D01*
X149516666Y-73202500D01*
X149516666Y-73131071D01*
X149540476Y-73083452D01*
X149564285Y-73059642D01*
X149611904Y-73035833D01*
X149730952Y-73035833D01*
X149778571Y-73059642D01*
X149802380Y-73083452D01*
X149826190Y-73131071D01*
X149826190Y-73273928D01*
X149802380Y-73321547D01*
X149778571Y-73345357D01*
X149326190Y-72726309D02*
X149326190Y-72678690D01*
X149350000Y-72631071D01*
X149373809Y-72607261D01*
X149421428Y-72583452D01*
X149516666Y-72559642D01*
X149635714Y-72559642D01*
X149730952Y-72583452D01*
X149778571Y-72607261D01*
X149802380Y-72631071D01*
X149826190Y-72678690D01*
X149826190Y-72726309D01*
X149802380Y-72773928D01*
X149778571Y-72797738D01*
X149730952Y-72821547D01*
X149635714Y-72845357D01*
X149516666Y-72845357D01*
X149421428Y-72821547D01*
X149373809Y-72797738D01*
X149350000Y-72773928D01*
X149326190Y-72726309D01*
X149326190Y-72107261D02*
X149326190Y-72345357D01*
X149564285Y-72369166D01*
X149540476Y-72345357D01*
X149516666Y-72297738D01*
X149516666Y-72178690D01*
X149540476Y-72131071D01*
X149564285Y-72107261D01*
X149611904Y-72083452D01*
X149730952Y-72083452D01*
X149778571Y-72107261D01*
X149802380Y-72131071D01*
X149826190Y-72178690D01*
X149826190Y-72297738D01*
X149802380Y-72345357D01*
X149778571Y-72369166D01*
X153026190Y-73947619D02*
X153026190Y-73900000D01*
X153050000Y-73852380D01*
X153073809Y-73828571D01*
X153121428Y-73804761D01*
X153216666Y-73780952D01*
X153335714Y-73780952D01*
X153430952Y-73804761D01*
X153478571Y-73828571D01*
X153502380Y-73852380D01*
X153526190Y-73900000D01*
X153526190Y-73947619D01*
X153502380Y-73995238D01*
X153478571Y-74019047D01*
X153430952Y-74042857D01*
X153335714Y-74066666D01*
X153216666Y-74066666D01*
X153121428Y-74042857D01*
X153073809Y-74019047D01*
X153050000Y-73995238D01*
X153026190Y-73947619D01*
X153478571Y-73566666D02*
X153502380Y-73542857D01*
X153526190Y-73566666D01*
X153502380Y-73590476D01*
X153478571Y-73566666D01*
X153526190Y-73566666D01*
X153526190Y-73066666D02*
X153526190Y-73352380D01*
X153526190Y-73209523D02*
X153026190Y-73209523D01*
X153097619Y-73257142D01*
X153145238Y-73304761D01*
X153169047Y-73352380D01*
X153192857Y-72471428D02*
X153692857Y-72471428D01*
X153454761Y-72233333D02*
X153502380Y-72209523D01*
X153526190Y-72161904D01*
X153454761Y-72471428D02*
X153502380Y-72447619D01*
X153526190Y-72400000D01*
X153526190Y-72304761D01*
X153502380Y-72257142D01*
X153454761Y-72233333D01*
X153192857Y-72233333D01*
X153264285Y-71780952D02*
X153264285Y-71947619D01*
X153526190Y-71947619D02*
X153026190Y-71947619D01*
X153026190Y-71709523D01*
%TO.C,DCDC201*%
X116654761Y-70026190D02*
X116654761Y-69526190D01*
X116773809Y-69526190D01*
X116845238Y-69550000D01*
X116892857Y-69597619D01*
X116916666Y-69645238D01*
X116940476Y-69740476D01*
X116940476Y-69811904D01*
X116916666Y-69907142D01*
X116892857Y-69954761D01*
X116845238Y-70002380D01*
X116773809Y-70026190D01*
X116654761Y-70026190D01*
X117440476Y-69978571D02*
X117416666Y-70002380D01*
X117345238Y-70026190D01*
X117297619Y-70026190D01*
X117226190Y-70002380D01*
X117178571Y-69954761D01*
X117154761Y-69907142D01*
X117130952Y-69811904D01*
X117130952Y-69740476D01*
X117154761Y-69645238D01*
X117178571Y-69597619D01*
X117226190Y-69550000D01*
X117297619Y-69526190D01*
X117345238Y-69526190D01*
X117416666Y-69550000D01*
X117440476Y-69573809D01*
X117654761Y-70026190D02*
X117654761Y-69526190D01*
X117773809Y-69526190D01*
X117845238Y-69550000D01*
X117892857Y-69597619D01*
X117916666Y-69645238D01*
X117940476Y-69740476D01*
X117940476Y-69811904D01*
X117916666Y-69907142D01*
X117892857Y-69954761D01*
X117845238Y-70002380D01*
X117773809Y-70026190D01*
X117654761Y-70026190D01*
X118440476Y-69978571D02*
X118416666Y-70002380D01*
X118345238Y-70026190D01*
X118297619Y-70026190D01*
X118226190Y-70002380D01*
X118178571Y-69954761D01*
X118154761Y-69907142D01*
X118130952Y-69811904D01*
X118130952Y-69740476D01*
X118154761Y-69645238D01*
X118178571Y-69597619D01*
X118226190Y-69550000D01*
X118297619Y-69526190D01*
X118345238Y-69526190D01*
X118416666Y-69550000D01*
X118440476Y-69573809D01*
X118630952Y-69573809D02*
X118654761Y-69550000D01*
X118702380Y-69526190D01*
X118821428Y-69526190D01*
X118869047Y-69550000D01*
X118892857Y-69573809D01*
X118916666Y-69621428D01*
X118916666Y-69669047D01*
X118892857Y-69740476D01*
X118607142Y-70026190D01*
X118916666Y-70026190D01*
X119226190Y-69526190D02*
X119273809Y-69526190D01*
X119321428Y-69550000D01*
X119345238Y-69573809D01*
X119369047Y-69621428D01*
X119392857Y-69716666D01*
X119392857Y-69835714D01*
X119369047Y-69930952D01*
X119345238Y-69978571D01*
X119321428Y-70002380D01*
X119273809Y-70026190D01*
X119226190Y-70026190D01*
X119178571Y-70002380D01*
X119154761Y-69978571D01*
X119130952Y-69930952D01*
X119107142Y-69835714D01*
X119107142Y-69716666D01*
X119130952Y-69621428D01*
X119154761Y-69573809D01*
X119178571Y-69550000D01*
X119226190Y-69526190D01*
X119869047Y-70026190D02*
X119583333Y-70026190D01*
X119726190Y-70026190D02*
X119726190Y-69526190D01*
X119678571Y-69597619D01*
X119630952Y-69645238D01*
X119583333Y-69669047D01*
X116559523Y-68726190D02*
X116392857Y-68488095D01*
X116273809Y-68726190D02*
X116273809Y-68226190D01*
X116464285Y-68226190D01*
X116511904Y-68250000D01*
X116535714Y-68273809D01*
X116559523Y-68321428D01*
X116559523Y-68392857D01*
X116535714Y-68440476D01*
X116511904Y-68464285D01*
X116464285Y-68488095D01*
X116273809Y-68488095D01*
X117035714Y-68726190D02*
X116750000Y-68726190D01*
X116892857Y-68726190D02*
X116892857Y-68226190D01*
X116845238Y-68297619D01*
X116797619Y-68345238D01*
X116750000Y-68369047D01*
X117226190Y-68702380D02*
X117297619Y-68726190D01*
X117416666Y-68726190D01*
X117464285Y-68702380D01*
X117488095Y-68678571D01*
X117511904Y-68630952D01*
X117511904Y-68583333D01*
X117488095Y-68535714D01*
X117464285Y-68511904D01*
X117416666Y-68488095D01*
X117321428Y-68464285D01*
X117273809Y-68440476D01*
X117250000Y-68416666D01*
X117226190Y-68369047D01*
X117226190Y-68321428D01*
X117250000Y-68273809D01*
X117273809Y-68250000D01*
X117321428Y-68226190D01*
X117440476Y-68226190D01*
X117511904Y-68250000D01*
X117726190Y-68464285D02*
X117892857Y-68464285D01*
X117964285Y-68726190D02*
X117726190Y-68726190D01*
X117726190Y-68226190D01*
X117964285Y-68226190D01*
X118059523Y-68773809D02*
X118440476Y-68773809D01*
X118654761Y-68226190D02*
X118702380Y-68226190D01*
X118750000Y-68250000D01*
X118773809Y-68273809D01*
X118797619Y-68321428D01*
X118821428Y-68416666D01*
X118821428Y-68535714D01*
X118797619Y-68630952D01*
X118773809Y-68678571D01*
X118750000Y-68702380D01*
X118702380Y-68726190D01*
X118654761Y-68726190D01*
X118607142Y-68702380D01*
X118583333Y-68678571D01*
X118559523Y-68630952D01*
X118535714Y-68535714D01*
X118535714Y-68416666D01*
X118559523Y-68321428D01*
X118583333Y-68273809D01*
X118607142Y-68250000D01*
X118654761Y-68226190D01*
X119273809Y-68226190D02*
X119035714Y-68226190D01*
X119011904Y-68464285D01*
X119035714Y-68440476D01*
X119083333Y-68416666D01*
X119202380Y-68416666D01*
X119250000Y-68440476D01*
X119273809Y-68464285D01*
X119297619Y-68511904D01*
X119297619Y-68630952D01*
X119273809Y-68678571D01*
X119250000Y-68702380D01*
X119202380Y-68726190D01*
X119083333Y-68726190D01*
X119035714Y-68702380D01*
X119011904Y-68678571D01*
X119607142Y-68226190D02*
X119654761Y-68226190D01*
X119702380Y-68250000D01*
X119726190Y-68273809D01*
X119750000Y-68321428D01*
X119773809Y-68416666D01*
X119773809Y-68535714D01*
X119750000Y-68630952D01*
X119726190Y-68678571D01*
X119702380Y-68702380D01*
X119654761Y-68726190D01*
X119607142Y-68726190D01*
X119559523Y-68702380D01*
X119535714Y-68678571D01*
X119511904Y-68630952D01*
X119488095Y-68535714D01*
X119488095Y-68416666D01*
X119511904Y-68321428D01*
X119535714Y-68273809D01*
X119559523Y-68250000D01*
X119607142Y-68226190D01*
X120226190Y-68226190D02*
X119988095Y-68226190D01*
X119964285Y-68464285D01*
X119988095Y-68440476D01*
X120035714Y-68416666D01*
X120154761Y-68416666D01*
X120202380Y-68440476D01*
X120226190Y-68464285D01*
X120250000Y-68511904D01*
X120250000Y-68630952D01*
X120226190Y-68678571D01*
X120202380Y-68702380D01*
X120154761Y-68726190D01*
X120035714Y-68726190D01*
X119988095Y-68702380D01*
X119964285Y-68678571D01*
%TO.C,DCDC301*%
X136304761Y-71226190D02*
X136304761Y-70726190D01*
X136423809Y-70726190D01*
X136495238Y-70750000D01*
X136542857Y-70797619D01*
X136566666Y-70845238D01*
X136590476Y-70940476D01*
X136590476Y-71011904D01*
X136566666Y-71107142D01*
X136542857Y-71154761D01*
X136495238Y-71202380D01*
X136423809Y-71226190D01*
X136304761Y-71226190D01*
X137090476Y-71178571D02*
X137066666Y-71202380D01*
X136995238Y-71226190D01*
X136947619Y-71226190D01*
X136876190Y-71202380D01*
X136828571Y-71154761D01*
X136804761Y-71107142D01*
X136780952Y-71011904D01*
X136780952Y-70940476D01*
X136804761Y-70845238D01*
X136828571Y-70797619D01*
X136876190Y-70750000D01*
X136947619Y-70726190D01*
X136995238Y-70726190D01*
X137066666Y-70750000D01*
X137090476Y-70773809D01*
X137304761Y-71226190D02*
X137304761Y-70726190D01*
X137423809Y-70726190D01*
X137495238Y-70750000D01*
X137542857Y-70797619D01*
X137566666Y-70845238D01*
X137590476Y-70940476D01*
X137590476Y-71011904D01*
X137566666Y-71107142D01*
X137542857Y-71154761D01*
X137495238Y-71202380D01*
X137423809Y-71226190D01*
X137304761Y-71226190D01*
X138090476Y-71178571D02*
X138066666Y-71202380D01*
X137995238Y-71226190D01*
X137947619Y-71226190D01*
X137876190Y-71202380D01*
X137828571Y-71154761D01*
X137804761Y-71107142D01*
X137780952Y-71011904D01*
X137780952Y-70940476D01*
X137804761Y-70845238D01*
X137828571Y-70797619D01*
X137876190Y-70750000D01*
X137947619Y-70726190D01*
X137995238Y-70726190D01*
X138066666Y-70750000D01*
X138090476Y-70773809D01*
X138257142Y-70726190D02*
X138566666Y-70726190D01*
X138400000Y-70916666D01*
X138471428Y-70916666D01*
X138519047Y-70940476D01*
X138542857Y-70964285D01*
X138566666Y-71011904D01*
X138566666Y-71130952D01*
X138542857Y-71178571D01*
X138519047Y-71202380D01*
X138471428Y-71226190D01*
X138328571Y-71226190D01*
X138280952Y-71202380D01*
X138257142Y-71178571D01*
X138876190Y-70726190D02*
X138923809Y-70726190D01*
X138971428Y-70750000D01*
X138995238Y-70773809D01*
X139019047Y-70821428D01*
X139042857Y-70916666D01*
X139042857Y-71035714D01*
X139019047Y-71130952D01*
X138995238Y-71178571D01*
X138971428Y-71202380D01*
X138923809Y-71226190D01*
X138876190Y-71226190D01*
X138828571Y-71202380D01*
X138804761Y-71178571D01*
X138780952Y-71130952D01*
X138757142Y-71035714D01*
X138757142Y-70916666D01*
X138780952Y-70821428D01*
X138804761Y-70773809D01*
X138828571Y-70750000D01*
X138876190Y-70726190D01*
X139519047Y-71226190D02*
X139233333Y-71226190D01*
X139376190Y-71226190D02*
X139376190Y-70726190D01*
X139328571Y-70797619D01*
X139280952Y-70845238D01*
X139233333Y-70869047D01*
X136209523Y-70226190D02*
X136042857Y-69988095D01*
X135923809Y-70226190D02*
X135923809Y-69726190D01*
X136114285Y-69726190D01*
X136161904Y-69750000D01*
X136185714Y-69773809D01*
X136209523Y-69821428D01*
X136209523Y-69892857D01*
X136185714Y-69940476D01*
X136161904Y-69964285D01*
X136114285Y-69988095D01*
X135923809Y-69988095D01*
X136685714Y-70226190D02*
X136400000Y-70226190D01*
X136542857Y-70226190D02*
X136542857Y-69726190D01*
X136495238Y-69797619D01*
X136447619Y-69845238D01*
X136400000Y-69869047D01*
X136876190Y-70202380D02*
X136947619Y-70226190D01*
X137066666Y-70226190D01*
X137114285Y-70202380D01*
X137138095Y-70178571D01*
X137161904Y-70130952D01*
X137161904Y-70083333D01*
X137138095Y-70035714D01*
X137114285Y-70011904D01*
X137066666Y-69988095D01*
X136971428Y-69964285D01*
X136923809Y-69940476D01*
X136900000Y-69916666D01*
X136876190Y-69869047D01*
X136876190Y-69821428D01*
X136900000Y-69773809D01*
X136923809Y-69750000D01*
X136971428Y-69726190D01*
X137090476Y-69726190D01*
X137161904Y-69750000D01*
X137376190Y-69964285D02*
X137542857Y-69964285D01*
X137614285Y-70226190D02*
X137376190Y-70226190D01*
X137376190Y-69726190D01*
X137614285Y-69726190D01*
X137709523Y-70273809D02*
X138090476Y-70273809D01*
X138304761Y-69726190D02*
X138352380Y-69726190D01*
X138400000Y-69750000D01*
X138423809Y-69773809D01*
X138447619Y-69821428D01*
X138471428Y-69916666D01*
X138471428Y-70035714D01*
X138447619Y-70130952D01*
X138423809Y-70178571D01*
X138400000Y-70202380D01*
X138352380Y-70226190D01*
X138304761Y-70226190D01*
X138257142Y-70202380D01*
X138233333Y-70178571D01*
X138209523Y-70130952D01*
X138185714Y-70035714D01*
X138185714Y-69916666D01*
X138209523Y-69821428D01*
X138233333Y-69773809D01*
X138257142Y-69750000D01*
X138304761Y-69726190D01*
X138923809Y-69726190D02*
X138685714Y-69726190D01*
X138661904Y-69964285D01*
X138685714Y-69940476D01*
X138733333Y-69916666D01*
X138852380Y-69916666D01*
X138900000Y-69940476D01*
X138923809Y-69964285D01*
X138947619Y-70011904D01*
X138947619Y-70130952D01*
X138923809Y-70178571D01*
X138900000Y-70202380D01*
X138852380Y-70226190D01*
X138733333Y-70226190D01*
X138685714Y-70202380D01*
X138661904Y-70178571D01*
X139257142Y-69726190D02*
X139304761Y-69726190D01*
X139352380Y-69750000D01*
X139376190Y-69773809D01*
X139400000Y-69821428D01*
X139423809Y-69916666D01*
X139423809Y-70035714D01*
X139400000Y-70130952D01*
X139376190Y-70178571D01*
X139352380Y-70202380D01*
X139304761Y-70226190D01*
X139257142Y-70226190D01*
X139209523Y-70202380D01*
X139185714Y-70178571D01*
X139161904Y-70130952D01*
X139138095Y-70035714D01*
X139138095Y-69916666D01*
X139161904Y-69821428D01*
X139185714Y-69773809D01*
X139209523Y-69750000D01*
X139257142Y-69726190D01*
X139876190Y-69726190D02*
X139638095Y-69726190D01*
X139614285Y-69964285D01*
X139638095Y-69940476D01*
X139685714Y-69916666D01*
X139804761Y-69916666D01*
X139852380Y-69940476D01*
X139876190Y-69964285D01*
X139900000Y-70011904D01*
X139900000Y-70130952D01*
X139876190Y-70178571D01*
X139852380Y-70202380D01*
X139804761Y-70226190D01*
X139685714Y-70226190D01*
X139638095Y-70202380D01*
X139614285Y-70178571D01*
%TO.C,P101*%
X166226190Y-65945238D02*
X165726190Y-65945238D01*
X165726190Y-65754761D01*
X165750000Y-65707142D01*
X165773809Y-65683333D01*
X165821428Y-65659523D01*
X165892857Y-65659523D01*
X165940476Y-65683333D01*
X165964285Y-65707142D01*
X165988095Y-65754761D01*
X165988095Y-65945238D01*
X166226190Y-65183333D02*
X166226190Y-65469047D01*
X166226190Y-65326190D02*
X165726190Y-65326190D01*
X165797619Y-65373809D01*
X165845238Y-65421428D01*
X165869047Y-65469047D01*
X165726190Y-64873809D02*
X165726190Y-64826190D01*
X165750000Y-64778571D01*
X165773809Y-64754761D01*
X165821428Y-64730952D01*
X165916666Y-64707142D01*
X166035714Y-64707142D01*
X166130952Y-64730952D01*
X166178571Y-64754761D01*
X166202380Y-64778571D01*
X166226190Y-64826190D01*
X166226190Y-64873809D01*
X166202380Y-64921428D01*
X166178571Y-64945238D01*
X166130952Y-64969047D01*
X166035714Y-64992857D01*
X165916666Y-64992857D01*
X165821428Y-64969047D01*
X165773809Y-64945238D01*
X165750000Y-64921428D01*
X165726190Y-64873809D01*
X166226190Y-64230952D02*
X166226190Y-64516666D01*
X166226190Y-64373809D02*
X165726190Y-64373809D01*
X165797619Y-64421428D01*
X165845238Y-64469047D01*
X165869047Y-64516666D01*
%TO.C,P201*%
X118404761Y-108976190D02*
X118404761Y-108476190D01*
X118595238Y-108476190D01*
X118642857Y-108500000D01*
X118666666Y-108523809D01*
X118690476Y-108571428D01*
X118690476Y-108642857D01*
X118666666Y-108690476D01*
X118642857Y-108714285D01*
X118595238Y-108738095D01*
X118404761Y-108738095D01*
X118880952Y-108523809D02*
X118904761Y-108500000D01*
X118952380Y-108476190D01*
X119071428Y-108476190D01*
X119119047Y-108500000D01*
X119142857Y-108523809D01*
X119166666Y-108571428D01*
X119166666Y-108619047D01*
X119142857Y-108690476D01*
X118857142Y-108976190D01*
X119166666Y-108976190D01*
X119476190Y-108476190D02*
X119523809Y-108476190D01*
X119571428Y-108500000D01*
X119595238Y-108523809D01*
X119619047Y-108571428D01*
X119642857Y-108666666D01*
X119642857Y-108785714D01*
X119619047Y-108880952D01*
X119595238Y-108928571D01*
X119571428Y-108952380D01*
X119523809Y-108976190D01*
X119476190Y-108976190D01*
X119428571Y-108952380D01*
X119404761Y-108928571D01*
X119380952Y-108880952D01*
X119357142Y-108785714D01*
X119357142Y-108666666D01*
X119380952Y-108571428D01*
X119404761Y-108523809D01*
X119428571Y-108500000D01*
X119476190Y-108476190D01*
X120119047Y-108976190D02*
X119833333Y-108976190D01*
X119976190Y-108976190D02*
X119976190Y-108476190D01*
X119928571Y-108547619D01*
X119880952Y-108595238D01*
X119833333Y-108619047D01*
X118773809Y-107714285D02*
X118845238Y-107738095D01*
X118869047Y-107761904D01*
X118892857Y-107809523D01*
X118892857Y-107880952D01*
X118869047Y-107928571D01*
X118845238Y-107952380D01*
X118797619Y-107976190D01*
X118607142Y-107976190D01*
X118607142Y-107476190D01*
X118773809Y-107476190D01*
X118821428Y-107500000D01*
X118845238Y-107523809D01*
X118869047Y-107571428D01*
X118869047Y-107619047D01*
X118845238Y-107666666D01*
X118821428Y-107690476D01*
X118773809Y-107714285D01*
X118607142Y-107714285D01*
X119107142Y-107976190D02*
X119107142Y-107476190D01*
X119392857Y-107976190D01*
X119392857Y-107476190D01*
X119916666Y-107928571D02*
X119892857Y-107952380D01*
X119821428Y-107976190D01*
X119773809Y-107976190D01*
X119702380Y-107952380D01*
X119654761Y-107904761D01*
X119630952Y-107857142D01*
X119607142Y-107761904D01*
X119607142Y-107690476D01*
X119630952Y-107595238D01*
X119654761Y-107547619D01*
X119702380Y-107500000D01*
X119773809Y-107476190D01*
X119821428Y-107476190D01*
X119892857Y-107500000D01*
X119916666Y-107523809D01*
%TO.C,P301*%
X137154761Y-108976190D02*
X137154761Y-108476190D01*
X137345238Y-108476190D01*
X137392857Y-108500000D01*
X137416666Y-108523809D01*
X137440476Y-108571428D01*
X137440476Y-108642857D01*
X137416666Y-108690476D01*
X137392857Y-108714285D01*
X137345238Y-108738095D01*
X137154761Y-108738095D01*
X137607142Y-108476190D02*
X137916666Y-108476190D01*
X137750000Y-108666666D01*
X137821428Y-108666666D01*
X137869047Y-108690476D01*
X137892857Y-108714285D01*
X137916666Y-108761904D01*
X137916666Y-108880952D01*
X137892857Y-108928571D01*
X137869047Y-108952380D01*
X137821428Y-108976190D01*
X137678571Y-108976190D01*
X137630952Y-108952380D01*
X137607142Y-108928571D01*
X138226190Y-108476190D02*
X138273809Y-108476190D01*
X138321428Y-108500000D01*
X138345238Y-108523809D01*
X138369047Y-108571428D01*
X138392857Y-108666666D01*
X138392857Y-108785714D01*
X138369047Y-108880952D01*
X138345238Y-108928571D01*
X138321428Y-108952380D01*
X138273809Y-108976190D01*
X138226190Y-108976190D01*
X138178571Y-108952380D01*
X138154761Y-108928571D01*
X138130952Y-108880952D01*
X138107142Y-108785714D01*
X138107142Y-108666666D01*
X138130952Y-108571428D01*
X138154761Y-108523809D01*
X138178571Y-108500000D01*
X138226190Y-108476190D01*
X138869047Y-108976190D02*
X138583333Y-108976190D01*
X138726190Y-108976190D02*
X138726190Y-108476190D01*
X138678571Y-108547619D01*
X138630952Y-108595238D01*
X138583333Y-108619047D01*
X137523809Y-107714285D02*
X137595238Y-107738095D01*
X137619047Y-107761904D01*
X137642857Y-107809523D01*
X137642857Y-107880952D01*
X137619047Y-107928571D01*
X137595238Y-107952380D01*
X137547619Y-107976190D01*
X137357142Y-107976190D01*
X137357142Y-107476190D01*
X137523809Y-107476190D01*
X137571428Y-107500000D01*
X137595238Y-107523809D01*
X137619047Y-107571428D01*
X137619047Y-107619047D01*
X137595238Y-107666666D01*
X137571428Y-107690476D01*
X137523809Y-107714285D01*
X137357142Y-107714285D01*
X137857142Y-107976190D02*
X137857142Y-107476190D01*
X138142857Y-107976190D01*
X138142857Y-107476190D01*
X138666666Y-107928571D02*
X138642857Y-107952380D01*
X138571428Y-107976190D01*
X138523809Y-107976190D01*
X138452380Y-107952380D01*
X138404761Y-107904761D01*
X138380952Y-107857142D01*
X138357142Y-107761904D01*
X138357142Y-107690476D01*
X138380952Y-107595238D01*
X138404761Y-107547619D01*
X138452380Y-107500000D01*
X138523809Y-107476190D01*
X138571428Y-107476190D01*
X138642857Y-107500000D01*
X138666666Y-107523809D01*
%TO.C,R101*%
X159940476Y-76026190D02*
X159773809Y-75788095D01*
X159654761Y-76026190D02*
X159654761Y-75526190D01*
X159845238Y-75526190D01*
X159892857Y-75550000D01*
X159916666Y-75573809D01*
X159940476Y-75621428D01*
X159940476Y-75692857D01*
X159916666Y-75740476D01*
X159892857Y-75764285D01*
X159845238Y-75788095D01*
X159654761Y-75788095D01*
X160416666Y-76026190D02*
X160130952Y-76026190D01*
X160273809Y-76026190D02*
X160273809Y-75526190D01*
X160226190Y-75597619D01*
X160178571Y-75645238D01*
X160130952Y-75669047D01*
X160726190Y-75526190D02*
X160773809Y-75526190D01*
X160821428Y-75550000D01*
X160845238Y-75573809D01*
X160869047Y-75621428D01*
X160892857Y-75716666D01*
X160892857Y-75835714D01*
X160869047Y-75930952D01*
X160845238Y-75978571D01*
X160821428Y-76002380D01*
X160773809Y-76026190D01*
X160726190Y-76026190D01*
X160678571Y-76002380D01*
X160654761Y-75978571D01*
X160630952Y-75930952D01*
X160607142Y-75835714D01*
X160607142Y-75716666D01*
X160630952Y-75621428D01*
X160654761Y-75573809D01*
X160678571Y-75550000D01*
X160726190Y-75526190D01*
X161369047Y-76026190D02*
X161083333Y-76026190D01*
X161226190Y-76026190D02*
X161226190Y-75526190D01*
X161178571Y-75597619D01*
X161130952Y-75645238D01*
X161083333Y-75669047D01*
X159888095Y-76492857D02*
X159888095Y-76826190D01*
X159769047Y-76302380D02*
X159650000Y-76659523D01*
X159959523Y-76659523D01*
X160150000Y-76778571D02*
X160173809Y-76802380D01*
X160150000Y-76826190D01*
X160126190Y-76802380D01*
X160150000Y-76778571D01*
X160150000Y-76826190D01*
X160340476Y-76326190D02*
X160673809Y-76326190D01*
X160459523Y-76826190D01*
X160864285Y-76826190D02*
X160864285Y-76326190D01*
X161150000Y-76826190D02*
X160935714Y-76540476D01*
X161150000Y-76326190D02*
X160864285Y-76611904D01*
%TO.C,R102*%
X159740476Y-79126190D02*
X159573809Y-78888095D01*
X159454761Y-79126190D02*
X159454761Y-78626190D01*
X159645238Y-78626190D01*
X159692857Y-78650000D01*
X159716666Y-78673809D01*
X159740476Y-78721428D01*
X159740476Y-78792857D01*
X159716666Y-78840476D01*
X159692857Y-78864285D01*
X159645238Y-78888095D01*
X159454761Y-78888095D01*
X160216666Y-79126190D02*
X159930952Y-79126190D01*
X160073809Y-79126190D02*
X160073809Y-78626190D01*
X160026190Y-78697619D01*
X159978571Y-78745238D01*
X159930952Y-78769047D01*
X160526190Y-78626190D02*
X160573809Y-78626190D01*
X160621428Y-78650000D01*
X160645238Y-78673809D01*
X160669047Y-78721428D01*
X160692857Y-78816666D01*
X160692857Y-78935714D01*
X160669047Y-79030952D01*
X160645238Y-79078571D01*
X160621428Y-79102380D01*
X160573809Y-79126190D01*
X160526190Y-79126190D01*
X160478571Y-79102380D01*
X160454761Y-79078571D01*
X160430952Y-79030952D01*
X160407142Y-78935714D01*
X160407142Y-78816666D01*
X160430952Y-78721428D01*
X160454761Y-78673809D01*
X160478571Y-78650000D01*
X160526190Y-78626190D01*
X160883333Y-78673809D02*
X160907142Y-78650000D01*
X160954761Y-78626190D01*
X161073809Y-78626190D01*
X161121428Y-78650000D01*
X161145238Y-78673809D01*
X161169047Y-78721428D01*
X161169047Y-78769047D01*
X161145238Y-78840476D01*
X160859523Y-79126190D01*
X161169047Y-79126190D01*
X159788095Y-79592857D02*
X159788095Y-79926190D01*
X159669047Y-79402380D02*
X159550000Y-79759523D01*
X159859523Y-79759523D01*
X160050000Y-79878571D02*
X160073809Y-79902380D01*
X160050000Y-79926190D01*
X160026190Y-79902380D01*
X160050000Y-79878571D01*
X160050000Y-79926190D01*
X160240476Y-79426190D02*
X160573809Y-79426190D01*
X160359523Y-79926190D01*
X160764285Y-79926190D02*
X160764285Y-79426190D01*
X161050000Y-79926190D02*
X160835714Y-79640476D01*
X161050000Y-79426190D02*
X160764285Y-79711904D01*
%TO.C,R201*%
X124190476Y-96976190D02*
X124023809Y-96738095D01*
X123904761Y-96976190D02*
X123904761Y-96476190D01*
X124095238Y-96476190D01*
X124142857Y-96500000D01*
X124166666Y-96523809D01*
X124190476Y-96571428D01*
X124190476Y-96642857D01*
X124166666Y-96690476D01*
X124142857Y-96714285D01*
X124095238Y-96738095D01*
X123904761Y-96738095D01*
X124380952Y-96523809D02*
X124404761Y-96500000D01*
X124452380Y-96476190D01*
X124571428Y-96476190D01*
X124619047Y-96500000D01*
X124642857Y-96523809D01*
X124666666Y-96571428D01*
X124666666Y-96619047D01*
X124642857Y-96690476D01*
X124357142Y-96976190D01*
X124666666Y-96976190D01*
X124976190Y-96476190D02*
X125023809Y-96476190D01*
X125071428Y-96500000D01*
X125095238Y-96523809D01*
X125119047Y-96571428D01*
X125142857Y-96666666D01*
X125142857Y-96785714D01*
X125119047Y-96880952D01*
X125095238Y-96928571D01*
X125071428Y-96952380D01*
X125023809Y-96976190D01*
X124976190Y-96976190D01*
X124928571Y-96952380D01*
X124904761Y-96928571D01*
X124880952Y-96880952D01*
X124857142Y-96785714D01*
X124857142Y-96666666D01*
X124880952Y-96571428D01*
X124904761Y-96523809D01*
X124928571Y-96500000D01*
X124976190Y-96476190D01*
X125619047Y-96976190D02*
X125333333Y-96976190D01*
X125476190Y-96976190D02*
X125476190Y-96476190D01*
X125428571Y-96547619D01*
X125380952Y-96595238D01*
X125333333Y-96619047D01*
X124238095Y-97642857D02*
X124238095Y-97976190D01*
X124119047Y-97452380D02*
X124000000Y-97809523D01*
X124309523Y-97809523D01*
X124500000Y-97928571D02*
X124523809Y-97952380D01*
X124500000Y-97976190D01*
X124476190Y-97952380D01*
X124500000Y-97928571D01*
X124500000Y-97976190D01*
X124690476Y-97476190D02*
X125023809Y-97476190D01*
X124809523Y-97976190D01*
X125214285Y-97976190D02*
X125214285Y-97476190D01*
X125500000Y-97976190D02*
X125285714Y-97690476D01*
X125500000Y-97476190D02*
X125214285Y-97761904D01*
%TO.C,R202*%
X108426190Y-101359523D02*
X108188095Y-101526190D01*
X108426190Y-101645238D02*
X107926190Y-101645238D01*
X107926190Y-101454761D01*
X107950000Y-101407142D01*
X107973809Y-101383333D01*
X108021428Y-101359523D01*
X108092857Y-101359523D01*
X108140476Y-101383333D01*
X108164285Y-101407142D01*
X108188095Y-101454761D01*
X108188095Y-101645238D01*
X107973809Y-101169047D02*
X107950000Y-101145238D01*
X107926190Y-101097619D01*
X107926190Y-100978571D01*
X107950000Y-100930952D01*
X107973809Y-100907142D01*
X108021428Y-100883333D01*
X108069047Y-100883333D01*
X108140476Y-100907142D01*
X108426190Y-101192857D01*
X108426190Y-100883333D01*
X107926190Y-100573809D02*
X107926190Y-100526190D01*
X107950000Y-100478571D01*
X107973809Y-100454761D01*
X108021428Y-100430952D01*
X108116666Y-100407142D01*
X108235714Y-100407142D01*
X108330952Y-100430952D01*
X108378571Y-100454761D01*
X108402380Y-100478571D01*
X108426190Y-100526190D01*
X108426190Y-100573809D01*
X108402380Y-100621428D01*
X108378571Y-100645238D01*
X108330952Y-100669047D01*
X108235714Y-100692857D01*
X108116666Y-100692857D01*
X108021428Y-100669047D01*
X107973809Y-100645238D01*
X107950000Y-100621428D01*
X107926190Y-100573809D01*
X107973809Y-100216666D02*
X107950000Y-100192857D01*
X107926190Y-100145238D01*
X107926190Y-100026190D01*
X107950000Y-99978571D01*
X107973809Y-99954761D01*
X108021428Y-99930952D01*
X108069047Y-99930952D01*
X108140476Y-99954761D01*
X108426190Y-100240476D01*
X108426190Y-99930952D01*
X108992857Y-101311904D02*
X109326190Y-101311904D01*
X108802380Y-101430952D02*
X109159523Y-101550000D01*
X109159523Y-101240476D01*
X109278571Y-101050000D02*
X109302380Y-101026190D01*
X109326190Y-101050000D01*
X109302380Y-101073809D01*
X109278571Y-101050000D01*
X109326190Y-101050000D01*
X108826190Y-100859523D02*
X108826190Y-100526190D01*
X109326190Y-100740476D01*
X109326190Y-100335714D02*
X108826190Y-100335714D01*
X109326190Y-100050000D02*
X109040476Y-100264285D01*
X108826190Y-100050000D02*
X109111904Y-100335714D01*
%TO.C,R301*%
X147140476Y-96626190D02*
X146973809Y-96388095D01*
X146854761Y-96626190D02*
X146854761Y-96126190D01*
X147045238Y-96126190D01*
X147092857Y-96150000D01*
X147116666Y-96173809D01*
X147140476Y-96221428D01*
X147140476Y-96292857D01*
X147116666Y-96340476D01*
X147092857Y-96364285D01*
X147045238Y-96388095D01*
X146854761Y-96388095D01*
X147307142Y-96126190D02*
X147616666Y-96126190D01*
X147450000Y-96316666D01*
X147521428Y-96316666D01*
X147569047Y-96340476D01*
X147592857Y-96364285D01*
X147616666Y-96411904D01*
X147616666Y-96530952D01*
X147592857Y-96578571D01*
X147569047Y-96602380D01*
X147521428Y-96626190D01*
X147378571Y-96626190D01*
X147330952Y-96602380D01*
X147307142Y-96578571D01*
X147926190Y-96126190D02*
X147973809Y-96126190D01*
X148021428Y-96150000D01*
X148045238Y-96173809D01*
X148069047Y-96221428D01*
X148092857Y-96316666D01*
X148092857Y-96435714D01*
X148069047Y-96530952D01*
X148045238Y-96578571D01*
X148021428Y-96602380D01*
X147973809Y-96626190D01*
X147926190Y-96626190D01*
X147878571Y-96602380D01*
X147854761Y-96578571D01*
X147830952Y-96530952D01*
X147807142Y-96435714D01*
X147807142Y-96316666D01*
X147830952Y-96221428D01*
X147854761Y-96173809D01*
X147878571Y-96150000D01*
X147926190Y-96126190D01*
X148569047Y-96626190D02*
X148283333Y-96626190D01*
X148426190Y-96626190D02*
X148426190Y-96126190D01*
X148378571Y-96197619D01*
X148330952Y-96245238D01*
X148283333Y-96269047D01*
X147088095Y-97092857D02*
X147088095Y-97426190D01*
X146969047Y-96902380D02*
X146850000Y-97259523D01*
X147159523Y-97259523D01*
X147350000Y-97378571D02*
X147373809Y-97402380D01*
X147350000Y-97426190D01*
X147326190Y-97402380D01*
X147350000Y-97378571D01*
X147350000Y-97426190D01*
X147540476Y-96926190D02*
X147873809Y-96926190D01*
X147659523Y-97426190D01*
X148064285Y-97426190D02*
X148064285Y-96926190D01*
X148350000Y-97426190D02*
X148135714Y-97140476D01*
X148350000Y-96926190D02*
X148064285Y-97211904D01*
%TO.C,R302*%
X130140476Y-101826190D02*
X129973809Y-101588095D01*
X129854761Y-101826190D02*
X129854761Y-101326190D01*
X130045238Y-101326190D01*
X130092857Y-101350000D01*
X130116666Y-101373809D01*
X130140476Y-101421428D01*
X130140476Y-101492857D01*
X130116666Y-101540476D01*
X130092857Y-101564285D01*
X130045238Y-101588095D01*
X129854761Y-101588095D01*
X130307142Y-101326190D02*
X130616666Y-101326190D01*
X130450000Y-101516666D01*
X130521428Y-101516666D01*
X130569047Y-101540476D01*
X130592857Y-101564285D01*
X130616666Y-101611904D01*
X130616666Y-101730952D01*
X130592857Y-101778571D01*
X130569047Y-101802380D01*
X130521428Y-101826190D01*
X130378571Y-101826190D01*
X130330952Y-101802380D01*
X130307142Y-101778571D01*
X130926190Y-101326190D02*
X130973809Y-101326190D01*
X131021428Y-101350000D01*
X131045238Y-101373809D01*
X131069047Y-101421428D01*
X131092857Y-101516666D01*
X131092857Y-101635714D01*
X131069047Y-101730952D01*
X131045238Y-101778571D01*
X131021428Y-101802380D01*
X130973809Y-101826190D01*
X130926190Y-101826190D01*
X130878571Y-101802380D01*
X130854761Y-101778571D01*
X130830952Y-101730952D01*
X130807142Y-101635714D01*
X130807142Y-101516666D01*
X130830952Y-101421428D01*
X130854761Y-101373809D01*
X130878571Y-101350000D01*
X130926190Y-101326190D01*
X131283333Y-101373809D02*
X131307142Y-101350000D01*
X131354761Y-101326190D01*
X131473809Y-101326190D01*
X131521428Y-101350000D01*
X131545238Y-101373809D01*
X131569047Y-101421428D01*
X131569047Y-101469047D01*
X131545238Y-101540476D01*
X131259523Y-101826190D01*
X131569047Y-101826190D01*
X130088095Y-102192857D02*
X130088095Y-102526190D01*
X129969047Y-102002380D02*
X129850000Y-102359523D01*
X130159523Y-102359523D01*
X130350000Y-102478571D02*
X130373809Y-102502380D01*
X130350000Y-102526190D01*
X130326190Y-102502380D01*
X130350000Y-102478571D01*
X130350000Y-102526190D01*
X130540476Y-102026190D02*
X130873809Y-102026190D01*
X130659523Y-102526190D01*
X131064285Y-102526190D02*
X131064285Y-102026190D01*
X131350000Y-102526190D02*
X131135714Y-102240476D01*
X131350000Y-102026190D02*
X131064285Y-102311904D01*
%TO.C,REG201*%
X113064285Y-83226190D02*
X112897619Y-82988095D01*
X112778571Y-83226190D02*
X112778571Y-82726190D01*
X112969047Y-82726190D01*
X113016666Y-82750000D01*
X113040476Y-82773809D01*
X113064285Y-82821428D01*
X113064285Y-82892857D01*
X113040476Y-82940476D01*
X113016666Y-82964285D01*
X112969047Y-82988095D01*
X112778571Y-82988095D01*
X113278571Y-82964285D02*
X113445238Y-82964285D01*
X113516666Y-83226190D02*
X113278571Y-83226190D01*
X113278571Y-82726190D01*
X113516666Y-82726190D01*
X113992857Y-82750000D02*
X113945238Y-82726190D01*
X113873809Y-82726190D01*
X113802380Y-82750000D01*
X113754761Y-82797619D01*
X113730952Y-82845238D01*
X113707142Y-82940476D01*
X113707142Y-83011904D01*
X113730952Y-83107142D01*
X113754761Y-83154761D01*
X113802380Y-83202380D01*
X113873809Y-83226190D01*
X113921428Y-83226190D01*
X113992857Y-83202380D01*
X114016666Y-83178571D01*
X114016666Y-83011904D01*
X113921428Y-83011904D01*
X114207142Y-82773809D02*
X114230952Y-82750000D01*
X114278571Y-82726190D01*
X114397619Y-82726190D01*
X114445238Y-82750000D01*
X114469047Y-82773809D01*
X114492857Y-82821428D01*
X114492857Y-82869047D01*
X114469047Y-82940476D01*
X114183333Y-83226190D01*
X114492857Y-83226190D01*
X114802380Y-82726190D02*
X114850000Y-82726190D01*
X114897619Y-82750000D01*
X114921428Y-82773809D01*
X114945238Y-82821428D01*
X114969047Y-82916666D01*
X114969047Y-83035714D01*
X114945238Y-83130952D01*
X114921428Y-83178571D01*
X114897619Y-83202380D01*
X114850000Y-83226190D01*
X114802380Y-83226190D01*
X114754761Y-83202380D01*
X114730952Y-83178571D01*
X114707142Y-83130952D01*
X114683333Y-83035714D01*
X114683333Y-82916666D01*
X114707142Y-82821428D01*
X114730952Y-82773809D01*
X114754761Y-82750000D01*
X114802380Y-82726190D01*
X115445238Y-83226190D02*
X115159523Y-83226190D01*
X115302380Y-83226190D02*
X115302380Y-82726190D01*
X115254761Y-82797619D01*
X115207142Y-82845238D01*
X115159523Y-82869047D01*
X111409523Y-83926190D02*
X111171428Y-83926190D01*
X111171428Y-83426190D01*
X111576190Y-83926190D02*
X111576190Y-83426190D01*
X111695238Y-83426190D01*
X111766666Y-83450000D01*
X111814285Y-83497619D01*
X111838095Y-83545238D01*
X111861904Y-83640476D01*
X111861904Y-83711904D01*
X111838095Y-83807142D01*
X111814285Y-83854761D01*
X111766666Y-83902380D01*
X111695238Y-83926190D01*
X111576190Y-83926190D01*
X112052380Y-83473809D02*
X112076190Y-83450000D01*
X112123809Y-83426190D01*
X112242857Y-83426190D01*
X112290476Y-83450000D01*
X112314285Y-83473809D01*
X112338095Y-83521428D01*
X112338095Y-83569047D01*
X112314285Y-83640476D01*
X112028571Y-83926190D01*
X112338095Y-83926190D01*
X112576190Y-83926190D02*
X112671428Y-83926190D01*
X112719047Y-83902380D01*
X112742857Y-83878571D01*
X112790476Y-83807142D01*
X112814285Y-83711904D01*
X112814285Y-83521428D01*
X112790476Y-83473809D01*
X112766666Y-83450000D01*
X112719047Y-83426190D01*
X112623809Y-83426190D01*
X112576190Y-83450000D01*
X112552380Y-83473809D01*
X112528571Y-83521428D01*
X112528571Y-83640476D01*
X112552380Y-83688095D01*
X112576190Y-83711904D01*
X112623809Y-83735714D01*
X112719047Y-83735714D01*
X112766666Y-83711904D01*
X112790476Y-83688095D01*
X112814285Y-83640476D01*
X113100000Y-83640476D02*
X113052380Y-83616666D01*
X113028571Y-83592857D01*
X113004761Y-83545238D01*
X113004761Y-83521428D01*
X113028571Y-83473809D01*
X113052380Y-83450000D01*
X113100000Y-83426190D01*
X113195238Y-83426190D01*
X113242857Y-83450000D01*
X113266666Y-83473809D01*
X113290476Y-83521428D01*
X113290476Y-83545238D01*
X113266666Y-83592857D01*
X113242857Y-83616666D01*
X113195238Y-83640476D01*
X113100000Y-83640476D01*
X113052380Y-83664285D01*
X113028571Y-83688095D01*
X113004761Y-83735714D01*
X113004761Y-83830952D01*
X113028571Y-83878571D01*
X113052380Y-83902380D01*
X113100000Y-83926190D01*
X113195238Y-83926190D01*
X113242857Y-83902380D01*
X113266666Y-83878571D01*
X113290476Y-83830952D01*
X113290476Y-83735714D01*
X113266666Y-83688095D01*
X113242857Y-83664285D01*
X113195238Y-83640476D01*
X113766666Y-83926190D02*
X113480952Y-83926190D01*
X113623809Y-83926190D02*
X113623809Y-83426190D01*
X113576190Y-83497619D01*
X113528571Y-83545238D01*
X113480952Y-83569047D01*
X113957142Y-83783333D02*
X114195238Y-83783333D01*
X113909523Y-83926190D02*
X114076190Y-83426190D01*
X114242857Y-83926190D01*
X114576190Y-83664285D02*
X114647619Y-83688095D01*
X114671428Y-83711904D01*
X114695238Y-83759523D01*
X114695238Y-83830952D01*
X114671428Y-83878571D01*
X114647619Y-83902380D01*
X114600000Y-83926190D01*
X114409523Y-83926190D01*
X114409523Y-83426190D01*
X114576190Y-83426190D01*
X114623809Y-83450000D01*
X114647619Y-83473809D01*
X114671428Y-83521428D01*
X114671428Y-83569047D01*
X114647619Y-83616666D01*
X114623809Y-83640476D01*
X114576190Y-83664285D01*
X114409523Y-83664285D01*
X114909523Y-83426190D02*
X114909523Y-83830952D01*
X114933333Y-83878571D01*
X114957142Y-83902380D01*
X115004761Y-83926190D01*
X115100000Y-83926190D01*
X115147619Y-83902380D01*
X115171428Y-83878571D01*
X115195238Y-83830952D01*
X115195238Y-83426190D01*
X115671428Y-83426190D02*
X115433333Y-83426190D01*
X115409523Y-83664285D01*
X115433333Y-83640476D01*
X115480952Y-83616666D01*
X115600000Y-83616666D01*
X115647619Y-83640476D01*
X115671428Y-83664285D01*
X115695238Y-83711904D01*
X115695238Y-83830952D01*
X115671428Y-83878571D01*
X115647619Y-83902380D01*
X115600000Y-83926190D01*
X115480952Y-83926190D01*
X115433333Y-83902380D01*
X115409523Y-83878571D01*
X116004761Y-83426190D02*
X116052380Y-83426190D01*
X116100000Y-83450000D01*
X116123809Y-83473809D01*
X116147619Y-83521428D01*
X116171428Y-83616666D01*
X116171428Y-83735714D01*
X116147619Y-83830952D01*
X116123809Y-83878571D01*
X116100000Y-83902380D01*
X116052380Y-83926190D01*
X116004761Y-83926190D01*
X115957142Y-83902380D01*
X115933333Y-83878571D01*
X115909523Y-83830952D01*
X115885714Y-83735714D01*
X115885714Y-83616666D01*
X115909523Y-83521428D01*
X115933333Y-83473809D01*
X115957142Y-83450000D01*
X116004761Y-83426190D01*
X116314285Y-83426190D02*
X116600000Y-83426190D01*
X116457142Y-83926190D02*
X116457142Y-83426190D01*
X117052380Y-83926190D02*
X116885714Y-83688095D01*
X116766666Y-83926190D02*
X116766666Y-83426190D01*
X116957142Y-83426190D01*
X117004761Y-83450000D01*
X117028571Y-83473809D01*
X117052380Y-83521428D01*
X117052380Y-83592857D01*
X117028571Y-83640476D01*
X117004761Y-83664285D01*
X116957142Y-83688095D01*
X116766666Y-83688095D01*
%TO.C,REG301*%
X131964285Y-77476190D02*
X131797619Y-77238095D01*
X131678571Y-77476190D02*
X131678571Y-76976190D01*
X131869047Y-76976190D01*
X131916666Y-77000000D01*
X131940476Y-77023809D01*
X131964285Y-77071428D01*
X131964285Y-77142857D01*
X131940476Y-77190476D01*
X131916666Y-77214285D01*
X131869047Y-77238095D01*
X131678571Y-77238095D01*
X132178571Y-77214285D02*
X132345238Y-77214285D01*
X132416666Y-77476190D02*
X132178571Y-77476190D01*
X132178571Y-76976190D01*
X132416666Y-76976190D01*
X132892857Y-77000000D02*
X132845238Y-76976190D01*
X132773809Y-76976190D01*
X132702380Y-77000000D01*
X132654761Y-77047619D01*
X132630952Y-77095238D01*
X132607142Y-77190476D01*
X132607142Y-77261904D01*
X132630952Y-77357142D01*
X132654761Y-77404761D01*
X132702380Y-77452380D01*
X132773809Y-77476190D01*
X132821428Y-77476190D01*
X132892857Y-77452380D01*
X132916666Y-77428571D01*
X132916666Y-77261904D01*
X132821428Y-77261904D01*
X133083333Y-76976190D02*
X133392857Y-76976190D01*
X133226190Y-77166666D01*
X133297619Y-77166666D01*
X133345238Y-77190476D01*
X133369047Y-77214285D01*
X133392857Y-77261904D01*
X133392857Y-77380952D01*
X133369047Y-77428571D01*
X133345238Y-77452380D01*
X133297619Y-77476190D01*
X133154761Y-77476190D01*
X133107142Y-77452380D01*
X133083333Y-77428571D01*
X133702380Y-76976190D02*
X133750000Y-76976190D01*
X133797619Y-77000000D01*
X133821428Y-77023809D01*
X133845238Y-77071428D01*
X133869047Y-77166666D01*
X133869047Y-77285714D01*
X133845238Y-77380952D01*
X133821428Y-77428571D01*
X133797619Y-77452380D01*
X133750000Y-77476190D01*
X133702380Y-77476190D01*
X133654761Y-77452380D01*
X133630952Y-77428571D01*
X133607142Y-77380952D01*
X133583333Y-77285714D01*
X133583333Y-77166666D01*
X133607142Y-77071428D01*
X133630952Y-77023809D01*
X133654761Y-77000000D01*
X133702380Y-76976190D01*
X134345238Y-77476190D02*
X134059523Y-77476190D01*
X134202380Y-77476190D02*
X134202380Y-76976190D01*
X134154761Y-77047619D01*
X134107142Y-77095238D01*
X134059523Y-77119047D01*
X135059523Y-77476190D02*
X134821428Y-77476190D01*
X134821428Y-76976190D01*
X135226190Y-77476190D02*
X135226190Y-76976190D01*
X135345238Y-76976190D01*
X135416666Y-77000000D01*
X135464285Y-77047619D01*
X135488095Y-77095238D01*
X135511904Y-77190476D01*
X135511904Y-77261904D01*
X135488095Y-77357142D01*
X135464285Y-77404761D01*
X135416666Y-77452380D01*
X135345238Y-77476190D01*
X135226190Y-77476190D01*
X135702380Y-77023809D02*
X135726190Y-77000000D01*
X135773809Y-76976190D01*
X135892857Y-76976190D01*
X135940476Y-77000000D01*
X135964285Y-77023809D01*
X135988095Y-77071428D01*
X135988095Y-77119047D01*
X135964285Y-77190476D01*
X135678571Y-77476190D01*
X135988095Y-77476190D01*
X136226190Y-77476190D02*
X136321428Y-77476190D01*
X136369047Y-77452380D01*
X136392857Y-77428571D01*
X136440476Y-77357142D01*
X136464285Y-77261904D01*
X136464285Y-77071428D01*
X136440476Y-77023809D01*
X136416666Y-77000000D01*
X136369047Y-76976190D01*
X136273809Y-76976190D01*
X136226190Y-77000000D01*
X136202380Y-77023809D01*
X136178571Y-77071428D01*
X136178571Y-77190476D01*
X136202380Y-77238095D01*
X136226190Y-77261904D01*
X136273809Y-77285714D01*
X136369047Y-77285714D01*
X136416666Y-77261904D01*
X136440476Y-77238095D01*
X136464285Y-77190476D01*
X136750000Y-77190476D02*
X136702380Y-77166666D01*
X136678571Y-77142857D01*
X136654761Y-77095238D01*
X136654761Y-77071428D01*
X136678571Y-77023809D01*
X136702380Y-77000000D01*
X136750000Y-76976190D01*
X136845238Y-76976190D01*
X136892857Y-77000000D01*
X136916666Y-77023809D01*
X136940476Y-77071428D01*
X136940476Y-77095238D01*
X136916666Y-77142857D01*
X136892857Y-77166666D01*
X136845238Y-77190476D01*
X136750000Y-77190476D01*
X136702380Y-77214285D01*
X136678571Y-77238095D01*
X136654761Y-77285714D01*
X136654761Y-77380952D01*
X136678571Y-77428571D01*
X136702380Y-77452380D01*
X136750000Y-77476190D01*
X136845238Y-77476190D01*
X136892857Y-77452380D01*
X136916666Y-77428571D01*
X136940476Y-77380952D01*
X136940476Y-77285714D01*
X136916666Y-77238095D01*
X136892857Y-77214285D01*
X136845238Y-77190476D01*
X137416666Y-77476190D02*
X137130952Y-77476190D01*
X137273809Y-77476190D02*
X137273809Y-76976190D01*
X137226190Y-77047619D01*
X137178571Y-77095238D01*
X137130952Y-77119047D01*
X137607142Y-77333333D02*
X137845238Y-77333333D01*
X137559523Y-77476190D02*
X137726190Y-76976190D01*
X137892857Y-77476190D01*
X138226190Y-77214285D02*
X138297619Y-77238095D01*
X138321428Y-77261904D01*
X138345238Y-77309523D01*
X138345238Y-77380952D01*
X138321428Y-77428571D01*
X138297619Y-77452380D01*
X138250000Y-77476190D01*
X138059523Y-77476190D01*
X138059523Y-76976190D01*
X138226190Y-76976190D01*
X138273809Y-77000000D01*
X138297619Y-77023809D01*
X138321428Y-77071428D01*
X138321428Y-77119047D01*
X138297619Y-77166666D01*
X138273809Y-77190476D01*
X138226190Y-77214285D01*
X138059523Y-77214285D01*
X138559523Y-76976190D02*
X138559523Y-77380952D01*
X138583333Y-77428571D01*
X138607142Y-77452380D01*
X138654761Y-77476190D01*
X138750000Y-77476190D01*
X138797619Y-77452380D01*
X138821428Y-77428571D01*
X138845238Y-77380952D01*
X138845238Y-76976190D01*
X139321428Y-76976190D02*
X139083333Y-76976190D01*
X139059523Y-77214285D01*
X139083333Y-77190476D01*
X139130952Y-77166666D01*
X139250000Y-77166666D01*
X139297619Y-77190476D01*
X139321428Y-77214285D01*
X139345238Y-77261904D01*
X139345238Y-77380952D01*
X139321428Y-77428571D01*
X139297619Y-77452380D01*
X139250000Y-77476190D01*
X139130952Y-77476190D01*
X139083333Y-77452380D01*
X139059523Y-77428571D01*
X139654761Y-76976190D02*
X139702380Y-76976190D01*
X139750000Y-77000000D01*
X139773809Y-77023809D01*
X139797619Y-77071428D01*
X139821428Y-77166666D01*
X139821428Y-77285714D01*
X139797619Y-77380952D01*
X139773809Y-77428571D01*
X139750000Y-77452380D01*
X139702380Y-77476190D01*
X139654761Y-77476190D01*
X139607142Y-77452380D01*
X139583333Y-77428571D01*
X139559523Y-77380952D01*
X139535714Y-77285714D01*
X139535714Y-77166666D01*
X139559523Y-77071428D01*
X139583333Y-77023809D01*
X139607142Y-77000000D01*
X139654761Y-76976190D01*
X139964285Y-76976190D02*
X140250000Y-76976190D01*
X140107142Y-77476190D02*
X140107142Y-76976190D01*
X140702380Y-77476190D02*
X140535714Y-77238095D01*
X140416666Y-77476190D02*
X140416666Y-76976190D01*
X140607142Y-76976190D01*
X140654761Y-77000000D01*
X140678571Y-77023809D01*
X140702380Y-77071428D01*
X140702380Y-77142857D01*
X140678571Y-77190476D01*
X140654761Y-77214285D01*
X140607142Y-77238095D01*
X140416666Y-77238095D01*
%TO.C,SIG_ISO301*%
X145214285Y-80502380D02*
X145285714Y-80526190D01*
X145404761Y-80526190D01*
X145452380Y-80502380D01*
X145476190Y-80478571D01*
X145500000Y-80430952D01*
X145500000Y-80383333D01*
X145476190Y-80335714D01*
X145452380Y-80311904D01*
X145404761Y-80288095D01*
X145309523Y-80264285D01*
X145261904Y-80240476D01*
X145238095Y-80216666D01*
X145214285Y-80169047D01*
X145214285Y-80121428D01*
X145238095Y-80073809D01*
X145261904Y-80050000D01*
X145309523Y-80026190D01*
X145428571Y-80026190D01*
X145500000Y-80050000D01*
X145714285Y-80526190D02*
X145714285Y-80026190D01*
X146214285Y-80050000D02*
X146166666Y-80026190D01*
X146095238Y-80026190D01*
X146023809Y-80050000D01*
X145976190Y-80097619D01*
X145952380Y-80145238D01*
X145928571Y-80240476D01*
X145928571Y-80311904D01*
X145952380Y-80407142D01*
X145976190Y-80454761D01*
X146023809Y-80502380D01*
X146095238Y-80526190D01*
X146142857Y-80526190D01*
X146214285Y-80502380D01*
X146238095Y-80478571D01*
X146238095Y-80311904D01*
X146142857Y-80311904D01*
X146333333Y-80573809D02*
X146714285Y-80573809D01*
X146833333Y-80526190D02*
X146833333Y-80026190D01*
X147047619Y-80502380D02*
X147119047Y-80526190D01*
X147238095Y-80526190D01*
X147285714Y-80502380D01*
X147309523Y-80478571D01*
X147333333Y-80430952D01*
X147333333Y-80383333D01*
X147309523Y-80335714D01*
X147285714Y-80311904D01*
X147238095Y-80288095D01*
X147142857Y-80264285D01*
X147095238Y-80240476D01*
X147071428Y-80216666D01*
X147047619Y-80169047D01*
X147047619Y-80121428D01*
X147071428Y-80073809D01*
X147095238Y-80050000D01*
X147142857Y-80026190D01*
X147261904Y-80026190D01*
X147333333Y-80050000D01*
X147642857Y-80026190D02*
X147738095Y-80026190D01*
X147785714Y-80050000D01*
X147833333Y-80097619D01*
X147857142Y-80192857D01*
X147857142Y-80359523D01*
X147833333Y-80454761D01*
X147785714Y-80502380D01*
X147738095Y-80526190D01*
X147642857Y-80526190D01*
X147595238Y-80502380D01*
X147547619Y-80454761D01*
X147523809Y-80359523D01*
X147523809Y-80192857D01*
X147547619Y-80097619D01*
X147595238Y-80050000D01*
X147642857Y-80026190D01*
X148023809Y-80026190D02*
X148333333Y-80026190D01*
X148166666Y-80216666D01*
X148238095Y-80216666D01*
X148285714Y-80240476D01*
X148309523Y-80264285D01*
X148333333Y-80311904D01*
X148333333Y-80430952D01*
X148309523Y-80478571D01*
X148285714Y-80502380D01*
X148238095Y-80526190D01*
X148095238Y-80526190D01*
X148047619Y-80502380D01*
X148023809Y-80478571D01*
X148642857Y-80026190D02*
X148690476Y-80026190D01*
X148738095Y-80050000D01*
X148761904Y-80073809D01*
X148785714Y-80121428D01*
X148809523Y-80216666D01*
X148809523Y-80335714D01*
X148785714Y-80430952D01*
X148761904Y-80478571D01*
X148738095Y-80502380D01*
X148690476Y-80526190D01*
X148642857Y-80526190D01*
X148595238Y-80502380D01*
X148571428Y-80478571D01*
X148547619Y-80430952D01*
X148523809Y-80335714D01*
X148523809Y-80216666D01*
X148547619Y-80121428D01*
X148571428Y-80073809D01*
X148595238Y-80050000D01*
X148642857Y-80026190D01*
X149285714Y-80526190D02*
X149000000Y-80526190D01*
X149142857Y-80526190D02*
X149142857Y-80026190D01*
X149095238Y-80097619D01*
X149047619Y-80145238D01*
X149000000Y-80169047D01*
X146285714Y-79452380D02*
X146357142Y-79476190D01*
X146476190Y-79476190D01*
X146523809Y-79452380D01*
X146547619Y-79428571D01*
X146571428Y-79380952D01*
X146571428Y-79333333D01*
X146547619Y-79285714D01*
X146523809Y-79261904D01*
X146476190Y-79238095D01*
X146380952Y-79214285D01*
X146333333Y-79190476D01*
X146309523Y-79166666D01*
X146285714Y-79119047D01*
X146285714Y-79071428D01*
X146309523Y-79023809D01*
X146333333Y-79000000D01*
X146380952Y-78976190D01*
X146500000Y-78976190D01*
X146571428Y-79000000D01*
X146785714Y-79476190D02*
X146785714Y-78976190D01*
X147095238Y-79190476D02*
X147047619Y-79166666D01*
X147023809Y-79142857D01*
X147000000Y-79095238D01*
X147000000Y-79071428D01*
X147023809Y-79023809D01*
X147047619Y-79000000D01*
X147095238Y-78976190D01*
X147190476Y-78976190D01*
X147238095Y-79000000D01*
X147261904Y-79023809D01*
X147285714Y-79071428D01*
X147285714Y-79095238D01*
X147261904Y-79142857D01*
X147238095Y-79166666D01*
X147190476Y-79190476D01*
X147095238Y-79190476D01*
X147047619Y-79214285D01*
X147023809Y-79238095D01*
X147000000Y-79285714D01*
X147000000Y-79380952D01*
X147023809Y-79428571D01*
X147047619Y-79452380D01*
X147095238Y-79476190D01*
X147190476Y-79476190D01*
X147238095Y-79452380D01*
X147261904Y-79428571D01*
X147285714Y-79380952D01*
X147285714Y-79285714D01*
X147261904Y-79238095D01*
X147238095Y-79214285D01*
X147190476Y-79190476D01*
X147714285Y-78976190D02*
X147619047Y-78976190D01*
X147571428Y-79000000D01*
X147547619Y-79023809D01*
X147500000Y-79095238D01*
X147476190Y-79190476D01*
X147476190Y-79380952D01*
X147500000Y-79428571D01*
X147523809Y-79452380D01*
X147571428Y-79476190D01*
X147666666Y-79476190D01*
X147714285Y-79452380D01*
X147738095Y-79428571D01*
X147761904Y-79380952D01*
X147761904Y-79261904D01*
X147738095Y-79214285D01*
X147714285Y-79190476D01*
X147666666Y-79166666D01*
X147571428Y-79166666D01*
X147523809Y-79190476D01*
X147500000Y-79214285D01*
X147476190Y-79261904D01*
X148071428Y-78976190D02*
X148119047Y-78976190D01*
X148166666Y-79000000D01*
X148190476Y-79023809D01*
X148214285Y-79071428D01*
X148238095Y-79166666D01*
X148238095Y-79285714D01*
X148214285Y-79380952D01*
X148190476Y-79428571D01*
X148166666Y-79452380D01*
X148119047Y-79476190D01*
X148071428Y-79476190D01*
X148023809Y-79452380D01*
X148000000Y-79428571D01*
X147976190Y-79380952D01*
X147952380Y-79285714D01*
X147952380Y-79166666D01*
X147976190Y-79071428D01*
X148000000Y-79023809D01*
X148023809Y-79000000D01*
X148071428Y-78976190D01*
X148547619Y-78976190D02*
X148595238Y-78976190D01*
X148642857Y-79000000D01*
X148666666Y-79023809D01*
X148690476Y-79071428D01*
X148714285Y-79166666D01*
X148714285Y-79285714D01*
X148690476Y-79380952D01*
X148666666Y-79428571D01*
X148642857Y-79452380D01*
X148595238Y-79476190D01*
X148547619Y-79476190D01*
X148500000Y-79452380D01*
X148476190Y-79428571D01*
X148452380Y-79380952D01*
X148428571Y-79285714D01*
X148428571Y-79166666D01*
X148452380Y-79071428D01*
X148476190Y-79023809D01*
X148500000Y-79000000D01*
X148547619Y-78976190D01*
D11*
%TO.C,STP201*%
X114404761Y-96504761D02*
X114547619Y-96552380D01*
X114785714Y-96552380D01*
X114880952Y-96504761D01*
X114928571Y-96457142D01*
X114976190Y-96361904D01*
X114976190Y-96266666D01*
X114928571Y-96171428D01*
X114880952Y-96123809D01*
X114785714Y-96076190D01*
X114595238Y-96028571D01*
X114500000Y-95980952D01*
X114452380Y-95933333D01*
X114404761Y-95838095D01*
X114404761Y-95742857D01*
X114452380Y-95647619D01*
X114500000Y-95600000D01*
X114595238Y-95552380D01*
X114833333Y-95552380D01*
X114976190Y-95600000D01*
X115261904Y-95552380D02*
X115833333Y-95552380D01*
X115547619Y-96552380D02*
X115547619Y-95552380D01*
X116166666Y-96552380D02*
X116166666Y-95552380D01*
X116547619Y-95552380D01*
X116642857Y-95600000D01*
X116690476Y-95647619D01*
X116738095Y-95742857D01*
X116738095Y-95885714D01*
X116690476Y-95980952D01*
X116642857Y-96028571D01*
X116547619Y-96076190D01*
X116166666Y-96076190D01*
X117119047Y-95647619D02*
X117166666Y-95600000D01*
X117261904Y-95552380D01*
X117500000Y-95552380D01*
X117595238Y-95600000D01*
X117642857Y-95647619D01*
X117690476Y-95742857D01*
X117690476Y-95838095D01*
X117642857Y-95980952D01*
X117071428Y-96552380D01*
X117690476Y-96552380D01*
X118309523Y-95552380D02*
X118404761Y-95552380D01*
X118500000Y-95600000D01*
X118547619Y-95647619D01*
X118595238Y-95742857D01*
X118642857Y-95933333D01*
X118642857Y-96171428D01*
X118595238Y-96361904D01*
X118547619Y-96457142D01*
X118500000Y-96504761D01*
X118404761Y-96552380D01*
X118309523Y-96552380D01*
X118214285Y-96504761D01*
X118166666Y-96457142D01*
X118119047Y-96361904D01*
X118071428Y-96171428D01*
X118071428Y-95933333D01*
X118119047Y-95742857D01*
X118166666Y-95647619D01*
X118214285Y-95600000D01*
X118309523Y-95552380D01*
X119595238Y-96552380D02*
X119023809Y-96552380D01*
X119309523Y-96552380D02*
X119309523Y-95552380D01*
X119214285Y-95695238D01*
X119119047Y-95790476D01*
X119023809Y-95838095D01*
%TO.C,STP301*%
X135604761Y-96504761D02*
X135747619Y-96552380D01*
X135985714Y-96552380D01*
X136080952Y-96504761D01*
X136128571Y-96457142D01*
X136176190Y-96361904D01*
X136176190Y-96266666D01*
X136128571Y-96171428D01*
X136080952Y-96123809D01*
X135985714Y-96076190D01*
X135795238Y-96028571D01*
X135700000Y-95980952D01*
X135652380Y-95933333D01*
X135604761Y-95838095D01*
X135604761Y-95742857D01*
X135652380Y-95647619D01*
X135700000Y-95600000D01*
X135795238Y-95552380D01*
X136033333Y-95552380D01*
X136176190Y-95600000D01*
X136461904Y-95552380D02*
X137033333Y-95552380D01*
X136747619Y-96552380D02*
X136747619Y-95552380D01*
X137366666Y-96552380D02*
X137366666Y-95552380D01*
X137747619Y-95552380D01*
X137842857Y-95600000D01*
X137890476Y-95647619D01*
X137938095Y-95742857D01*
X137938095Y-95885714D01*
X137890476Y-95980952D01*
X137842857Y-96028571D01*
X137747619Y-96076190D01*
X137366666Y-96076190D01*
X138271428Y-95552380D02*
X138890476Y-95552380D01*
X138557142Y-95933333D01*
X138700000Y-95933333D01*
X138795238Y-95980952D01*
X138842857Y-96028571D01*
X138890476Y-96123809D01*
X138890476Y-96361904D01*
X138842857Y-96457142D01*
X138795238Y-96504761D01*
X138700000Y-96552380D01*
X138414285Y-96552380D01*
X138319047Y-96504761D01*
X138271428Y-96457142D01*
X139509523Y-95552380D02*
X139604761Y-95552380D01*
X139700000Y-95600000D01*
X139747619Y-95647619D01*
X139795238Y-95742857D01*
X139842857Y-95933333D01*
X139842857Y-96171428D01*
X139795238Y-96361904D01*
X139747619Y-96457142D01*
X139700000Y-96504761D01*
X139604761Y-96552380D01*
X139509523Y-96552380D01*
X139414285Y-96504761D01*
X139366666Y-96457142D01*
X139319047Y-96361904D01*
X139271428Y-96171428D01*
X139271428Y-95933333D01*
X139319047Y-95742857D01*
X139366666Y-95647619D01*
X139414285Y-95600000D01*
X139509523Y-95552380D01*
X140795238Y-96552380D02*
X140223809Y-96552380D01*
X140509523Y-96552380D02*
X140509523Y-95552380D01*
X140414285Y-95695238D01*
X140319047Y-95790476D01*
X140223809Y-95838095D01*
D13*
%TO.C,SIG_ISO201*%
X123464285Y-80202380D02*
X123535714Y-80226190D01*
X123654761Y-80226190D01*
X123702380Y-80202380D01*
X123726190Y-80178571D01*
X123750000Y-80130952D01*
X123750000Y-80083333D01*
X123726190Y-80035714D01*
X123702380Y-80011904D01*
X123654761Y-79988095D01*
X123559523Y-79964285D01*
X123511904Y-79940476D01*
X123488095Y-79916666D01*
X123464285Y-79869047D01*
X123464285Y-79821428D01*
X123488095Y-79773809D01*
X123511904Y-79750000D01*
X123559523Y-79726190D01*
X123678571Y-79726190D01*
X123750000Y-79750000D01*
X123964285Y-80226190D02*
X123964285Y-79726190D01*
X124464285Y-79750000D02*
X124416666Y-79726190D01*
X124345238Y-79726190D01*
X124273809Y-79750000D01*
X124226190Y-79797619D01*
X124202380Y-79845238D01*
X124178571Y-79940476D01*
X124178571Y-80011904D01*
X124202380Y-80107142D01*
X124226190Y-80154761D01*
X124273809Y-80202380D01*
X124345238Y-80226190D01*
X124392857Y-80226190D01*
X124464285Y-80202380D01*
X124488095Y-80178571D01*
X124488095Y-80011904D01*
X124392857Y-80011904D01*
X124583333Y-80273809D02*
X124964285Y-80273809D01*
X125083333Y-80226190D02*
X125083333Y-79726190D01*
X125297619Y-80202380D02*
X125369047Y-80226190D01*
X125488095Y-80226190D01*
X125535714Y-80202380D01*
X125559523Y-80178571D01*
X125583333Y-80130952D01*
X125583333Y-80083333D01*
X125559523Y-80035714D01*
X125535714Y-80011904D01*
X125488095Y-79988095D01*
X125392857Y-79964285D01*
X125345238Y-79940476D01*
X125321428Y-79916666D01*
X125297619Y-79869047D01*
X125297619Y-79821428D01*
X125321428Y-79773809D01*
X125345238Y-79750000D01*
X125392857Y-79726190D01*
X125511904Y-79726190D01*
X125583333Y-79750000D01*
X125892857Y-79726190D02*
X125988095Y-79726190D01*
X126035714Y-79750000D01*
X126083333Y-79797619D01*
X126107142Y-79892857D01*
X126107142Y-80059523D01*
X126083333Y-80154761D01*
X126035714Y-80202380D01*
X125988095Y-80226190D01*
X125892857Y-80226190D01*
X125845238Y-80202380D01*
X125797619Y-80154761D01*
X125773809Y-80059523D01*
X125773809Y-79892857D01*
X125797619Y-79797619D01*
X125845238Y-79750000D01*
X125892857Y-79726190D01*
X126297619Y-79773809D02*
X126321428Y-79750000D01*
X126369047Y-79726190D01*
X126488095Y-79726190D01*
X126535714Y-79750000D01*
X126559523Y-79773809D01*
X126583333Y-79821428D01*
X126583333Y-79869047D01*
X126559523Y-79940476D01*
X126273809Y-80226190D01*
X126583333Y-80226190D01*
X126892857Y-79726190D02*
X126940476Y-79726190D01*
X126988095Y-79750000D01*
X127011904Y-79773809D01*
X127035714Y-79821428D01*
X127059523Y-79916666D01*
X127059523Y-80035714D01*
X127035714Y-80130952D01*
X127011904Y-80178571D01*
X126988095Y-80202380D01*
X126940476Y-80226190D01*
X126892857Y-80226190D01*
X126845238Y-80202380D01*
X126821428Y-80178571D01*
X126797619Y-80130952D01*
X126773809Y-80035714D01*
X126773809Y-79916666D01*
X126797619Y-79821428D01*
X126821428Y-79773809D01*
X126845238Y-79750000D01*
X126892857Y-79726190D01*
X127535714Y-80226190D02*
X127250000Y-80226190D01*
X127392857Y-80226190D02*
X127392857Y-79726190D01*
X127345238Y-79797619D01*
X127297619Y-79845238D01*
X127250000Y-79869047D01*
X124285714Y-81350380D02*
X124357142Y-81374190D01*
X124476190Y-81374190D01*
X124523809Y-81350380D01*
X124547619Y-81326571D01*
X124571428Y-81278952D01*
X124571428Y-81231333D01*
X124547619Y-81183714D01*
X124523809Y-81159904D01*
X124476190Y-81136095D01*
X124380952Y-81112285D01*
X124333333Y-81088476D01*
X124309523Y-81064666D01*
X124285714Y-81017047D01*
X124285714Y-80969428D01*
X124309523Y-80921809D01*
X124333333Y-80898000D01*
X124380952Y-80874190D01*
X124500000Y-80874190D01*
X124571428Y-80898000D01*
X124785714Y-81374190D02*
X124785714Y-80874190D01*
X125095238Y-81088476D02*
X125047619Y-81064666D01*
X125023809Y-81040857D01*
X125000000Y-80993238D01*
X125000000Y-80969428D01*
X125023809Y-80921809D01*
X125047619Y-80898000D01*
X125095238Y-80874190D01*
X125190476Y-80874190D01*
X125238095Y-80898000D01*
X125261904Y-80921809D01*
X125285714Y-80969428D01*
X125285714Y-80993238D01*
X125261904Y-81040857D01*
X125238095Y-81064666D01*
X125190476Y-81088476D01*
X125095238Y-81088476D01*
X125047619Y-81112285D01*
X125023809Y-81136095D01*
X125000000Y-81183714D01*
X125000000Y-81278952D01*
X125023809Y-81326571D01*
X125047619Y-81350380D01*
X125095238Y-81374190D01*
X125190476Y-81374190D01*
X125238095Y-81350380D01*
X125261904Y-81326571D01*
X125285714Y-81278952D01*
X125285714Y-81183714D01*
X125261904Y-81136095D01*
X125238095Y-81112285D01*
X125190476Y-81088476D01*
X125714285Y-80874190D02*
X125619047Y-80874190D01*
X125571428Y-80898000D01*
X125547619Y-80921809D01*
X125500000Y-80993238D01*
X125476190Y-81088476D01*
X125476190Y-81278952D01*
X125500000Y-81326571D01*
X125523809Y-81350380D01*
X125571428Y-81374190D01*
X125666666Y-81374190D01*
X125714285Y-81350380D01*
X125738095Y-81326571D01*
X125761904Y-81278952D01*
X125761904Y-81159904D01*
X125738095Y-81112285D01*
X125714285Y-81088476D01*
X125666666Y-81064666D01*
X125571428Y-81064666D01*
X125523809Y-81088476D01*
X125500000Y-81112285D01*
X125476190Y-81159904D01*
X126071428Y-80874190D02*
X126119047Y-80874190D01*
X126166666Y-80898000D01*
X126190476Y-80921809D01*
X126214285Y-80969428D01*
X126238095Y-81064666D01*
X126238095Y-81183714D01*
X126214285Y-81278952D01*
X126190476Y-81326571D01*
X126166666Y-81350380D01*
X126119047Y-81374190D01*
X126071428Y-81374190D01*
X126023809Y-81350380D01*
X126000000Y-81326571D01*
X125976190Y-81278952D01*
X125952380Y-81183714D01*
X125952380Y-81064666D01*
X125976190Y-80969428D01*
X126000000Y-80921809D01*
X126023809Y-80898000D01*
X126071428Y-80874190D01*
X126547619Y-80874190D02*
X126595238Y-80874190D01*
X126642857Y-80898000D01*
X126666666Y-80921809D01*
X126690476Y-80969428D01*
X126714285Y-81064666D01*
X126714285Y-81183714D01*
X126690476Y-81278952D01*
X126666666Y-81326571D01*
X126642857Y-81350380D01*
X126595238Y-81374190D01*
X126547619Y-81374190D01*
X126500000Y-81350380D01*
X126476190Y-81326571D01*
X126452380Y-81278952D01*
X126428571Y-81183714D01*
X126428571Y-81064666D01*
X126452380Y-80969428D01*
X126476190Y-80921809D01*
X126500000Y-80898000D01*
X126547619Y-80874190D01*
D11*
%TO.C,*%
D13*
%TO.C,R2*%
X152716666Y-98926190D02*
X152550000Y-98688095D01*
X152430952Y-98926190D02*
X152430952Y-98426190D01*
X152621428Y-98426190D01*
X152669047Y-98450000D01*
X152692857Y-98473809D01*
X152716666Y-98521428D01*
X152716666Y-98592857D01*
X152692857Y-98640476D01*
X152669047Y-98664285D01*
X152621428Y-98688095D01*
X152430952Y-98688095D01*
X152907142Y-98473809D02*
X152930952Y-98450000D01*
X152978571Y-98426190D01*
X153097619Y-98426190D01*
X153145238Y-98450000D01*
X153169047Y-98473809D01*
X153192857Y-98521428D01*
X153192857Y-98569047D01*
X153169047Y-98640476D01*
X152883333Y-98926190D01*
X153192857Y-98926190D01*
X152188095Y-99592857D02*
X152188095Y-99926190D01*
X152069047Y-99402380D02*
X151950000Y-99759523D01*
X152259523Y-99759523D01*
X152450000Y-99878571D02*
X152473809Y-99902380D01*
X152450000Y-99926190D01*
X152426190Y-99902380D01*
X152450000Y-99878571D01*
X152450000Y-99926190D01*
X152640476Y-99426190D02*
X152973809Y-99426190D01*
X152759523Y-99926190D01*
X153164285Y-99926190D02*
X153164285Y-99426190D01*
X153450000Y-99926190D02*
X153235714Y-99640476D01*
X153450000Y-99426190D02*
X153164285Y-99711904D01*
%TO.C,R1*%
X156126190Y-93983333D02*
X155888095Y-94150000D01*
X156126190Y-94269047D02*
X155626190Y-94269047D01*
X155626190Y-94078571D01*
X155650000Y-94030952D01*
X155673809Y-94007142D01*
X155721428Y-93983333D01*
X155792857Y-93983333D01*
X155840476Y-94007142D01*
X155864285Y-94030952D01*
X155888095Y-94078571D01*
X155888095Y-94269047D01*
X156126190Y-93507142D02*
X156126190Y-93792857D01*
X156126190Y-93650000D02*
X155626190Y-93650000D01*
X155697619Y-93697619D01*
X155745238Y-93745238D01*
X155769047Y-93792857D01*
X155792857Y-92611904D02*
X156126190Y-92611904D01*
X155602380Y-92730952D02*
X155959523Y-92850000D01*
X155959523Y-92540476D01*
X156078571Y-92350000D02*
X156102380Y-92326190D01*
X156126190Y-92350000D01*
X156102380Y-92373809D01*
X156078571Y-92350000D01*
X156126190Y-92350000D01*
X155626190Y-92159523D02*
X155626190Y-91826190D01*
X156126190Y-92040476D01*
X156126190Y-91635714D02*
X155626190Y-91635714D01*
X156126190Y-91350000D02*
X155840476Y-91564285D01*
X155626190Y-91350000D02*
X155911904Y-91635714D01*
D11*
%TO.C,*%
D15*
%TO.C,J2*%
X161457500Y-94195000D02*
X161457500Y-91215000D01*
X170877500Y-102975000D02*
X170877500Y-87515000D01*
X161457500Y-102975000D02*
X170877500Y-102975000D01*
X161457500Y-87515000D02*
X161457500Y-89115000D01*
X167567500Y-102975000D02*
X167567500Y-87515000D01*
X161457500Y-99275000D02*
X161457500Y-96295000D01*
X161457500Y-102975000D02*
X161457500Y-101375000D01*
X160767500Y-100325000D02*
X160167500Y-100625000D01*
X160167500Y-100625000D02*
X160167500Y-100025000D01*
X170877500Y-87515000D02*
X161457500Y-87515000D01*
X160167500Y-100025000D02*
X160767500Y-100325000D01*
%TO.C,J1*%
X151055000Y-104067500D02*
X150755000Y-103467500D01*
X151355000Y-103467500D02*
X151055000Y-104067500D01*
X152105000Y-104757500D02*
X155085000Y-104757500D01*
X148405000Y-104757500D02*
X150005000Y-104757500D01*
X150755000Y-103467500D02*
X151355000Y-103467500D01*
X157185000Y-104757500D02*
X160165000Y-104757500D01*
X148405000Y-104757500D02*
X148405000Y-114177500D01*
X148405000Y-110867500D02*
X163865000Y-110867500D01*
X163865000Y-104757500D02*
X162265000Y-104757500D01*
X163865000Y-114177500D02*
X163865000Y-104757500D01*
X148405000Y-114177500D02*
X163865000Y-114177500D01*
%TO.C,C201*%
X126511252Y-91310000D02*
X125088748Y-91310000D01*
X126511252Y-89490000D02*
X125088748Y-89490000D01*
%TO.C,C202*%
X118290000Y-80911252D02*
X118290000Y-79488748D01*
X120110000Y-80911252D02*
X120110000Y-79488748D01*
%TO.C,C203*%
X109811252Y-79910000D02*
X108388748Y-79910000D01*
X109811252Y-78090000D02*
X108388748Y-78090000D01*
%TO.C,C204*%
X109610000Y-92888748D02*
X109610000Y-94311252D01*
X107790000Y-92888748D02*
X107790000Y-94311252D01*
%TO.C,C205*%
X130160000Y-72763748D02*
X130160000Y-74186252D01*
X128340000Y-72763748D02*
X128340000Y-74186252D01*
%TO.C,C301*%
X146688748Y-91110000D02*
X148111252Y-91110000D01*
X146688748Y-89290000D02*
X148111252Y-89290000D01*
%TO.C,C302*%
X142410000Y-81411252D02*
X142410000Y-79988748D01*
X140590000Y-81411252D02*
X140590000Y-79988748D01*
%TO.C,C303*%
X132210000Y-81188748D02*
X132210000Y-82611252D01*
X130390000Y-81188748D02*
X130390000Y-82611252D01*
%TO.C,C304*%
X131410000Y-92888748D02*
X131410000Y-94311252D01*
X129590000Y-92888748D02*
X129590000Y-94311252D01*
%TO.C,C305*%
X152410000Y-72241248D02*
X152410000Y-73663752D01*
X150590000Y-72241248D02*
X150590000Y-73663752D01*
%TO.C,STP201*%
X111800000Y-92600000D02*
X114300000Y-90100000D01*
X121500000Y-94700000D02*
X119400000Y-94700000D01*
X119400000Y-90700000D02*
X121500000Y-90700000D01*
X114300000Y-95100000D02*
X111800000Y-92600000D01*
X114300000Y-90100000D02*
X116800000Y-92600000D01*
X119400000Y-94700000D02*
X119400000Y-90700000D01*
X122900000Y-98600000D02*
X122900000Y-86600000D01*
X110900000Y-98600000D02*
X110900000Y-86600000D01*
X116800000Y-92600000D02*
X114300000Y-95100000D01*
X121500000Y-90700000D02*
X121500000Y-94700000D01*
X123000000Y-86600000D02*
G75*
G03*
X123000000Y-86600000I-100000J0D01*
G01*
X111000000Y-98600000D02*
G75*
G03*
X111000000Y-98600000I-100000J0D01*
G01*
X123000000Y-98600000D02*
G75*
G03*
X123000000Y-98600000I-100000J0D01*
G01*
X111000000Y-86600000D02*
G75*
G03*
X111000000Y-86600000I-100000J0D01*
G01*
%TO.C,STP301*%
X140600000Y-90700000D02*
X142700000Y-90700000D01*
X144100000Y-98600000D02*
X144100000Y-86600000D01*
X135500000Y-90100000D02*
X138000000Y-92600000D01*
X140600000Y-94700000D02*
X140600000Y-90700000D01*
X133000000Y-92600000D02*
X135500000Y-90100000D01*
X135500000Y-95100000D02*
X133000000Y-92600000D01*
X142700000Y-94700000D02*
X140600000Y-94700000D01*
X132100000Y-98600000D02*
X132100000Y-86600000D01*
X142700000Y-90700000D02*
X142700000Y-94700000D01*
X138000000Y-92600000D02*
X135500000Y-95100000D01*
X144200000Y-86600000D02*
G75*
G03*
X144200000Y-86600000I-100000J0D01*
G01*
X144200000Y-98600000D02*
G75*
G03*
X144200000Y-98600000I-100000J0D01*
G01*
X132200000Y-86600000D02*
G75*
G03*
X132200000Y-86600000I-100000J0D01*
G01*
X132200000Y-98600000D02*
G75*
G03*
X132200000Y-98600000I-100000J0D01*
G01*
%TD*%
D16*
%TO.C,PI_Board*%
X109000000Y-110545500D03*
X167000000Y-110545500D03*
X167000000Y-61545500D03*
X109000000Y-61545500D03*
%TD*%
D17*
%TO.C,P101*%
X167640000Y-78994000D03*
D18*
X167703500Y-76454000D03*
X167576500Y-73914000D03*
X167703500Y-71374000D03*
X167576500Y-68834000D03*
X167640000Y-66294000D03*
%TD*%
D19*
%TO.C,P201*%
X114186500Y-108250000D03*
X124313500Y-108250000D03*
D20*
X119186500Y-103170000D03*
D21*
X121853500Y-103170000D03*
%TD*%
D19*
%TO.C,P301*%
X132936500Y-108250000D03*
X143063500Y-108250000D03*
D20*
X137936500Y-103170000D03*
D21*
X140603500Y-103170000D03*
%TD*%
%TO.C,PI_BOARD101*%
X113870000Y-62270000D03*
X113870000Y-59730000D03*
X116410000Y-62333500D03*
X116410000Y-59666500D03*
X118950000Y-62270000D03*
X118950000Y-59730000D03*
X121490000Y-62270000D03*
X121490000Y-59730000D03*
X124030000Y-62270000D03*
X124030000Y-59730000D03*
X126570000Y-62270000D03*
X126570000Y-59730000D03*
X129110000Y-62270000D03*
X129110000Y-59730000D03*
X131650000Y-62270000D03*
X131650000Y-59730000D03*
X134190000Y-62270000D03*
X134190000Y-59730000D03*
X136730000Y-62270000D03*
X136730000Y-59730000D03*
X139270000Y-62270000D03*
X139270000Y-59730000D03*
X141810000Y-62270000D03*
X141810000Y-59730000D03*
X144350000Y-62270000D03*
X144350000Y-59730000D03*
X146890000Y-62270000D03*
X146890000Y-59730000D03*
X149430000Y-62270000D03*
X149430000Y-59730000D03*
X151970000Y-62270000D03*
X151970000Y-59730000D03*
X154510000Y-62270000D03*
X154510000Y-59730000D03*
X157050000Y-62270000D03*
X157050000Y-59730000D03*
X159590000Y-62333500D03*
X159590000Y-59666500D03*
X162130000Y-62270000D03*
X162130000Y-59730000D03*
%TD*%
D16*
%TO.C,*%
X167000000Y-84600000D03*
%TD*%
%TO.C,*%
X109000000Y-84600000D03*
%TD*%
M02*
