%TF.GenerationSoftware,KiCad,Pcbnew,(6.0.0-0)*%
%TF.CreationDate,2022-02-05T16:32:57-08:00*%
%TF.ProjectId,tentacle-raspi,74656e74-6163-46c6-952d-72617370692e,1.0*%
%TF.SameCoordinates,Original*%
%TF.FileFunction,Soldermask,Top*%
%TF.FilePolarity,Negative*%
%FSLAX46Y46*%
G04 Gerber Fmt 4.6, Leading zero omitted, Abs format (unit mm)*
G04 Created by KiCad (PCBNEW (6.0.0-0)) date 2022-02-05 16:32:57*
%MOMM*%
%LPD*%
G01*
G04 APERTURE LIST*
G04 Aperture macros list*
%AMRoundRect*
0 Rectangle with rounded corners*
0 $1 Rounding radius*
0 $2 $3 $4 $5 $6 $7 $8 $9 X,Y pos of 4 corners*
0 Add a 4 corners polygon primitive as box body*
4,1,4,$2,$3,$4,$5,$6,$7,$8,$9,$2,$3,0*
0 Add four circle primitives for the rounded corners*
1,1,$1+$1,$2,$3*
1,1,$1+$1,$4,$5*
1,1,$1+$1,$6,$7*
1,1,$1+$1,$8,$9*
0 Add four rect primitives between the rounded corners*
20,1,$1+$1,$2,$3,$4,$5,0*
20,1,$1+$1,$4,$5,$6,$7,0*
20,1,$1+$1,$6,$7,$8,$9,0*
20,1,$1+$1,$8,$9,$2,$3,0*%
G04 Aperture macros list end*
%ADD10C,2.000000*%
%ADD11C,4.000000*%
%ADD12R,2.600000X2.370000*%
%ADD13R,1.200000X1.800000*%
%ADD14R,1.524000X1.524000*%
%ADD15C,1.524000*%
%ADD16C,3.500000*%
%ADD17R,1.800000X1.800000*%
%ADD18C,1.800000*%
%ADD19R,1.397000X0.889000*%
%ADD20RoundRect,0.381000X0.381000X-0.762000X0.381000X0.762000X-0.381000X0.762000X-0.381000X-0.762000X0*%
%ADD21R,0.889000X1.397000*%
%ADD22RoundRect,0.250000X-0.650000X-1.550000X0.650000X-1.550000X0.650000X1.550000X-0.650000X1.550000X0*%
%ADD23O,1.800000X3.600000*%
%ADD24RoundRect,0.250000X1.550000X-0.650000X1.550000X0.650000X-1.550000X0.650000X-1.550000X-0.650000X0*%
%ADD25O,3.600000X1.800000*%
G04 APERTURE END LIST*
D10*
%TO.C,fiducial*%
X107442000Y-65278000D03*
%TD*%
%TO.C,fiducial*%
X167400000Y-106000000D03*
%TD*%
D11*
%TO.C,PI_Board*%
X109000000Y-110545500D03*
X167000000Y-110545500D03*
X167000000Y-61545500D03*
X109000000Y-61545500D03*
%TD*%
D12*
%TO.C,C101*%
X109000000Y-68130000D03*
X109000000Y-74370000D03*
%TD*%
D13*
%TO.C,DCDC201*%
X123060000Y-67900000D03*
X120520000Y-67900000D03*
X115440000Y-67900000D03*
X115440000Y-78100000D03*
X123060000Y-78100000D03*
%TD*%
%TO.C,DCDC301*%
X141810000Y-67900000D03*
X139270000Y-67900000D03*
X134190000Y-67900000D03*
X134190000Y-78100000D03*
X141810000Y-78100000D03*
%TD*%
D14*
%TO.C,P101*%
X167640000Y-78994000D03*
D15*
X167703500Y-76454000D03*
X167576500Y-73914000D03*
X167703500Y-71374000D03*
X167576500Y-68834000D03*
X167640000Y-66294000D03*
%TD*%
D16*
%TO.C,P201*%
X114186500Y-108250000D03*
X124313500Y-108250000D03*
D17*
X119186500Y-103170000D03*
D18*
X121853500Y-103170000D03*
%TD*%
D16*
%TO.C,P301*%
X132936500Y-108250000D03*
X143063500Y-108250000D03*
D17*
X137936500Y-103170000D03*
D18*
X140603500Y-103170000D03*
%TD*%
%TO.C,PI_BOARD101*%
X113870000Y-62270000D03*
X113870000Y-59730000D03*
X116410000Y-62333500D03*
X116410000Y-59666500D03*
X118950000Y-62270000D03*
X118950000Y-59730000D03*
X121490000Y-62270000D03*
X121490000Y-59730000D03*
X124030000Y-62270000D03*
X124030000Y-59730000D03*
X126570000Y-62270000D03*
X126570000Y-59730000D03*
X129110000Y-62270000D03*
X129110000Y-59730000D03*
X131650000Y-62270000D03*
X131650000Y-59730000D03*
X134190000Y-62270000D03*
X134190000Y-59730000D03*
X136730000Y-62270000D03*
X136730000Y-59730000D03*
X139270000Y-62270000D03*
X139270000Y-59730000D03*
X141810000Y-62270000D03*
X141810000Y-59730000D03*
X144350000Y-62270000D03*
X144350000Y-59730000D03*
X146890000Y-62270000D03*
X146890000Y-59730000D03*
X149430000Y-62270000D03*
X149430000Y-59730000D03*
X151970000Y-62270000D03*
X151970000Y-59730000D03*
X154510000Y-62270000D03*
X154510000Y-59730000D03*
X157050000Y-62270000D03*
X157050000Y-59730000D03*
X159590000Y-62333500D03*
X159590000Y-59666500D03*
X162130000Y-62270000D03*
X162130000Y-59730000D03*
%TD*%
D19*
%TO.C,R101*%
X162560000Y-76390500D03*
X162560000Y-74485500D03*
%TD*%
%TO.C,R102*%
X162560000Y-78994000D03*
X162560000Y-80899000D03*
%TD*%
D20*
%TO.C,STP201*%
X114780000Y-97890000D03*
X117080000Y-97890000D03*
X119380000Y-97890000D03*
X121680000Y-97890000D03*
X123980000Y-97890000D03*
X114780000Y-84990000D03*
X117080000Y-84990000D03*
X119380000Y-84990000D03*
X121680000Y-84990000D03*
X123980000Y-84990000D03*
%TD*%
%TO.C,STP301*%
X132560000Y-97890000D03*
X134860000Y-97890000D03*
X137160000Y-97890000D03*
X139460000Y-97890000D03*
X141760000Y-97890000D03*
X132560000Y-84990000D03*
X134860000Y-84990000D03*
X137160000Y-84990000D03*
X139460000Y-84990000D03*
X141760000Y-84990000D03*
%TD*%
D11*
%TO.C,*%
X167000000Y-84600000D03*
%TD*%
D21*
%TO.C,R2*%
X156300000Y-99822000D03*
X154395000Y-99822000D03*
%TD*%
D22*
%TO.C,J1*%
X151275000Y-106067500D03*
D23*
X156355000Y-106067500D03*
X161435000Y-106067500D03*
%TD*%
D19*
%TO.C,R1*%
X157734000Y-95552500D03*
X157734000Y-93647500D03*
%TD*%
D24*
%TO.C,J2*%
X162667500Y-100525000D03*
D25*
X162667500Y-95445000D03*
X162667500Y-90365000D03*
%TD*%
D11*
%TO.C,*%
X109000000Y-84600000D03*
%TD*%
M02*
