%TF.GenerationSoftware,KiCad,Pcbnew,(6.0.0-0)*%
%TF.CreationDate,2022-01-12T23:13:02-08:00*%
%TF.ProjectId,tentacle-raspi,74656e74-6163-46c6-952d-72617370692e,1.0*%
%TF.SameCoordinates,Original*%
%TF.FileFunction,Soldermask,Bot*%
%TF.FilePolarity,Negative*%
%FSLAX46Y46*%
G04 Gerber Fmt 4.6, Leading zero omitted, Abs format (unit mm)*
G04 Created by KiCad (PCBNEW (6.0.0-0)) date 2022-01-12 23:13:02*
%MOMM*%
%LPD*%
G01*
G04 APERTURE LIST*
%ADD10C,4.000000*%
%ADD11R,1.524000X1.524000*%
%ADD12C,1.524000*%
%ADD13C,3.500000*%
%ADD14R,1.800000X1.800000*%
%ADD15C,1.800000*%
%ADD16R,0.889000X1.397000*%
%ADD17R,1.397000X0.889000*%
%ADD18R,0.570000X1.400000*%
%ADD19R,2.000000X2.450000*%
%ADD20R,0.650000X1.900000*%
%ADD21R,0.600000X1.550000*%
%ADD22C,2.000000*%
G04 APERTURE END LIST*
D10*
%TO.C,PI_Board*%
X109000000Y-110000000D03*
X167000000Y-110000000D03*
X167000000Y-61000000D03*
X109000000Y-61000000D03*
%TD*%
D11*
%TO.C,P101*%
X167750000Y-78820000D03*
D12*
X167813500Y-76280000D03*
X167686500Y-73740000D03*
X167813500Y-71200000D03*
X167686500Y-68660000D03*
X167750000Y-66120000D03*
%TD*%
D13*
%TO.C,P201*%
X114186500Y-108250000D03*
X124313500Y-108250000D03*
D14*
X119186500Y-103170000D03*
D15*
X121853500Y-103170000D03*
%TD*%
D13*
%TO.C,P301*%
X132936500Y-108250000D03*
X143063500Y-108250000D03*
D14*
X137936500Y-103170000D03*
D15*
X140603500Y-103170000D03*
%TD*%
D13*
%TO.C,P401*%
X161813500Y-108250000D03*
X151686500Y-108250000D03*
D14*
X156686500Y-103170000D03*
D15*
X159353500Y-103170000D03*
%TD*%
%TO.C,PI_BOARD101*%
X113870000Y-62270000D03*
X113870000Y-59730000D03*
X116410000Y-62333500D03*
X116410000Y-59666500D03*
X118950000Y-62270000D03*
X118950000Y-59730000D03*
X121490000Y-62270000D03*
X121490000Y-59730000D03*
X124030000Y-62270000D03*
X124030000Y-59730000D03*
X126570000Y-62270000D03*
X126570000Y-59730000D03*
X129110000Y-62270000D03*
X129110000Y-59730000D03*
X131650000Y-62270000D03*
X131650000Y-59730000D03*
X134190000Y-62270000D03*
X134190000Y-59730000D03*
X136730000Y-62270000D03*
X136730000Y-59730000D03*
X139270000Y-62270000D03*
X139270000Y-59730000D03*
X141810000Y-62270000D03*
X141810000Y-59730000D03*
X144350000Y-62270000D03*
X144350000Y-59730000D03*
X146890000Y-62270000D03*
X146890000Y-59730000D03*
X149430000Y-62270000D03*
X149430000Y-59730000D03*
X151970000Y-62270000D03*
X151970000Y-59730000D03*
X154510000Y-62270000D03*
X154510000Y-59730000D03*
X157050000Y-62270000D03*
X157050000Y-59730000D03*
X159590000Y-62333500D03*
X159590000Y-59666500D03*
X162130000Y-62270000D03*
X162130000Y-59730000D03*
%TD*%
D11*
%TO.C,P102*%
X167750000Y-96600000D03*
D12*
X167813500Y-94060000D03*
X167686500Y-91520000D03*
X167813500Y-88980000D03*
X167686500Y-86440000D03*
X167750000Y-83900000D03*
%TD*%
D16*
%TO.C,C201*%
X118427500Y-92710000D03*
X120332500Y-92710000D03*
%TD*%
D17*
%TO.C,C202*%
X113030000Y-90805000D03*
X113030000Y-88900000D03*
%TD*%
D16*
%TO.C,C203*%
X118427500Y-88900000D03*
X120332500Y-88900000D03*
%TD*%
%TO.C,C204*%
X118427500Y-96520000D03*
X120332500Y-96520000D03*
%TD*%
%TO.C,C205*%
X127202500Y-77470000D03*
X125297500Y-77470000D03*
%TD*%
%TO.C,C301*%
X136207500Y-92710000D03*
X138112500Y-92710000D03*
%TD*%
D17*
%TO.C,C302*%
X132080000Y-90805000D03*
X132080000Y-88900000D03*
%TD*%
D16*
%TO.C,C303*%
X136207500Y-88900000D03*
X138112500Y-88900000D03*
%TD*%
%TO.C,C304*%
X136207500Y-96520000D03*
X138112500Y-96520000D03*
%TD*%
%TO.C,C305*%
X145952500Y-77470000D03*
X144047500Y-77470000D03*
%TD*%
D17*
%TO.C,R201*%
X124460000Y-92202500D03*
X124460000Y-90297500D03*
%TD*%
%TO.C,R202*%
X127000000Y-90297500D03*
X127000000Y-92202500D03*
%TD*%
%TO.C,R301*%
X143510000Y-92202500D03*
X143510000Y-90297500D03*
%TD*%
%TO.C,R302*%
X146050000Y-90297500D03*
X146050000Y-92202500D03*
%TD*%
D18*
%TO.C,REG201*%
X119610000Y-82435000D03*
D19*
X118110000Y-80010000D03*
D20*
X118110000Y-82185000D03*
D18*
X116610000Y-82435000D03*
%TD*%
%TO.C,REG301*%
X138660000Y-82435000D03*
D20*
X137160000Y-82185000D03*
D19*
X137160000Y-80010000D03*
D18*
X135660000Y-82435000D03*
%TD*%
D21*
%TO.C,SIG_ISO301*%
X146685000Y-86520000D03*
X145415000Y-86520000D03*
X144145000Y-86520000D03*
X142875000Y-86520000D03*
X142875000Y-81120000D03*
X144145000Y-81120000D03*
X145415000Y-81120000D03*
X146685000Y-81120000D03*
%TD*%
%TO.C,SIG_ISO201*%
X128155000Y-86680000D03*
X126885000Y-86680000D03*
X125615000Y-86680000D03*
X124345000Y-86680000D03*
X124345000Y-81280000D03*
X125615000Y-81280000D03*
X126885000Y-81280000D03*
X128155000Y-81280000D03*
%TD*%
D22*
%TO.C,fiducial*%
X109220000Y-67056000D03*
%TD*%
%TO.C,fiducial*%
X166116000Y-103632000D03*
%TD*%
M02*
