M48
INCH,TZ
T1C0.0250
T2C0.0315
T3C0.0335
T4C0.0354
T5C0.0787
T6C0.1083
%
G90
G05
T1
X44000Y-28000
X44000Y-32000
X45000Y-32000
X47500Y-28200
X47500Y-29100
X48500Y-28200
X48500Y-29100
X49500Y-28200
X49500Y-35000
X49500Y-37000
X51000Y-27000
X51000Y-30700
X51000Y-35500
X51500Y-26624
X51500Y-30000
X52500Y-32000
X53000Y-31500
X54823Y-28200
X54823Y-29000
X56100Y-29000
X56500Y-37500
X56700Y-25500
X56750Y-34750
X57000Y-37000
X57500Y-25500
X57500Y-29000
X58500Y-27500
X58500Y-31000
X59000Y-27000
X59000Y-31500
X59500Y-26624
X59500Y-32000
X61000Y-32000
X61713Y-31971
X62000Y-37000
X62697Y-32000
T2
X46924Y-40618
X47974Y-40618
X54306Y-40618
X55356Y-40618
X61688Y-40618
X62738Y-40618
T3
X66018Y-27031
X66018Y-29031
X66018Y-34031
X66018Y-36031
X66043Y-26031
X66043Y-31031
X66043Y-33031
X66043Y-38031
X66068Y-28031
X66068Y-30031
X66068Y-35031
X66068Y-37031
T4
X44831Y-23516
X44831Y-24516
X45831Y-23491
X45831Y-24541
X46831Y-23516
X46831Y-24516
X47831Y-23516
X47831Y-24516
X48831Y-23516
X48831Y-24516
X49831Y-23516
X49831Y-24516
X50831Y-23516
X50831Y-24516
X51831Y-23516
X51831Y-24516
X52831Y-23516
X52831Y-24516
X53831Y-23516
X53831Y-24516
X54831Y-23516
X54831Y-24516
X55831Y-23516
X55831Y-24516
X56831Y-23516
X56831Y-24516
X57831Y-23516
X57831Y-24516
X58831Y-23516
X58831Y-24516
X59831Y-23516
X59831Y-24516
X60831Y-23516
X60831Y-24516
X61831Y-23516
X61831Y-24516
X62831Y-23491
X62831Y-24541
X63831Y-23516
X63831Y-24516
T5
X44955Y-42618
X48942Y-42618
X52337Y-42618
X56324Y-42618
X59719Y-42618
X63706Y-42618
T6
X42913Y-24016
X42913Y-43307
X65748Y-24016
X65748Y-43307
T0
M30
