M48
INCH
T1C0.0250
T2C0.0315
T3C0.0335
T4C0.0354
T5C0.0512
T6C0.0787
T7C0.1083
%
G90
G05
T1
X4.2874Y-3.4724
X4.3356Y-3.1959
X4.6024Y-3.3268
X4.6949Y-3.2776
X4.8189Y-3.2598
X4.9173Y-3.3858
X4.9567Y-2.75
X4.9606Y-3.748
X4.9646Y-3.2244
X4.9969Y-2.7
X5.0443Y-2.6624
X5.0886Y-2.7461
X5.1378Y-3.9488
X5.248Y-3.2825
X5.2559Y-3.1594
X5.7382Y-3.3169
X5.7402Y-2.752
X5.7441Y-3.4685
X5.7874Y-2.7008
X5.8169Y-3.3661
X5.84Y-2.6627
X5.9646Y-2.752
X6.2087Y-2.9803
X6.2087Y-3.6457
X6.3189Y-2.937
X6.3189Y-3.189
T2
X4.6924Y-4.0618
X4.7974Y-4.0618
X5.4306Y-4.0618
X5.5356Y-4.0618
T3
X6.5975Y-2.71
X6.5975Y-2.91
X6.6Y-2.61
X6.6Y-3.11
X6.6025Y-2.81
X6.6025Y-3.01
T4
X4.4831Y-2.3516
X4.4831Y-2.4516
X4.5831Y-2.3491
X4.5831Y-2.4541
X4.6831Y-2.3516
X4.6831Y-2.4516
X4.7831Y-2.3516
X4.7831Y-2.4516
X4.8831Y-2.3516
X4.8831Y-2.4516
X4.9831Y-2.3516
X4.9831Y-2.4516
X5.0831Y-2.3516
X5.0831Y-2.4516
X5.1831Y-2.3516
X5.1831Y-2.4516
X5.2831Y-2.3516
X5.2831Y-2.4516
X5.3831Y-2.3516
X5.3831Y-2.4516
X5.4831Y-2.3516
X5.4831Y-2.4516
X5.5831Y-2.3516
X5.5831Y-2.4516
X5.6831Y-2.3516
X5.6831Y-2.4516
X5.7831Y-2.3516
X5.7831Y-2.4516
X5.8831Y-2.3516
X5.8831Y-2.4516
X5.9831Y-2.3516
X5.9831Y-2.4516
X6.0831Y-2.3516
X6.0831Y-2.4516
X6.1831Y-2.3516
X6.1831Y-2.4516
X6.2831Y-2.3491
X6.2831Y-2.4541
X6.3831Y-2.3516
X6.3831Y-2.4516
T5
X5.947Y-4.1759
X6.147Y-4.1759
X6.347Y-4.1759
X6.4082Y-3.5498
X6.4082Y-3.7498
X6.4082Y-3.9498
T6
X4.4955Y-4.2618
X4.8942Y-4.2618
X5.2337Y-4.2618
X5.6324Y-4.2618
T7
X4.2913Y-2.4231
X4.2913Y-3.3307
X4.2913Y-4.3522
X6.5748Y-2.4231
X6.5748Y-3.3307
X6.5748Y-4.3522
T0
M30
