%TF.GenerationSoftware,KiCad,Pcbnew,(6.0.0-0)*%
%TF.CreationDate,2022-08-16T11:14:51-07:00*%
%TF.ProjectId,tentacle-raspi,74656e74-6163-46c6-952d-72617370692e,1.0*%
%TF.SameCoordinates,Original*%
%TF.FileFunction,Copper,L2,Bot*%
%TF.FilePolarity,Positive*%
%FSLAX46Y46*%
G04 Gerber Fmt 4.6, Leading zero omitted, Abs format (unit mm)*
G04 Created by KiCad (PCBNEW (6.0.0-0)) date 2022-08-16 11:14:51*
%MOMM*%
%LPD*%
G01*
G04 APERTURE LIST*
G04 Aperture macros list*
%AMRoundRect*
0 Rectangle with rounded corners*
0 $1 Rounding radius*
0 $2 $3 $4 $5 $6 $7 $8 $9 X,Y pos of 4 corners*
0 Add a 4 corners polygon primitive as box body*
4,1,4,$2,$3,$4,$5,$6,$7,$8,$9,$2,$3,0*
0 Add four circle primitives for the rounded corners*
1,1,$1+$1,$2,$3*
1,1,$1+$1,$4,$5*
1,1,$1+$1,$6,$7*
1,1,$1+$1,$8,$9*
0 Add four rect primitives between the rounded corners*
20,1,$1+$1,$2,$3,$4,$5,0*
20,1,$1+$1,$4,$5,$6,$7,0*
20,1,$1+$1,$6,$7,$8,$9,0*
20,1,$1+$1,$8,$9,$2,$3,0*%
G04 Aperture macros list end*
%ADD10C,0.300000*%
%TA.AperFunction,NonConductor*%
%ADD11C,0.300000*%
%TD*%
%TA.AperFunction,ComponentPad*%
%ADD12RoundRect,0.250000X1.550000X-0.650000X1.550000X0.650000X-1.550000X0.650000X-1.550000X-0.650000X0*%
%TD*%
%TA.AperFunction,ComponentPad*%
%ADD13O,3.600000X1.800000*%
%TD*%
%TA.AperFunction,ComponentPad*%
%ADD14RoundRect,0.250000X-0.650000X-1.550000X0.650000X-1.550000X0.650000X1.550000X-0.650000X1.550000X0*%
%TD*%
%TA.AperFunction,ComponentPad*%
%ADD15O,1.800000X3.600000*%
%TD*%
%TA.AperFunction,ComponentPad*%
%ADD16C,4.000000*%
%TD*%
%TA.AperFunction,ComponentPad*%
%ADD17R,1.524000X1.524000*%
%TD*%
%TA.AperFunction,ComponentPad*%
%ADD18C,1.524000*%
%TD*%
%TA.AperFunction,ComponentPad*%
%ADD19C,3.500000*%
%TD*%
%TA.AperFunction,ComponentPad*%
%ADD20R,1.800000X1.800000*%
%TD*%
%TA.AperFunction,ComponentPad*%
%ADD21C,1.800000*%
%TD*%
%TA.AperFunction,SMDPad,CuDef*%
%ADD22C,1.000000*%
%TD*%
%TA.AperFunction,ViaPad*%
%ADD23C,0.889000*%
%TD*%
%TA.AperFunction,Conductor*%
%ADD24C,0.500000*%
%TD*%
G04 APERTURE END LIST*
D10*
D11*
X153145491Y-111307142D02*
X153350848Y-111378571D01*
X153707991Y-111378571D01*
X153859776Y-111307142D01*
X153940133Y-111235714D01*
X154029419Y-111092857D01*
X154047276Y-110950000D01*
X153993705Y-110807142D01*
X153931205Y-110735714D01*
X153797276Y-110664285D01*
X153520491Y-110592857D01*
X153386562Y-110521428D01*
X153324062Y-110450000D01*
X153270491Y-110307142D01*
X153288348Y-110164285D01*
X153377633Y-110021428D01*
X153457991Y-109950000D01*
X153609776Y-109878571D01*
X153966919Y-109878571D01*
X154172276Y-109950000D01*
X154761562Y-110378571D02*
X154574062Y-111878571D01*
X154752633Y-110450000D02*
X154904419Y-110378571D01*
X155190133Y-110378571D01*
X155324062Y-110450000D01*
X155386562Y-110521428D01*
X155440133Y-110664285D01*
X155386562Y-111092857D01*
X155297276Y-111235714D01*
X155216919Y-111307142D01*
X155065133Y-111378571D01*
X154779419Y-111378571D01*
X154645491Y-111307142D01*
X156636562Y-111378571D02*
X156734776Y-110592857D01*
X156681205Y-110450000D01*
X156547276Y-110378571D01*
X156261562Y-110378571D01*
X156109776Y-110450000D01*
X156645491Y-111307142D02*
X156493705Y-111378571D01*
X156136562Y-111378571D01*
X156002633Y-111307142D01*
X155949062Y-111164285D01*
X155966919Y-111021428D01*
X156056205Y-110878571D01*
X156207991Y-110807142D01*
X156565133Y-110807142D01*
X156716919Y-110735714D01*
X157350848Y-111378571D02*
X157475848Y-110378571D01*
X157440133Y-110664285D02*
X157529419Y-110521428D01*
X157609776Y-110450000D01*
X157761562Y-110378571D01*
X157904419Y-110378571D01*
X158279419Y-111378571D02*
X158466919Y-109878571D01*
X158493705Y-110807142D02*
X158850848Y-111378571D01*
X158975848Y-110378571D02*
X158332991Y-110950000D01*
X159707991Y-111378571D02*
X159574062Y-111307142D01*
X159520491Y-111164285D01*
X159681205Y-109878571D01*
X160261562Y-110378571D02*
X160493705Y-111378571D01*
X160975848Y-110378571D02*
X160493705Y-111378571D01*
X160306205Y-111735714D01*
X160225848Y-111807142D01*
X160074062Y-111878571D01*
D12*
%TO.P,J2,1,Pin_1*%
%TO.N,GND*%
X162767500Y-100325000D03*
D13*
%TO.P,J2,2,Pin_2*%
%TO.N,/nonisolated1/FLOW*%
X162767500Y-95245000D03*
%TO.P,J2,3,Pin_3*%
%TO.N,+3.3V*%
X162767500Y-90165000D03*
%TD*%
D14*
%TO.P,J1,1,Pin_1*%
%TO.N,GND*%
X151055000Y-106067500D03*
D15*
%TO.P,J1,2,Pin_2*%
%TO.N,/nonisolated1/TEMP*%
X156135000Y-106067500D03*
%TO.P,J1,3,Pin_3*%
%TO.N,+3.3V*%
X161215000Y-106067500D03*
%TD*%
D16*
%TO.P,PI_Board,*%
%TO.N,*%
X109000000Y-110545500D03*
X167000000Y-110545500D03*
X167000000Y-61545500D03*
X109000000Y-61545500D03*
%TD*%
D17*
%TO.P,P101,1,P1*%
%TO.N,/SCL*%
X167640000Y-78994000D03*
D18*
%TO.P,P101,2,P2*%
%TO.N,/SDA*%
X167703500Y-76454000D03*
%TO.P,P101,3,3*%
%TO.N,GND*%
X167576500Y-73914000D03*
%TO.P,P101,4,4*%
%TO.N,+3.3V*%
X167703500Y-71374000D03*
%TO.P,P101,5,5*%
%TO.N,Net-(P101-Pad5)*%
X167576500Y-68834000D03*
%TO.P,P101,6,6*%
X167640000Y-66294000D03*
%TD*%
D19*
%TO.P,P201,*%
%TO.N,*%
X114186500Y-108250000D03*
X124313500Y-108250000D03*
D20*
%TO.P,P201,1,In*%
%TO.N,Net-(P201-Pad1)*%
X119186500Y-103170000D03*
D21*
%TO.P,P201,2,Ext*%
%TO.N,/isolation2/PRB_GND*%
X121853500Y-103170000D03*
%TD*%
D19*
%TO.P,P301,*%
%TO.N,*%
X132936500Y-108250000D03*
X143063500Y-108250000D03*
D20*
%TO.P,P301,1,In*%
%TO.N,Net-(P301-Pad1)*%
X137936500Y-103170000D03*
D21*
%TO.P,P301,2,Ext*%
%TO.N,/isolation3/PRB_GND*%
X140603500Y-103170000D03*
%TD*%
%TO.P,PI_BOARD101,1,3.3v*%
%TO.N,+3.3V*%
X113870000Y-62270000D03*
%TO.P,PI_BOARD101,2,5v*%
%TO.N,VCC*%
X113870000Y-59730000D03*
%TO.P,PI_BOARD101,3,GPIO02_(SDA_I2C)*%
%TO.N,/SDA*%
X116410000Y-62333500D03*
%TO.P,PI_BOARD101,4,5v*%
%TO.N,unconnected-(PI_BOARD101-Pad4)*%
X116410000Y-59666500D03*
%TO.P,PI_BOARD101,5,GPIO03_(SCL_I2C)*%
%TO.N,/SCL*%
X118950000Y-62270000D03*
%TO.P,PI_BOARD101,6,Ground*%
%TO.N,unconnected-(PI_BOARD101-Pad6)*%
X118950000Y-59730000D03*
%TO.P,PI_BOARD101,7,GPIO04_(GPIO_GCLK)*%
%TO.N,unconnected-(PI_BOARD101-Pad7)*%
X121490000Y-62270000D03*
%TO.P,PI_BOARD101,8,(TX_D0)_GPIO14*%
%TO.N,unconnected-(PI_BOARD101-Pad8)*%
X121490000Y-59730000D03*
%TO.P,PI_BOARD101,9,Ground*%
%TO.N,GND*%
X124030000Y-62270000D03*
%TO.P,PI_BOARD101,10,(RX_D0)_GPIO15*%
%TO.N,unconnected-(PI_BOARD101-Pad10)*%
X124030000Y-59730000D03*
%TO.P,PI_BOARD101,11,GPIO17_(GPIO_GEN0)*%
%TO.N,unconnected-(PI_BOARD101-Pad11)*%
X126570000Y-62270000D03*
%TO.P,PI_BOARD101,12,(GPIO_GEN1)_GPIO18*%
%TO.N,unconnected-(PI_BOARD101-Pad12)*%
X126570000Y-59730000D03*
%TO.P,PI_BOARD101,13,GPIO27_(GPIO_GEN2)*%
%TO.N,unconnected-(PI_BOARD101-Pad13)*%
X129110000Y-62270000D03*
%TO.P,PI_BOARD101,14,Ground*%
%TO.N,unconnected-(PI_BOARD101-Pad14)*%
X129110000Y-59730000D03*
%TO.P,PI_BOARD101,15,GPIO22_(GPIO_GEN3)*%
%TO.N,unconnected-(PI_BOARD101-Pad15)*%
X131650000Y-62270000D03*
%TO.P,PI_BOARD101,16,(GPIO_GEN4)_GPIO23*%
%TO.N,unconnected-(PI_BOARD101-Pad16)*%
X131650000Y-59730000D03*
%TO.P,PI_BOARD101,17,3.3v*%
%TO.N,unconnected-(PI_BOARD101-Pad17)*%
X134190000Y-62270000D03*
%TO.P,PI_BOARD101,18,(GPIO_GEN5)_GPIO24*%
%TO.N,unconnected-(PI_BOARD101-Pad18)*%
X134190000Y-59730000D03*
%TO.P,PI_BOARD101,19,GPIO10_(SPI_MOSI)*%
%TO.N,unconnected-(PI_BOARD101-Pad19)*%
X136730000Y-62270000D03*
%TO.P,PI_BOARD101,20,Ground*%
%TO.N,unconnected-(PI_BOARD101-Pad20)*%
X136730000Y-59730000D03*
%TO.P,PI_BOARD101,21,GPIO09_(SPI_MISO)*%
%TO.N,unconnected-(PI_BOARD101-Pad21)*%
X139270000Y-62270000D03*
%TO.P,PI_BOARD101,22,(GPIO_GEN6)_GPIO25*%
%TO.N,unconnected-(PI_BOARD101-Pad22)*%
X139270000Y-59730000D03*
%TO.P,PI_BOARD101,23,GPIO11_(SPI_CLK)*%
%TO.N,unconnected-(PI_BOARD101-Pad23)*%
X141810000Y-62270000D03*
%TO.P,PI_BOARD101,24,(SPI_CE0_N)_GPIO08*%
%TO.N,unconnected-(PI_BOARD101-Pad24)*%
X141810000Y-59730000D03*
%TO.P,PI_BOARD101,25,Ground*%
%TO.N,GND*%
X144350000Y-62270000D03*
%TO.P,PI_BOARD101,26,(SPI_CE1_N)_GPIO07*%
%TO.N,unconnected-(PI_BOARD101-Pad26)*%
X144350000Y-59730000D03*
%TO.P,PI_BOARD101,27,ID_SD_(I2C_id_eeprom)*%
%TO.N,unconnected-(PI_BOARD101-Pad27)*%
X146890000Y-62270000D03*
%TO.P,PI_BOARD101,28,(I2C_id_eeprom)_ID_SC*%
%TO.N,unconnected-(PI_BOARD101-Pad28)*%
X146890000Y-59730000D03*
%TO.P,PI_BOARD101,29,GPIO05*%
%TO.N,unconnected-(PI_BOARD101-Pad29)*%
X149430000Y-62270000D03*
%TO.P,PI_BOARD101,30,Ground*%
%TO.N,unconnected-(PI_BOARD101-Pad30)*%
X149430000Y-59730000D03*
%TO.P,PI_BOARD101,31,GPIO06*%
%TO.N,unconnected-(PI_BOARD101-Pad31)*%
X151970000Y-62270000D03*
%TO.P,PI_BOARD101,32,GPIO12*%
%TO.N,unconnected-(PI_BOARD101-Pad32)*%
X151970000Y-59730000D03*
%TO.P,PI_BOARD101,33,GPIO13*%
%TO.N,/nonisolated1/TEMP*%
X154510000Y-62270000D03*
%TO.P,PI_BOARD101,34,Ground*%
%TO.N,unconnected-(PI_BOARD101-Pad34)*%
X154510000Y-59730000D03*
%TO.P,PI_BOARD101,35,GPIO19*%
%TO.N,unconnected-(PI_BOARD101-Pad35)*%
X157050000Y-62270000D03*
%TO.P,PI_BOARD101,36,GPIO16*%
%TO.N,unconnected-(PI_BOARD101-Pad36)*%
X157050000Y-59730000D03*
%TO.P,PI_BOARD101,37,GPIO26*%
%TO.N,/nonisolated1/FLOW*%
X159590000Y-62333500D03*
%TO.P,PI_BOARD101,38,GPIO20*%
%TO.N,unconnected-(PI_BOARD101-Pad38)*%
X159590000Y-59666500D03*
%TO.P,PI_BOARD101,39,Ground*%
%TO.N,unconnected-(PI_BOARD101-Pad39)*%
X162130000Y-62270000D03*
%TO.P,PI_BOARD101,40,GPIO21*%
%TO.N,unconnected-(PI_BOARD101-Pad40)*%
X162130000Y-59730000D03*
%TD*%
D16*
%TO.P,,*%
%TO.N,*%
X167000000Y-84600000D03*
%TD*%
%TO.P,,*%
%TO.N,*%
X109000000Y-84600000D03*
%TD*%
D22*
%TO.P,fiducial,2*%
%TO.N,N/C*%
X109220000Y-65278000D03*
%TD*%
%TO.P,fiducial,1*%
%TO.N,N/C*%
X166116000Y-103632000D03*
%TD*%
D23*
%TO.N,+3.3V*%
X160500000Y-74600000D03*
X129250000Y-69750000D03*
X125900000Y-69850000D03*
X145800000Y-69900000D03*
X151500000Y-69900000D03*
X160500000Y-81000000D03*
%TO.N,GND_ISO2*%
X119250000Y-83250000D03*
%TO.N,V_ISO2*%
X122400000Y-82800000D03*
X110125000Y-81175000D03*
%TO.N,Net-(R201-Pad2)*%
X126000000Y-95200000D03*
X116900000Y-84500000D03*
X126100000Y-81900000D03*
%TO.N,Net-(R202-Pad2)*%
X108900000Y-88200000D03*
X124900000Y-86000000D03*
%TO.N,Net-(R302-Pad2)*%
X130500000Y-100300000D03*
X147750000Y-85500000D03*
%TO.N,GND_ISO3*%
X145900000Y-88100000D03*
X133500000Y-80250000D03*
%TO.N,V_ISO3*%
X145750000Y-84250000D03*
X133300000Y-83375000D03*
%TO.N,/SDA*%
X126920000Y-68580000D03*
X147000000Y-68600000D03*
%TO.N,/SCL*%
X128125000Y-67625000D03*
X148335000Y-67632000D03*
%TO.N,/nonisolated1/FLOW*%
X157700000Y-92600000D03*
X157700000Y-75700000D03*
%TD*%
D24*
%TO.N,+3.3V*%
X151450000Y-69850000D02*
X151500000Y-69900000D01*
X121450000Y-69850000D02*
X125900000Y-69850000D01*
X125900000Y-69850000D02*
X151450000Y-69850000D01*
X156700000Y-69900000D02*
X160500000Y-73700000D01*
X160500000Y-73700000D02*
X160500000Y-74600000D01*
X160500000Y-74600000D02*
X160500000Y-81000000D01*
X151500000Y-69900000D02*
X156700000Y-69900000D01*
X113870000Y-62270000D02*
X121450000Y-69850000D01*
%TO.N,V_ISO2*%
X120775000Y-81175000D02*
X122400000Y-82800000D01*
X110125000Y-81175000D02*
X120775000Y-81175000D01*
%TO.N,Net-(P101-Pad5)*%
X167750000Y-68596500D02*
X167686500Y-68660000D01*
X167750000Y-66120000D02*
X167750000Y-68596500D01*
%TO.N,Net-(R201-Pad2)*%
X116900000Y-84500000D02*
X123500000Y-84500000D01*
X123500000Y-84500000D02*
X126100000Y-81900000D01*
X126100000Y-95100000D02*
X126000000Y-95200000D01*
X126100000Y-81900000D02*
X126100000Y-95100000D01*
%TO.N,Net-(R202-Pad2)*%
X124900000Y-87000000D02*
X123700000Y-88200000D01*
X123700000Y-88200000D02*
X108900000Y-88200000D01*
X124900000Y-86000000D02*
X124900000Y-87000000D01*
%TO.N,Net-(R302-Pad2)*%
X133300000Y-84700000D02*
X144700000Y-84700000D01*
X144700000Y-84700000D02*
X145500000Y-85500000D01*
X130500000Y-100300000D02*
X130500000Y-87500000D01*
X147750000Y-85500000D02*
X145500000Y-85500000D01*
X130500000Y-87500000D02*
X133300000Y-84700000D01*
%TO.N,V_ISO3*%
X144875000Y-83375000D02*
X133300000Y-83375000D01*
X145750000Y-84250000D02*
X144875000Y-83375000D01*
%TO.N,/SDA*%
X116410000Y-62685000D02*
X122305000Y-68580000D01*
X165446000Y-76454000D02*
X167703500Y-76454000D01*
X116410000Y-62333500D02*
X116410000Y-62685000D01*
X165400000Y-76500000D02*
X165446000Y-76454000D01*
X157480000Y-68580000D02*
X165400000Y-76500000D01*
X122305000Y-68580000D02*
X126920000Y-68580000D01*
X126920000Y-68580000D02*
X157480000Y-68580000D01*
%TO.N,/SCL*%
X168306000Y-78994000D02*
X169500000Y-77800000D01*
X161875000Y-67625000D02*
X128125000Y-67625000D01*
X165100000Y-64400000D02*
X161875000Y-67625000D01*
X169100000Y-64400000D02*
X165100000Y-64400000D01*
X169500000Y-77800000D02*
X169500000Y-64800000D01*
X167640000Y-78994000D02*
X168306000Y-78994000D01*
X122600000Y-67625000D02*
X118950000Y-63975000D01*
X169500000Y-64800000D02*
X169100000Y-64400000D01*
X128125000Y-67625000D02*
X122600000Y-67625000D01*
X118950000Y-63975000D02*
X118950000Y-62270000D01*
%TO.N,/nonisolated1/FLOW*%
X157700000Y-75700000D02*
X157700000Y-92600000D01*
%TD*%
%TA.AperFunction,Conductor*%
%TO.N,/isolation3/PRB_GND*%
G36*
X146942121Y-92520002D02*
G01*
X146988614Y-92573658D01*
X147000000Y-92626000D01*
X147000000Y-113382530D01*
X146979998Y-113450651D01*
X146926342Y-113497144D01*
X146874000Y-113508530D01*
X128876000Y-113508530D01*
X128807879Y-113488528D01*
X128761386Y-113434872D01*
X128750000Y-113382530D01*
X128750000Y-108227426D01*
X130780943Y-108227426D01*
X130797823Y-108520178D01*
X130798648Y-108524385D01*
X130798649Y-108524390D01*
X130811797Y-108591406D01*
X130854278Y-108807930D01*
X130855665Y-108811980D01*
X130855666Y-108811985D01*
X130877952Y-108877077D01*
X130949263Y-109085358D01*
X131081020Y-109347328D01*
X131083446Y-109350857D01*
X131083449Y-109350863D01*
X131123078Y-109408523D01*
X131247112Y-109588993D01*
X131444464Y-109805880D01*
X131447752Y-109808629D01*
X131666134Y-109991226D01*
X131666139Y-109991230D01*
X131669426Y-109993978D01*
X131727276Y-110030267D01*
X131914194Y-110147521D01*
X131914198Y-110147523D01*
X131917834Y-110149804D01*
X132185092Y-110270475D01*
X132189211Y-110271695D01*
X132462141Y-110352541D01*
X132462145Y-110352542D01*
X132466254Y-110353759D01*
X132470491Y-110354407D01*
X132470494Y-110354408D01*
X132555998Y-110367492D01*
X132756118Y-110398115D01*
X132905401Y-110400460D01*
X133045028Y-110402654D01*
X133045034Y-110402654D01*
X133049319Y-110402721D01*
X133340433Y-110367492D01*
X133624073Y-110293081D01*
X133894989Y-110180863D01*
X134148169Y-110032917D01*
X134378928Y-109851979D01*
X134582996Y-109641397D01*
X134585529Y-109637949D01*
X134585533Y-109637944D01*
X134754059Y-109408523D01*
X134756597Y-109405068D01*
X134787947Y-109347328D01*
X134894468Y-109151142D01*
X134894469Y-109151140D01*
X134896518Y-109147366D01*
X135000170Y-108873059D01*
X135065635Y-108587222D01*
X135071619Y-108520178D01*
X135091482Y-108297610D01*
X135091702Y-108295145D01*
X135092175Y-108250000D01*
X135090636Y-108227426D01*
X140907943Y-108227426D01*
X140924823Y-108520178D01*
X140925648Y-108524385D01*
X140925649Y-108524390D01*
X140938797Y-108591406D01*
X140981278Y-108807930D01*
X140982665Y-108811980D01*
X140982666Y-108811985D01*
X141004952Y-108877077D01*
X141076263Y-109085358D01*
X141208020Y-109347328D01*
X141210446Y-109350857D01*
X141210449Y-109350863D01*
X141250078Y-109408523D01*
X141374112Y-109588993D01*
X141571464Y-109805880D01*
X141574752Y-109808629D01*
X141793134Y-109991226D01*
X141793139Y-109991230D01*
X141796426Y-109993978D01*
X141854276Y-110030267D01*
X142041194Y-110147521D01*
X142041198Y-110147523D01*
X142044834Y-110149804D01*
X142312092Y-110270475D01*
X142316211Y-110271695D01*
X142589141Y-110352541D01*
X142589145Y-110352542D01*
X142593254Y-110353759D01*
X142597491Y-110354407D01*
X142597494Y-110354408D01*
X142682998Y-110367492D01*
X142883118Y-110398115D01*
X143032401Y-110400460D01*
X143172028Y-110402654D01*
X143172034Y-110402654D01*
X143176319Y-110402721D01*
X143467433Y-110367492D01*
X143751073Y-110293081D01*
X144021989Y-110180863D01*
X144275169Y-110032917D01*
X144505928Y-109851979D01*
X144709996Y-109641397D01*
X144712529Y-109637949D01*
X144712533Y-109637944D01*
X144881059Y-109408523D01*
X144883597Y-109405068D01*
X144914947Y-109347328D01*
X145021468Y-109151142D01*
X145021469Y-109151140D01*
X145023518Y-109147366D01*
X145127170Y-108873059D01*
X145192635Y-108587222D01*
X145198619Y-108520178D01*
X145218482Y-108297610D01*
X145218702Y-108295145D01*
X145219175Y-108250000D01*
X145199230Y-107957441D01*
X145139765Y-107670296D01*
X145041881Y-107393878D01*
X144907387Y-107133302D01*
X144896534Y-107117859D01*
X144741237Y-106896895D01*
X144738774Y-106893390D01*
X144539161Y-106678581D01*
X144535845Y-106675867D01*
X144535842Y-106675864D01*
X144315560Y-106495564D01*
X144315553Y-106495559D01*
X144312242Y-106492849D01*
X144062216Y-106339633D01*
X144058299Y-106337914D01*
X144058296Y-106337912D01*
X143939871Y-106285928D01*
X143793709Y-106221767D01*
X143789581Y-106220591D01*
X143789578Y-106220590D01*
X143701508Y-106195503D01*
X143511690Y-106141432D01*
X143507448Y-106140828D01*
X143507442Y-106140827D01*
X143225629Y-106100719D01*
X143221378Y-106100114D01*
X143067544Y-106099309D01*
X142932431Y-106098601D01*
X142932425Y-106098601D01*
X142928144Y-106098579D01*
X142923900Y-106099138D01*
X142923896Y-106099138D01*
X142796027Y-106115972D01*
X142637415Y-106136854D01*
X142633275Y-106137987D01*
X142633273Y-106137987D01*
X142616378Y-106142609D01*
X142354570Y-106214231D01*
X142084844Y-106329280D01*
X142063808Y-106341870D01*
X141836909Y-106477665D01*
X141836905Y-106477668D01*
X141833227Y-106479869D01*
X141604375Y-106663214D01*
X141402524Y-106875921D01*
X141231408Y-107114055D01*
X141094193Y-107373208D01*
X140993419Y-107648586D01*
X140930950Y-107935092D01*
X140907943Y-108227426D01*
X135090636Y-108227426D01*
X135072230Y-107957441D01*
X135012765Y-107670296D01*
X134914881Y-107393878D01*
X134780387Y-107133302D01*
X134769534Y-107117859D01*
X134614237Y-106896895D01*
X134611774Y-106893390D01*
X134412161Y-106678581D01*
X134408845Y-106675867D01*
X134408842Y-106675864D01*
X134188560Y-106495564D01*
X134188553Y-106495559D01*
X134185242Y-106492849D01*
X133935216Y-106339633D01*
X133931299Y-106337914D01*
X133931296Y-106337912D01*
X133812871Y-106285928D01*
X133666709Y-106221767D01*
X133662581Y-106220591D01*
X133662578Y-106220590D01*
X133574508Y-106195503D01*
X133384690Y-106141432D01*
X133380448Y-106140828D01*
X133380442Y-106140827D01*
X133098629Y-106100719D01*
X133094378Y-106100114D01*
X132940544Y-106099309D01*
X132805431Y-106098601D01*
X132805425Y-106098601D01*
X132801144Y-106098579D01*
X132796900Y-106099138D01*
X132796896Y-106099138D01*
X132669027Y-106115972D01*
X132510415Y-106136854D01*
X132506275Y-106137987D01*
X132506273Y-106137987D01*
X132489378Y-106142609D01*
X132227570Y-106214231D01*
X131957844Y-106329280D01*
X131936808Y-106341870D01*
X131709909Y-106477665D01*
X131709905Y-106477668D01*
X131706227Y-106479869D01*
X131477375Y-106663214D01*
X131275524Y-106875921D01*
X131104408Y-107114055D01*
X130967193Y-107373208D01*
X130866419Y-107648586D01*
X130803950Y-107935092D01*
X130780943Y-108227426D01*
X128750000Y-108227426D01*
X128750000Y-102126000D01*
X128770002Y-102057879D01*
X128823658Y-102011386D01*
X128876000Y-102000000D01*
X136526093Y-102000000D01*
X136594214Y-102020002D01*
X136640707Y-102073658D01*
X136650542Y-102145710D01*
X136635850Y-102238470D01*
X136635850Y-104101530D01*
X136650710Y-104195351D01*
X136655211Y-104204185D01*
X136655212Y-104204188D01*
X136678800Y-104250481D01*
X136708327Y-104308432D01*
X136798068Y-104398173D01*
X136856019Y-104427700D01*
X136902312Y-104451288D01*
X136902315Y-104451289D01*
X136911149Y-104455790D01*
X137004970Y-104470650D01*
X138868030Y-104470650D01*
X138961851Y-104455790D01*
X138970685Y-104451289D01*
X138970688Y-104451288D01*
X139016981Y-104427700D01*
X139074932Y-104398173D01*
X139141699Y-104331406D01*
X139806923Y-104331406D01*
X139812204Y-104338461D01*
X139988580Y-104441527D01*
X139997863Y-104445974D01*
X140204503Y-104524883D01*
X140214401Y-104527759D01*
X140431153Y-104571857D01*
X140441383Y-104573076D01*
X140662414Y-104581182D01*
X140672723Y-104580714D01*
X140892123Y-104552608D01*
X140902188Y-104550468D01*
X141114057Y-104486905D01*
X141123652Y-104483144D01*
X141322278Y-104385838D01*
X141331136Y-104380559D01*
X141388597Y-104339572D01*
X141396997Y-104328874D01*
X141390010Y-104315721D01*
X140616311Y-103542021D01*
X140602368Y-103534408D01*
X140600534Y-103534539D01*
X140593920Y-103538790D01*
X139813680Y-104319031D01*
X139806923Y-104331406D01*
X139141699Y-104331406D01*
X139164673Y-104308432D01*
X139194200Y-104250481D01*
X139217788Y-104204188D01*
X139217789Y-104204185D01*
X139222290Y-104195351D01*
X139237150Y-104101530D01*
X139237150Y-104061960D01*
X139257152Y-103993839D01*
X139310808Y-103947346D01*
X139381082Y-103937242D01*
X139442071Y-103965889D01*
X139442418Y-103965947D01*
X139452831Y-103961458D01*
X140231479Y-103182811D01*
X140237856Y-103171132D01*
X140967908Y-103171132D01*
X140968039Y-103172966D01*
X140972290Y-103179580D01*
X141749807Y-103957096D01*
X141761813Y-103963652D01*
X141773552Y-103954684D01*
X141811510Y-103901859D01*
X141816821Y-103893020D01*
X141914818Y-103694737D01*
X141918617Y-103685142D01*
X141982915Y-103473517D01*
X141985094Y-103463436D01*
X142014202Y-103242338D01*
X142014721Y-103235663D01*
X142016244Y-103173364D01*
X142016050Y-103166646D01*
X141997779Y-102944400D01*
X141996096Y-102934238D01*
X141942210Y-102719708D01*
X141938889Y-102709953D01*
X141850693Y-102507118D01*
X141845815Y-102498020D01*
X141772724Y-102385038D01*
X141762038Y-102375835D01*
X141752473Y-102380238D01*
X140975521Y-103157189D01*
X140967908Y-103171132D01*
X140237856Y-103171132D01*
X140239092Y-103168868D01*
X140238961Y-103167034D01*
X140234710Y-103160420D01*
X139457362Y-102383073D01*
X139445831Y-102376776D01*
X139440858Y-102380672D01*
X139374899Y-102406939D01*
X139305210Y-102393376D01*
X139253916Y-102344289D01*
X139237150Y-102281488D01*
X139237150Y-102238470D01*
X139222290Y-102144649D01*
X139217789Y-102135815D01*
X139217788Y-102135812D01*
X139194200Y-102089519D01*
X139164673Y-102031568D01*
X139143816Y-102010711D01*
X139809008Y-102010711D01*
X139815751Y-102023040D01*
X140590689Y-102797979D01*
X140604632Y-102805592D01*
X140606466Y-102805461D01*
X140613080Y-102801210D01*
X141392494Y-102021795D01*
X141399511Y-102008944D01*
X141391737Y-101998274D01*
X141389402Y-101996430D01*
X141380820Y-101990729D01*
X141187178Y-101883833D01*
X141177772Y-101879606D01*
X140969272Y-101805772D01*
X140959309Y-101803140D01*
X140741547Y-101764350D01*
X140731296Y-101763381D01*
X140510116Y-101760679D01*
X140499832Y-101761399D01*
X140281193Y-101794855D01*
X140271166Y-101797244D01*
X140060926Y-101865961D01*
X140051416Y-101869958D01*
X139855225Y-101972089D01*
X139846507Y-101977578D01*
X139817461Y-101999386D01*
X139809008Y-102010711D01*
X139143816Y-102010711D01*
X139074932Y-101941827D01*
X139016981Y-101912300D01*
X138970688Y-101888712D01*
X138970685Y-101888711D01*
X138961851Y-101884210D01*
X138868030Y-101869350D01*
X137626000Y-101869350D01*
X137557879Y-101849348D01*
X137511386Y-101795692D01*
X137500000Y-101743350D01*
X137500000Y-92626000D01*
X137520002Y-92557879D01*
X137573658Y-92511386D01*
X137626000Y-92500000D01*
X146874000Y-92500000D01*
X146942121Y-92520002D01*
G37*
%TD.AperFunction*%
%TD*%
%TA.AperFunction,Conductor*%
%TO.N,GND_ISO3*%
G36*
X150442121Y-79270002D02*
G01*
X150488614Y-79323658D01*
X150500000Y-79376000D01*
X150500000Y-91874000D01*
X150479998Y-91942121D01*
X150426342Y-91988614D01*
X150374000Y-92000000D01*
X137000000Y-92000000D01*
X137000000Y-101374000D01*
X136979998Y-101442121D01*
X136926342Y-101488614D01*
X136874000Y-101500000D01*
X128876000Y-101500000D01*
X128807879Y-101479998D01*
X128761386Y-101426342D01*
X128750000Y-101374000D01*
X128750000Y-100300000D01*
X129650195Y-100300000D01*
X129668765Y-100476684D01*
X129723665Y-100645647D01*
X129726968Y-100651368D01*
X129809190Y-100793783D01*
X129809193Y-100793787D01*
X129812493Y-100799503D01*
X129931369Y-100931528D01*
X130075097Y-101035953D01*
X130081125Y-101038637D01*
X130081127Y-101038638D01*
X130231365Y-101105528D01*
X130237396Y-101108213D01*
X130324283Y-101126681D01*
X130404714Y-101143778D01*
X130404718Y-101143778D01*
X130411171Y-101145150D01*
X130588829Y-101145150D01*
X130595282Y-101143778D01*
X130595286Y-101143778D01*
X130675717Y-101126681D01*
X130762604Y-101108213D01*
X130768635Y-101105528D01*
X130918873Y-101038638D01*
X130918875Y-101038637D01*
X130924903Y-101035953D01*
X131068631Y-100931528D01*
X131187507Y-100799503D01*
X131190807Y-100793787D01*
X131190810Y-100793783D01*
X131273032Y-100651368D01*
X131276335Y-100645647D01*
X131331235Y-100476684D01*
X131349805Y-100300000D01*
X131331235Y-100123316D01*
X131276335Y-99954353D01*
X131187507Y-99800497D01*
X131183014Y-99795507D01*
X131182986Y-99795449D01*
X131179208Y-99790249D01*
X131180159Y-99789558D01*
X131152296Y-99731500D01*
X131150650Y-99711197D01*
X131150650Y-87821698D01*
X131170652Y-87753577D01*
X131187555Y-87732603D01*
X133532603Y-85387555D01*
X133594915Y-85353529D01*
X133621698Y-85350650D01*
X144378302Y-85350650D01*
X144446423Y-85370652D01*
X144467397Y-85387555D01*
X144982626Y-85902784D01*
X144990476Y-85911411D01*
X144994681Y-85918036D01*
X145000458Y-85923461D01*
X145045713Y-85965958D01*
X145048555Y-85968713D01*
X145068864Y-85989022D01*
X145071990Y-85991447D01*
X145072004Y-85991459D01*
X145072280Y-85991673D01*
X145081304Y-85999380D01*
X145108741Y-86025145D01*
X145114518Y-86030570D01*
X145121462Y-86034387D01*
X145121464Y-86034389D01*
X145132985Y-86040723D01*
X145149509Y-86051577D01*
X145166160Y-86064493D01*
X145207986Y-86082593D01*
X145218644Y-86087814D01*
X145258576Y-86109767D01*
X145266249Y-86111737D01*
X145266251Y-86111738D01*
X145278987Y-86115008D01*
X145297688Y-86121411D01*
X145309755Y-86126633D01*
X145309761Y-86126635D01*
X145317032Y-86129781D01*
X145324859Y-86131021D01*
X145324860Y-86131021D01*
X145362036Y-86136909D01*
X145373661Y-86139317D01*
X145410119Y-86148678D01*
X145410128Y-86148679D01*
X145417804Y-86150650D01*
X145438879Y-86150650D01*
X145458589Y-86152201D01*
X145479400Y-86155497D01*
X145487292Y-86154751D01*
X145524762Y-86151209D01*
X145536620Y-86150650D01*
X147166748Y-86150650D01*
X147234869Y-86170652D01*
X147240809Y-86174714D01*
X147325097Y-86235953D01*
X147331125Y-86238637D01*
X147331127Y-86238638D01*
X147481365Y-86305528D01*
X147487396Y-86308213D01*
X147574284Y-86326682D01*
X147654714Y-86343778D01*
X147654718Y-86343778D01*
X147661171Y-86345150D01*
X147838829Y-86345150D01*
X147845282Y-86343778D01*
X147845286Y-86343778D01*
X147925716Y-86326682D01*
X148012604Y-86308213D01*
X148018635Y-86305528D01*
X148168873Y-86238638D01*
X148168875Y-86238637D01*
X148174903Y-86235953D01*
X148318631Y-86131528D01*
X148327741Y-86121411D01*
X148433088Y-86004411D01*
X148433089Y-86004410D01*
X148437507Y-85999503D01*
X148440807Y-85993787D01*
X148440810Y-85993783D01*
X148523032Y-85851368D01*
X148526335Y-85845647D01*
X148581235Y-85676684D01*
X148599805Y-85500000D01*
X148587987Y-85387555D01*
X148581926Y-85329886D01*
X148581925Y-85329882D01*
X148581235Y-85323316D01*
X148526335Y-85154353D01*
X148521793Y-85146486D01*
X148440810Y-85006217D01*
X148440807Y-85006213D01*
X148437507Y-85000497D01*
X148318631Y-84868472D01*
X148174903Y-84764047D01*
X148168875Y-84761363D01*
X148168873Y-84761362D01*
X148018635Y-84694472D01*
X148018634Y-84694472D01*
X148012604Y-84691787D01*
X147925716Y-84673318D01*
X147845286Y-84656222D01*
X147845282Y-84656222D01*
X147838829Y-84654850D01*
X147661171Y-84654850D01*
X147654718Y-84656222D01*
X147654714Y-84656222D01*
X147574283Y-84673319D01*
X147487396Y-84691787D01*
X147481367Y-84694472D01*
X147481365Y-84694472D01*
X147331128Y-84761362D01*
X147331126Y-84761363D01*
X147325098Y-84764047D01*
X147319757Y-84767927D01*
X147319756Y-84767928D01*
X147240809Y-84825286D01*
X147166748Y-84849350D01*
X146598098Y-84849350D01*
X146529977Y-84829348D01*
X146483484Y-84775692D01*
X146473380Y-84705418D01*
X146488979Y-84660350D01*
X146523032Y-84601368D01*
X146526335Y-84595647D01*
X146581235Y-84426684D01*
X146599805Y-84250000D01*
X146599115Y-84243435D01*
X146581926Y-84079886D01*
X146581925Y-84079882D01*
X146581235Y-84073316D01*
X146526335Y-83904353D01*
X146505799Y-83868783D01*
X146440810Y-83756217D01*
X146440807Y-83756213D01*
X146437507Y-83750497D01*
X146410630Y-83720647D01*
X146323046Y-83623375D01*
X146323044Y-83623374D01*
X146318631Y-83618472D01*
X146297071Y-83602807D01*
X146180245Y-83517928D01*
X146180244Y-83517927D01*
X146174903Y-83514047D01*
X146168875Y-83511363D01*
X146168873Y-83511362D01*
X146018635Y-83444472D01*
X146018634Y-83444472D01*
X146012604Y-83441787D01*
X145857782Y-83408879D01*
X145794885Y-83374727D01*
X145392374Y-82972216D01*
X145384524Y-82963589D01*
X145380319Y-82956964D01*
X145329286Y-82909041D01*
X145326445Y-82906287D01*
X145306136Y-82885978D01*
X145303010Y-82883553D01*
X145302996Y-82883541D01*
X145302720Y-82883327D01*
X145293696Y-82875620D01*
X145266259Y-82849855D01*
X145260482Y-82844430D01*
X145253538Y-82840613D01*
X145253536Y-82840611D01*
X145242015Y-82834277D01*
X145225491Y-82823423D01*
X145215100Y-82815363D01*
X145208840Y-82810507D01*
X145167012Y-82792407D01*
X145156354Y-82787185D01*
X145149778Y-82783570D01*
X145116424Y-82765233D01*
X145096007Y-82759991D01*
X145077309Y-82753589D01*
X145065242Y-82748367D01*
X145065237Y-82748366D01*
X145057968Y-82745220D01*
X145050145Y-82743981D01*
X145050142Y-82743980D01*
X145012959Y-82738091D01*
X145001346Y-82735686D01*
X144957196Y-82724350D01*
X144936121Y-82724350D01*
X144916410Y-82722799D01*
X144903429Y-82720743D01*
X144895600Y-82719503D01*
X144887708Y-82720249D01*
X144850238Y-82723791D01*
X144838380Y-82724350D01*
X133883252Y-82724350D01*
X133815131Y-82704348D01*
X133809191Y-82700286D01*
X133730245Y-82642928D01*
X133730244Y-82642927D01*
X133724903Y-82639047D01*
X133718875Y-82636363D01*
X133718873Y-82636362D01*
X133568635Y-82569472D01*
X133568634Y-82569472D01*
X133562604Y-82566787D01*
X133475717Y-82548319D01*
X133395286Y-82531222D01*
X133395282Y-82531222D01*
X133388829Y-82529850D01*
X133211171Y-82529850D01*
X133204718Y-82531222D01*
X133204714Y-82531222D01*
X133124283Y-82548319D01*
X133037396Y-82566787D01*
X133031367Y-82569472D01*
X133031365Y-82569472D01*
X132881128Y-82636362D01*
X132881126Y-82636363D01*
X132875098Y-82639047D01*
X132869757Y-82642927D01*
X132869756Y-82642928D01*
X132785219Y-82704348D01*
X132731369Y-82743472D01*
X132726956Y-82748374D01*
X132726954Y-82748375D01*
X132640466Y-82844430D01*
X132612493Y-82875497D01*
X132609193Y-82881213D01*
X132609190Y-82881217D01*
X132556653Y-82972216D01*
X132523665Y-83029353D01*
X132468765Y-83198316D01*
X132450195Y-83375000D01*
X132450885Y-83381565D01*
X132457215Y-83441787D01*
X132468765Y-83551684D01*
X132523665Y-83720647D01*
X132526968Y-83726368D01*
X132609190Y-83868783D01*
X132609193Y-83868787D01*
X132612493Y-83874503D01*
X132616911Y-83879410D01*
X132616912Y-83879411D01*
X132645026Y-83910634D01*
X132731369Y-84006528D01*
X132736707Y-84010406D01*
X132736710Y-84010409D01*
X132808874Y-84062840D01*
X132852227Y-84119062D01*
X132858302Y-84189798D01*
X132831897Y-84245090D01*
X132822007Y-84257045D01*
X132814017Y-84265825D01*
X130097216Y-86982626D01*
X130088589Y-86990476D01*
X130081964Y-86994681D01*
X130076539Y-87000458D01*
X130034042Y-87045713D01*
X130031287Y-87048555D01*
X130010978Y-87068864D01*
X130008553Y-87071990D01*
X130008541Y-87072004D01*
X130008327Y-87072280D01*
X130000620Y-87081304D01*
X129969430Y-87114518D01*
X129965613Y-87121462D01*
X129965611Y-87121464D01*
X129959277Y-87132985D01*
X129948423Y-87149509D01*
X129935507Y-87166160D01*
X129932362Y-87173429D01*
X129917409Y-87207984D01*
X129912185Y-87218646D01*
X129890233Y-87258576D01*
X129884991Y-87278992D01*
X129878589Y-87297691D01*
X129873367Y-87309758D01*
X129873366Y-87309763D01*
X129870220Y-87317032D01*
X129868981Y-87324855D01*
X129868980Y-87324858D01*
X129863091Y-87362041D01*
X129860686Y-87373654D01*
X129849350Y-87417804D01*
X129849350Y-87438879D01*
X129847799Y-87458590D01*
X129844503Y-87479400D01*
X129845249Y-87487292D01*
X129848791Y-87524762D01*
X129849350Y-87536620D01*
X129849350Y-99711197D01*
X129829348Y-99779318D01*
X129816986Y-99795507D01*
X129812493Y-99800497D01*
X129723665Y-99954353D01*
X129668765Y-100123316D01*
X129650195Y-100300000D01*
X128750000Y-100300000D01*
X128750000Y-79376000D01*
X128770002Y-79307879D01*
X128823658Y-79261386D01*
X128876000Y-79250000D01*
X150374000Y-79250000D01*
X150442121Y-79270002D01*
G37*
%TD.AperFunction*%
%TD*%
%TA.AperFunction,Conductor*%
%TO.N,/isolation2/PRB_GND*%
G36*
X125391471Y-93020002D02*
G01*
X125437964Y-93073658D01*
X125449350Y-93126000D01*
X125449350Y-94500135D01*
X125429348Y-94568256D01*
X125416986Y-94584445D01*
X125312493Y-94700497D01*
X125309193Y-94706213D01*
X125309190Y-94706217D01*
X125249350Y-94809865D01*
X125223665Y-94854353D01*
X125168765Y-95023316D01*
X125150195Y-95200000D01*
X125168765Y-95376684D01*
X125223665Y-95545647D01*
X125226968Y-95551368D01*
X125309190Y-95693783D01*
X125309193Y-95693787D01*
X125312493Y-95699503D01*
X125431369Y-95831528D01*
X125575097Y-95935953D01*
X125581125Y-95938637D01*
X125581127Y-95938638D01*
X125731365Y-96005528D01*
X125737396Y-96008213D01*
X125824284Y-96026682D01*
X125904714Y-96043778D01*
X125904718Y-96043778D01*
X125911171Y-96045150D01*
X126088829Y-96045150D01*
X126095282Y-96043778D01*
X126095286Y-96043778D01*
X126175716Y-96026682D01*
X126262604Y-96008213D01*
X126268635Y-96005528D01*
X126418873Y-95938638D01*
X126418875Y-95938637D01*
X126424903Y-95935953D01*
X126568631Y-95831528D01*
X126687507Y-95699503D01*
X126690807Y-95693787D01*
X126690810Y-95693783D01*
X126773032Y-95551368D01*
X126776335Y-95545647D01*
X126831235Y-95376684D01*
X126849805Y-95200000D01*
X126831235Y-95023316D01*
X126776335Y-94854353D01*
X126767531Y-94839104D01*
X126750650Y-94776104D01*
X126750650Y-93126000D01*
X126770652Y-93057879D01*
X126824308Y-93011386D01*
X126876650Y-93000000D01*
X128124000Y-93000000D01*
X128192121Y-93020002D01*
X128238614Y-93073658D01*
X128250000Y-93126000D01*
X128250000Y-113382530D01*
X128229998Y-113450651D01*
X128176342Y-113497144D01*
X128124000Y-113508530D01*
X108541411Y-113508530D01*
X108521700Y-113506979D01*
X108518474Y-113506468D01*
X108500000Y-113503542D01*
X108490207Y-113505093D01*
X108490202Y-113505093D01*
X108490063Y-113505115D01*
X108463293Y-113506468D01*
X108326064Y-113498762D01*
X108215971Y-113492580D01*
X108201938Y-113490999D01*
X108065194Y-113467765D01*
X107928455Y-113444531D01*
X107914680Y-113441387D01*
X107648122Y-113364593D01*
X107634785Y-113359926D01*
X107476895Y-113294526D01*
X107378501Y-113253770D01*
X107365775Y-113247641D01*
X107122994Y-113113461D01*
X107111037Y-113105949D01*
X106884781Y-112945412D01*
X106873750Y-112936614D01*
X106666904Y-112751765D01*
X106656914Y-112741775D01*
X106637513Y-112720065D01*
X106472066Y-112534930D01*
X106463268Y-112523899D01*
X106302731Y-112297643D01*
X106295219Y-112285686D01*
X106161039Y-112042905D01*
X106154908Y-112030175D01*
X106048754Y-111773895D01*
X106044087Y-111760558D01*
X105967293Y-111494000D01*
X105964149Y-111480225D01*
X105940915Y-111343486D01*
X105917681Y-111206742D01*
X105916100Y-111192705D01*
X105902212Y-110945387D01*
X105903565Y-110918617D01*
X105903587Y-110918478D01*
X105903587Y-110918473D01*
X105905138Y-110908680D01*
X105901701Y-110886979D01*
X105900150Y-110867269D01*
X105900150Y-110545500D01*
X106594603Y-110545500D01*
X106613570Y-110846976D01*
X106670173Y-111143698D01*
X106763518Y-111430986D01*
X106892135Y-111704309D01*
X106894253Y-111707647D01*
X106894255Y-111707650D01*
X106991105Y-111860261D01*
X107053993Y-111959357D01*
X107246541Y-112192108D01*
X107466742Y-112398890D01*
X107711124Y-112576444D01*
X107975832Y-112721968D01*
X108051093Y-112751766D01*
X108253008Y-112831710D01*
X108253011Y-112831711D01*
X108256691Y-112833168D01*
X108260525Y-112834152D01*
X108260533Y-112834155D01*
X108441827Y-112880703D01*
X108549274Y-112908291D01*
X108553202Y-112908787D01*
X108553206Y-112908788D01*
X108699119Y-112927221D01*
X108848964Y-112946150D01*
X109151036Y-112946150D01*
X109300881Y-112927221D01*
X109446794Y-112908788D01*
X109446798Y-112908787D01*
X109450726Y-112908291D01*
X109558173Y-112880703D01*
X109739467Y-112834155D01*
X109739475Y-112834152D01*
X109743309Y-112833168D01*
X109746989Y-112831711D01*
X109746992Y-112831710D01*
X109948907Y-112751766D01*
X110024168Y-112721968D01*
X110288876Y-112576444D01*
X110533258Y-112398890D01*
X110753459Y-112192108D01*
X110946007Y-111959357D01*
X111008895Y-111860261D01*
X111105745Y-111707650D01*
X111105747Y-111707647D01*
X111107865Y-111704309D01*
X111236482Y-111430986D01*
X111329827Y-111143698D01*
X111386430Y-110846976D01*
X111405397Y-110545500D01*
X111386430Y-110244024D01*
X111329827Y-109947302D01*
X111236482Y-109660014D01*
X111107865Y-109386691D01*
X111080454Y-109343497D01*
X110948129Y-109134987D01*
X110946007Y-109131643D01*
X110753459Y-108898892D01*
X110533258Y-108692110D01*
X110288876Y-108514556D01*
X110024168Y-108369032D01*
X109831302Y-108292671D01*
X109746992Y-108259290D01*
X109746989Y-108259289D01*
X109743309Y-108257832D01*
X109739475Y-108256848D01*
X109739467Y-108256845D01*
X109624887Y-108227426D01*
X112030943Y-108227426D01*
X112047823Y-108520178D01*
X112048648Y-108524385D01*
X112048649Y-108524390D01*
X112061797Y-108591406D01*
X112104278Y-108807930D01*
X112105665Y-108811980D01*
X112105666Y-108811985D01*
X112127952Y-108877077D01*
X112199263Y-109085358D01*
X112331020Y-109347328D01*
X112333446Y-109350857D01*
X112333449Y-109350863D01*
X112373078Y-109408523D01*
X112497112Y-109588993D01*
X112694464Y-109805880D01*
X112697752Y-109808629D01*
X112916134Y-109991226D01*
X112916139Y-109991230D01*
X112919426Y-109993978D01*
X112977276Y-110030267D01*
X113164194Y-110147521D01*
X113164198Y-110147523D01*
X113167834Y-110149804D01*
X113435092Y-110270475D01*
X113439211Y-110271695D01*
X113712141Y-110352541D01*
X113712145Y-110352542D01*
X113716254Y-110353759D01*
X113720491Y-110354407D01*
X113720494Y-110354408D01*
X113805998Y-110367492D01*
X114006118Y-110398115D01*
X114155401Y-110400460D01*
X114295028Y-110402654D01*
X114295034Y-110402654D01*
X114299319Y-110402721D01*
X114590433Y-110367492D01*
X114874073Y-110293081D01*
X115144989Y-110180863D01*
X115398169Y-110032917D01*
X115628928Y-109851979D01*
X115832996Y-109641397D01*
X115835529Y-109637949D01*
X115835533Y-109637944D01*
X116004059Y-109408523D01*
X116006597Y-109405068D01*
X116037947Y-109347328D01*
X116144468Y-109151142D01*
X116144469Y-109151140D01*
X116146518Y-109147366D01*
X116250170Y-108873059D01*
X116315635Y-108587222D01*
X116321619Y-108520178D01*
X116341482Y-108297610D01*
X116341702Y-108295145D01*
X116342175Y-108250000D01*
X116340636Y-108227426D01*
X122157943Y-108227426D01*
X122174823Y-108520178D01*
X122175648Y-108524385D01*
X122175649Y-108524390D01*
X122188797Y-108591406D01*
X122231278Y-108807930D01*
X122232665Y-108811980D01*
X122232666Y-108811985D01*
X122254952Y-108877077D01*
X122326263Y-109085358D01*
X122458020Y-109347328D01*
X122460446Y-109350857D01*
X122460449Y-109350863D01*
X122500078Y-109408523D01*
X122624112Y-109588993D01*
X122821464Y-109805880D01*
X122824752Y-109808629D01*
X123043134Y-109991226D01*
X123043139Y-109991230D01*
X123046426Y-109993978D01*
X123104276Y-110030267D01*
X123291194Y-110147521D01*
X123291198Y-110147523D01*
X123294834Y-110149804D01*
X123562092Y-110270475D01*
X123566211Y-110271695D01*
X123839141Y-110352541D01*
X123839145Y-110352542D01*
X123843254Y-110353759D01*
X123847491Y-110354407D01*
X123847494Y-110354408D01*
X123932998Y-110367492D01*
X124133118Y-110398115D01*
X124282401Y-110400460D01*
X124422028Y-110402654D01*
X124422034Y-110402654D01*
X124426319Y-110402721D01*
X124717433Y-110367492D01*
X125001073Y-110293081D01*
X125271989Y-110180863D01*
X125525169Y-110032917D01*
X125755928Y-109851979D01*
X125959996Y-109641397D01*
X125962529Y-109637949D01*
X125962533Y-109637944D01*
X126131059Y-109408523D01*
X126133597Y-109405068D01*
X126164947Y-109347328D01*
X126271468Y-109151142D01*
X126271469Y-109151140D01*
X126273518Y-109147366D01*
X126377170Y-108873059D01*
X126442635Y-108587222D01*
X126448619Y-108520178D01*
X126468482Y-108297610D01*
X126468702Y-108295145D01*
X126469175Y-108250000D01*
X126464655Y-108183695D01*
X126449522Y-107961718D01*
X126449521Y-107961712D01*
X126449230Y-107957441D01*
X126389765Y-107670296D01*
X126291881Y-107393878D01*
X126157387Y-107133302D01*
X126146534Y-107117859D01*
X125991237Y-106896895D01*
X125988774Y-106893390D01*
X125789161Y-106678581D01*
X125785845Y-106675867D01*
X125785842Y-106675864D01*
X125565560Y-106495564D01*
X125565553Y-106495559D01*
X125562242Y-106492849D01*
X125312216Y-106339633D01*
X125308299Y-106337914D01*
X125308296Y-106337912D01*
X125189871Y-106285928D01*
X125043709Y-106221767D01*
X125039581Y-106220591D01*
X125039578Y-106220590D01*
X124951508Y-106195503D01*
X124761690Y-106141432D01*
X124757448Y-106140828D01*
X124757442Y-106140827D01*
X124475629Y-106100719D01*
X124471378Y-106100114D01*
X124317544Y-106099309D01*
X124182431Y-106098601D01*
X124182425Y-106098601D01*
X124178144Y-106098579D01*
X124173900Y-106099138D01*
X124173896Y-106099138D01*
X124046027Y-106115972D01*
X123887415Y-106136854D01*
X123883275Y-106137987D01*
X123883273Y-106137987D01*
X123866378Y-106142609D01*
X123604570Y-106214231D01*
X123334844Y-106329280D01*
X123313808Y-106341870D01*
X123086909Y-106477665D01*
X123086905Y-106477668D01*
X123083227Y-106479869D01*
X122854375Y-106663214D01*
X122652524Y-106875921D01*
X122481408Y-107114055D01*
X122344193Y-107373208D01*
X122243419Y-107648586D01*
X122180950Y-107935092D01*
X122157943Y-108227426D01*
X116340636Y-108227426D01*
X116337655Y-108183695D01*
X116322522Y-107961718D01*
X116322521Y-107961712D01*
X116322230Y-107957441D01*
X116262765Y-107670296D01*
X116164881Y-107393878D01*
X116030387Y-107133302D01*
X116019534Y-107117859D01*
X115864237Y-106896895D01*
X115861774Y-106893390D01*
X115662161Y-106678581D01*
X115658845Y-106675867D01*
X115658842Y-106675864D01*
X115438560Y-106495564D01*
X115438553Y-106495559D01*
X115435242Y-106492849D01*
X115185216Y-106339633D01*
X115181299Y-106337914D01*
X115181296Y-106337912D01*
X115062871Y-106285928D01*
X114916709Y-106221767D01*
X114912581Y-106220591D01*
X114912578Y-106220590D01*
X114824508Y-106195503D01*
X114634690Y-106141432D01*
X114630448Y-106140828D01*
X114630442Y-106140827D01*
X114348629Y-106100719D01*
X114344378Y-106100114D01*
X114190544Y-106099309D01*
X114055431Y-106098601D01*
X114055425Y-106098601D01*
X114051144Y-106098579D01*
X114046900Y-106099138D01*
X114046896Y-106099138D01*
X113919027Y-106115972D01*
X113760415Y-106136854D01*
X113756275Y-106137987D01*
X113756273Y-106137987D01*
X113739378Y-106142609D01*
X113477570Y-106214231D01*
X113207844Y-106329280D01*
X113186808Y-106341870D01*
X112959909Y-106477665D01*
X112959905Y-106477668D01*
X112956227Y-106479869D01*
X112727375Y-106663214D01*
X112525524Y-106875921D01*
X112354408Y-107114055D01*
X112217193Y-107373208D01*
X112116419Y-107648586D01*
X112053950Y-107935092D01*
X112030943Y-108227426D01*
X109624887Y-108227426D01*
X109558173Y-108210297D01*
X109450726Y-108182709D01*
X109446798Y-108182213D01*
X109446794Y-108182212D01*
X109300881Y-108163779D01*
X109151036Y-108144850D01*
X108848964Y-108144850D01*
X108699119Y-108163779D01*
X108553206Y-108182212D01*
X108553202Y-108182213D01*
X108549274Y-108182709D01*
X108441827Y-108210297D01*
X108260533Y-108256845D01*
X108260525Y-108256848D01*
X108256691Y-108257832D01*
X108253011Y-108259289D01*
X108253008Y-108259290D01*
X108168698Y-108292671D01*
X107975832Y-108369032D01*
X107711124Y-108514556D01*
X107466742Y-108692110D01*
X107246541Y-108898892D01*
X107053993Y-109131643D01*
X107051871Y-109134987D01*
X106919547Y-109343497D01*
X106892135Y-109386691D01*
X106763518Y-109660014D01*
X106670173Y-109947302D01*
X106613570Y-110244024D01*
X106594603Y-110545500D01*
X105900150Y-110545500D01*
X105900150Y-104101530D01*
X117885850Y-104101530D01*
X117900710Y-104195351D01*
X117905211Y-104204185D01*
X117905212Y-104204188D01*
X117928800Y-104250481D01*
X117958327Y-104308432D01*
X118048068Y-104398173D01*
X118106019Y-104427700D01*
X118152312Y-104451288D01*
X118152315Y-104451289D01*
X118161149Y-104455790D01*
X118254970Y-104470650D01*
X120118030Y-104470650D01*
X120211851Y-104455790D01*
X120220685Y-104451289D01*
X120220688Y-104451288D01*
X120266981Y-104427700D01*
X120324932Y-104398173D01*
X120391699Y-104331406D01*
X121056923Y-104331406D01*
X121062204Y-104338461D01*
X121238580Y-104441527D01*
X121247863Y-104445974D01*
X121454503Y-104524883D01*
X121464401Y-104527759D01*
X121681153Y-104571857D01*
X121691383Y-104573076D01*
X121912414Y-104581182D01*
X121922723Y-104580714D01*
X122142123Y-104552608D01*
X122152188Y-104550468D01*
X122364057Y-104486905D01*
X122373652Y-104483144D01*
X122572278Y-104385838D01*
X122581136Y-104380559D01*
X122638597Y-104339572D01*
X122646997Y-104328874D01*
X122640010Y-104315721D01*
X121866311Y-103542021D01*
X121852368Y-103534408D01*
X121850534Y-103534539D01*
X121843920Y-103538790D01*
X121063680Y-104319031D01*
X121056923Y-104331406D01*
X120391699Y-104331406D01*
X120414673Y-104308432D01*
X120444200Y-104250481D01*
X120467788Y-104204188D01*
X120467789Y-104204185D01*
X120472290Y-104195351D01*
X120487150Y-104101530D01*
X120487150Y-104061960D01*
X120507152Y-103993839D01*
X120560808Y-103947346D01*
X120631082Y-103937242D01*
X120692071Y-103965889D01*
X120692418Y-103965947D01*
X120702831Y-103961458D01*
X121481479Y-103182811D01*
X121487856Y-103171132D01*
X122217908Y-103171132D01*
X122218039Y-103172966D01*
X122222290Y-103179580D01*
X122999807Y-103957096D01*
X123011813Y-103963652D01*
X123023552Y-103954684D01*
X123061510Y-103901859D01*
X123066821Y-103893020D01*
X123164818Y-103694737D01*
X123168617Y-103685142D01*
X123232915Y-103473517D01*
X123235094Y-103463436D01*
X123264202Y-103242338D01*
X123264721Y-103235663D01*
X123266244Y-103173364D01*
X123266050Y-103166646D01*
X123247779Y-102944400D01*
X123246096Y-102934238D01*
X123192210Y-102719708D01*
X123188889Y-102709953D01*
X123100693Y-102507118D01*
X123095815Y-102498020D01*
X123022724Y-102385038D01*
X123012038Y-102375835D01*
X123002473Y-102380238D01*
X122225521Y-103157189D01*
X122217908Y-103171132D01*
X121487856Y-103171132D01*
X121489092Y-103168868D01*
X121488961Y-103167034D01*
X121484710Y-103160420D01*
X120707362Y-102383073D01*
X120695831Y-102376776D01*
X120690858Y-102380672D01*
X120624899Y-102406939D01*
X120555210Y-102393376D01*
X120503916Y-102344289D01*
X120487150Y-102281488D01*
X120487150Y-102238470D01*
X120472290Y-102144649D01*
X120467789Y-102135815D01*
X120467788Y-102135812D01*
X120444200Y-102089519D01*
X120414673Y-102031568D01*
X120393816Y-102010711D01*
X121059008Y-102010711D01*
X121065751Y-102023040D01*
X121840689Y-102797979D01*
X121854632Y-102805592D01*
X121856466Y-102805461D01*
X121863080Y-102801210D01*
X122642494Y-102021795D01*
X122649511Y-102008944D01*
X122641737Y-101998274D01*
X122639402Y-101996430D01*
X122630820Y-101990729D01*
X122437178Y-101883833D01*
X122427772Y-101879606D01*
X122219272Y-101805772D01*
X122209309Y-101803140D01*
X121991547Y-101764350D01*
X121981296Y-101763381D01*
X121760116Y-101760679D01*
X121749832Y-101761399D01*
X121531193Y-101794855D01*
X121521166Y-101797244D01*
X121310926Y-101865961D01*
X121301416Y-101869958D01*
X121105225Y-101972089D01*
X121096507Y-101977578D01*
X121067461Y-101999386D01*
X121059008Y-102010711D01*
X120393816Y-102010711D01*
X120324932Y-101941827D01*
X120266981Y-101912300D01*
X120220688Y-101888712D01*
X120220685Y-101888711D01*
X120211851Y-101884210D01*
X120118030Y-101869350D01*
X118254970Y-101869350D01*
X118161149Y-101884210D01*
X118152315Y-101888711D01*
X118152312Y-101888712D01*
X118106019Y-101912300D01*
X118048068Y-101941827D01*
X117958327Y-102031568D01*
X117928800Y-102089519D01*
X117905212Y-102135812D01*
X117905211Y-102135815D01*
X117900710Y-102144649D01*
X117885850Y-102238470D01*
X117885850Y-104101530D01*
X105900150Y-104101530D01*
X105900150Y-101626000D01*
X105920152Y-101557879D01*
X105973808Y-101511386D01*
X106026150Y-101500000D01*
X116750000Y-101500000D01*
X116750000Y-93126000D01*
X116770002Y-93057879D01*
X116823658Y-93011386D01*
X116876000Y-93000000D01*
X125323350Y-93000000D01*
X125391471Y-93020002D01*
G37*
%TD.AperFunction*%
%TD*%
%TA.AperFunction,Conductor*%
%TO.N,GND_ISO2*%
G36*
X121131924Y-79503886D02*
G01*
X128124029Y-79505520D01*
X128192146Y-79525538D01*
X128238626Y-79579204D01*
X128250000Y-79631520D01*
X128250000Y-92374000D01*
X128229998Y-92442121D01*
X128176342Y-92488614D01*
X128124000Y-92500000D01*
X126876650Y-92500000D01*
X126808529Y-92479998D01*
X126762036Y-92426342D01*
X126750650Y-92374000D01*
X126750650Y-82488803D01*
X126770652Y-82420682D01*
X126783014Y-82404493D01*
X126783088Y-82404411D01*
X126783089Y-82404410D01*
X126787507Y-82399503D01*
X126876335Y-82245647D01*
X126931235Y-82076684D01*
X126932156Y-82067928D01*
X126949115Y-81906565D01*
X126949805Y-81900000D01*
X126949115Y-81893435D01*
X126931926Y-81729886D01*
X126931925Y-81729882D01*
X126931235Y-81723316D01*
X126876335Y-81554353D01*
X126853249Y-81514366D01*
X126790810Y-81406217D01*
X126790807Y-81406213D01*
X126787507Y-81400497D01*
X126668631Y-81268472D01*
X126647071Y-81252807D01*
X126530245Y-81167928D01*
X126530244Y-81167927D01*
X126524903Y-81164047D01*
X126518875Y-81161363D01*
X126518873Y-81161362D01*
X126368635Y-81094472D01*
X126368634Y-81094472D01*
X126362604Y-81091787D01*
X126275717Y-81073319D01*
X126195286Y-81056222D01*
X126195282Y-81056222D01*
X126188829Y-81054850D01*
X126011171Y-81054850D01*
X126004718Y-81056222D01*
X126004714Y-81056222D01*
X125924283Y-81073319D01*
X125837396Y-81091787D01*
X125831367Y-81094472D01*
X125831365Y-81094472D01*
X125681128Y-81161362D01*
X125681126Y-81161363D01*
X125675098Y-81164047D01*
X125531369Y-81268472D01*
X125412493Y-81400497D01*
X125409193Y-81406213D01*
X125409190Y-81406217D01*
X125346751Y-81514366D01*
X125323665Y-81554353D01*
X125268765Y-81723316D01*
X125263122Y-81777010D01*
X125236109Y-81842667D01*
X125226907Y-81852935D01*
X123267397Y-83812445D01*
X123205085Y-83846471D01*
X123178302Y-83849350D01*
X122713761Y-83849350D01*
X122645640Y-83829348D01*
X122599147Y-83775692D01*
X122589043Y-83705418D01*
X122618537Y-83640838D01*
X122663763Y-83610817D01*
X122662604Y-83608213D01*
X122818873Y-83538638D01*
X122818875Y-83538637D01*
X122824903Y-83535953D01*
X122968631Y-83431528D01*
X123087507Y-83299503D01*
X123090807Y-83293787D01*
X123090810Y-83293783D01*
X123173032Y-83151368D01*
X123176335Y-83145647D01*
X123231235Y-82976684D01*
X123233363Y-82956443D01*
X123249115Y-82806565D01*
X123249805Y-82800000D01*
X123249115Y-82793435D01*
X123231926Y-82629886D01*
X123231925Y-82629882D01*
X123231235Y-82623316D01*
X123176335Y-82454353D01*
X123144668Y-82399503D01*
X123090810Y-82306217D01*
X123090807Y-82306213D01*
X123087507Y-82300497D01*
X123038120Y-82245647D01*
X122973046Y-82173375D01*
X122973044Y-82173374D01*
X122968631Y-82168472D01*
X122850944Y-82082967D01*
X122830245Y-82067928D01*
X122830244Y-82067927D01*
X122824903Y-82064047D01*
X122818875Y-82061363D01*
X122818873Y-82061362D01*
X122668635Y-81994472D01*
X122668634Y-81994472D01*
X122662604Y-81991787D01*
X122507782Y-81958879D01*
X122444885Y-81924727D01*
X121292374Y-80772216D01*
X121284524Y-80763589D01*
X121280319Y-80756964D01*
X121229286Y-80709041D01*
X121226445Y-80706287D01*
X121206136Y-80685978D01*
X121203010Y-80683553D01*
X121202996Y-80683541D01*
X121202720Y-80683327D01*
X121193696Y-80675620D01*
X121166259Y-80649855D01*
X121160482Y-80644430D01*
X121153538Y-80640613D01*
X121153536Y-80640611D01*
X121142015Y-80634277D01*
X121125491Y-80623423D01*
X121115100Y-80615363D01*
X121108840Y-80610507D01*
X121067012Y-80592407D01*
X121056354Y-80587185D01*
X121049778Y-80583570D01*
X121016424Y-80565233D01*
X120996007Y-80559991D01*
X120977309Y-80553589D01*
X120965242Y-80548367D01*
X120965237Y-80548366D01*
X120957968Y-80545220D01*
X120950145Y-80543981D01*
X120950142Y-80543980D01*
X120912959Y-80538091D01*
X120901346Y-80535686D01*
X120857196Y-80524350D01*
X120836121Y-80524350D01*
X120816410Y-80522799D01*
X120803429Y-80520743D01*
X120795600Y-80519503D01*
X120787708Y-80520249D01*
X120750238Y-80523791D01*
X120738380Y-80524350D01*
X110708252Y-80524350D01*
X110640131Y-80504348D01*
X110634191Y-80500286D01*
X110555245Y-80442928D01*
X110555244Y-80442927D01*
X110549903Y-80439047D01*
X110543875Y-80436363D01*
X110543873Y-80436362D01*
X110393635Y-80369472D01*
X110393634Y-80369472D01*
X110387604Y-80366787D01*
X110300716Y-80348318D01*
X110220286Y-80331222D01*
X110220282Y-80331222D01*
X110213829Y-80329850D01*
X110036171Y-80329850D01*
X110029718Y-80331222D01*
X110029714Y-80331222D01*
X109949284Y-80348318D01*
X109862396Y-80366787D01*
X109856367Y-80369472D01*
X109856365Y-80369472D01*
X109706128Y-80436362D01*
X109706126Y-80436363D01*
X109700098Y-80439047D01*
X109694757Y-80442927D01*
X109694756Y-80442928D01*
X109610219Y-80504348D01*
X109556369Y-80543472D01*
X109551956Y-80548374D01*
X109551954Y-80548375D01*
X109465466Y-80644430D01*
X109437493Y-80675497D01*
X109434193Y-80681213D01*
X109434190Y-80681217D01*
X109381653Y-80772216D01*
X109348665Y-80829353D01*
X109293765Y-80998316D01*
X109275195Y-81175000D01*
X109293765Y-81351684D01*
X109348665Y-81520647D01*
X109351968Y-81526368D01*
X109434190Y-81668783D01*
X109434193Y-81668787D01*
X109437493Y-81674503D01*
X109556369Y-81806528D01*
X109561708Y-81810407D01*
X109685022Y-81900000D01*
X109700097Y-81910953D01*
X109706125Y-81913637D01*
X109706127Y-81913638D01*
X109856365Y-81980528D01*
X109862396Y-81983213D01*
X109949284Y-82001682D01*
X110029714Y-82018778D01*
X110029718Y-82018778D01*
X110036171Y-82020150D01*
X110213829Y-82020150D01*
X110220282Y-82018778D01*
X110220286Y-82018778D01*
X110300716Y-82001682D01*
X110387604Y-81983213D01*
X110393635Y-81980528D01*
X110543873Y-81913638D01*
X110543875Y-81913637D01*
X110549903Y-81910953D01*
X110564979Y-81900000D01*
X110634191Y-81849714D01*
X110701059Y-81825856D01*
X110708252Y-81825650D01*
X120453302Y-81825650D01*
X120521423Y-81845652D01*
X120542397Y-81862555D01*
X121526907Y-82847065D01*
X121560933Y-82909377D01*
X121563121Y-82922985D01*
X121568765Y-82976684D01*
X121623665Y-83145647D01*
X121626968Y-83151368D01*
X121709190Y-83293783D01*
X121709193Y-83293787D01*
X121712493Y-83299503D01*
X121831369Y-83431528D01*
X121975097Y-83535953D01*
X121981125Y-83538637D01*
X121981127Y-83538638D01*
X122137396Y-83608213D01*
X122136157Y-83610997D01*
X122183865Y-83643693D01*
X122211433Y-83709119D01*
X122199252Y-83779063D01*
X122151191Y-83831319D01*
X122086239Y-83849350D01*
X117483252Y-83849350D01*
X117415131Y-83829348D01*
X117409191Y-83825286D01*
X117330245Y-83767928D01*
X117330244Y-83767927D01*
X117324903Y-83764047D01*
X117318875Y-83761363D01*
X117318873Y-83761362D01*
X117168635Y-83694472D01*
X117168634Y-83694472D01*
X117162604Y-83691787D01*
X117075717Y-83673319D01*
X116995286Y-83656222D01*
X116995282Y-83656222D01*
X116988829Y-83654850D01*
X116811171Y-83654850D01*
X116804718Y-83656222D01*
X116804714Y-83656222D01*
X116724283Y-83673319D01*
X116637396Y-83691787D01*
X116631367Y-83694472D01*
X116631365Y-83694472D01*
X116481128Y-83761362D01*
X116481126Y-83761363D01*
X116475098Y-83764047D01*
X116469757Y-83767927D01*
X116469756Y-83767928D01*
X116385219Y-83829348D01*
X116331369Y-83868472D01*
X116212493Y-84000497D01*
X116209193Y-84006213D01*
X116209190Y-84006217D01*
X116128207Y-84146486D01*
X116123665Y-84154353D01*
X116068765Y-84323316D01*
X116050195Y-84500000D01*
X116068765Y-84676684D01*
X116123665Y-84845647D01*
X116126968Y-84851368D01*
X116209190Y-84993783D01*
X116209193Y-84993787D01*
X116212493Y-84999503D01*
X116216911Y-85004410D01*
X116216912Y-85004411D01*
X116290472Y-85086107D01*
X116331369Y-85131528D01*
X116336708Y-85135407D01*
X116418004Y-85194472D01*
X116475097Y-85235953D01*
X116481125Y-85238637D01*
X116481127Y-85238638D01*
X116538197Y-85264047D01*
X116637396Y-85308213D01*
X116724283Y-85326681D01*
X116804714Y-85343778D01*
X116804718Y-85343778D01*
X116811171Y-85345150D01*
X116988829Y-85345150D01*
X116995282Y-85343778D01*
X116995286Y-85343778D01*
X117075717Y-85326681D01*
X117162604Y-85308213D01*
X117261803Y-85264047D01*
X117318873Y-85238638D01*
X117318875Y-85238637D01*
X117324903Y-85235953D01*
X117381997Y-85194472D01*
X117409191Y-85174714D01*
X117476059Y-85150856D01*
X117483252Y-85150650D01*
X123418982Y-85150650D01*
X123430621Y-85151199D01*
X123438282Y-85152911D01*
X123446208Y-85152662D01*
X123446209Y-85152662D01*
X123508251Y-85150712D01*
X123512209Y-85150650D01*
X123540932Y-85150650D01*
X123544848Y-85150155D01*
X123544850Y-85150155D01*
X123544912Y-85150147D01*
X123545203Y-85150110D01*
X123557037Y-85149178D01*
X123602593Y-85147747D01*
X123622833Y-85141867D01*
X123642186Y-85137859D01*
X123655230Y-85136211D01*
X123655231Y-85136211D01*
X123663096Y-85135217D01*
X123670466Y-85132299D01*
X123670470Y-85132298D01*
X123705464Y-85118443D01*
X123716693Y-85114598D01*
X123722895Y-85112796D01*
X123760458Y-85101883D01*
X123778601Y-85091154D01*
X123796353Y-85082457D01*
X123815944Y-85074700D01*
X123852812Y-85047914D01*
X123862732Y-85041398D01*
X123901958Y-85018200D01*
X123916858Y-85003300D01*
X123931892Y-84990459D01*
X123942527Y-84982732D01*
X123948940Y-84978073D01*
X123953990Y-84971969D01*
X123953995Y-84971964D01*
X123977993Y-84942955D01*
X123985983Y-84934175D01*
X125234255Y-83685903D01*
X125296567Y-83651877D01*
X125367382Y-83656942D01*
X125424218Y-83699489D01*
X125449029Y-83766009D01*
X125449350Y-83774998D01*
X125449350Y-85125431D01*
X125429348Y-85193552D01*
X125375692Y-85240045D01*
X125305418Y-85250149D01*
X125272101Y-85240538D01*
X125168635Y-85194472D01*
X125168634Y-85194472D01*
X125162604Y-85191787D01*
X125075716Y-85173318D01*
X124995286Y-85156222D01*
X124995282Y-85156222D01*
X124988829Y-85154850D01*
X124811171Y-85154850D01*
X124804718Y-85156222D01*
X124804714Y-85156222D01*
X124724284Y-85173318D01*
X124637396Y-85191787D01*
X124631367Y-85194472D01*
X124631365Y-85194472D01*
X124481128Y-85261362D01*
X124481126Y-85261363D01*
X124475098Y-85264047D01*
X124469757Y-85267927D01*
X124469756Y-85267928D01*
X124412420Y-85309585D01*
X124331369Y-85368472D01*
X124212493Y-85500497D01*
X124209193Y-85506213D01*
X124209190Y-85506217D01*
X124128207Y-85646486D01*
X124123665Y-85654353D01*
X124068765Y-85823316D01*
X124050195Y-86000000D01*
X124068765Y-86176684D01*
X124123665Y-86345647D01*
X124212493Y-86499503D01*
X124216911Y-86504410D01*
X124216912Y-86504411D01*
X124216986Y-86504493D01*
X124217014Y-86504551D01*
X124220792Y-86509751D01*
X124219841Y-86510442D01*
X124247704Y-86568500D01*
X124249350Y-86588803D01*
X124249350Y-86678302D01*
X124229348Y-86746423D01*
X124212445Y-86767397D01*
X123467397Y-87512445D01*
X123405085Y-87546471D01*
X123378302Y-87549350D01*
X109483252Y-87549350D01*
X109415131Y-87529348D01*
X109409191Y-87525286D01*
X109330245Y-87467928D01*
X109330244Y-87467927D01*
X109324903Y-87464047D01*
X109318875Y-87461363D01*
X109318873Y-87461362D01*
X109168635Y-87394472D01*
X109168634Y-87394472D01*
X109162604Y-87391787D01*
X109075717Y-87373319D01*
X108995286Y-87356222D01*
X108995282Y-87356222D01*
X108988829Y-87354850D01*
X108811171Y-87354850D01*
X108804718Y-87356222D01*
X108804714Y-87356222D01*
X108724283Y-87373319D01*
X108637396Y-87391787D01*
X108631367Y-87394472D01*
X108631365Y-87394472D01*
X108481128Y-87461362D01*
X108481126Y-87461363D01*
X108475098Y-87464047D01*
X108469757Y-87467927D01*
X108469756Y-87467928D01*
X108385219Y-87529348D01*
X108331369Y-87568472D01*
X108212493Y-87700497D01*
X108209193Y-87706213D01*
X108209190Y-87706217D01*
X108128207Y-87846486D01*
X108123665Y-87854353D01*
X108068765Y-88023316D01*
X108050195Y-88200000D01*
X108068765Y-88376684D01*
X108123665Y-88545647D01*
X108126968Y-88551368D01*
X108209190Y-88693783D01*
X108209193Y-88693787D01*
X108212493Y-88699503D01*
X108216911Y-88704410D01*
X108216912Y-88704411D01*
X108290472Y-88786107D01*
X108331369Y-88831528D01*
X108475097Y-88935953D01*
X108481125Y-88938637D01*
X108481127Y-88938638D01*
X108631365Y-89005528D01*
X108637396Y-89008213D01*
X108724284Y-89026682D01*
X108804714Y-89043778D01*
X108804718Y-89043778D01*
X108811171Y-89045150D01*
X108988829Y-89045150D01*
X108995282Y-89043778D01*
X108995286Y-89043778D01*
X109075716Y-89026682D01*
X109162604Y-89008213D01*
X109168635Y-89005528D01*
X109318873Y-88938638D01*
X109318875Y-88938637D01*
X109324903Y-88935953D01*
X109409191Y-88874714D01*
X109476059Y-88850856D01*
X109483252Y-88850650D01*
X123618982Y-88850650D01*
X123630621Y-88851199D01*
X123638282Y-88852911D01*
X123646208Y-88852662D01*
X123646209Y-88852662D01*
X123708251Y-88850712D01*
X123712209Y-88850650D01*
X123740932Y-88850650D01*
X123744848Y-88850155D01*
X123744850Y-88850155D01*
X123744912Y-88850147D01*
X123745203Y-88850110D01*
X123757037Y-88849178D01*
X123802593Y-88847747D01*
X123822833Y-88841867D01*
X123842186Y-88837859D01*
X123855230Y-88836211D01*
X123855231Y-88836211D01*
X123863096Y-88835217D01*
X123870466Y-88832299D01*
X123870470Y-88832298D01*
X123905464Y-88818443D01*
X123916693Y-88814598D01*
X123922895Y-88812796D01*
X123960458Y-88801883D01*
X123978601Y-88791154D01*
X123996353Y-88782457D01*
X124015944Y-88774700D01*
X124052812Y-88747914D01*
X124062732Y-88741398D01*
X124101958Y-88718200D01*
X124116858Y-88703300D01*
X124131892Y-88690459D01*
X124142527Y-88682732D01*
X124148940Y-88678073D01*
X124153990Y-88671969D01*
X124153995Y-88671964D01*
X124177993Y-88642955D01*
X124185983Y-88634175D01*
X125234255Y-87585903D01*
X125296567Y-87551877D01*
X125367382Y-87556942D01*
X125424218Y-87599489D01*
X125449029Y-87666009D01*
X125449350Y-87674998D01*
X125449350Y-92374000D01*
X125429348Y-92442121D01*
X125375692Y-92488614D01*
X125323350Y-92500000D01*
X116250000Y-92500000D01*
X116250000Y-100874000D01*
X116229998Y-100942121D01*
X116176342Y-100988614D01*
X116124000Y-101000000D01*
X106026150Y-101000000D01*
X105958029Y-100979998D01*
X105911536Y-100926342D01*
X105900150Y-100874000D01*
X105900150Y-84600000D01*
X106594603Y-84600000D01*
X106613570Y-84901476D01*
X106670173Y-85198198D01*
X106763518Y-85485486D01*
X106892135Y-85758809D01*
X107053993Y-86013857D01*
X107246541Y-86246608D01*
X107466742Y-86453390D01*
X107711124Y-86630944D01*
X107714593Y-86632851D01*
X107714596Y-86632853D01*
X107972370Y-86774565D01*
X107975832Y-86776468D01*
X108128689Y-86836988D01*
X108253008Y-86886210D01*
X108253011Y-86886211D01*
X108256691Y-86887668D01*
X108260525Y-86888652D01*
X108260533Y-86888655D01*
X108441827Y-86935203D01*
X108549274Y-86962791D01*
X108553202Y-86963287D01*
X108553206Y-86963288D01*
X108699119Y-86981720D01*
X108848964Y-87000650D01*
X109151036Y-87000650D01*
X109300881Y-86981720D01*
X109446794Y-86963288D01*
X109446798Y-86963287D01*
X109450726Y-86962791D01*
X109558173Y-86935203D01*
X109739467Y-86888655D01*
X109739475Y-86888652D01*
X109743309Y-86887668D01*
X109746989Y-86886211D01*
X109746992Y-86886210D01*
X109871311Y-86836988D01*
X110024168Y-86776468D01*
X110027630Y-86774565D01*
X110285404Y-86632853D01*
X110285407Y-86632851D01*
X110288876Y-86630944D01*
X110533258Y-86453390D01*
X110753459Y-86246608D01*
X110946007Y-86013857D01*
X111107865Y-85758809D01*
X111236482Y-85485486D01*
X111329827Y-85198198D01*
X111386430Y-84901476D01*
X111405397Y-84600000D01*
X111386430Y-84298524D01*
X111329827Y-84001802D01*
X111236482Y-83714514D01*
X111107865Y-83441191D01*
X111104195Y-83435407D01*
X110948129Y-83189487D01*
X110946007Y-83186143D01*
X110753459Y-82953392D01*
X110533258Y-82746610D01*
X110288876Y-82569056D01*
X110091657Y-82460634D01*
X110027630Y-82425435D01*
X110027627Y-82425434D01*
X110024168Y-82423532D01*
X109871311Y-82363012D01*
X109746992Y-82313790D01*
X109746989Y-82313789D01*
X109743309Y-82312332D01*
X109739475Y-82311348D01*
X109739467Y-82311345D01*
X109505871Y-82251368D01*
X109450726Y-82237209D01*
X109446798Y-82236713D01*
X109446794Y-82236712D01*
X109300881Y-82218280D01*
X109151036Y-82199350D01*
X108848964Y-82199350D01*
X108699119Y-82218280D01*
X108553206Y-82236712D01*
X108553202Y-82236713D01*
X108549274Y-82237209D01*
X108494129Y-82251368D01*
X108260533Y-82311345D01*
X108260525Y-82311348D01*
X108256691Y-82312332D01*
X108253011Y-82313789D01*
X108253008Y-82313790D01*
X108128689Y-82363012D01*
X107975832Y-82423532D01*
X107972373Y-82425434D01*
X107972370Y-82425435D01*
X107908344Y-82460634D01*
X107711124Y-82569056D01*
X107466742Y-82746610D01*
X107246541Y-82953392D01*
X107053993Y-83186143D01*
X107051871Y-83189487D01*
X106895806Y-83435407D01*
X106892135Y-83441191D01*
X106763518Y-83714514D01*
X106670173Y-84001802D01*
X106613570Y-84298524D01*
X106594603Y-84600000D01*
X105900150Y-84600000D01*
X105900150Y-79626356D01*
X105920152Y-79558235D01*
X105973808Y-79511742D01*
X106026175Y-79500357D01*
X121131924Y-79503886D01*
G37*
%TD.AperFunction*%
%TD*%
%TA.AperFunction,Conductor*%
%TO.N,GND*%
G36*
X167478299Y-57810381D02*
G01*
X167500000Y-57813818D01*
X167509793Y-57812267D01*
X167509798Y-57812267D01*
X167509937Y-57812245D01*
X167536707Y-57810892D01*
X167673936Y-57818598D01*
X167784029Y-57824780D01*
X167798062Y-57826361D01*
X167934806Y-57849596D01*
X168071545Y-57872829D01*
X168085320Y-57875973D01*
X168351878Y-57952767D01*
X168365215Y-57957434D01*
X168523105Y-58022834D01*
X168621499Y-58063590D01*
X168634225Y-58069719D01*
X168877006Y-58203899D01*
X168888963Y-58211411D01*
X169115219Y-58371948D01*
X169126250Y-58380746D01*
X169333095Y-58565594D01*
X169343085Y-58575584D01*
X169527934Y-58782430D01*
X169536732Y-58793461D01*
X169697269Y-59019717D01*
X169704781Y-59031674D01*
X169838961Y-59274455D01*
X169845092Y-59287185D01*
X169951246Y-59543465D01*
X169955913Y-59556802D01*
X170032707Y-59823360D01*
X170035851Y-59837135D01*
X170072492Y-60052780D01*
X170082318Y-60110613D01*
X170083900Y-60124655D01*
X170097788Y-60371973D01*
X170096435Y-60398743D01*
X170096413Y-60398882D01*
X170096413Y-60398887D01*
X170094862Y-60408680D01*
X170096413Y-60418472D01*
X170098299Y-60430380D01*
X170099850Y-60450091D01*
X170099850Y-64175502D01*
X170079848Y-64243623D01*
X170026192Y-64290116D01*
X169955918Y-64300220D01*
X169891338Y-64270726D01*
X169884755Y-64264597D01*
X169617374Y-63997216D01*
X169609524Y-63988589D01*
X169605319Y-63981964D01*
X169554286Y-63934041D01*
X169551445Y-63931287D01*
X169531136Y-63910978D01*
X169528010Y-63908553D01*
X169527996Y-63908541D01*
X169527720Y-63908327D01*
X169518696Y-63900620D01*
X169491259Y-63874855D01*
X169485482Y-63869430D01*
X169478538Y-63865613D01*
X169478536Y-63865611D01*
X169467015Y-63859277D01*
X169450491Y-63848423D01*
X169440100Y-63840363D01*
X169433840Y-63835507D01*
X169392012Y-63817407D01*
X169381354Y-63812185D01*
X169374778Y-63808570D01*
X169341424Y-63790233D01*
X169321007Y-63784991D01*
X169302309Y-63778589D01*
X169290242Y-63773367D01*
X169290237Y-63773366D01*
X169282968Y-63770220D01*
X169275145Y-63768981D01*
X169275142Y-63768980D01*
X169237959Y-63763091D01*
X169226346Y-63760686D01*
X169182196Y-63749350D01*
X169161121Y-63749350D01*
X169141410Y-63747799D01*
X169128429Y-63745743D01*
X169120600Y-63744503D01*
X169112708Y-63745249D01*
X169075238Y-63748791D01*
X169063380Y-63749350D01*
X168438679Y-63749350D01*
X168370558Y-63729348D01*
X168324065Y-63675692D01*
X168313961Y-63605418D01*
X168343455Y-63540838D01*
X168364618Y-63521414D01*
X168530054Y-63401218D01*
X168530056Y-63401217D01*
X168533258Y-63398890D01*
X168753459Y-63192108D01*
X168946007Y-62959357D01*
X169107865Y-62704309D01*
X169236482Y-62430986D01*
X169329827Y-62143698D01*
X169386430Y-61846976D01*
X169405397Y-61545500D01*
X169386430Y-61244024D01*
X169329827Y-60947302D01*
X169236482Y-60660014D01*
X169107865Y-60386691D01*
X169105402Y-60382809D01*
X168977666Y-60181530D01*
X168946007Y-60131643D01*
X168753459Y-59898892D01*
X168533258Y-59692110D01*
X168288876Y-59514556D01*
X168258705Y-59497969D01*
X168027630Y-59370935D01*
X168027627Y-59370934D01*
X168024168Y-59369032D01*
X167785294Y-59274455D01*
X167746992Y-59259290D01*
X167746989Y-59259289D01*
X167743309Y-59257832D01*
X167739475Y-59256848D01*
X167739467Y-59256845D01*
X167558173Y-59210297D01*
X167450726Y-59182709D01*
X167446798Y-59182213D01*
X167446794Y-59182212D01*
X167300881Y-59163780D01*
X167151036Y-59144850D01*
X166848964Y-59144850D01*
X166699119Y-59163780D01*
X166553206Y-59182212D01*
X166553202Y-59182213D01*
X166549274Y-59182709D01*
X166441827Y-59210297D01*
X166260533Y-59256845D01*
X166260525Y-59256848D01*
X166256691Y-59257832D01*
X166253011Y-59259289D01*
X166253008Y-59259290D01*
X166214706Y-59274455D01*
X165975832Y-59369032D01*
X165972373Y-59370934D01*
X165972370Y-59370935D01*
X165741296Y-59497969D01*
X165711124Y-59514556D01*
X165466742Y-59692110D01*
X165246541Y-59898892D01*
X165053993Y-60131643D01*
X165022334Y-60181530D01*
X164894599Y-60382809D01*
X164892135Y-60386691D01*
X164763518Y-60660014D01*
X164670173Y-60947302D01*
X164613570Y-61244024D01*
X164594603Y-61545500D01*
X164613570Y-61846976D01*
X164670173Y-62143698D01*
X164763518Y-62430986D01*
X164892135Y-62704309D01*
X165053993Y-62959357D01*
X165246541Y-63192108D01*
X165466742Y-63398890D01*
X165469944Y-63401217D01*
X165469946Y-63401218D01*
X165635382Y-63521414D01*
X165678736Y-63577636D01*
X165684811Y-63648372D01*
X165651680Y-63711164D01*
X165589860Y-63746075D01*
X165561321Y-63749350D01*
X165181019Y-63749350D01*
X165169380Y-63748801D01*
X165161719Y-63747089D01*
X165153793Y-63747338D01*
X165153792Y-63747338D01*
X165091750Y-63749288D01*
X165087792Y-63749350D01*
X165059068Y-63749350D01*
X165054794Y-63749890D01*
X165042965Y-63750821D01*
X164997407Y-63752253D01*
X164977503Y-63758035D01*
X164977167Y-63758133D01*
X164957814Y-63762141D01*
X164944770Y-63763789D01*
X164944769Y-63763789D01*
X164936904Y-63764783D01*
X164929534Y-63767701D01*
X164929530Y-63767702D01*
X164894536Y-63781557D01*
X164883306Y-63785402D01*
X164839542Y-63798117D01*
X164832716Y-63802154D01*
X164821402Y-63808845D01*
X164803647Y-63817544D01*
X164784056Y-63825300D01*
X164777641Y-63829961D01*
X164777639Y-63829962D01*
X164747189Y-63852085D01*
X164737266Y-63858603D01*
X164698043Y-63881799D01*
X164683142Y-63896700D01*
X164668109Y-63909540D01*
X164651060Y-63921927D01*
X164646010Y-63928031D01*
X164646005Y-63928036D01*
X164622007Y-63957045D01*
X164614017Y-63965825D01*
X161642397Y-66937445D01*
X161580085Y-66971471D01*
X161553302Y-66974350D01*
X148908617Y-66974350D01*
X148840496Y-66954348D01*
X148834556Y-66950286D01*
X148765245Y-66899928D01*
X148765244Y-66899927D01*
X148759903Y-66896047D01*
X148753875Y-66893363D01*
X148753873Y-66893362D01*
X148603635Y-66826472D01*
X148603634Y-66826472D01*
X148597604Y-66823787D01*
X148510717Y-66805319D01*
X148430286Y-66788222D01*
X148430282Y-66788222D01*
X148423829Y-66786850D01*
X148246171Y-66786850D01*
X148239718Y-66788222D01*
X148239714Y-66788222D01*
X148159283Y-66805319D01*
X148072396Y-66823787D01*
X148066367Y-66826472D01*
X148066365Y-66826472D01*
X147916128Y-66893362D01*
X147916126Y-66893363D01*
X147910098Y-66896047D01*
X147904757Y-66899927D01*
X147904756Y-66899928D01*
X147835444Y-66950286D01*
X147761383Y-66974350D01*
X128708252Y-66974350D01*
X128640131Y-66954348D01*
X128634191Y-66950286D01*
X128555245Y-66892928D01*
X128555244Y-66892927D01*
X128549903Y-66889047D01*
X128543875Y-66886363D01*
X128543873Y-66886362D01*
X128393635Y-66819472D01*
X128393634Y-66819472D01*
X128387604Y-66816787D01*
X128300716Y-66798318D01*
X128220286Y-66781222D01*
X128220282Y-66781222D01*
X128213829Y-66779850D01*
X128036171Y-66779850D01*
X128029718Y-66781222D01*
X128029714Y-66781222D01*
X127949284Y-66798318D01*
X127862396Y-66816787D01*
X127856367Y-66819472D01*
X127856365Y-66819472D01*
X127706128Y-66886362D01*
X127706126Y-66886363D01*
X127700098Y-66889047D01*
X127694757Y-66892927D01*
X127694756Y-66892928D01*
X127615809Y-66950286D01*
X127541748Y-66974350D01*
X122921698Y-66974350D01*
X122853577Y-66954348D01*
X122832603Y-66937445D01*
X119637555Y-63742397D01*
X119603529Y-63680085D01*
X119600650Y-63653302D01*
X119600650Y-63467801D01*
X119620652Y-63399680D01*
X119654379Y-63364588D01*
X119784724Y-63273320D01*
X119784727Y-63273318D01*
X119789235Y-63270161D01*
X119950161Y-63109235D01*
X119980966Y-63065242D01*
X120077541Y-62927318D01*
X120077542Y-62927316D01*
X120080698Y-62922809D01*
X120083021Y-62917827D01*
X120083024Y-62917822D01*
X120105805Y-62868967D01*
X120152722Y-62815682D01*
X120221000Y-62796221D01*
X120288960Y-62816763D01*
X120334195Y-62868967D01*
X120356976Y-62917822D01*
X120356979Y-62917827D01*
X120359302Y-62922809D01*
X120362458Y-62927316D01*
X120362459Y-62927318D01*
X120459035Y-63065242D01*
X120489839Y-63109235D01*
X120650765Y-63270161D01*
X120655273Y-63273318D01*
X120655276Y-63273320D01*
X120830737Y-63396179D01*
X120837191Y-63400698D01*
X120842173Y-63403021D01*
X120842178Y-63403024D01*
X121038470Y-63494557D01*
X121043452Y-63496880D01*
X121048760Y-63498302D01*
X121048762Y-63498303D01*
X121118519Y-63516994D01*
X121263282Y-63555783D01*
X121490000Y-63575618D01*
X121716718Y-63555783D01*
X121861481Y-63516994D01*
X121931238Y-63498303D01*
X121931240Y-63498302D01*
X121936548Y-63496880D01*
X121941530Y-63494557D01*
X122076957Y-63431406D01*
X123233423Y-63431406D01*
X123238704Y-63438461D01*
X123415080Y-63541527D01*
X123424363Y-63545974D01*
X123631003Y-63624883D01*
X123640901Y-63627759D01*
X123857653Y-63671857D01*
X123867883Y-63673076D01*
X124088914Y-63681182D01*
X124099223Y-63680714D01*
X124318623Y-63652608D01*
X124328688Y-63650468D01*
X124540557Y-63586905D01*
X124550152Y-63583144D01*
X124748778Y-63485838D01*
X124757636Y-63480559D01*
X124815097Y-63439572D01*
X124823497Y-63428874D01*
X124816510Y-63415721D01*
X124042811Y-62642021D01*
X124028868Y-62634408D01*
X124027034Y-62634539D01*
X124020420Y-62638790D01*
X123240180Y-63419031D01*
X123233423Y-63431406D01*
X122076957Y-63431406D01*
X122137822Y-63403024D01*
X122137827Y-63403021D01*
X122142809Y-63400698D01*
X122149263Y-63396179D01*
X122324724Y-63273320D01*
X122324727Y-63273318D01*
X122329235Y-63270161D01*
X122490161Y-63109235D01*
X122594681Y-62959965D01*
X122650137Y-62915638D01*
X122720756Y-62908329D01*
X122784117Y-62940359D01*
X122805326Y-62966402D01*
X122860098Y-63055782D01*
X122870553Y-63065242D01*
X122879331Y-63061458D01*
X123657979Y-62282811D01*
X123665592Y-62268868D01*
X123665461Y-62267034D01*
X123661210Y-62260420D01*
X122883862Y-61483073D01*
X122872330Y-61476776D01*
X122860048Y-61486399D01*
X122801555Y-61572146D01*
X122800352Y-61571325D01*
X122754099Y-61616048D01*
X122684481Y-61629971D01*
X122618387Y-61604045D01*
X122592368Y-61576732D01*
X122493320Y-61435276D01*
X122493318Y-61435273D01*
X122490161Y-61430765D01*
X122329235Y-61269839D01*
X122324727Y-61266682D01*
X122324724Y-61266680D01*
X122147318Y-61142459D01*
X122147316Y-61142458D01*
X122142809Y-61139302D01*
X122137827Y-61136979D01*
X122137822Y-61136976D01*
X122088967Y-61114195D01*
X122035682Y-61067278D01*
X122016221Y-60999000D01*
X122036763Y-60931040D01*
X122088967Y-60885805D01*
X122137822Y-60863024D01*
X122137827Y-60863021D01*
X122142809Y-60860698D01*
X122179498Y-60835008D01*
X122324724Y-60733320D01*
X122324727Y-60733318D01*
X122329235Y-60730161D01*
X122490161Y-60569235D01*
X122534625Y-60505735D01*
X122617541Y-60387318D01*
X122617542Y-60387316D01*
X122620698Y-60382809D01*
X122623021Y-60377827D01*
X122623024Y-60377822D01*
X122645805Y-60328967D01*
X122692722Y-60275682D01*
X122761000Y-60256221D01*
X122828960Y-60276763D01*
X122874195Y-60328967D01*
X122896976Y-60377822D01*
X122896979Y-60377827D01*
X122899302Y-60382809D01*
X122902458Y-60387316D01*
X122902459Y-60387318D01*
X122985376Y-60505735D01*
X123029839Y-60569235D01*
X123190765Y-60730161D01*
X123195273Y-60733318D01*
X123195276Y-60733320D01*
X123339554Y-60834344D01*
X123383882Y-60889801D01*
X123391191Y-60960420D01*
X123359160Y-61023781D01*
X123325464Y-61049320D01*
X123281720Y-61072092D01*
X123273007Y-61077578D01*
X123243961Y-61099386D01*
X123235508Y-61110711D01*
X123242251Y-61123040D01*
X124017189Y-61897979D01*
X124031132Y-61905592D01*
X124032966Y-61905461D01*
X124039580Y-61901210D01*
X124818994Y-61121795D01*
X124826011Y-61108944D01*
X124818237Y-61098274D01*
X124815902Y-61096430D01*
X124807320Y-61090729D01*
X124730877Y-61048530D01*
X124680906Y-60998097D01*
X124666134Y-60928654D01*
X124691250Y-60862249D01*
X124719499Y-60835008D01*
X124864724Y-60733320D01*
X124864727Y-60733318D01*
X124869235Y-60730161D01*
X125030161Y-60569235D01*
X125074625Y-60505735D01*
X125157541Y-60387318D01*
X125157542Y-60387316D01*
X125160698Y-60382809D01*
X125163021Y-60377827D01*
X125163024Y-60377822D01*
X125185805Y-60328967D01*
X125232722Y-60275682D01*
X125301000Y-60256221D01*
X125368960Y-60276763D01*
X125414195Y-60328967D01*
X125436976Y-60377822D01*
X125436979Y-60377827D01*
X125439302Y-60382809D01*
X125442458Y-60387316D01*
X125442459Y-60387318D01*
X125525376Y-60505735D01*
X125569839Y-60569235D01*
X125730765Y-60730161D01*
X125735273Y-60733318D01*
X125735276Y-60733320D01*
X125880502Y-60835008D01*
X125917191Y-60860698D01*
X125922173Y-60863021D01*
X125922178Y-60863024D01*
X125971033Y-60885805D01*
X126024318Y-60932722D01*
X126043779Y-61001000D01*
X126023237Y-61068960D01*
X125971033Y-61114195D01*
X125922178Y-61136976D01*
X125922173Y-61136979D01*
X125917191Y-61139302D01*
X125912684Y-61142458D01*
X125912682Y-61142459D01*
X125735276Y-61266680D01*
X125735273Y-61266682D01*
X125730765Y-61269839D01*
X125569839Y-61430765D01*
X125566682Y-61435273D01*
X125566680Y-61435276D01*
X125466300Y-61578634D01*
X125410843Y-61622962D01*
X125340224Y-61630271D01*
X125276863Y-61598240D01*
X125257294Y-61574802D01*
X125199223Y-61485037D01*
X125188538Y-61475835D01*
X125178973Y-61480238D01*
X124402021Y-62257189D01*
X124394408Y-62271132D01*
X124394539Y-62272966D01*
X124398790Y-62279580D01*
X125176307Y-63057096D01*
X125188313Y-63063652D01*
X125200052Y-63054684D01*
X125238010Y-63001859D01*
X125243321Y-62993020D01*
X125250545Y-62978403D01*
X125298659Y-62926196D01*
X125367360Y-62908289D01*
X125434837Y-62930368D01*
X125466715Y-62961959D01*
X125539035Y-63065242D01*
X125569839Y-63109235D01*
X125730765Y-63270161D01*
X125735273Y-63273318D01*
X125735276Y-63273320D01*
X125910737Y-63396179D01*
X125917191Y-63400698D01*
X125922173Y-63403021D01*
X125922178Y-63403024D01*
X126118470Y-63494557D01*
X126123452Y-63496880D01*
X126128760Y-63498302D01*
X126128762Y-63498303D01*
X126198519Y-63516994D01*
X126343282Y-63555783D01*
X126570000Y-63575618D01*
X126796718Y-63555783D01*
X126941481Y-63516994D01*
X127011238Y-63498303D01*
X127011240Y-63498302D01*
X127016548Y-63496880D01*
X127021530Y-63494557D01*
X127217822Y-63403024D01*
X127217827Y-63403021D01*
X127222809Y-63400698D01*
X127229263Y-63396179D01*
X127404724Y-63273320D01*
X127404727Y-63273318D01*
X127409235Y-63270161D01*
X127570161Y-63109235D01*
X127600966Y-63065242D01*
X127697541Y-62927318D01*
X127697542Y-62927316D01*
X127700698Y-62922809D01*
X127703021Y-62917827D01*
X127703024Y-62917822D01*
X127725805Y-62868967D01*
X127772722Y-62815682D01*
X127841000Y-62796221D01*
X127908960Y-62816763D01*
X127954195Y-62868967D01*
X127976976Y-62917822D01*
X127976979Y-62917827D01*
X127979302Y-62922809D01*
X127982458Y-62927316D01*
X127982459Y-62927318D01*
X128079035Y-63065242D01*
X128109839Y-63109235D01*
X128270765Y-63270161D01*
X128275273Y-63273318D01*
X128275276Y-63273320D01*
X128450737Y-63396179D01*
X128457191Y-63400698D01*
X128462173Y-63403021D01*
X128462178Y-63403024D01*
X128658470Y-63494557D01*
X128663452Y-63496880D01*
X128668760Y-63498302D01*
X128668762Y-63498303D01*
X128738519Y-63516994D01*
X128883282Y-63555783D01*
X129110000Y-63575618D01*
X129336718Y-63555783D01*
X129481481Y-63516994D01*
X129551238Y-63498303D01*
X129551240Y-63498302D01*
X129556548Y-63496880D01*
X129561530Y-63494557D01*
X129757822Y-63403024D01*
X129757827Y-63403021D01*
X129762809Y-63400698D01*
X129769263Y-63396179D01*
X129944724Y-63273320D01*
X129944727Y-63273318D01*
X129949235Y-63270161D01*
X130110161Y-63109235D01*
X130140966Y-63065242D01*
X130237541Y-62927318D01*
X130237542Y-62927316D01*
X130240698Y-62922809D01*
X130243021Y-62917827D01*
X130243024Y-62917822D01*
X130265805Y-62868967D01*
X130312722Y-62815682D01*
X130381000Y-62796221D01*
X130448960Y-62816763D01*
X130494195Y-62868967D01*
X130516976Y-62917822D01*
X130516979Y-62917827D01*
X130519302Y-62922809D01*
X130522458Y-62927316D01*
X130522459Y-62927318D01*
X130619035Y-63065242D01*
X130649839Y-63109235D01*
X130810765Y-63270161D01*
X130815273Y-63273318D01*
X130815276Y-63273320D01*
X130990737Y-63396179D01*
X130997191Y-63400698D01*
X131002173Y-63403021D01*
X131002178Y-63403024D01*
X131198470Y-63494557D01*
X131203452Y-63496880D01*
X131208760Y-63498302D01*
X131208762Y-63498303D01*
X131278519Y-63516994D01*
X131423282Y-63555783D01*
X131650000Y-63575618D01*
X131876718Y-63555783D01*
X132021481Y-63516994D01*
X132091238Y-63498303D01*
X132091240Y-63498302D01*
X132096548Y-63496880D01*
X132101530Y-63494557D01*
X132297822Y-63403024D01*
X132297827Y-63403021D01*
X132302809Y-63400698D01*
X132309263Y-63396179D01*
X132484724Y-63273320D01*
X132484727Y-63273318D01*
X132489235Y-63270161D01*
X132650161Y-63109235D01*
X132680966Y-63065242D01*
X132777541Y-62927318D01*
X132777542Y-62927316D01*
X132780698Y-62922809D01*
X132783021Y-62917827D01*
X132783024Y-62917822D01*
X132805805Y-62868967D01*
X132852722Y-62815682D01*
X132921000Y-62796221D01*
X132988960Y-62816763D01*
X133034195Y-62868967D01*
X133056976Y-62917822D01*
X133056979Y-62917827D01*
X133059302Y-62922809D01*
X133062458Y-62927316D01*
X133062459Y-62927318D01*
X133159035Y-63065242D01*
X133189839Y-63109235D01*
X133350765Y-63270161D01*
X133355273Y-63273318D01*
X133355276Y-63273320D01*
X133530737Y-63396179D01*
X133537191Y-63400698D01*
X133542173Y-63403021D01*
X133542178Y-63403024D01*
X133738470Y-63494557D01*
X133743452Y-63496880D01*
X133748760Y-63498302D01*
X133748762Y-63498303D01*
X133818519Y-63516994D01*
X133963282Y-63555783D01*
X134190000Y-63575618D01*
X134416718Y-63555783D01*
X134561481Y-63516994D01*
X134631238Y-63498303D01*
X134631240Y-63498302D01*
X134636548Y-63496880D01*
X134641530Y-63494557D01*
X134837822Y-63403024D01*
X134837827Y-63403021D01*
X134842809Y-63400698D01*
X134849263Y-63396179D01*
X135024724Y-63273320D01*
X135024727Y-63273318D01*
X135029235Y-63270161D01*
X135190161Y-63109235D01*
X135220966Y-63065242D01*
X135317541Y-62927318D01*
X135317542Y-62927316D01*
X135320698Y-62922809D01*
X135323021Y-62917827D01*
X135323024Y-62917822D01*
X135345805Y-62868967D01*
X135392722Y-62815682D01*
X135461000Y-62796221D01*
X135528960Y-62816763D01*
X135574195Y-62868967D01*
X135596976Y-62917822D01*
X135596979Y-62917827D01*
X135599302Y-62922809D01*
X135602458Y-62927316D01*
X135602459Y-62927318D01*
X135699035Y-63065242D01*
X135729839Y-63109235D01*
X135890765Y-63270161D01*
X135895273Y-63273318D01*
X135895276Y-63273320D01*
X136070737Y-63396179D01*
X136077191Y-63400698D01*
X136082173Y-63403021D01*
X136082178Y-63403024D01*
X136278470Y-63494557D01*
X136283452Y-63496880D01*
X136288760Y-63498302D01*
X136288762Y-63498303D01*
X136358519Y-63516994D01*
X136503282Y-63555783D01*
X136730000Y-63575618D01*
X136956718Y-63555783D01*
X137101481Y-63516994D01*
X137171238Y-63498303D01*
X137171240Y-63498302D01*
X137176548Y-63496880D01*
X137181530Y-63494557D01*
X137377822Y-63403024D01*
X137377827Y-63403021D01*
X137382809Y-63400698D01*
X137389263Y-63396179D01*
X137564724Y-63273320D01*
X137564727Y-63273318D01*
X137569235Y-63270161D01*
X137730161Y-63109235D01*
X137760966Y-63065242D01*
X137857541Y-62927318D01*
X137857542Y-62927316D01*
X137860698Y-62922809D01*
X137863021Y-62917827D01*
X137863024Y-62917822D01*
X137885805Y-62868967D01*
X137932722Y-62815682D01*
X138001000Y-62796221D01*
X138068960Y-62816763D01*
X138114195Y-62868967D01*
X138136976Y-62917822D01*
X138136979Y-62917827D01*
X138139302Y-62922809D01*
X138142458Y-62927316D01*
X138142459Y-62927318D01*
X138239035Y-63065242D01*
X138269839Y-63109235D01*
X138430765Y-63270161D01*
X138435273Y-63273318D01*
X138435276Y-63273320D01*
X138610737Y-63396179D01*
X138617191Y-63400698D01*
X138622173Y-63403021D01*
X138622178Y-63403024D01*
X138818470Y-63494557D01*
X138823452Y-63496880D01*
X138828760Y-63498302D01*
X138828762Y-63498303D01*
X138898519Y-63516994D01*
X139043282Y-63555783D01*
X139270000Y-63575618D01*
X139496718Y-63555783D01*
X139641481Y-63516994D01*
X139711238Y-63498303D01*
X139711240Y-63498302D01*
X139716548Y-63496880D01*
X139721530Y-63494557D01*
X139917822Y-63403024D01*
X139917827Y-63403021D01*
X139922809Y-63400698D01*
X139929263Y-63396179D01*
X140104724Y-63273320D01*
X140104727Y-63273318D01*
X140109235Y-63270161D01*
X140270161Y-63109235D01*
X140300966Y-63065242D01*
X140397541Y-62927318D01*
X140397542Y-62927316D01*
X140400698Y-62922809D01*
X140403021Y-62917827D01*
X140403024Y-62917822D01*
X140425805Y-62868967D01*
X140472722Y-62815682D01*
X140541000Y-62796221D01*
X140608960Y-62816763D01*
X140654195Y-62868967D01*
X140676976Y-62917822D01*
X140676979Y-62917827D01*
X140679302Y-62922809D01*
X140682458Y-62927316D01*
X140682459Y-62927318D01*
X140779035Y-63065242D01*
X140809839Y-63109235D01*
X140970765Y-63270161D01*
X140975273Y-63273318D01*
X140975276Y-63273320D01*
X141150737Y-63396179D01*
X141157191Y-63400698D01*
X141162173Y-63403021D01*
X141162178Y-63403024D01*
X141358470Y-63494557D01*
X141363452Y-63496880D01*
X141368760Y-63498302D01*
X141368762Y-63498303D01*
X141438519Y-63516994D01*
X141583282Y-63555783D01*
X141810000Y-63575618D01*
X142036718Y-63555783D01*
X142181481Y-63516994D01*
X142251238Y-63498303D01*
X142251240Y-63498302D01*
X142256548Y-63496880D01*
X142261530Y-63494557D01*
X142396957Y-63431406D01*
X143553423Y-63431406D01*
X143558704Y-63438461D01*
X143735080Y-63541527D01*
X143744363Y-63545974D01*
X143951003Y-63624883D01*
X143960901Y-63627759D01*
X144177653Y-63671857D01*
X144187883Y-63673076D01*
X144408914Y-63681182D01*
X144419223Y-63680714D01*
X144638623Y-63652608D01*
X144648688Y-63650468D01*
X144860557Y-63586905D01*
X144870152Y-63583144D01*
X145068778Y-63485838D01*
X145077636Y-63480559D01*
X145135097Y-63439572D01*
X145143497Y-63428874D01*
X145136510Y-63415721D01*
X144362811Y-62642021D01*
X144348868Y-62634408D01*
X144347034Y-62634539D01*
X144340420Y-62638790D01*
X143560180Y-63419031D01*
X143553423Y-63431406D01*
X142396957Y-63431406D01*
X142457822Y-63403024D01*
X142457827Y-63403021D01*
X142462809Y-63400698D01*
X142469263Y-63396179D01*
X142644724Y-63273320D01*
X142644727Y-63273318D01*
X142649235Y-63270161D01*
X142810161Y-63109235D01*
X142914681Y-62959965D01*
X142970137Y-62915638D01*
X143040756Y-62908329D01*
X143104117Y-62940359D01*
X143125326Y-62966402D01*
X143180098Y-63055782D01*
X143190553Y-63065242D01*
X143199331Y-63061458D01*
X143977979Y-62282811D01*
X143985592Y-62268868D01*
X143985461Y-62267034D01*
X143981210Y-62260420D01*
X143203862Y-61483073D01*
X143192330Y-61476776D01*
X143180048Y-61486399D01*
X143121555Y-61572146D01*
X143120352Y-61571325D01*
X143074099Y-61616048D01*
X143004481Y-61629971D01*
X142938387Y-61604045D01*
X142912368Y-61576732D01*
X142813320Y-61435276D01*
X142813318Y-61435273D01*
X142810161Y-61430765D01*
X142649235Y-61269839D01*
X142644727Y-61266682D01*
X142644724Y-61266680D01*
X142467318Y-61142459D01*
X142467316Y-61142458D01*
X142462809Y-61139302D01*
X142457827Y-61136979D01*
X142457822Y-61136976D01*
X142408967Y-61114195D01*
X142355682Y-61067278D01*
X142336221Y-60999000D01*
X142356763Y-60931040D01*
X142408967Y-60885805D01*
X142457822Y-60863024D01*
X142457827Y-60863021D01*
X142462809Y-60860698D01*
X142499498Y-60835008D01*
X142644724Y-60733320D01*
X142644727Y-60733318D01*
X142649235Y-60730161D01*
X142810161Y-60569235D01*
X142854625Y-60505735D01*
X142937541Y-60387318D01*
X142937542Y-60387316D01*
X142940698Y-60382809D01*
X142943021Y-60377827D01*
X142943024Y-60377822D01*
X142965805Y-60328967D01*
X143012722Y-60275682D01*
X143081000Y-60256221D01*
X143148960Y-60276763D01*
X143194195Y-60328967D01*
X143216976Y-60377822D01*
X143216979Y-60377827D01*
X143219302Y-60382809D01*
X143222458Y-60387316D01*
X143222459Y-60387318D01*
X143305376Y-60505735D01*
X143349839Y-60569235D01*
X143510765Y-60730161D01*
X143515273Y-60733318D01*
X143515276Y-60733320D01*
X143659554Y-60834344D01*
X143703882Y-60889801D01*
X143711191Y-60960420D01*
X143679160Y-61023781D01*
X143645464Y-61049320D01*
X143601720Y-61072092D01*
X143593007Y-61077578D01*
X143563961Y-61099386D01*
X143555508Y-61110711D01*
X143562251Y-61123040D01*
X144337189Y-61897979D01*
X144351132Y-61905592D01*
X144352966Y-61905461D01*
X144359580Y-61901210D01*
X145138994Y-61121795D01*
X145146011Y-61108944D01*
X145138237Y-61098274D01*
X145135902Y-61096430D01*
X145127320Y-61090729D01*
X145050877Y-61048530D01*
X145000906Y-60998097D01*
X144986134Y-60928654D01*
X145011250Y-60862249D01*
X145039499Y-60835008D01*
X145184724Y-60733320D01*
X145184727Y-60733318D01*
X145189235Y-60730161D01*
X145350161Y-60569235D01*
X145394625Y-60505735D01*
X145477541Y-60387318D01*
X145477542Y-60387316D01*
X145480698Y-60382809D01*
X145483021Y-60377827D01*
X145483024Y-60377822D01*
X145505805Y-60328967D01*
X145552722Y-60275682D01*
X145621000Y-60256221D01*
X145688960Y-60276763D01*
X145734195Y-60328967D01*
X145756976Y-60377822D01*
X145756979Y-60377827D01*
X145759302Y-60382809D01*
X145762458Y-60387316D01*
X145762459Y-60387318D01*
X145845376Y-60505735D01*
X145889839Y-60569235D01*
X146050765Y-60730161D01*
X146055273Y-60733318D01*
X146055276Y-60733320D01*
X146200502Y-60835008D01*
X146237191Y-60860698D01*
X146242173Y-60863021D01*
X146242178Y-60863024D01*
X146291033Y-60885805D01*
X146344318Y-60932722D01*
X146363779Y-61001000D01*
X146343237Y-61068960D01*
X146291033Y-61114195D01*
X146242178Y-61136976D01*
X146242173Y-61136979D01*
X146237191Y-61139302D01*
X146232684Y-61142458D01*
X146232682Y-61142459D01*
X146055276Y-61266680D01*
X146055273Y-61266682D01*
X146050765Y-61269839D01*
X145889839Y-61430765D01*
X145886682Y-61435273D01*
X145886680Y-61435276D01*
X145786300Y-61578634D01*
X145730843Y-61622962D01*
X145660224Y-61630271D01*
X145596863Y-61598240D01*
X145577294Y-61574802D01*
X145519223Y-61485037D01*
X145508538Y-61475835D01*
X145498973Y-61480238D01*
X144722021Y-62257189D01*
X144714408Y-62271132D01*
X144714539Y-62272966D01*
X144718790Y-62279580D01*
X145496307Y-63057096D01*
X145508313Y-63063652D01*
X145520052Y-63054684D01*
X145558010Y-63001859D01*
X145563321Y-62993020D01*
X145570545Y-62978403D01*
X145618659Y-62926196D01*
X145687360Y-62908289D01*
X145754837Y-62930368D01*
X145786715Y-62961959D01*
X145859035Y-63065242D01*
X145889839Y-63109235D01*
X146050765Y-63270161D01*
X146055273Y-63273318D01*
X146055276Y-63273320D01*
X146230737Y-63396179D01*
X146237191Y-63400698D01*
X146242173Y-63403021D01*
X146242178Y-63403024D01*
X146438470Y-63494557D01*
X146443452Y-63496880D01*
X146448760Y-63498302D01*
X146448762Y-63498303D01*
X146518519Y-63516994D01*
X146663282Y-63555783D01*
X146890000Y-63575618D01*
X147116718Y-63555783D01*
X147261481Y-63516994D01*
X147331238Y-63498303D01*
X147331240Y-63498302D01*
X147336548Y-63496880D01*
X147341530Y-63494557D01*
X147537822Y-63403024D01*
X147537827Y-63403021D01*
X147542809Y-63400698D01*
X147549263Y-63396179D01*
X147724724Y-63273320D01*
X147724727Y-63273318D01*
X147729235Y-63270161D01*
X147890161Y-63109235D01*
X147920966Y-63065242D01*
X148017541Y-62927318D01*
X148017542Y-62927316D01*
X148020698Y-62922809D01*
X148023021Y-62917827D01*
X148023024Y-62917822D01*
X148045805Y-62868967D01*
X148092722Y-62815682D01*
X148161000Y-62796221D01*
X148228960Y-62816763D01*
X148274195Y-62868967D01*
X148296976Y-62917822D01*
X148296979Y-62917827D01*
X148299302Y-62922809D01*
X148302458Y-62927316D01*
X148302459Y-62927318D01*
X148399035Y-63065242D01*
X148429839Y-63109235D01*
X148590765Y-63270161D01*
X148595273Y-63273318D01*
X148595276Y-63273320D01*
X148770737Y-63396179D01*
X148777191Y-63400698D01*
X148782173Y-63403021D01*
X148782178Y-63403024D01*
X148978470Y-63494557D01*
X148983452Y-63496880D01*
X148988760Y-63498302D01*
X148988762Y-63498303D01*
X149058519Y-63516994D01*
X149203282Y-63555783D01*
X149430000Y-63575618D01*
X149656718Y-63555783D01*
X149801481Y-63516994D01*
X149871238Y-63498303D01*
X149871240Y-63498302D01*
X149876548Y-63496880D01*
X149881530Y-63494557D01*
X150077822Y-63403024D01*
X150077827Y-63403021D01*
X150082809Y-63400698D01*
X150089263Y-63396179D01*
X150264724Y-63273320D01*
X150264727Y-63273318D01*
X150269235Y-63270161D01*
X150430161Y-63109235D01*
X150460966Y-63065242D01*
X150557541Y-62927318D01*
X150557542Y-62927316D01*
X150560698Y-62922809D01*
X150563021Y-62917827D01*
X150563024Y-62917822D01*
X150585805Y-62868967D01*
X150632722Y-62815682D01*
X150701000Y-62796221D01*
X150768960Y-62816763D01*
X150814195Y-62868967D01*
X150836976Y-62917822D01*
X150836979Y-62917827D01*
X150839302Y-62922809D01*
X150842458Y-62927316D01*
X150842459Y-62927318D01*
X150939035Y-63065242D01*
X150969839Y-63109235D01*
X151130765Y-63270161D01*
X151135273Y-63273318D01*
X151135276Y-63273320D01*
X151310737Y-63396179D01*
X151317191Y-63400698D01*
X151322173Y-63403021D01*
X151322178Y-63403024D01*
X151518470Y-63494557D01*
X151523452Y-63496880D01*
X151528760Y-63498302D01*
X151528762Y-63498303D01*
X151598519Y-63516994D01*
X151743282Y-63555783D01*
X151970000Y-63575618D01*
X152196718Y-63555783D01*
X152341481Y-63516994D01*
X152411238Y-63498303D01*
X152411240Y-63498302D01*
X152416548Y-63496880D01*
X152421530Y-63494557D01*
X152617822Y-63403024D01*
X152617827Y-63403021D01*
X152622809Y-63400698D01*
X152629263Y-63396179D01*
X152804724Y-63273320D01*
X152804727Y-63273318D01*
X152809235Y-63270161D01*
X152970161Y-63109235D01*
X153000966Y-63065242D01*
X153097541Y-62927318D01*
X153097542Y-62927316D01*
X153100698Y-62922809D01*
X153103021Y-62917827D01*
X153103024Y-62917822D01*
X153125805Y-62868967D01*
X153172722Y-62815682D01*
X153241000Y-62796221D01*
X153308960Y-62816763D01*
X153354195Y-62868967D01*
X153376976Y-62917822D01*
X153376979Y-62917827D01*
X153379302Y-62922809D01*
X153382458Y-62927316D01*
X153382459Y-62927318D01*
X153479035Y-63065242D01*
X153509839Y-63109235D01*
X153670765Y-63270161D01*
X153675273Y-63273318D01*
X153675276Y-63273320D01*
X153850737Y-63396179D01*
X153857191Y-63400698D01*
X153862173Y-63403021D01*
X153862178Y-63403024D01*
X154058470Y-63494557D01*
X154063452Y-63496880D01*
X154068760Y-63498302D01*
X154068762Y-63498303D01*
X154138519Y-63516994D01*
X154283282Y-63555783D01*
X154510000Y-63575618D01*
X154736718Y-63555783D01*
X154881481Y-63516994D01*
X154951238Y-63498303D01*
X154951240Y-63498302D01*
X154956548Y-63496880D01*
X154961530Y-63494557D01*
X155157822Y-63403024D01*
X155157827Y-63403021D01*
X155162809Y-63400698D01*
X155169263Y-63396179D01*
X155344724Y-63273320D01*
X155344727Y-63273318D01*
X155349235Y-63270161D01*
X155510161Y-63109235D01*
X155540966Y-63065242D01*
X155637541Y-62927318D01*
X155637542Y-62927316D01*
X155640698Y-62922809D01*
X155643021Y-62917827D01*
X155643024Y-62917822D01*
X155665805Y-62868967D01*
X155712722Y-62815682D01*
X155781000Y-62796221D01*
X155848960Y-62816763D01*
X155894195Y-62868967D01*
X155916976Y-62917822D01*
X155916979Y-62917827D01*
X155919302Y-62922809D01*
X155922458Y-62927316D01*
X155922459Y-62927318D01*
X156019035Y-63065242D01*
X156049839Y-63109235D01*
X156210765Y-63270161D01*
X156215273Y-63273318D01*
X156215276Y-63273320D01*
X156390737Y-63396179D01*
X156397191Y-63400698D01*
X156402173Y-63403021D01*
X156402178Y-63403024D01*
X156598470Y-63494557D01*
X156603452Y-63496880D01*
X156608760Y-63498302D01*
X156608762Y-63498303D01*
X156678519Y-63516994D01*
X156823282Y-63555783D01*
X157050000Y-63575618D01*
X157276718Y-63555783D01*
X157421481Y-63516994D01*
X157491238Y-63498303D01*
X157491240Y-63498302D01*
X157496548Y-63496880D01*
X157501530Y-63494557D01*
X157697822Y-63403024D01*
X157697827Y-63403021D01*
X157702809Y-63400698D01*
X157709263Y-63396179D01*
X157884724Y-63273320D01*
X157884727Y-63273318D01*
X157889235Y-63270161D01*
X158050161Y-63109235D01*
X158080966Y-63065242D01*
X158177541Y-62927318D01*
X158177542Y-62927316D01*
X158180698Y-62922809D01*
X158183023Y-62917822D01*
X158183027Y-62917816D01*
X158191001Y-62900716D01*
X158237919Y-62847431D01*
X158306196Y-62827971D01*
X158374156Y-62848514D01*
X158419389Y-62900716D01*
X158427363Y-62917816D01*
X158456976Y-62981322D01*
X158456979Y-62981327D01*
X158459302Y-62986309D01*
X158462458Y-62990816D01*
X158462459Y-62990818D01*
X158545376Y-63109235D01*
X158589839Y-63172735D01*
X158750765Y-63333661D01*
X158755273Y-63336818D01*
X158755276Y-63336820D01*
X158902021Y-63439572D01*
X158937191Y-63464198D01*
X158942173Y-63466521D01*
X158942178Y-63466524D01*
X159134621Y-63556262D01*
X159143452Y-63560380D01*
X159148760Y-63561802D01*
X159148762Y-63561803D01*
X159208718Y-63577868D01*
X159363282Y-63619283D01*
X159590000Y-63639118D01*
X159816718Y-63619283D01*
X159971282Y-63577868D01*
X160031238Y-63561803D01*
X160031240Y-63561802D01*
X160036548Y-63560380D01*
X160045379Y-63556262D01*
X160237822Y-63466524D01*
X160237827Y-63466521D01*
X160242809Y-63464198D01*
X160277979Y-63439572D01*
X160424724Y-63336820D01*
X160424727Y-63336818D01*
X160429235Y-63333661D01*
X160590161Y-63172735D01*
X160634625Y-63109235D01*
X160717541Y-62990818D01*
X160717542Y-62990816D01*
X160720698Y-62986309D01*
X160723021Y-62981327D01*
X160723024Y-62981322D01*
X160752637Y-62917816D01*
X160760611Y-62900716D01*
X160807527Y-62847432D01*
X160875804Y-62827971D01*
X160943764Y-62848513D01*
X160988999Y-62900716D01*
X160996973Y-62917816D01*
X160996977Y-62917822D01*
X160999302Y-62922809D01*
X161002458Y-62927316D01*
X161002459Y-62927318D01*
X161099035Y-63065242D01*
X161129839Y-63109235D01*
X161290765Y-63270161D01*
X161295273Y-63273318D01*
X161295276Y-63273320D01*
X161470737Y-63396179D01*
X161477191Y-63400698D01*
X161482173Y-63403021D01*
X161482178Y-63403024D01*
X161678470Y-63494557D01*
X161683452Y-63496880D01*
X161688760Y-63498302D01*
X161688762Y-63498303D01*
X161758519Y-63516994D01*
X161903282Y-63555783D01*
X162130000Y-63575618D01*
X162356718Y-63555783D01*
X162501481Y-63516994D01*
X162571238Y-63498303D01*
X162571240Y-63498302D01*
X162576548Y-63496880D01*
X162581530Y-63494557D01*
X162777822Y-63403024D01*
X162777827Y-63403021D01*
X162782809Y-63400698D01*
X162789263Y-63396179D01*
X162964724Y-63273320D01*
X162964727Y-63273318D01*
X162969235Y-63270161D01*
X163130161Y-63109235D01*
X163160966Y-63065242D01*
X163257541Y-62927318D01*
X163257542Y-62927316D01*
X163260698Y-62922809D01*
X163263021Y-62917827D01*
X163263024Y-62917822D01*
X163354557Y-62721530D01*
X163354558Y-62721528D01*
X163356880Y-62716548D01*
X163360160Y-62704309D01*
X163414359Y-62502031D01*
X163415783Y-62496718D01*
X163435618Y-62270000D01*
X163415783Y-62043282D01*
X163356880Y-61823452D01*
X163334533Y-61775529D01*
X163263024Y-61622178D01*
X163263021Y-61622173D01*
X163260698Y-61617191D01*
X163251493Y-61604045D01*
X163133320Y-61435276D01*
X163133318Y-61435273D01*
X163130161Y-61430765D01*
X162969235Y-61269839D01*
X162964727Y-61266682D01*
X162964724Y-61266680D01*
X162787318Y-61142459D01*
X162787316Y-61142458D01*
X162782809Y-61139302D01*
X162777827Y-61136979D01*
X162777822Y-61136976D01*
X162728967Y-61114195D01*
X162675682Y-61067278D01*
X162656221Y-60999000D01*
X162676763Y-60931040D01*
X162728967Y-60885805D01*
X162777822Y-60863024D01*
X162777827Y-60863021D01*
X162782809Y-60860698D01*
X162819498Y-60835008D01*
X162964724Y-60733320D01*
X162964727Y-60733318D01*
X162969235Y-60730161D01*
X163130161Y-60569235D01*
X163174625Y-60505735D01*
X163257541Y-60387318D01*
X163257542Y-60387316D01*
X163260698Y-60382809D01*
X163263021Y-60377827D01*
X163263024Y-60377822D01*
X163354557Y-60181530D01*
X163354558Y-60181528D01*
X163356880Y-60176548D01*
X163415783Y-59956718D01*
X163435618Y-59730000D01*
X163415783Y-59503282D01*
X163356880Y-59283452D01*
X163310149Y-59183237D01*
X163263024Y-59082178D01*
X163263021Y-59082173D01*
X163260698Y-59077191D01*
X163228827Y-59031674D01*
X163133320Y-58895276D01*
X163133318Y-58895273D01*
X163130161Y-58890765D01*
X162969235Y-58729839D01*
X162964727Y-58726682D01*
X162964724Y-58726680D01*
X162787318Y-58602459D01*
X162787316Y-58602458D01*
X162782809Y-58599302D01*
X162777827Y-58596979D01*
X162777822Y-58596976D01*
X162581530Y-58505443D01*
X162581528Y-58505442D01*
X162576548Y-58503120D01*
X162571240Y-58501698D01*
X162571238Y-58501697D01*
X162501481Y-58483006D01*
X162356718Y-58444217D01*
X162130000Y-58424382D01*
X161903282Y-58444217D01*
X161758519Y-58483006D01*
X161688762Y-58501697D01*
X161688760Y-58501698D01*
X161683452Y-58503120D01*
X161678472Y-58505442D01*
X161678470Y-58505443D01*
X161482178Y-58596976D01*
X161482173Y-58596979D01*
X161477191Y-58599302D01*
X161472684Y-58602458D01*
X161472682Y-58602459D01*
X161295276Y-58726680D01*
X161295273Y-58726682D01*
X161290765Y-58729839D01*
X161129839Y-58890765D01*
X161126682Y-58895273D01*
X161126680Y-58895276D01*
X161031173Y-59031674D01*
X160999302Y-59077191D01*
X160996977Y-59082178D01*
X160996973Y-59082184D01*
X160988999Y-59099284D01*
X160942081Y-59152569D01*
X160873804Y-59172029D01*
X160805844Y-59151486D01*
X160760611Y-59099284D01*
X160725420Y-59023817D01*
X160723024Y-59018678D01*
X160723021Y-59018673D01*
X160720698Y-59013691D01*
X160637783Y-58895276D01*
X160593320Y-58831776D01*
X160593318Y-58831773D01*
X160590161Y-58827265D01*
X160429235Y-58666339D01*
X160424727Y-58663182D01*
X160424724Y-58663180D01*
X160247318Y-58538959D01*
X160247316Y-58538958D01*
X160242809Y-58535802D01*
X160237827Y-58533479D01*
X160237822Y-58533476D01*
X160041530Y-58441943D01*
X160041528Y-58441942D01*
X160036548Y-58439620D01*
X160031240Y-58438198D01*
X160031238Y-58438197D01*
X159916226Y-58407380D01*
X159816718Y-58380717D01*
X159590000Y-58360882D01*
X159363282Y-58380717D01*
X159263774Y-58407380D01*
X159148762Y-58438197D01*
X159148760Y-58438198D01*
X159143452Y-58439620D01*
X159138472Y-58441942D01*
X159138470Y-58441943D01*
X158942178Y-58533476D01*
X158942173Y-58533479D01*
X158937191Y-58535802D01*
X158932684Y-58538958D01*
X158932682Y-58538959D01*
X158755276Y-58663180D01*
X158755273Y-58663182D01*
X158750765Y-58666339D01*
X158589839Y-58827265D01*
X158586682Y-58831773D01*
X158586680Y-58831776D01*
X158542217Y-58895276D01*
X158459302Y-59013691D01*
X158456979Y-59018673D01*
X158456976Y-59018678D01*
X158454580Y-59023817D01*
X158419389Y-59099284D01*
X158372473Y-59152568D01*
X158304196Y-59172029D01*
X158236236Y-59151487D01*
X158191001Y-59099284D01*
X158183027Y-59082184D01*
X158183023Y-59082178D01*
X158180698Y-59077191D01*
X158148827Y-59031674D01*
X158053320Y-58895276D01*
X158053318Y-58895273D01*
X158050161Y-58890765D01*
X157889235Y-58729839D01*
X157884727Y-58726682D01*
X157884724Y-58726680D01*
X157707318Y-58602459D01*
X157707316Y-58602458D01*
X157702809Y-58599302D01*
X157697827Y-58596979D01*
X157697822Y-58596976D01*
X157501530Y-58505443D01*
X157501528Y-58505442D01*
X157496548Y-58503120D01*
X157491240Y-58501698D01*
X157491238Y-58501697D01*
X157421481Y-58483006D01*
X157276718Y-58444217D01*
X157050000Y-58424382D01*
X156823282Y-58444217D01*
X156678519Y-58483006D01*
X156608762Y-58501697D01*
X156608760Y-58501698D01*
X156603452Y-58503120D01*
X156598472Y-58505442D01*
X156598470Y-58505443D01*
X156402178Y-58596976D01*
X156402173Y-58596979D01*
X156397191Y-58599302D01*
X156392684Y-58602458D01*
X156392682Y-58602459D01*
X156215276Y-58726680D01*
X156215273Y-58726682D01*
X156210765Y-58729839D01*
X156049839Y-58890765D01*
X156046682Y-58895273D01*
X156046680Y-58895276D01*
X155951173Y-59031674D01*
X155919302Y-59077191D01*
X155916979Y-59082173D01*
X155916976Y-59082178D01*
X155894195Y-59131033D01*
X155847278Y-59184318D01*
X155779000Y-59203779D01*
X155711040Y-59183237D01*
X155665805Y-59131033D01*
X155643024Y-59082178D01*
X155643021Y-59082173D01*
X155640698Y-59077191D01*
X155608827Y-59031674D01*
X155513320Y-58895276D01*
X155513318Y-58895273D01*
X155510161Y-58890765D01*
X155349235Y-58729839D01*
X155344727Y-58726682D01*
X155344724Y-58726680D01*
X155167318Y-58602459D01*
X155167316Y-58602458D01*
X155162809Y-58599302D01*
X155157827Y-58596979D01*
X155157822Y-58596976D01*
X154961530Y-58505443D01*
X154961528Y-58505442D01*
X154956548Y-58503120D01*
X154951240Y-58501698D01*
X154951238Y-58501697D01*
X154881481Y-58483006D01*
X154736718Y-58444217D01*
X154510000Y-58424382D01*
X154283282Y-58444217D01*
X154138519Y-58483006D01*
X154068762Y-58501697D01*
X154068760Y-58501698D01*
X154063452Y-58503120D01*
X154058472Y-58505442D01*
X154058470Y-58505443D01*
X153862178Y-58596976D01*
X153862173Y-58596979D01*
X153857191Y-58599302D01*
X153852684Y-58602458D01*
X153852682Y-58602459D01*
X153675276Y-58726680D01*
X153675273Y-58726682D01*
X153670765Y-58729839D01*
X153509839Y-58890765D01*
X153506682Y-58895273D01*
X153506680Y-58895276D01*
X153411173Y-59031674D01*
X153379302Y-59077191D01*
X153376979Y-59082173D01*
X153376976Y-59082178D01*
X153354195Y-59131033D01*
X153307278Y-59184318D01*
X153239000Y-59203779D01*
X153171040Y-59183237D01*
X153125805Y-59131033D01*
X153103024Y-59082178D01*
X153103021Y-59082173D01*
X153100698Y-59077191D01*
X153068827Y-59031674D01*
X152973320Y-58895276D01*
X152973318Y-58895273D01*
X152970161Y-58890765D01*
X152809235Y-58729839D01*
X152804727Y-58726682D01*
X152804724Y-58726680D01*
X152627318Y-58602459D01*
X152627316Y-58602458D01*
X152622809Y-58599302D01*
X152617827Y-58596979D01*
X152617822Y-58596976D01*
X152421530Y-58505443D01*
X152421528Y-58505442D01*
X152416548Y-58503120D01*
X152411240Y-58501698D01*
X152411238Y-58501697D01*
X152341481Y-58483006D01*
X152196718Y-58444217D01*
X151970000Y-58424382D01*
X151743282Y-58444217D01*
X151598519Y-58483006D01*
X151528762Y-58501697D01*
X151528760Y-58501698D01*
X151523452Y-58503120D01*
X151518472Y-58505442D01*
X151518470Y-58505443D01*
X151322178Y-58596976D01*
X151322173Y-58596979D01*
X151317191Y-58599302D01*
X151312684Y-58602458D01*
X151312682Y-58602459D01*
X151135276Y-58726680D01*
X151135273Y-58726682D01*
X151130765Y-58729839D01*
X150969839Y-58890765D01*
X150966682Y-58895273D01*
X150966680Y-58895276D01*
X150871173Y-59031674D01*
X150839302Y-59077191D01*
X150836979Y-59082173D01*
X150836976Y-59082178D01*
X150814195Y-59131033D01*
X150767278Y-59184318D01*
X150699000Y-59203779D01*
X150631040Y-59183237D01*
X150585805Y-59131033D01*
X150563024Y-59082178D01*
X150563021Y-59082173D01*
X150560698Y-59077191D01*
X150528827Y-59031674D01*
X150433320Y-58895276D01*
X150433318Y-58895273D01*
X150430161Y-58890765D01*
X150269235Y-58729839D01*
X150264727Y-58726682D01*
X150264724Y-58726680D01*
X150087318Y-58602459D01*
X150087316Y-58602458D01*
X150082809Y-58599302D01*
X150077827Y-58596979D01*
X150077822Y-58596976D01*
X149881530Y-58505443D01*
X149881528Y-58505442D01*
X149876548Y-58503120D01*
X149871240Y-58501698D01*
X149871238Y-58501697D01*
X149801481Y-58483006D01*
X149656718Y-58444217D01*
X149430000Y-58424382D01*
X149203282Y-58444217D01*
X149058519Y-58483006D01*
X148988762Y-58501697D01*
X148988760Y-58501698D01*
X148983452Y-58503120D01*
X148978472Y-58505442D01*
X148978470Y-58505443D01*
X148782178Y-58596976D01*
X148782173Y-58596979D01*
X148777191Y-58599302D01*
X148772684Y-58602458D01*
X148772682Y-58602459D01*
X148595276Y-58726680D01*
X148595273Y-58726682D01*
X148590765Y-58729839D01*
X148429839Y-58890765D01*
X148426682Y-58895273D01*
X148426680Y-58895276D01*
X148331173Y-59031674D01*
X148299302Y-59077191D01*
X148296979Y-59082173D01*
X148296976Y-59082178D01*
X148274195Y-59131033D01*
X148227278Y-59184318D01*
X148159000Y-59203779D01*
X148091040Y-59183237D01*
X148045805Y-59131033D01*
X148023024Y-59082178D01*
X148023021Y-59082173D01*
X148020698Y-59077191D01*
X147988827Y-59031674D01*
X147893320Y-58895276D01*
X147893318Y-58895273D01*
X147890161Y-58890765D01*
X147729235Y-58729839D01*
X147724727Y-58726682D01*
X147724724Y-58726680D01*
X147547318Y-58602459D01*
X147547316Y-58602458D01*
X147542809Y-58599302D01*
X147537827Y-58596979D01*
X147537822Y-58596976D01*
X147341530Y-58505443D01*
X147341528Y-58505442D01*
X147336548Y-58503120D01*
X147331240Y-58501698D01*
X147331238Y-58501697D01*
X147261481Y-58483006D01*
X147116718Y-58444217D01*
X146890000Y-58424382D01*
X146663282Y-58444217D01*
X146518519Y-58483006D01*
X146448762Y-58501697D01*
X146448760Y-58501698D01*
X146443452Y-58503120D01*
X146438472Y-58505442D01*
X146438470Y-58505443D01*
X146242178Y-58596976D01*
X146242173Y-58596979D01*
X146237191Y-58599302D01*
X146232684Y-58602458D01*
X146232682Y-58602459D01*
X146055276Y-58726680D01*
X146055273Y-58726682D01*
X146050765Y-58729839D01*
X145889839Y-58890765D01*
X145886682Y-58895273D01*
X145886680Y-58895276D01*
X145791173Y-59031674D01*
X145759302Y-59077191D01*
X145756979Y-59082173D01*
X145756976Y-59082178D01*
X145734195Y-59131033D01*
X145687278Y-59184318D01*
X145619000Y-59203779D01*
X145551040Y-59183237D01*
X145505805Y-59131033D01*
X145483024Y-59082178D01*
X145483021Y-59082173D01*
X145480698Y-59077191D01*
X145448827Y-59031674D01*
X145353320Y-58895276D01*
X145353318Y-58895273D01*
X145350161Y-58890765D01*
X145189235Y-58729839D01*
X145184727Y-58726682D01*
X145184724Y-58726680D01*
X145007318Y-58602459D01*
X145007316Y-58602458D01*
X145002809Y-58599302D01*
X144997827Y-58596979D01*
X144997822Y-58596976D01*
X144801530Y-58505443D01*
X144801528Y-58505442D01*
X144796548Y-58503120D01*
X144791240Y-58501698D01*
X144791238Y-58501697D01*
X144721481Y-58483006D01*
X144576718Y-58444217D01*
X144350000Y-58424382D01*
X144123282Y-58444217D01*
X143978519Y-58483006D01*
X143908762Y-58501697D01*
X143908760Y-58501698D01*
X143903452Y-58503120D01*
X143898472Y-58505442D01*
X143898470Y-58505443D01*
X143702178Y-58596976D01*
X143702173Y-58596979D01*
X143697191Y-58599302D01*
X143692684Y-58602458D01*
X143692682Y-58602459D01*
X143515276Y-58726680D01*
X143515273Y-58726682D01*
X143510765Y-58729839D01*
X143349839Y-58890765D01*
X143346682Y-58895273D01*
X143346680Y-58895276D01*
X143251173Y-59031674D01*
X143219302Y-59077191D01*
X143216979Y-59082173D01*
X143216976Y-59082178D01*
X143194195Y-59131033D01*
X143147278Y-59184318D01*
X143079000Y-59203779D01*
X143011040Y-59183237D01*
X142965805Y-59131033D01*
X142943024Y-59082178D01*
X142943021Y-59082173D01*
X142940698Y-59077191D01*
X142908827Y-59031674D01*
X142813320Y-58895276D01*
X142813318Y-58895273D01*
X142810161Y-58890765D01*
X142649235Y-58729839D01*
X142644727Y-58726682D01*
X142644724Y-58726680D01*
X142467318Y-58602459D01*
X142467316Y-58602458D01*
X142462809Y-58599302D01*
X142457827Y-58596979D01*
X142457822Y-58596976D01*
X142261530Y-58505443D01*
X142261528Y-58505442D01*
X142256548Y-58503120D01*
X142251240Y-58501698D01*
X142251238Y-58501697D01*
X142181481Y-58483006D01*
X142036718Y-58444217D01*
X141810000Y-58424382D01*
X141583282Y-58444217D01*
X141438519Y-58483006D01*
X141368762Y-58501697D01*
X141368760Y-58501698D01*
X141363452Y-58503120D01*
X141358472Y-58505442D01*
X141358470Y-58505443D01*
X141162178Y-58596976D01*
X141162173Y-58596979D01*
X141157191Y-58599302D01*
X141152684Y-58602458D01*
X141152682Y-58602459D01*
X140975276Y-58726680D01*
X140975273Y-58726682D01*
X140970765Y-58729839D01*
X140809839Y-58890765D01*
X140806682Y-58895273D01*
X140806680Y-58895276D01*
X140711173Y-59031674D01*
X140679302Y-59077191D01*
X140676979Y-59082173D01*
X140676976Y-59082178D01*
X140654195Y-59131033D01*
X140607278Y-59184318D01*
X140539000Y-59203779D01*
X140471040Y-59183237D01*
X140425805Y-59131033D01*
X140403024Y-59082178D01*
X140403021Y-59082173D01*
X140400698Y-59077191D01*
X140368827Y-59031674D01*
X140273320Y-58895276D01*
X140273318Y-58895273D01*
X140270161Y-58890765D01*
X140109235Y-58729839D01*
X140104727Y-58726682D01*
X140104724Y-58726680D01*
X139927318Y-58602459D01*
X139927316Y-58602458D01*
X139922809Y-58599302D01*
X139917827Y-58596979D01*
X139917822Y-58596976D01*
X139721530Y-58505443D01*
X139721528Y-58505442D01*
X139716548Y-58503120D01*
X139711240Y-58501698D01*
X139711238Y-58501697D01*
X139641481Y-58483006D01*
X139496718Y-58444217D01*
X139270000Y-58424382D01*
X139043282Y-58444217D01*
X138898519Y-58483006D01*
X138828762Y-58501697D01*
X138828760Y-58501698D01*
X138823452Y-58503120D01*
X138818472Y-58505442D01*
X138818470Y-58505443D01*
X138622178Y-58596976D01*
X138622173Y-58596979D01*
X138617191Y-58599302D01*
X138612684Y-58602458D01*
X138612682Y-58602459D01*
X138435276Y-58726680D01*
X138435273Y-58726682D01*
X138430765Y-58729839D01*
X138269839Y-58890765D01*
X138266682Y-58895273D01*
X138266680Y-58895276D01*
X138171173Y-59031674D01*
X138139302Y-59077191D01*
X138136979Y-59082173D01*
X138136976Y-59082178D01*
X138114195Y-59131033D01*
X138067278Y-59184318D01*
X137999000Y-59203779D01*
X137931040Y-59183237D01*
X137885805Y-59131033D01*
X137863024Y-59082178D01*
X137863021Y-59082173D01*
X137860698Y-59077191D01*
X137828827Y-59031674D01*
X137733320Y-58895276D01*
X137733318Y-58895273D01*
X137730161Y-58890765D01*
X137569235Y-58729839D01*
X137564727Y-58726682D01*
X137564724Y-58726680D01*
X137387318Y-58602459D01*
X137387316Y-58602458D01*
X137382809Y-58599302D01*
X137377827Y-58596979D01*
X137377822Y-58596976D01*
X137181530Y-58505443D01*
X137181528Y-58505442D01*
X137176548Y-58503120D01*
X137171240Y-58501698D01*
X137171238Y-58501697D01*
X137101481Y-58483006D01*
X136956718Y-58444217D01*
X136730000Y-58424382D01*
X136503282Y-58444217D01*
X136358519Y-58483006D01*
X136288762Y-58501697D01*
X136288760Y-58501698D01*
X136283452Y-58503120D01*
X136278472Y-58505442D01*
X136278470Y-58505443D01*
X136082178Y-58596976D01*
X136082173Y-58596979D01*
X136077191Y-58599302D01*
X136072684Y-58602458D01*
X136072682Y-58602459D01*
X135895276Y-58726680D01*
X135895273Y-58726682D01*
X135890765Y-58729839D01*
X135729839Y-58890765D01*
X135726682Y-58895273D01*
X135726680Y-58895276D01*
X135631173Y-59031674D01*
X135599302Y-59077191D01*
X135596979Y-59082173D01*
X135596976Y-59082178D01*
X135574195Y-59131033D01*
X135527278Y-59184318D01*
X135459000Y-59203779D01*
X135391040Y-59183237D01*
X135345805Y-59131033D01*
X135323024Y-59082178D01*
X135323021Y-59082173D01*
X135320698Y-59077191D01*
X135288827Y-59031674D01*
X135193320Y-58895276D01*
X135193318Y-58895273D01*
X135190161Y-58890765D01*
X135029235Y-58729839D01*
X135024727Y-58726682D01*
X135024724Y-58726680D01*
X134847318Y-58602459D01*
X134847316Y-58602458D01*
X134842809Y-58599302D01*
X134837827Y-58596979D01*
X134837822Y-58596976D01*
X134641530Y-58505443D01*
X134641528Y-58505442D01*
X134636548Y-58503120D01*
X134631240Y-58501698D01*
X134631238Y-58501697D01*
X134561481Y-58483006D01*
X134416718Y-58444217D01*
X134190000Y-58424382D01*
X133963282Y-58444217D01*
X133818519Y-58483006D01*
X133748762Y-58501697D01*
X133748760Y-58501698D01*
X133743452Y-58503120D01*
X133738472Y-58505442D01*
X133738470Y-58505443D01*
X133542178Y-58596976D01*
X133542173Y-58596979D01*
X133537191Y-58599302D01*
X133532684Y-58602458D01*
X133532682Y-58602459D01*
X133355276Y-58726680D01*
X133355273Y-58726682D01*
X133350765Y-58729839D01*
X133189839Y-58890765D01*
X133186682Y-58895273D01*
X133186680Y-58895276D01*
X133091173Y-59031674D01*
X133059302Y-59077191D01*
X133056979Y-59082173D01*
X133056976Y-59082178D01*
X133034195Y-59131033D01*
X132987278Y-59184318D01*
X132919000Y-59203779D01*
X132851040Y-59183237D01*
X132805805Y-59131033D01*
X132783024Y-59082178D01*
X132783021Y-59082173D01*
X132780698Y-59077191D01*
X132748827Y-59031674D01*
X132653320Y-58895276D01*
X132653318Y-58895273D01*
X132650161Y-58890765D01*
X132489235Y-58729839D01*
X132484727Y-58726682D01*
X132484724Y-58726680D01*
X132307318Y-58602459D01*
X132307316Y-58602458D01*
X132302809Y-58599302D01*
X132297827Y-58596979D01*
X132297822Y-58596976D01*
X132101530Y-58505443D01*
X132101528Y-58505442D01*
X132096548Y-58503120D01*
X132091240Y-58501698D01*
X132091238Y-58501697D01*
X132021481Y-58483006D01*
X131876718Y-58444217D01*
X131650000Y-58424382D01*
X131423282Y-58444217D01*
X131278519Y-58483006D01*
X131208762Y-58501697D01*
X131208760Y-58501698D01*
X131203452Y-58503120D01*
X131198472Y-58505442D01*
X131198470Y-58505443D01*
X131002178Y-58596976D01*
X131002173Y-58596979D01*
X130997191Y-58599302D01*
X130992684Y-58602458D01*
X130992682Y-58602459D01*
X130815276Y-58726680D01*
X130815273Y-58726682D01*
X130810765Y-58729839D01*
X130649839Y-58890765D01*
X130646682Y-58895273D01*
X130646680Y-58895276D01*
X130551173Y-59031674D01*
X130519302Y-59077191D01*
X130516979Y-59082173D01*
X130516976Y-59082178D01*
X130494195Y-59131033D01*
X130447278Y-59184318D01*
X130379000Y-59203779D01*
X130311040Y-59183237D01*
X130265805Y-59131033D01*
X130243024Y-59082178D01*
X130243021Y-59082173D01*
X130240698Y-59077191D01*
X130208827Y-59031674D01*
X130113320Y-58895276D01*
X130113318Y-58895273D01*
X130110161Y-58890765D01*
X129949235Y-58729839D01*
X129944727Y-58726682D01*
X129944724Y-58726680D01*
X129767318Y-58602459D01*
X129767316Y-58602458D01*
X129762809Y-58599302D01*
X129757827Y-58596979D01*
X129757822Y-58596976D01*
X129561530Y-58505443D01*
X129561528Y-58505442D01*
X129556548Y-58503120D01*
X129551240Y-58501698D01*
X129551238Y-58501697D01*
X129481481Y-58483006D01*
X129336718Y-58444217D01*
X129110000Y-58424382D01*
X128883282Y-58444217D01*
X128738519Y-58483006D01*
X128668762Y-58501697D01*
X128668760Y-58501698D01*
X128663452Y-58503120D01*
X128658472Y-58505442D01*
X128658470Y-58505443D01*
X128462178Y-58596976D01*
X128462173Y-58596979D01*
X128457191Y-58599302D01*
X128452684Y-58602458D01*
X128452682Y-58602459D01*
X128275276Y-58726680D01*
X128275273Y-58726682D01*
X128270765Y-58729839D01*
X128109839Y-58890765D01*
X128106682Y-58895273D01*
X128106680Y-58895276D01*
X128011173Y-59031674D01*
X127979302Y-59077191D01*
X127976979Y-59082173D01*
X127976976Y-59082178D01*
X127954195Y-59131033D01*
X127907278Y-59184318D01*
X127839000Y-59203779D01*
X127771040Y-59183237D01*
X127725805Y-59131033D01*
X127703024Y-59082178D01*
X127703021Y-59082173D01*
X127700698Y-59077191D01*
X127668827Y-59031674D01*
X127573320Y-58895276D01*
X127573318Y-58895273D01*
X127570161Y-58890765D01*
X127409235Y-58729839D01*
X127404727Y-58726682D01*
X127404724Y-58726680D01*
X127227318Y-58602459D01*
X127227316Y-58602458D01*
X127222809Y-58599302D01*
X127217827Y-58596979D01*
X127217822Y-58596976D01*
X127021530Y-58505443D01*
X127021528Y-58505442D01*
X127016548Y-58503120D01*
X127011240Y-58501698D01*
X127011238Y-58501697D01*
X126941481Y-58483006D01*
X126796718Y-58444217D01*
X126570000Y-58424382D01*
X126343282Y-58444217D01*
X126198519Y-58483006D01*
X126128762Y-58501697D01*
X126128760Y-58501698D01*
X126123452Y-58503120D01*
X126118472Y-58505442D01*
X126118470Y-58505443D01*
X125922178Y-58596976D01*
X125922173Y-58596979D01*
X125917191Y-58599302D01*
X125912684Y-58602458D01*
X125912682Y-58602459D01*
X125735276Y-58726680D01*
X125735273Y-58726682D01*
X125730765Y-58729839D01*
X125569839Y-58890765D01*
X125566682Y-58895273D01*
X125566680Y-58895276D01*
X125471173Y-59031674D01*
X125439302Y-59077191D01*
X125436979Y-59082173D01*
X125436976Y-59082178D01*
X125414195Y-59131033D01*
X125367278Y-59184318D01*
X125299000Y-59203779D01*
X125231040Y-59183237D01*
X125185805Y-59131033D01*
X125163024Y-59082178D01*
X125163021Y-59082173D01*
X125160698Y-59077191D01*
X125128827Y-59031674D01*
X125033320Y-58895276D01*
X125033318Y-58895273D01*
X125030161Y-58890765D01*
X124869235Y-58729839D01*
X124864727Y-58726682D01*
X124864724Y-58726680D01*
X124687318Y-58602459D01*
X124687316Y-58602458D01*
X124682809Y-58599302D01*
X124677827Y-58596979D01*
X124677822Y-58596976D01*
X124481530Y-58505443D01*
X124481528Y-58505442D01*
X124476548Y-58503120D01*
X124471240Y-58501698D01*
X124471238Y-58501697D01*
X124401481Y-58483006D01*
X124256718Y-58444217D01*
X124030000Y-58424382D01*
X123803282Y-58444217D01*
X123658519Y-58483006D01*
X123588762Y-58501697D01*
X123588760Y-58501698D01*
X123583452Y-58503120D01*
X123578472Y-58505442D01*
X123578470Y-58505443D01*
X123382178Y-58596976D01*
X123382173Y-58596979D01*
X123377191Y-58599302D01*
X123372684Y-58602458D01*
X123372682Y-58602459D01*
X123195276Y-58726680D01*
X123195273Y-58726682D01*
X123190765Y-58729839D01*
X123029839Y-58890765D01*
X123026682Y-58895273D01*
X123026680Y-58895276D01*
X122931173Y-59031674D01*
X122899302Y-59077191D01*
X122896979Y-59082173D01*
X122896976Y-59082178D01*
X122874195Y-59131033D01*
X122827278Y-59184318D01*
X122759000Y-59203779D01*
X122691040Y-59183237D01*
X122645805Y-59131033D01*
X122623024Y-59082178D01*
X122623021Y-59082173D01*
X122620698Y-59077191D01*
X122588827Y-59031674D01*
X122493320Y-58895276D01*
X122493318Y-58895273D01*
X122490161Y-58890765D01*
X122329235Y-58729839D01*
X122324727Y-58726682D01*
X122324724Y-58726680D01*
X122147318Y-58602459D01*
X122147316Y-58602458D01*
X122142809Y-58599302D01*
X122137827Y-58596979D01*
X122137822Y-58596976D01*
X121941530Y-58505443D01*
X121941528Y-58505442D01*
X121936548Y-58503120D01*
X121931240Y-58501698D01*
X121931238Y-58501697D01*
X121861481Y-58483006D01*
X121716718Y-58444217D01*
X121490000Y-58424382D01*
X121263282Y-58444217D01*
X121118519Y-58483006D01*
X121048762Y-58501697D01*
X121048760Y-58501698D01*
X121043452Y-58503120D01*
X121038472Y-58505442D01*
X121038470Y-58505443D01*
X120842178Y-58596976D01*
X120842173Y-58596979D01*
X120837191Y-58599302D01*
X120832684Y-58602458D01*
X120832682Y-58602459D01*
X120655276Y-58726680D01*
X120655273Y-58726682D01*
X120650765Y-58729839D01*
X120489839Y-58890765D01*
X120486682Y-58895273D01*
X120486680Y-58895276D01*
X120391173Y-59031674D01*
X120359302Y-59077191D01*
X120356979Y-59082173D01*
X120356976Y-59082178D01*
X120334195Y-59131033D01*
X120287278Y-59184318D01*
X120219000Y-59203779D01*
X120151040Y-59183237D01*
X120105805Y-59131033D01*
X120083024Y-59082178D01*
X120083021Y-59082173D01*
X120080698Y-59077191D01*
X120048827Y-59031674D01*
X119953320Y-58895276D01*
X119953318Y-58895273D01*
X119950161Y-58890765D01*
X119789235Y-58729839D01*
X119784727Y-58726682D01*
X119784724Y-58726680D01*
X119607318Y-58602459D01*
X119607316Y-58602458D01*
X119602809Y-58599302D01*
X119597827Y-58596979D01*
X119597822Y-58596976D01*
X119401530Y-58505443D01*
X119401528Y-58505442D01*
X119396548Y-58503120D01*
X119391240Y-58501698D01*
X119391238Y-58501697D01*
X119321481Y-58483006D01*
X119176718Y-58444217D01*
X118950000Y-58424382D01*
X118723282Y-58444217D01*
X118578519Y-58483006D01*
X118508762Y-58501697D01*
X118508760Y-58501698D01*
X118503452Y-58503120D01*
X118498472Y-58505442D01*
X118498470Y-58505443D01*
X118302178Y-58596976D01*
X118302173Y-58596979D01*
X118297191Y-58599302D01*
X118292684Y-58602458D01*
X118292682Y-58602459D01*
X118115276Y-58726680D01*
X118115273Y-58726682D01*
X118110765Y-58729839D01*
X117949839Y-58890765D01*
X117946682Y-58895273D01*
X117946680Y-58895276D01*
X117851173Y-59031674D01*
X117819302Y-59077191D01*
X117816977Y-59082178D01*
X117816973Y-59082184D01*
X117808999Y-59099284D01*
X117762081Y-59152569D01*
X117693804Y-59172029D01*
X117625844Y-59151486D01*
X117580611Y-59099284D01*
X117545420Y-59023817D01*
X117543024Y-59018678D01*
X117543021Y-59018673D01*
X117540698Y-59013691D01*
X117457783Y-58895276D01*
X117413320Y-58831776D01*
X117413318Y-58831773D01*
X117410161Y-58827265D01*
X117249235Y-58666339D01*
X117244727Y-58663182D01*
X117244724Y-58663180D01*
X117067318Y-58538959D01*
X117067316Y-58538958D01*
X117062809Y-58535802D01*
X117057827Y-58533479D01*
X117057822Y-58533476D01*
X116861530Y-58441943D01*
X116861528Y-58441942D01*
X116856548Y-58439620D01*
X116851240Y-58438198D01*
X116851238Y-58438197D01*
X116736226Y-58407380D01*
X116636718Y-58380717D01*
X116410000Y-58360882D01*
X116183282Y-58380717D01*
X116083774Y-58407380D01*
X115968762Y-58438197D01*
X115968760Y-58438198D01*
X115963452Y-58439620D01*
X115958472Y-58441942D01*
X115958470Y-58441943D01*
X115762178Y-58533476D01*
X115762173Y-58533479D01*
X115757191Y-58535802D01*
X115752684Y-58538958D01*
X115752682Y-58538959D01*
X115575276Y-58663180D01*
X115575273Y-58663182D01*
X115570765Y-58666339D01*
X115409839Y-58827265D01*
X115406682Y-58831773D01*
X115406680Y-58831776D01*
X115362217Y-58895276D01*
X115279302Y-59013691D01*
X115276979Y-59018673D01*
X115276976Y-59018678D01*
X115274580Y-59023817D01*
X115239389Y-59099284D01*
X115192473Y-59152568D01*
X115124196Y-59172029D01*
X115056236Y-59151487D01*
X115011001Y-59099284D01*
X115003027Y-59082184D01*
X115003023Y-59082178D01*
X115000698Y-59077191D01*
X114968827Y-59031674D01*
X114873320Y-58895276D01*
X114873318Y-58895273D01*
X114870161Y-58890765D01*
X114709235Y-58729839D01*
X114704727Y-58726682D01*
X114704724Y-58726680D01*
X114527318Y-58602459D01*
X114527316Y-58602458D01*
X114522809Y-58599302D01*
X114517827Y-58596979D01*
X114517822Y-58596976D01*
X114321530Y-58505443D01*
X114321528Y-58505442D01*
X114316548Y-58503120D01*
X114311240Y-58501698D01*
X114311238Y-58501697D01*
X114241481Y-58483006D01*
X114096718Y-58444217D01*
X113870000Y-58424382D01*
X113643282Y-58444217D01*
X113498519Y-58483006D01*
X113428762Y-58501697D01*
X113428760Y-58501698D01*
X113423452Y-58503120D01*
X113418472Y-58505442D01*
X113418470Y-58505443D01*
X113222178Y-58596976D01*
X113222173Y-58596979D01*
X113217191Y-58599302D01*
X113212684Y-58602458D01*
X113212682Y-58602459D01*
X113035276Y-58726680D01*
X113035273Y-58726682D01*
X113030765Y-58729839D01*
X112869839Y-58890765D01*
X112866682Y-58895273D01*
X112866680Y-58895276D01*
X112771173Y-59031674D01*
X112739302Y-59077191D01*
X112736979Y-59082173D01*
X112736976Y-59082178D01*
X112689851Y-59183237D01*
X112643120Y-59283452D01*
X112584217Y-59503282D01*
X112564382Y-59730000D01*
X112584217Y-59956718D01*
X112643120Y-60176548D01*
X112645442Y-60181528D01*
X112645443Y-60181530D01*
X112736976Y-60377822D01*
X112736979Y-60377827D01*
X112739302Y-60382809D01*
X112742458Y-60387316D01*
X112742459Y-60387318D01*
X112825376Y-60505735D01*
X112869839Y-60569235D01*
X113030765Y-60730161D01*
X113035273Y-60733318D01*
X113035276Y-60733320D01*
X113180502Y-60835008D01*
X113217191Y-60860698D01*
X113222173Y-60863021D01*
X113222178Y-60863024D01*
X113271033Y-60885805D01*
X113324318Y-60932722D01*
X113343779Y-61001000D01*
X113323237Y-61068960D01*
X113271033Y-61114195D01*
X113222178Y-61136976D01*
X113222173Y-61136979D01*
X113217191Y-61139302D01*
X113212684Y-61142458D01*
X113212682Y-61142459D01*
X113035276Y-61266680D01*
X113035273Y-61266682D01*
X113030765Y-61269839D01*
X112869839Y-61430765D01*
X112866682Y-61435273D01*
X112866680Y-61435276D01*
X112748507Y-61604045D01*
X112739302Y-61617191D01*
X112736979Y-61622173D01*
X112736976Y-61622178D01*
X112665467Y-61775529D01*
X112643120Y-61823452D01*
X112584217Y-62043282D01*
X112564382Y-62270000D01*
X112584217Y-62496718D01*
X112585641Y-62502031D01*
X112639841Y-62704309D01*
X112643120Y-62716548D01*
X112645442Y-62721528D01*
X112645443Y-62721530D01*
X112736976Y-62917822D01*
X112736979Y-62917827D01*
X112739302Y-62922809D01*
X112742458Y-62927316D01*
X112742459Y-62927318D01*
X112839035Y-63065242D01*
X112869839Y-63109235D01*
X113030765Y-63270161D01*
X113035273Y-63273318D01*
X113035276Y-63273320D01*
X113210737Y-63396179D01*
X113217191Y-63400698D01*
X113222173Y-63403021D01*
X113222178Y-63403024D01*
X113418470Y-63494557D01*
X113423452Y-63496880D01*
X113428760Y-63498302D01*
X113428762Y-63498303D01*
X113498519Y-63516994D01*
X113643282Y-63555783D01*
X113870000Y-63575618D01*
X114096718Y-63555783D01*
X114102031Y-63554359D01*
X114102039Y-63554358D01*
X114136003Y-63545257D01*
X114206979Y-63546946D01*
X114257710Y-63577868D01*
X120932626Y-70252784D01*
X120940476Y-70261411D01*
X120944681Y-70268036D01*
X120950458Y-70273461D01*
X120995713Y-70315958D01*
X120998555Y-70318713D01*
X121018864Y-70339022D01*
X121021990Y-70341447D01*
X121022004Y-70341459D01*
X121022280Y-70341673D01*
X121031304Y-70349380D01*
X121064518Y-70380570D01*
X121071462Y-70384387D01*
X121071464Y-70384389D01*
X121082985Y-70390723D01*
X121099509Y-70401577D01*
X121116160Y-70414493D01*
X121143705Y-70426413D01*
X121157986Y-70432593D01*
X121168644Y-70437814D01*
X121208576Y-70459767D01*
X121216249Y-70461737D01*
X121216251Y-70461738D01*
X121228987Y-70465008D01*
X121247688Y-70471411D01*
X121259755Y-70476633D01*
X121259761Y-70476635D01*
X121267032Y-70479781D01*
X121274859Y-70481021D01*
X121274860Y-70481021D01*
X121312036Y-70486909D01*
X121323661Y-70489317D01*
X121360119Y-70498678D01*
X121360128Y-70498679D01*
X121367804Y-70500650D01*
X121388879Y-70500650D01*
X121408589Y-70502201D01*
X121429400Y-70505497D01*
X121437292Y-70504751D01*
X121474764Y-70501209D01*
X121486621Y-70500650D01*
X125316748Y-70500650D01*
X125384869Y-70520652D01*
X125390809Y-70524714D01*
X125475097Y-70585953D01*
X125481125Y-70588637D01*
X125481127Y-70588638D01*
X125627850Y-70653963D01*
X125637396Y-70658213D01*
X125724283Y-70676681D01*
X125804714Y-70693778D01*
X125804718Y-70693778D01*
X125811171Y-70695150D01*
X125988829Y-70695150D01*
X125995282Y-70693778D01*
X125995286Y-70693778D01*
X126075717Y-70676681D01*
X126162604Y-70658213D01*
X126172150Y-70653963D01*
X126318873Y-70588638D01*
X126318875Y-70588637D01*
X126324903Y-70585953D01*
X126409191Y-70524714D01*
X126476059Y-70500856D01*
X126483252Y-70500650D01*
X128831324Y-70500650D01*
X128882573Y-70511543D01*
X128936182Y-70535411D01*
X128987396Y-70558213D01*
X129065027Y-70574714D01*
X129154714Y-70593778D01*
X129154718Y-70593778D01*
X129161171Y-70595150D01*
X129338829Y-70595150D01*
X129345282Y-70593778D01*
X129345286Y-70593778D01*
X129434973Y-70574714D01*
X129512604Y-70558213D01*
X129563819Y-70535411D01*
X129617427Y-70511543D01*
X129668676Y-70500650D01*
X145149740Y-70500650D01*
X145217861Y-70520652D01*
X145229749Y-70529729D01*
X145231369Y-70531528D01*
X145236711Y-70535409D01*
X145236713Y-70535411D01*
X145369755Y-70632072D01*
X145375097Y-70635953D01*
X145381125Y-70638637D01*
X145381127Y-70638638D01*
X145504974Y-70693778D01*
X145537396Y-70708213D01*
X145624284Y-70726682D01*
X145704714Y-70743778D01*
X145704718Y-70743778D01*
X145711171Y-70745150D01*
X145888829Y-70745150D01*
X145895282Y-70743778D01*
X145895286Y-70743778D01*
X145975716Y-70726682D01*
X146062604Y-70708213D01*
X146095026Y-70693778D01*
X146218873Y-70638638D01*
X146218875Y-70638637D01*
X146224903Y-70635953D01*
X146230245Y-70632072D01*
X146363287Y-70535411D01*
X146363289Y-70535409D01*
X146368631Y-70531528D01*
X146368738Y-70531675D01*
X146429959Y-70502296D01*
X146450260Y-70500650D01*
X150849740Y-70500650D01*
X150917861Y-70520652D01*
X150929749Y-70529729D01*
X150931369Y-70531528D01*
X150936711Y-70535409D01*
X150936713Y-70535411D01*
X151069755Y-70632072D01*
X151075097Y-70635953D01*
X151081125Y-70638637D01*
X151081127Y-70638638D01*
X151204974Y-70693778D01*
X151237396Y-70708213D01*
X151324284Y-70726682D01*
X151404714Y-70743778D01*
X151404718Y-70743778D01*
X151411171Y-70745150D01*
X151588829Y-70745150D01*
X151595282Y-70743778D01*
X151595286Y-70743778D01*
X151675716Y-70726682D01*
X151762604Y-70708213D01*
X151795026Y-70693778D01*
X151918873Y-70638638D01*
X151918875Y-70638637D01*
X151924903Y-70635953D01*
X152009191Y-70574714D01*
X152076059Y-70550856D01*
X152083252Y-70550650D01*
X156378302Y-70550650D01*
X156446423Y-70570652D01*
X156467397Y-70587555D01*
X159807524Y-73927682D01*
X159841550Y-73989994D01*
X159836485Y-74060809D01*
X159820363Y-74090841D01*
X159816916Y-74095584D01*
X159812493Y-74100497D01*
X159809192Y-74106215D01*
X159809189Y-74106219D01*
X159789287Y-74140691D01*
X159723665Y-74254353D01*
X159668765Y-74423316D01*
X159650195Y-74600000D01*
X159668765Y-74776684D01*
X159723665Y-74945647D01*
X159812493Y-75099503D01*
X159816911Y-75104410D01*
X159816912Y-75104411D01*
X159816986Y-75104493D01*
X159817014Y-75104551D01*
X159820792Y-75109751D01*
X159819841Y-75110442D01*
X159847704Y-75168500D01*
X159849350Y-75188803D01*
X159849350Y-80411197D01*
X159829348Y-80479318D01*
X159816986Y-80495507D01*
X159812493Y-80500497D01*
X159723665Y-80654353D01*
X159668765Y-80823316D01*
X159668075Y-80829882D01*
X159668074Y-80829886D01*
X159651671Y-80985953D01*
X159650195Y-81000000D01*
X159650885Y-81006565D01*
X159667437Y-81164047D01*
X159668765Y-81176684D01*
X159723665Y-81345647D01*
X159726968Y-81351368D01*
X159809190Y-81493783D01*
X159809193Y-81493787D01*
X159812493Y-81499503D01*
X159931369Y-81631528D01*
X159936708Y-81635407D01*
X160057704Y-81723316D01*
X160075097Y-81735953D01*
X160081125Y-81738637D01*
X160081127Y-81738638D01*
X160231365Y-81805528D01*
X160237396Y-81808213D01*
X160299361Y-81821384D01*
X160404714Y-81843778D01*
X160404718Y-81843778D01*
X160411171Y-81845150D01*
X160588829Y-81845150D01*
X160595282Y-81843778D01*
X160595286Y-81843778D01*
X160700639Y-81821384D01*
X160762604Y-81808213D01*
X160768635Y-81805528D01*
X160918873Y-81738638D01*
X160918875Y-81738637D01*
X160924903Y-81735953D01*
X160942297Y-81723316D01*
X161063292Y-81635407D01*
X161068631Y-81631528D01*
X161187507Y-81499503D01*
X161190807Y-81493787D01*
X161190810Y-81493783D01*
X161273032Y-81351368D01*
X161276335Y-81345647D01*
X161331235Y-81176684D01*
X161332564Y-81164047D01*
X161349115Y-81006565D01*
X161349805Y-81000000D01*
X161348329Y-80985953D01*
X161331926Y-80829886D01*
X161331925Y-80829882D01*
X161331235Y-80823316D01*
X161276335Y-80654353D01*
X161187507Y-80500497D01*
X161183014Y-80495507D01*
X161182986Y-80495449D01*
X161179208Y-80490249D01*
X161180159Y-80489558D01*
X161152296Y-80431500D01*
X161150650Y-80411197D01*
X161150650Y-75188803D01*
X161170652Y-75120682D01*
X161183014Y-75104493D01*
X161183088Y-75104411D01*
X161183089Y-75104410D01*
X161187507Y-75099503D01*
X161276335Y-74945647D01*
X161331235Y-74776684D01*
X161349805Y-74600000D01*
X161331235Y-74423316D01*
X161276335Y-74254353D01*
X161187507Y-74100497D01*
X161183014Y-74095507D01*
X161182986Y-74095449D01*
X161179208Y-74090249D01*
X161180159Y-74089558D01*
X161152296Y-74031500D01*
X161150650Y-74011197D01*
X161150650Y-73781019D01*
X161151199Y-73769380D01*
X161152911Y-73761719D01*
X161150712Y-73691750D01*
X161150650Y-73687792D01*
X161150650Y-73659068D01*
X161150110Y-73654794D01*
X161149178Y-73642958D01*
X161147996Y-73605335D01*
X161147747Y-73597408D01*
X161141865Y-73577161D01*
X161137860Y-73557822D01*
X161135217Y-73536904D01*
X161132298Y-73529532D01*
X161132297Y-73529527D01*
X161118445Y-73494540D01*
X161114601Y-73483314D01*
X161108780Y-73463280D01*
X161108981Y-73392284D01*
X161147533Y-73332667D01*
X161212197Y-73303356D01*
X161282442Y-73313659D01*
X161318871Y-73339029D01*
X164888007Y-76908165D01*
X164903124Y-76926437D01*
X164908062Y-76933703D01*
X164914010Y-76938947D01*
X164914011Y-76938948D01*
X164951413Y-76971922D01*
X164957183Y-76977341D01*
X164968864Y-76989022D01*
X164981641Y-76998933D01*
X164981926Y-76999154D01*
X164988023Y-77004198D01*
X165031374Y-77042417D01*
X165038441Y-77046018D01*
X165039208Y-77046409D01*
X165059221Y-77059110D01*
X165066160Y-77064492D01*
X165119193Y-77087441D01*
X165126335Y-77090802D01*
X165177848Y-77117050D01*
X165185582Y-77118779D01*
X165185585Y-77118780D01*
X165186427Y-77118968D01*
X165208978Y-77126295D01*
X165217032Y-77129780D01*
X165274099Y-77138819D01*
X165281851Y-77140298D01*
X165338282Y-77152911D01*
X165347064Y-77152635D01*
X165370731Y-77154124D01*
X165379400Y-77155497D01*
X165387292Y-77154751D01*
X165387293Y-77154751D01*
X165436920Y-77150060D01*
X165444818Y-77149563D01*
X165485112Y-77148296D01*
X165502593Y-77147747D01*
X165511024Y-77145298D01*
X165534328Y-77140852D01*
X165535172Y-77140772D01*
X165543063Y-77140026D01*
X165597429Y-77120453D01*
X165604958Y-77118007D01*
X165614093Y-77115353D01*
X165633713Y-77109653D01*
X165668865Y-77104650D01*
X166674293Y-77104650D01*
X166742414Y-77124652D01*
X166777190Y-77157930D01*
X166815626Y-77212316D01*
X166968686Y-77361420D01*
X167146355Y-77480134D01*
X167151658Y-77482412D01*
X167151661Y-77482414D01*
X167263566Y-77530492D01*
X167342682Y-77564483D01*
X167406808Y-77578993D01*
X167422115Y-77582457D01*
X167484142Y-77617000D01*
X167517646Y-77679593D01*
X167511992Y-77750365D01*
X167468973Y-77806844D01*
X167402248Y-77831099D01*
X167394307Y-77831350D01*
X166846470Y-77831350D01*
X166752649Y-77846210D01*
X166743815Y-77850711D01*
X166743812Y-77850712D01*
X166697519Y-77874300D01*
X166639568Y-77903827D01*
X166549827Y-77993568D01*
X166520300Y-78051519D01*
X166496712Y-78097812D01*
X166496711Y-78097815D01*
X166492210Y-78106649D01*
X166477350Y-78200470D01*
X166477350Y-79787530D01*
X166492210Y-79881351D01*
X166496711Y-79890185D01*
X166496712Y-79890188D01*
X166503930Y-79904353D01*
X166549827Y-79994432D01*
X166639568Y-80084173D01*
X166697519Y-80113700D01*
X166743812Y-80137288D01*
X166743815Y-80137289D01*
X166752649Y-80141790D01*
X166846470Y-80156650D01*
X168433530Y-80156650D01*
X168527351Y-80141790D01*
X168536185Y-80137289D01*
X168536188Y-80137288D01*
X168582481Y-80113700D01*
X168640432Y-80084173D01*
X168730173Y-79994432D01*
X168776070Y-79904353D01*
X168783288Y-79890188D01*
X168783289Y-79890185D01*
X168787790Y-79881351D01*
X168802650Y-79787530D01*
X168802650Y-79469698D01*
X168822652Y-79401577D01*
X168839555Y-79380603D01*
X169884755Y-78335403D01*
X169947067Y-78301377D01*
X170017882Y-78306442D01*
X170074718Y-78348989D01*
X170099529Y-78415509D01*
X170099850Y-78424498D01*
X170099850Y-110867269D01*
X170098299Y-110886979D01*
X170094862Y-110908680D01*
X170096413Y-110918473D01*
X170096413Y-110918478D01*
X170096435Y-110918617D01*
X170097788Y-110945387D01*
X170083900Y-111192705D01*
X170082319Y-111206742D01*
X170059084Y-111343486D01*
X170035851Y-111480225D01*
X170032707Y-111494000D01*
X169955913Y-111760558D01*
X169951246Y-111773895D01*
X169845092Y-112030175D01*
X169838961Y-112042905D01*
X169704781Y-112285686D01*
X169697269Y-112297643D01*
X169536732Y-112523899D01*
X169527934Y-112534930D01*
X169362487Y-112720065D01*
X169343086Y-112741775D01*
X169333096Y-112751765D01*
X169126250Y-112936614D01*
X169115219Y-112945412D01*
X168888963Y-113105949D01*
X168877006Y-113113461D01*
X168634225Y-113247641D01*
X168621499Y-113253770D01*
X168523105Y-113294526D01*
X168365215Y-113359926D01*
X168351878Y-113364593D01*
X168085320Y-113441387D01*
X168071545Y-113444531D01*
X167934806Y-113467765D01*
X167798062Y-113490999D01*
X167784029Y-113492580D01*
X167673936Y-113498762D01*
X167536707Y-113506468D01*
X167509937Y-113505115D01*
X167509798Y-113505093D01*
X167509793Y-113505093D01*
X167500000Y-113503542D01*
X167481526Y-113506468D01*
X167478300Y-113506979D01*
X167458589Y-113508530D01*
X147726000Y-113508530D01*
X147657879Y-113488528D01*
X147611386Y-113434872D01*
X147600000Y-113382530D01*
X147600000Y-112907650D01*
X152292707Y-112907650D01*
X161907293Y-112907650D01*
X161907293Y-110545500D01*
X164594603Y-110545500D01*
X164613570Y-110846976D01*
X164670173Y-111143698D01*
X164763518Y-111430986D01*
X164892135Y-111704309D01*
X164894253Y-111707647D01*
X164894255Y-111707650D01*
X164991105Y-111860261D01*
X165053993Y-111959357D01*
X165246541Y-112192108D01*
X165466742Y-112398890D01*
X165711124Y-112576444D01*
X165975832Y-112721968D01*
X166051093Y-112751766D01*
X166253008Y-112831710D01*
X166253011Y-112831711D01*
X166256691Y-112833168D01*
X166260525Y-112834152D01*
X166260533Y-112834155D01*
X166441827Y-112880703D01*
X166549274Y-112908291D01*
X166553202Y-112908787D01*
X166553206Y-112908788D01*
X166699119Y-112927221D01*
X166848964Y-112946150D01*
X167151036Y-112946150D01*
X167300881Y-112927221D01*
X167446794Y-112908788D01*
X167446798Y-112908787D01*
X167450726Y-112908291D01*
X167558173Y-112880703D01*
X167739467Y-112834155D01*
X167739475Y-112834152D01*
X167743309Y-112833168D01*
X167746989Y-112831711D01*
X167746992Y-112831710D01*
X167948907Y-112751766D01*
X168024168Y-112721968D01*
X168288876Y-112576444D01*
X168533258Y-112398890D01*
X168753459Y-112192108D01*
X168946007Y-111959357D01*
X169008895Y-111860261D01*
X169105745Y-111707650D01*
X169105747Y-111707647D01*
X169107865Y-111704309D01*
X169236482Y-111430986D01*
X169329827Y-111143698D01*
X169386430Y-110846976D01*
X169405397Y-110545500D01*
X169386430Y-110244024D01*
X169329827Y-109947302D01*
X169236482Y-109660014D01*
X169107865Y-109386691D01*
X168946007Y-109131643D01*
X168753459Y-108898892D01*
X168533258Y-108692110D01*
X168288876Y-108514556D01*
X168281435Y-108510465D01*
X168027630Y-108370935D01*
X168027627Y-108370934D01*
X168024168Y-108369032D01*
X167863240Y-108305316D01*
X167746992Y-108259290D01*
X167746989Y-108259289D01*
X167743309Y-108257832D01*
X167739475Y-108256848D01*
X167739467Y-108256845D01*
X167496181Y-108194380D01*
X167450726Y-108182709D01*
X167446798Y-108182213D01*
X167446794Y-108182212D01*
X167300881Y-108163779D01*
X167151036Y-108144850D01*
X166848964Y-108144850D01*
X166699119Y-108163779D01*
X166553206Y-108182212D01*
X166553202Y-108182213D01*
X166549274Y-108182709D01*
X166503819Y-108194380D01*
X166260533Y-108256845D01*
X166260525Y-108256848D01*
X166256691Y-108257832D01*
X166253011Y-108259289D01*
X166253008Y-108259290D01*
X166136760Y-108305316D01*
X165975832Y-108369032D01*
X165972373Y-108370934D01*
X165972370Y-108370935D01*
X165718566Y-108510465D01*
X165711124Y-108514556D01*
X165466742Y-108692110D01*
X165246541Y-108898892D01*
X165053993Y-109131643D01*
X164892135Y-109386691D01*
X164763518Y-109660014D01*
X164670173Y-109947302D01*
X164613570Y-110244024D01*
X164594603Y-110545500D01*
X161907293Y-110545500D01*
X161907293Y-108492350D01*
X161506574Y-108492350D01*
X161438453Y-108472348D01*
X161391960Y-108418692D01*
X161381856Y-108348418D01*
X161411350Y-108283838D01*
X161473963Y-108244643D01*
X161656238Y-108195803D01*
X161656240Y-108195802D01*
X161661548Y-108194380D01*
X161684462Y-108183695D01*
X161862822Y-108100524D01*
X161862827Y-108100521D01*
X161867809Y-108098198D01*
X161872318Y-108095041D01*
X162049724Y-107970820D01*
X162049727Y-107970818D01*
X162054235Y-107967661D01*
X162215161Y-107806735D01*
X162234729Y-107778790D01*
X162342541Y-107624818D01*
X162342542Y-107624816D01*
X162345698Y-107620309D01*
X162348021Y-107615327D01*
X162348024Y-107615322D01*
X162439557Y-107419030D01*
X162439558Y-107419028D01*
X162441880Y-107414048D01*
X162500783Y-107194218D01*
X162515650Y-107024285D01*
X162515650Y-105110715D01*
X162500783Y-104940782D01*
X162441880Y-104720952D01*
X162402789Y-104637121D01*
X162348024Y-104519678D01*
X162348021Y-104519673D01*
X162345698Y-104514691D01*
X162314654Y-104470355D01*
X162218320Y-104332776D01*
X162218318Y-104332773D01*
X162215161Y-104328265D01*
X162054235Y-104167339D01*
X162049727Y-104164182D01*
X162049724Y-104164180D01*
X161872318Y-104039959D01*
X161872316Y-104039958D01*
X161867809Y-104036802D01*
X161862827Y-104034479D01*
X161862822Y-104034476D01*
X161666530Y-103942943D01*
X161666528Y-103942942D01*
X161661548Y-103940620D01*
X161656240Y-103939198D01*
X161656238Y-103939197D01*
X161586481Y-103920506D01*
X161441718Y-103881717D01*
X161215000Y-103861882D01*
X160988282Y-103881717D01*
X160843519Y-103920506D01*
X160773762Y-103939197D01*
X160773760Y-103939198D01*
X160768452Y-103940620D01*
X160763472Y-103942942D01*
X160763470Y-103942943D01*
X160567178Y-104034476D01*
X160567173Y-104034479D01*
X160562191Y-104036802D01*
X160557684Y-104039958D01*
X160557682Y-104039959D01*
X160380276Y-104164180D01*
X160380273Y-104164182D01*
X160375765Y-104167339D01*
X160214839Y-104328265D01*
X160211682Y-104332773D01*
X160211680Y-104332776D01*
X160115346Y-104470355D01*
X160084302Y-104514691D01*
X160081979Y-104519673D01*
X160081976Y-104519678D01*
X160027211Y-104637121D01*
X159988120Y-104720952D01*
X159929217Y-104940782D01*
X159914350Y-105110715D01*
X159914350Y-107024285D01*
X159929217Y-107194218D01*
X159988120Y-107414048D01*
X159990442Y-107419028D01*
X159990443Y-107419030D01*
X160081976Y-107615322D01*
X160081979Y-107615327D01*
X160084302Y-107620309D01*
X160087458Y-107624816D01*
X160087459Y-107624818D01*
X160195272Y-107778790D01*
X160214839Y-107806735D01*
X160375765Y-107967661D01*
X160380273Y-107970818D01*
X160380276Y-107970820D01*
X160557682Y-108095041D01*
X160562191Y-108098198D01*
X160567173Y-108100521D01*
X160567178Y-108100524D01*
X160745538Y-108183695D01*
X160768452Y-108194380D01*
X160773760Y-108195802D01*
X160773762Y-108195803D01*
X160956037Y-108244643D01*
X161016660Y-108281595D01*
X161047681Y-108345455D01*
X161039253Y-108415950D01*
X160994050Y-108470697D01*
X160923426Y-108492350D01*
X156426574Y-108492350D01*
X156358453Y-108472348D01*
X156311960Y-108418692D01*
X156301856Y-108348418D01*
X156331350Y-108283838D01*
X156393963Y-108244643D01*
X156576238Y-108195803D01*
X156576240Y-108195802D01*
X156581548Y-108194380D01*
X156604462Y-108183695D01*
X156782822Y-108100524D01*
X156782827Y-108100521D01*
X156787809Y-108098198D01*
X156792318Y-108095041D01*
X156969724Y-107970820D01*
X156969727Y-107970818D01*
X156974235Y-107967661D01*
X157135161Y-107806735D01*
X157154729Y-107778790D01*
X157262541Y-107624818D01*
X157262542Y-107624816D01*
X157265698Y-107620309D01*
X157268021Y-107615327D01*
X157268024Y-107615322D01*
X157359557Y-107419030D01*
X157359558Y-107419028D01*
X157361880Y-107414048D01*
X157420783Y-107194218D01*
X157435650Y-107024285D01*
X157435650Y-105110715D01*
X157420783Y-104940782D01*
X157361880Y-104720952D01*
X157322789Y-104637121D01*
X157268024Y-104519678D01*
X157268021Y-104519673D01*
X157265698Y-104514691D01*
X157234654Y-104470355D01*
X157138320Y-104332776D01*
X157138318Y-104332773D01*
X157135161Y-104328265D01*
X156974235Y-104167339D01*
X156969727Y-104164182D01*
X156969724Y-104164180D01*
X156792318Y-104039959D01*
X156792316Y-104039958D01*
X156787809Y-104036802D01*
X156782827Y-104034479D01*
X156782822Y-104034476D01*
X156586530Y-103942943D01*
X156586528Y-103942942D01*
X156581548Y-103940620D01*
X156576240Y-103939198D01*
X156576238Y-103939197D01*
X156506481Y-103920506D01*
X156361718Y-103881717D01*
X156135000Y-103861882D01*
X155908282Y-103881717D01*
X155763519Y-103920506D01*
X155693762Y-103939197D01*
X155693760Y-103939198D01*
X155688452Y-103940620D01*
X155683472Y-103942942D01*
X155683470Y-103942943D01*
X155487178Y-104034476D01*
X155487173Y-104034479D01*
X155482191Y-104036802D01*
X155477684Y-104039958D01*
X155477682Y-104039959D01*
X155300276Y-104164180D01*
X155300273Y-104164182D01*
X155295765Y-104167339D01*
X155134839Y-104328265D01*
X155131682Y-104332773D01*
X155131680Y-104332776D01*
X155035346Y-104470355D01*
X155004302Y-104514691D01*
X155001979Y-104519673D01*
X155001976Y-104519678D01*
X154947211Y-104637121D01*
X154908120Y-104720952D01*
X154849217Y-104940782D01*
X154834350Y-105110715D01*
X154834350Y-107024285D01*
X154849217Y-107194218D01*
X154908120Y-107414048D01*
X154910442Y-107419028D01*
X154910443Y-107419030D01*
X155001976Y-107615322D01*
X155001979Y-107615327D01*
X155004302Y-107620309D01*
X155007458Y-107624816D01*
X155007459Y-107624818D01*
X155115272Y-107778790D01*
X155134839Y-107806735D01*
X155295765Y-107967661D01*
X155300273Y-107970818D01*
X155300276Y-107970820D01*
X155477682Y-108095041D01*
X155482191Y-108098198D01*
X155487173Y-108100521D01*
X155487178Y-108100524D01*
X155665538Y-108183695D01*
X155688452Y-108194380D01*
X155693760Y-108195802D01*
X155693762Y-108195803D01*
X155876037Y-108244643D01*
X155936660Y-108281595D01*
X155967681Y-108345455D01*
X155959253Y-108415950D01*
X155914050Y-108470697D01*
X155843426Y-108492350D01*
X152292707Y-108492350D01*
X152292707Y-112907650D01*
X147600000Y-112907650D01*
X147600000Y-107664595D01*
X149647001Y-107664595D01*
X149647338Y-107671114D01*
X149657257Y-107766706D01*
X149660149Y-107780100D01*
X149711588Y-107934284D01*
X149717761Y-107947462D01*
X149803063Y-108085307D01*
X149812099Y-108096708D01*
X149926829Y-108211239D01*
X149938240Y-108220251D01*
X150076243Y-108305316D01*
X150089424Y-108311463D01*
X150243710Y-108362638D01*
X150257086Y-108365505D01*
X150351438Y-108375172D01*
X150357854Y-108375500D01*
X150782885Y-108375500D01*
X150798124Y-108371025D01*
X150799329Y-108369635D01*
X150801000Y-108361952D01*
X150801000Y-108357384D01*
X151309000Y-108357384D01*
X151313475Y-108372623D01*
X151314865Y-108373828D01*
X151322548Y-108375499D01*
X151752095Y-108375499D01*
X151758614Y-108375162D01*
X151854206Y-108365243D01*
X151867600Y-108362351D01*
X152021784Y-108310912D01*
X152034962Y-108304739D01*
X152172807Y-108219437D01*
X152184208Y-108210401D01*
X152298739Y-108095671D01*
X152307751Y-108084260D01*
X152392816Y-107946257D01*
X152398963Y-107933076D01*
X152450138Y-107778790D01*
X152453005Y-107765414D01*
X152462672Y-107671062D01*
X152463000Y-107664646D01*
X152463000Y-106339615D01*
X152458525Y-106324376D01*
X152457135Y-106323171D01*
X152449452Y-106321500D01*
X151327115Y-106321500D01*
X151311876Y-106325975D01*
X151310671Y-106327365D01*
X151309000Y-106335048D01*
X151309000Y-108357384D01*
X150801000Y-108357384D01*
X150801000Y-106339615D01*
X150796525Y-106324376D01*
X150795135Y-106323171D01*
X150787452Y-106321500D01*
X149665116Y-106321500D01*
X149649877Y-106325975D01*
X149648672Y-106327365D01*
X149647001Y-106335048D01*
X149647001Y-107664595D01*
X147600000Y-107664595D01*
X147600000Y-105795385D01*
X149647000Y-105795385D01*
X149651475Y-105810624D01*
X149652865Y-105811829D01*
X149660548Y-105813500D01*
X150782885Y-105813500D01*
X150798124Y-105809025D01*
X150799329Y-105807635D01*
X150801000Y-105799952D01*
X150801000Y-105795385D01*
X151309000Y-105795385D01*
X151313475Y-105810624D01*
X151314865Y-105811829D01*
X151322548Y-105813500D01*
X152444884Y-105813500D01*
X152460123Y-105809025D01*
X152461328Y-105807635D01*
X152462999Y-105799952D01*
X152462999Y-104470405D01*
X152462662Y-104463886D01*
X152452743Y-104368294D01*
X152449851Y-104354900D01*
X152398412Y-104200716D01*
X152392239Y-104187538D01*
X152306937Y-104049693D01*
X152297901Y-104038292D01*
X152183171Y-103923761D01*
X152171760Y-103914749D01*
X152033757Y-103829684D01*
X152020576Y-103823537D01*
X151866290Y-103772362D01*
X151852914Y-103769495D01*
X151758562Y-103759828D01*
X151752145Y-103759500D01*
X151327115Y-103759500D01*
X151311876Y-103763975D01*
X151310671Y-103765365D01*
X151309000Y-103773048D01*
X151309000Y-105795385D01*
X150801000Y-105795385D01*
X150801000Y-103777616D01*
X150796525Y-103762377D01*
X150795135Y-103761172D01*
X150787452Y-103759501D01*
X150357905Y-103759501D01*
X150351386Y-103759838D01*
X150255794Y-103769757D01*
X150242400Y-103772649D01*
X150088216Y-103824088D01*
X150075038Y-103830261D01*
X149937193Y-103915563D01*
X149925792Y-103924599D01*
X149811261Y-104039329D01*
X149802249Y-104050740D01*
X149717184Y-104188743D01*
X149711037Y-104201924D01*
X149659862Y-104356210D01*
X149656995Y-104369586D01*
X149647328Y-104463938D01*
X149647000Y-104470355D01*
X149647000Y-105795385D01*
X147600000Y-105795385D01*
X147600000Y-103617963D01*
X165110757Y-103617963D01*
X165127175Y-103813483D01*
X165181258Y-104002091D01*
X165184076Y-104007574D01*
X165268123Y-104171113D01*
X165268126Y-104171117D01*
X165270944Y-104176601D01*
X165392818Y-104330369D01*
X165397511Y-104334363D01*
X165397512Y-104334364D01*
X165472488Y-104398173D01*
X165542238Y-104457535D01*
X165547616Y-104460541D01*
X165547618Y-104460542D01*
X165583932Y-104480837D01*
X165713513Y-104553257D01*
X165900118Y-104613889D01*
X166094946Y-104637121D01*
X166101081Y-104636649D01*
X166101083Y-104636649D01*
X166284434Y-104622541D01*
X166284438Y-104622540D01*
X166290576Y-104622068D01*
X166479556Y-104569303D01*
X166654689Y-104480837D01*
X166668042Y-104470405D01*
X166762150Y-104396880D01*
X166809303Y-104360040D01*
X166836731Y-104328265D01*
X166933485Y-104216173D01*
X166933485Y-104216172D01*
X166937509Y-104211511D01*
X166943642Y-104200716D01*
X167031378Y-104046272D01*
X167034425Y-104040909D01*
X167096358Y-103854732D01*
X167120949Y-103660071D01*
X167121341Y-103632000D01*
X167102194Y-103436728D01*
X167100413Y-103430829D01*
X167100412Y-103430824D01*
X167047265Y-103254793D01*
X167045484Y-103248894D01*
X166953370Y-103075653D01*
X166829361Y-102923602D01*
X166678180Y-102798535D01*
X166505585Y-102705213D01*
X166411869Y-102676203D01*
X166324039Y-102649015D01*
X166324036Y-102649014D01*
X166318152Y-102647193D01*
X166312027Y-102646549D01*
X166312026Y-102646549D01*
X166129147Y-102627327D01*
X166129146Y-102627327D01*
X166123019Y-102626683D01*
X166000383Y-102637844D01*
X165933759Y-102643907D01*
X165933758Y-102643907D01*
X165927618Y-102644466D01*
X165921704Y-102646207D01*
X165921702Y-102646207D01*
X165792734Y-102684165D01*
X165739393Y-102699864D01*
X165733928Y-102702721D01*
X165570972Y-102787912D01*
X165570968Y-102787915D01*
X165565512Y-102790767D01*
X165560712Y-102794627D01*
X165560711Y-102794627D01*
X165526326Y-102822273D01*
X165412600Y-102913711D01*
X165286480Y-103064016D01*
X165283516Y-103069408D01*
X165283513Y-103069412D01*
X165204813Y-103212567D01*
X165191956Y-103235954D01*
X165132628Y-103422978D01*
X165110757Y-103617963D01*
X147600000Y-103617963D01*
X147600000Y-101022095D01*
X160459501Y-101022095D01*
X160459838Y-101028614D01*
X160469757Y-101124206D01*
X160472649Y-101137600D01*
X160524088Y-101291784D01*
X160530261Y-101304962D01*
X160615563Y-101442807D01*
X160624599Y-101454208D01*
X160739329Y-101568739D01*
X160750740Y-101577751D01*
X160888743Y-101662816D01*
X160901924Y-101668963D01*
X161056210Y-101720138D01*
X161069586Y-101723005D01*
X161163938Y-101732672D01*
X161170354Y-101733000D01*
X162495385Y-101733000D01*
X162510624Y-101728525D01*
X162511829Y-101727135D01*
X162513500Y-101719452D01*
X162513500Y-101714884D01*
X163021500Y-101714884D01*
X163025975Y-101730123D01*
X163027365Y-101731328D01*
X163035048Y-101732999D01*
X164364595Y-101732999D01*
X164371114Y-101732662D01*
X164466706Y-101722743D01*
X164480100Y-101719851D01*
X164634284Y-101668412D01*
X164647462Y-101662239D01*
X164785307Y-101576937D01*
X164796708Y-101567901D01*
X164911239Y-101453171D01*
X164920251Y-101441760D01*
X165005316Y-101303757D01*
X165011463Y-101290576D01*
X165062638Y-101136290D01*
X165065505Y-101122914D01*
X165075172Y-101028562D01*
X165075500Y-101022146D01*
X165075500Y-100597115D01*
X165071025Y-100581876D01*
X165069635Y-100580671D01*
X165061952Y-100579000D01*
X163039615Y-100579000D01*
X163024376Y-100583475D01*
X163023171Y-100584865D01*
X163021500Y-100592548D01*
X163021500Y-101714884D01*
X162513500Y-101714884D01*
X162513500Y-100597115D01*
X162509025Y-100581876D01*
X162507635Y-100580671D01*
X162499952Y-100579000D01*
X160477616Y-100579000D01*
X160462377Y-100583475D01*
X160461172Y-100584865D01*
X160459501Y-100592548D01*
X160459501Y-101022095D01*
X147600000Y-101022095D01*
X147600000Y-100052885D01*
X160459500Y-100052885D01*
X160463975Y-100068124D01*
X160465365Y-100069329D01*
X160473048Y-100071000D01*
X162495385Y-100071000D01*
X162510624Y-100066525D01*
X162511829Y-100065135D01*
X162513500Y-100057452D01*
X162513500Y-100052885D01*
X163021500Y-100052885D01*
X163025975Y-100068124D01*
X163027365Y-100069329D01*
X163035048Y-100071000D01*
X165057384Y-100071000D01*
X165072623Y-100066525D01*
X165073828Y-100065135D01*
X165075499Y-100057452D01*
X165075499Y-99627905D01*
X165075162Y-99621386D01*
X165065243Y-99525794D01*
X165062351Y-99512400D01*
X165010912Y-99358216D01*
X165004739Y-99345038D01*
X164919437Y-99207193D01*
X164910401Y-99195792D01*
X164795671Y-99081261D01*
X164784260Y-99072249D01*
X164646257Y-98987184D01*
X164633076Y-98981037D01*
X164478790Y-98929862D01*
X164465414Y-98926995D01*
X164371062Y-98917328D01*
X164364645Y-98917000D01*
X163039615Y-98917000D01*
X163024376Y-98921475D01*
X163023171Y-98922865D01*
X163021500Y-98930548D01*
X163021500Y-100052885D01*
X162513500Y-100052885D01*
X162513500Y-98935116D01*
X162509025Y-98919877D01*
X162507635Y-98918672D01*
X162499952Y-98917001D01*
X161170405Y-98917001D01*
X161163886Y-98917338D01*
X161068294Y-98927257D01*
X161054900Y-98930149D01*
X160900716Y-98981588D01*
X160887538Y-98987761D01*
X160749693Y-99073063D01*
X160738292Y-99082099D01*
X160623761Y-99196829D01*
X160614749Y-99208240D01*
X160529684Y-99346243D01*
X160523537Y-99359424D01*
X160472362Y-99513710D01*
X160469495Y-99527086D01*
X160459828Y-99621438D01*
X160459500Y-99627855D01*
X160459500Y-100052885D01*
X147600000Y-100052885D01*
X147600000Y-95245000D01*
X160561882Y-95245000D01*
X160581717Y-95471718D01*
X160640620Y-95691548D01*
X160642942Y-95696528D01*
X160642943Y-95696530D01*
X160734476Y-95892822D01*
X160734479Y-95892827D01*
X160736802Y-95897809D01*
X160739958Y-95902316D01*
X160739959Y-95902318D01*
X160814108Y-96008213D01*
X160867339Y-96084235D01*
X161028265Y-96245161D01*
X161032773Y-96248318D01*
X161032776Y-96248320D01*
X161210182Y-96372541D01*
X161214691Y-96375698D01*
X161219673Y-96378021D01*
X161219678Y-96378024D01*
X161415970Y-96469557D01*
X161420952Y-96471880D01*
X161426260Y-96473302D01*
X161426262Y-96473303D01*
X161496019Y-96491994D01*
X161640782Y-96530783D01*
X161729825Y-96538573D01*
X161807990Y-96545412D01*
X161807999Y-96545412D01*
X161810715Y-96545650D01*
X163724285Y-96545650D01*
X163727001Y-96545412D01*
X163727010Y-96545412D01*
X163805175Y-96538573D01*
X163894218Y-96530783D01*
X164038981Y-96491994D01*
X164108738Y-96473303D01*
X164108740Y-96473302D01*
X164114048Y-96471880D01*
X164119030Y-96469557D01*
X164315322Y-96378024D01*
X164315327Y-96378021D01*
X164320309Y-96375698D01*
X164324818Y-96372541D01*
X164502224Y-96248320D01*
X164502227Y-96248318D01*
X164506735Y-96245161D01*
X164667661Y-96084235D01*
X164720893Y-96008213D01*
X164795041Y-95902318D01*
X164795042Y-95902316D01*
X164798198Y-95897809D01*
X164800521Y-95892827D01*
X164800524Y-95892822D01*
X164892057Y-95696530D01*
X164892058Y-95696528D01*
X164894380Y-95691548D01*
X164953283Y-95471718D01*
X164973118Y-95245000D01*
X164953283Y-95018282D01*
X164894380Y-94798452D01*
X164892057Y-94793470D01*
X164800524Y-94597178D01*
X164800521Y-94597173D01*
X164798198Y-94592191D01*
X164781590Y-94568472D01*
X164670820Y-94410276D01*
X164670818Y-94410273D01*
X164667661Y-94405765D01*
X164506735Y-94244839D01*
X164502227Y-94241682D01*
X164502224Y-94241680D01*
X164324818Y-94117459D01*
X164324816Y-94117458D01*
X164320309Y-94114302D01*
X164315327Y-94111979D01*
X164315322Y-94111976D01*
X164119030Y-94020443D01*
X164119028Y-94020442D01*
X164114048Y-94018120D01*
X164108740Y-94016698D01*
X164108738Y-94016697D01*
X164038981Y-93998006D01*
X163894218Y-93959217D01*
X163805175Y-93951427D01*
X163727010Y-93944588D01*
X163727001Y-93944588D01*
X163724285Y-93944350D01*
X161810715Y-93944350D01*
X161807999Y-93944588D01*
X161807990Y-93944588D01*
X161729825Y-93951427D01*
X161640782Y-93959217D01*
X161496019Y-93998006D01*
X161426262Y-94016697D01*
X161426260Y-94016698D01*
X161420952Y-94018120D01*
X161415972Y-94020442D01*
X161415970Y-94020443D01*
X161219678Y-94111976D01*
X161219673Y-94111979D01*
X161214691Y-94114302D01*
X161210184Y-94117458D01*
X161210182Y-94117459D01*
X161032776Y-94241680D01*
X161032773Y-94241682D01*
X161028265Y-94244839D01*
X160867339Y-94405765D01*
X160864182Y-94410273D01*
X160864180Y-94410276D01*
X160753410Y-94568472D01*
X160736802Y-94592191D01*
X160734479Y-94597173D01*
X160734476Y-94597178D01*
X160642943Y-94793470D01*
X160640620Y-94798452D01*
X160581717Y-95018282D01*
X160561882Y-95245000D01*
X147600000Y-95245000D01*
X147600000Y-92876000D01*
X147620002Y-92807879D01*
X147673658Y-92761386D01*
X147726000Y-92750000D01*
X151250000Y-92750000D01*
X151249443Y-92600000D01*
X156850195Y-92600000D01*
X156868765Y-92776684D01*
X156923665Y-92945647D01*
X156926968Y-92951368D01*
X157009190Y-93093783D01*
X157009193Y-93093787D01*
X157012493Y-93099503D01*
X157131369Y-93231528D01*
X157275097Y-93335953D01*
X157281125Y-93338637D01*
X157281127Y-93338638D01*
X157431365Y-93405528D01*
X157437396Y-93408213D01*
X157524283Y-93426681D01*
X157604714Y-93443778D01*
X157604718Y-93443778D01*
X157611171Y-93445150D01*
X157788829Y-93445150D01*
X157795282Y-93443778D01*
X157795286Y-93443778D01*
X157875717Y-93426681D01*
X157962604Y-93408213D01*
X157968635Y-93405528D01*
X158118873Y-93338638D01*
X158118875Y-93338637D01*
X158124903Y-93335953D01*
X158268631Y-93231528D01*
X158387507Y-93099503D01*
X158390807Y-93093787D01*
X158390810Y-93093783D01*
X158473032Y-92951368D01*
X158476335Y-92945647D01*
X158531235Y-92776684D01*
X158549805Y-92600000D01*
X158531235Y-92423316D01*
X158476335Y-92254353D01*
X158387507Y-92100497D01*
X158383014Y-92095507D01*
X158382986Y-92095449D01*
X158379208Y-92090249D01*
X158380159Y-92089558D01*
X158352296Y-92031500D01*
X158350650Y-92011197D01*
X158350650Y-90165000D01*
X160561882Y-90165000D01*
X160581717Y-90391718D01*
X160640620Y-90611548D01*
X160642942Y-90616528D01*
X160642943Y-90616530D01*
X160734476Y-90812822D01*
X160734479Y-90812827D01*
X160736802Y-90817809D01*
X160867339Y-91004235D01*
X161028265Y-91165161D01*
X161032773Y-91168318D01*
X161032776Y-91168320D01*
X161210182Y-91292541D01*
X161214691Y-91295698D01*
X161219673Y-91298021D01*
X161219678Y-91298024D01*
X161415970Y-91389557D01*
X161420952Y-91391880D01*
X161426260Y-91393302D01*
X161426262Y-91393303D01*
X161496019Y-91411994D01*
X161640782Y-91450783D01*
X161729825Y-91458573D01*
X161807990Y-91465412D01*
X161807999Y-91465412D01*
X161810715Y-91465650D01*
X163724285Y-91465650D01*
X163727001Y-91465412D01*
X163727010Y-91465412D01*
X163805175Y-91458573D01*
X163894218Y-91450783D01*
X164038981Y-91411994D01*
X164108738Y-91393303D01*
X164108740Y-91393302D01*
X164114048Y-91391880D01*
X164119030Y-91389557D01*
X164315322Y-91298024D01*
X164315327Y-91298021D01*
X164320309Y-91295698D01*
X164324818Y-91292541D01*
X164502224Y-91168320D01*
X164502227Y-91168318D01*
X164506735Y-91165161D01*
X164667661Y-91004235D01*
X164798198Y-90817809D01*
X164800521Y-90812827D01*
X164800524Y-90812822D01*
X164892057Y-90616530D01*
X164892058Y-90616528D01*
X164894380Y-90611548D01*
X164953283Y-90391718D01*
X164973118Y-90165000D01*
X164953283Y-89938282D01*
X164894380Y-89718452D01*
X164892057Y-89713470D01*
X164800524Y-89517178D01*
X164800521Y-89517173D01*
X164798198Y-89512191D01*
X164667661Y-89325765D01*
X164506735Y-89164839D01*
X164502227Y-89161682D01*
X164502224Y-89161680D01*
X164324818Y-89037459D01*
X164324816Y-89037458D01*
X164320309Y-89034302D01*
X164315327Y-89031979D01*
X164315322Y-89031976D01*
X164119030Y-88940443D01*
X164119028Y-88940442D01*
X164114048Y-88938120D01*
X164108740Y-88936698D01*
X164108738Y-88936697D01*
X164002433Y-88908213D01*
X163894218Y-88879217D01*
X163805175Y-88871427D01*
X163727010Y-88864588D01*
X163727001Y-88864588D01*
X163724285Y-88864350D01*
X161810715Y-88864350D01*
X161807999Y-88864588D01*
X161807990Y-88864588D01*
X161729825Y-88871427D01*
X161640782Y-88879217D01*
X161532567Y-88908213D01*
X161426262Y-88936697D01*
X161426260Y-88936698D01*
X161420952Y-88938120D01*
X161415972Y-88940442D01*
X161415970Y-88940443D01*
X161219678Y-89031976D01*
X161219673Y-89031979D01*
X161214691Y-89034302D01*
X161210184Y-89037458D01*
X161210182Y-89037459D01*
X161032776Y-89161680D01*
X161032773Y-89161682D01*
X161028265Y-89164839D01*
X160867339Y-89325765D01*
X160736802Y-89512191D01*
X160734479Y-89517173D01*
X160734476Y-89517178D01*
X160642943Y-89713470D01*
X160640620Y-89718452D01*
X160581717Y-89938282D01*
X160561882Y-90165000D01*
X158350650Y-90165000D01*
X158350650Y-84600000D01*
X164594603Y-84600000D01*
X164613570Y-84901476D01*
X164670173Y-85198198D01*
X164763518Y-85485486D01*
X164892135Y-85758809D01*
X165053993Y-86013857D01*
X165246541Y-86246608D01*
X165466742Y-86453390D01*
X165711124Y-86630944D01*
X165714593Y-86632851D01*
X165714596Y-86632853D01*
X165972370Y-86774565D01*
X165975832Y-86776468D01*
X166128689Y-86836988D01*
X166253008Y-86886210D01*
X166253011Y-86886211D01*
X166256691Y-86887668D01*
X166260525Y-86888652D01*
X166260533Y-86888655D01*
X166441827Y-86935203D01*
X166549274Y-86962791D01*
X166553202Y-86963287D01*
X166553206Y-86963288D01*
X166699119Y-86981720D01*
X166848964Y-87000650D01*
X167151036Y-87000650D01*
X167300881Y-86981720D01*
X167446794Y-86963288D01*
X167446798Y-86963287D01*
X167450726Y-86962791D01*
X167558173Y-86935203D01*
X167739467Y-86888655D01*
X167739475Y-86888652D01*
X167743309Y-86887668D01*
X167746989Y-86886211D01*
X167746992Y-86886210D01*
X167871311Y-86836988D01*
X168024168Y-86776468D01*
X168027630Y-86774565D01*
X168285404Y-86632853D01*
X168285407Y-86632851D01*
X168288876Y-86630944D01*
X168533258Y-86453390D01*
X168753459Y-86246608D01*
X168946007Y-86013857D01*
X169107865Y-85758809D01*
X169236482Y-85485486D01*
X169329827Y-85198198D01*
X169386430Y-84901476D01*
X169405397Y-84600000D01*
X169386430Y-84298524D01*
X169329827Y-84001802D01*
X169236482Y-83714514D01*
X169107865Y-83441191D01*
X169084803Y-83404850D01*
X168948129Y-83189487D01*
X168946007Y-83186143D01*
X168753459Y-82953392D01*
X168533258Y-82746610D01*
X168520256Y-82737163D01*
X168292084Y-82571387D01*
X168288876Y-82569056D01*
X168217561Y-82529850D01*
X168027630Y-82425435D01*
X168027627Y-82425434D01*
X168024168Y-82423532D01*
X167871311Y-82363012D01*
X167746992Y-82313790D01*
X167746989Y-82313789D01*
X167743309Y-82312332D01*
X167739475Y-82311348D01*
X167739467Y-82311345D01*
X167558173Y-82264797D01*
X167450726Y-82237209D01*
X167446798Y-82236713D01*
X167446794Y-82236712D01*
X167300881Y-82218280D01*
X167151036Y-82199350D01*
X166848964Y-82199350D01*
X166699119Y-82218280D01*
X166553206Y-82236712D01*
X166553202Y-82236713D01*
X166549274Y-82237209D01*
X166441827Y-82264797D01*
X166260533Y-82311345D01*
X166260525Y-82311348D01*
X166256691Y-82312332D01*
X166253011Y-82313789D01*
X166253008Y-82313790D01*
X166128689Y-82363012D01*
X165975832Y-82423532D01*
X165972373Y-82425434D01*
X165972370Y-82425435D01*
X165782440Y-82529850D01*
X165711124Y-82569056D01*
X165707916Y-82571387D01*
X165479745Y-82737163D01*
X165466742Y-82746610D01*
X165246541Y-82953392D01*
X165053993Y-83186143D01*
X165051871Y-83189487D01*
X164915198Y-83404850D01*
X164892135Y-83441191D01*
X164763518Y-83714514D01*
X164670173Y-84001802D01*
X164613570Y-84298524D01*
X164594603Y-84600000D01*
X158350650Y-84600000D01*
X158350650Y-76288803D01*
X158370652Y-76220682D01*
X158383014Y-76204493D01*
X158383088Y-76204411D01*
X158383089Y-76204410D01*
X158387507Y-76199503D01*
X158476335Y-76045647D01*
X158531235Y-75876684D01*
X158534680Y-75843914D01*
X158549115Y-75706565D01*
X158549805Y-75700000D01*
X158544177Y-75646451D01*
X158531926Y-75529886D01*
X158531925Y-75529882D01*
X158531235Y-75523316D01*
X158476335Y-75354353D01*
X158451435Y-75311225D01*
X158390810Y-75206217D01*
X158390807Y-75206213D01*
X158387507Y-75200497D01*
X158333429Y-75140437D01*
X158273046Y-75073375D01*
X158273044Y-75073374D01*
X158268631Y-75068472D01*
X158194893Y-75014898D01*
X158130245Y-74967928D01*
X158130244Y-74967927D01*
X158124903Y-74964047D01*
X158118875Y-74961363D01*
X158118873Y-74961362D01*
X157968635Y-74894472D01*
X157968634Y-74894472D01*
X157962604Y-74891787D01*
X157875716Y-74873318D01*
X157795286Y-74856222D01*
X157795282Y-74856222D01*
X157788829Y-74854850D01*
X157611171Y-74854850D01*
X157604718Y-74856222D01*
X157604714Y-74856222D01*
X157524284Y-74873318D01*
X157437396Y-74891787D01*
X157431367Y-74894472D01*
X157431365Y-74894472D01*
X157281128Y-74961362D01*
X157281126Y-74961363D01*
X157275098Y-74964047D01*
X157269757Y-74967927D01*
X157269756Y-74967928D01*
X157138140Y-75063553D01*
X157131369Y-75068472D01*
X157126956Y-75073374D01*
X157126954Y-75073375D01*
X157066571Y-75140437D01*
X157012493Y-75200497D01*
X157009193Y-75206213D01*
X157009190Y-75206217D01*
X156948565Y-75311225D01*
X156923665Y-75354353D01*
X156868765Y-75523316D01*
X156868075Y-75529882D01*
X156868074Y-75529886D01*
X156855823Y-75646451D01*
X156850195Y-75700000D01*
X156850885Y-75706565D01*
X156865321Y-75843914D01*
X156868765Y-75876684D01*
X156923665Y-76045647D01*
X157012493Y-76199503D01*
X157016911Y-76204410D01*
X157016912Y-76204411D01*
X157016986Y-76204493D01*
X157017014Y-76204551D01*
X157020792Y-76209751D01*
X157019841Y-76210442D01*
X157047704Y-76268500D01*
X157049350Y-76288803D01*
X157049350Y-92011197D01*
X157029348Y-92079318D01*
X157016986Y-92095507D01*
X157012493Y-92100497D01*
X156923665Y-92254353D01*
X156868765Y-92423316D01*
X156850195Y-92600000D01*
X151249443Y-92600000D01*
X151198235Y-78807786D01*
X151198234Y-78807786D01*
X151184947Y-78807728D01*
X151184945Y-78807728D01*
X106025605Y-78612233D01*
X105957571Y-78591936D01*
X105911311Y-78538080D01*
X105900150Y-78486234D01*
X105900150Y-65263963D01*
X108214757Y-65263963D01*
X108231175Y-65459483D01*
X108285258Y-65648091D01*
X108293009Y-65663172D01*
X108372123Y-65817113D01*
X108372126Y-65817117D01*
X108374944Y-65822601D01*
X108496818Y-65976369D01*
X108501511Y-65980363D01*
X108501512Y-65980364D01*
X108591528Y-66056973D01*
X108646238Y-66103535D01*
X108651616Y-66106541D01*
X108651618Y-66106542D01*
X108687932Y-66126837D01*
X108817513Y-66199257D01*
X109004118Y-66259889D01*
X109198946Y-66283121D01*
X109205081Y-66282649D01*
X109205083Y-66282649D01*
X109388434Y-66268541D01*
X109388438Y-66268540D01*
X109394576Y-66268068D01*
X109583556Y-66215303D01*
X109758689Y-66126837D01*
X109788515Y-66103535D01*
X109908453Y-66009829D01*
X109913303Y-66006040D01*
X109943084Y-65971539D01*
X110037485Y-65862173D01*
X110037485Y-65862172D01*
X110041509Y-65857511D01*
X110138425Y-65686909D01*
X110200358Y-65500732D01*
X110224949Y-65306071D01*
X110225341Y-65278000D01*
X110206194Y-65082728D01*
X110204413Y-65076829D01*
X110204412Y-65076824D01*
X110151265Y-64900793D01*
X110149484Y-64894894D01*
X110057370Y-64721653D01*
X109933361Y-64569602D01*
X109782180Y-64444535D01*
X109609585Y-64351213D01*
X109444853Y-64300220D01*
X109428039Y-64295015D01*
X109428036Y-64295014D01*
X109422152Y-64293193D01*
X109416027Y-64292549D01*
X109416026Y-64292549D01*
X109233147Y-64273327D01*
X109233146Y-64273327D01*
X109227019Y-64272683D01*
X109104383Y-64283844D01*
X109037759Y-64289907D01*
X109037758Y-64289907D01*
X109031618Y-64290466D01*
X109025704Y-64292207D01*
X109025702Y-64292207D01*
X108937291Y-64318228D01*
X108843393Y-64345864D01*
X108837928Y-64348721D01*
X108674972Y-64433912D01*
X108674968Y-64433915D01*
X108669512Y-64436767D01*
X108664712Y-64440627D01*
X108664711Y-64440627D01*
X108630326Y-64468273D01*
X108516600Y-64559711D01*
X108390480Y-64710016D01*
X108387516Y-64715408D01*
X108387513Y-64715412D01*
X108308813Y-64858567D01*
X108295956Y-64881954D01*
X108236628Y-65068978D01*
X108214757Y-65263963D01*
X105900150Y-65263963D01*
X105900150Y-61545500D01*
X106594603Y-61545500D01*
X106613570Y-61846976D01*
X106670173Y-62143698D01*
X106763518Y-62430986D01*
X106892135Y-62704309D01*
X107053993Y-62959357D01*
X107246541Y-63192108D01*
X107466742Y-63398890D01*
X107469944Y-63401217D01*
X107469946Y-63401218D01*
X107472432Y-63403024D01*
X107711124Y-63576444D01*
X107714593Y-63578351D01*
X107714596Y-63578353D01*
X107972370Y-63720065D01*
X107975832Y-63721968D01*
X108077353Y-63762163D01*
X108253008Y-63831710D01*
X108253011Y-63831711D01*
X108256691Y-63833168D01*
X108260525Y-63834152D01*
X108260533Y-63834155D01*
X108383047Y-63865611D01*
X108549274Y-63908291D01*
X108553202Y-63908787D01*
X108553206Y-63908788D01*
X108699119Y-63927221D01*
X108848964Y-63946150D01*
X109151036Y-63946150D01*
X109300881Y-63927221D01*
X109446794Y-63908788D01*
X109446798Y-63908787D01*
X109450726Y-63908291D01*
X109616953Y-63865611D01*
X109739467Y-63834155D01*
X109739475Y-63834152D01*
X109743309Y-63833168D01*
X109746989Y-63831711D01*
X109746992Y-63831710D01*
X109922647Y-63762163D01*
X110024168Y-63721968D01*
X110027630Y-63720065D01*
X110285404Y-63578353D01*
X110285407Y-63578351D01*
X110288876Y-63576444D01*
X110527568Y-63403024D01*
X110530054Y-63401218D01*
X110530056Y-63401217D01*
X110533258Y-63398890D01*
X110753459Y-63192108D01*
X110946007Y-62959357D01*
X111107865Y-62704309D01*
X111236482Y-62430986D01*
X111329827Y-62143698D01*
X111386430Y-61846976D01*
X111405397Y-61545500D01*
X111386430Y-61244024D01*
X111329827Y-60947302D01*
X111236482Y-60660014D01*
X111107865Y-60386691D01*
X111105402Y-60382809D01*
X110977666Y-60181530D01*
X110946007Y-60131643D01*
X110753459Y-59898892D01*
X110533258Y-59692110D01*
X110288876Y-59514556D01*
X110258705Y-59497969D01*
X110027630Y-59370935D01*
X110027627Y-59370934D01*
X110024168Y-59369032D01*
X109785294Y-59274455D01*
X109746992Y-59259290D01*
X109746989Y-59259289D01*
X109743309Y-59257832D01*
X109739475Y-59256848D01*
X109739467Y-59256845D01*
X109558173Y-59210297D01*
X109450726Y-59182709D01*
X109446798Y-59182213D01*
X109446794Y-59182212D01*
X109300881Y-59163780D01*
X109151036Y-59144850D01*
X108848964Y-59144850D01*
X108699119Y-59163780D01*
X108553206Y-59182212D01*
X108553202Y-59182213D01*
X108549274Y-59182709D01*
X108441827Y-59210297D01*
X108260533Y-59256845D01*
X108260525Y-59256848D01*
X108256691Y-59257832D01*
X108253011Y-59259289D01*
X108253008Y-59259290D01*
X108214706Y-59274455D01*
X107975832Y-59369032D01*
X107972373Y-59370934D01*
X107972370Y-59370935D01*
X107741296Y-59497969D01*
X107711124Y-59514556D01*
X107466742Y-59692110D01*
X107246541Y-59898892D01*
X107053993Y-60131643D01*
X107022334Y-60181530D01*
X106894599Y-60382809D01*
X106892135Y-60386691D01*
X106763518Y-60660014D01*
X106670173Y-60947302D01*
X106613570Y-61244024D01*
X106594603Y-61545500D01*
X105900150Y-61545500D01*
X105900150Y-60450091D01*
X105901701Y-60430380D01*
X105903587Y-60418472D01*
X105905138Y-60408680D01*
X105903587Y-60398887D01*
X105903587Y-60398882D01*
X105903565Y-60398743D01*
X105902212Y-60371973D01*
X105916100Y-60124655D01*
X105917682Y-60110613D01*
X105927509Y-60052780D01*
X105964149Y-59837135D01*
X105967293Y-59823360D01*
X106044087Y-59556802D01*
X106048754Y-59543465D01*
X106154908Y-59287185D01*
X106161039Y-59274455D01*
X106295219Y-59031674D01*
X106302731Y-59019717D01*
X106463268Y-58793461D01*
X106472066Y-58782430D01*
X106656915Y-58575584D01*
X106666905Y-58565594D01*
X106873750Y-58380746D01*
X106884781Y-58371948D01*
X107111037Y-58211411D01*
X107122994Y-58203899D01*
X107365775Y-58069719D01*
X107378501Y-58063590D01*
X107476895Y-58022834D01*
X107634785Y-57957434D01*
X107648122Y-57952767D01*
X107914680Y-57875973D01*
X107928455Y-57872829D01*
X108065194Y-57849596D01*
X108201938Y-57826361D01*
X108215971Y-57824780D01*
X108326064Y-57818598D01*
X108463293Y-57810892D01*
X108490063Y-57812245D01*
X108490202Y-57812267D01*
X108490207Y-57812267D01*
X108500000Y-57813818D01*
X108521701Y-57810381D01*
X108541411Y-57808830D01*
X167458589Y-57808830D01*
X167478299Y-57810381D01*
G37*
%TD.AperFunction*%
%TA.AperFunction,Conductor*%
G36*
X167065682Y-65070652D02*
G01*
X167112175Y-65124308D01*
X167122279Y-65194582D01*
X167092785Y-65259162D01*
X167061985Y-65284934D01*
X166953684Y-65349367D01*
X166793030Y-65490256D01*
X166660742Y-65658063D01*
X166561250Y-65847167D01*
X166497885Y-66051236D01*
X166472769Y-66263435D01*
X166486744Y-66476658D01*
X166488165Y-66482254D01*
X166488166Y-66482259D01*
X166509581Y-66566578D01*
X166539343Y-66683763D01*
X166628802Y-66877815D01*
X166641687Y-66896047D01*
X166713051Y-66997025D01*
X166752126Y-67052316D01*
X166905186Y-67201420D01*
X166909989Y-67204630D01*
X166909990Y-67204630D01*
X167043352Y-67293739D01*
X167088879Y-67348215D01*
X167099350Y-67398504D01*
X167099350Y-67693275D01*
X167079348Y-67761396D01*
X167037773Y-67801560D01*
X166890184Y-67889367D01*
X166729530Y-68030256D01*
X166703412Y-68063387D01*
X166622205Y-68166398D01*
X166597242Y-68198063D01*
X166497750Y-68387167D01*
X166434385Y-68591236D01*
X166409269Y-68803435D01*
X166423244Y-69016658D01*
X166424665Y-69022254D01*
X166424666Y-69022259D01*
X166469643Y-69199350D01*
X166475843Y-69223763D01*
X166565302Y-69417815D01*
X166688626Y-69592316D01*
X166841686Y-69741420D01*
X167019355Y-69860134D01*
X167024658Y-69862412D01*
X167024661Y-69862414D01*
X167210375Y-69942203D01*
X167215682Y-69944483D01*
X167424094Y-69991642D01*
X167428428Y-69991812D01*
X167492927Y-70020344D01*
X167532020Y-70079609D01*
X167532865Y-70150601D01*
X167495196Y-70210780D01*
X167432895Y-70240725D01*
X167401295Y-70246155D01*
X167200822Y-70320113D01*
X167195861Y-70323065D01*
X167195860Y-70323065D01*
X167092785Y-70384389D01*
X167017184Y-70429367D01*
X166856530Y-70570256D01*
X166852959Y-70574786D01*
X166745924Y-70710560D01*
X166724242Y-70738063D01*
X166624750Y-70927167D01*
X166561385Y-71131236D01*
X166536269Y-71343435D01*
X166550244Y-71556658D01*
X166551665Y-71562254D01*
X166551666Y-71562259D01*
X166573081Y-71646578D01*
X166602843Y-71763763D01*
X166692302Y-71957815D01*
X166695635Y-71962531D01*
X166751504Y-72041584D01*
X166815626Y-72132316D01*
X166968686Y-72281420D01*
X167146355Y-72400134D01*
X167151658Y-72402412D01*
X167151661Y-72402414D01*
X167263096Y-72450290D01*
X167317789Y-72495558D01*
X167339326Y-72563209D01*
X167320869Y-72631765D01*
X167268278Y-72679459D01*
X167245969Y-72687765D01*
X167145785Y-72714609D01*
X167135493Y-72718355D01*
X166944059Y-72807623D01*
X166934568Y-72813103D01*
X166890735Y-72843794D01*
X166882360Y-72854271D01*
X166889428Y-72867718D01*
X167563688Y-73541978D01*
X167577632Y-73549592D01*
X167579465Y-73549461D01*
X167586080Y-73545210D01*
X168264293Y-72866997D01*
X168270723Y-72855223D01*
X168261426Y-72843207D01*
X168218431Y-72813102D01*
X168208945Y-72807624D01*
X168025116Y-72721903D01*
X167971831Y-72674985D01*
X167952370Y-72606708D01*
X167972912Y-72538748D01*
X168026935Y-72492683D01*
X168037861Y-72488396D01*
X168074905Y-72475822D01*
X168172946Y-72442542D01*
X168172951Y-72442540D01*
X168178418Y-72440684D01*
X168246754Y-72402414D01*
X168359806Y-72339102D01*
X168359810Y-72339099D01*
X168364853Y-72336275D01*
X168529140Y-72199640D01*
X168626477Y-72082605D01*
X168685413Y-72043021D01*
X168756395Y-72041584D01*
X168816885Y-72078752D01*
X168847679Y-72142723D01*
X168849350Y-72163174D01*
X168849350Y-73128193D01*
X168829348Y-73196314D01*
X168775692Y-73242807D01*
X168705418Y-73252911D01*
X168644677Y-73226614D01*
X168636228Y-73219860D01*
X168622782Y-73226928D01*
X167948522Y-73901188D01*
X167940908Y-73915132D01*
X167941039Y-73916965D01*
X167945290Y-73923580D01*
X168623503Y-74601793D01*
X168635277Y-74608223D01*
X168646249Y-74599734D01*
X168712367Y-74573871D01*
X168781972Y-74587859D01*
X168832965Y-74637257D01*
X168849350Y-74699391D01*
X168849350Y-75665842D01*
X168829348Y-75733963D01*
X168775692Y-75780456D01*
X168705418Y-75790560D01*
X168640838Y-75761066D01*
X168622392Y-75741231D01*
X168574672Y-75677326D01*
X168574671Y-75677325D01*
X168571219Y-75672702D01*
X168414309Y-75527656D01*
X168233593Y-75413633D01*
X168036582Y-75335033D01*
X167980723Y-75291213D01*
X167957423Y-75224149D01*
X167974079Y-75155134D01*
X168030023Y-75103809D01*
X168208945Y-75020376D01*
X168218431Y-75014898D01*
X168262264Y-74984207D01*
X168270639Y-74973729D01*
X168263571Y-74960281D01*
X167589312Y-74286022D01*
X167575368Y-74278408D01*
X167573535Y-74278539D01*
X167566920Y-74282790D01*
X166888707Y-74961003D01*
X166882277Y-74972777D01*
X166891574Y-74984793D01*
X166934569Y-75014898D01*
X166944055Y-75020376D01*
X167135493Y-75109645D01*
X167145782Y-75113390D01*
X167244785Y-75139918D01*
X167305407Y-75176870D01*
X167336429Y-75240731D01*
X167328000Y-75311225D01*
X167282797Y-75365972D01*
X167255784Y-75379837D01*
X167200822Y-75400113D01*
X167017184Y-75509367D01*
X166856530Y-75650256D01*
X166852959Y-75654786D01*
X166773676Y-75755356D01*
X166715795Y-75796469D01*
X166674726Y-75803350D01*
X165675698Y-75803350D01*
X165607577Y-75783348D01*
X165586603Y-75766445D01*
X163739633Y-73919475D01*
X166302128Y-73919475D01*
X166320538Y-74129896D01*
X166322441Y-74140691D01*
X166377109Y-74344715D01*
X166380855Y-74355007D01*
X166470123Y-74546441D01*
X166475603Y-74555932D01*
X166506294Y-74599765D01*
X166516771Y-74608140D01*
X166530218Y-74601072D01*
X167204478Y-73926812D01*
X167212092Y-73912868D01*
X167211961Y-73911035D01*
X167207710Y-73904420D01*
X166529497Y-73226207D01*
X166517723Y-73219777D01*
X166505707Y-73229074D01*
X166475603Y-73272068D01*
X166470123Y-73281559D01*
X166380855Y-73472993D01*
X166377109Y-73483285D01*
X166322441Y-73687309D01*
X166320538Y-73698104D01*
X166302128Y-73908525D01*
X166302128Y-73919475D01*
X163739633Y-73919475D01*
X158310903Y-68490745D01*
X158276877Y-68428433D01*
X158281942Y-68357618D01*
X158324489Y-68300782D01*
X158391009Y-68275971D01*
X158399998Y-68275650D01*
X161793982Y-68275650D01*
X161805621Y-68276199D01*
X161813282Y-68277911D01*
X161821208Y-68277662D01*
X161821209Y-68277662D01*
X161883251Y-68275712D01*
X161887209Y-68275650D01*
X161915932Y-68275650D01*
X161919848Y-68275155D01*
X161919850Y-68275155D01*
X161919912Y-68275147D01*
X161920203Y-68275110D01*
X161932037Y-68274178D01*
X161977593Y-68272747D01*
X161997833Y-68266867D01*
X162017186Y-68262859D01*
X162030230Y-68261211D01*
X162030231Y-68261211D01*
X162038096Y-68260217D01*
X162045466Y-68257299D01*
X162045470Y-68257298D01*
X162080464Y-68243443D01*
X162091693Y-68239598D01*
X162127844Y-68229095D01*
X162135458Y-68226883D01*
X162153601Y-68216154D01*
X162171353Y-68207457D01*
X162190944Y-68199700D01*
X162227812Y-68172914D01*
X162237732Y-68166398D01*
X162276958Y-68143200D01*
X162291858Y-68128300D01*
X162306892Y-68115459D01*
X162317526Y-68107733D01*
X162323940Y-68103073D01*
X162352988Y-68067960D01*
X162360977Y-68059181D01*
X165332604Y-65087555D01*
X165394916Y-65053529D01*
X165421699Y-65050650D01*
X166997561Y-65050650D01*
X167065682Y-65070652D01*
G37*
%TD.AperFunction*%
%TD*%
M02*
