M48
INCH
T1C0.0250
T2C0.0315
T3C0.0335
T4C0.0354
T5C0.0472
T6C0.0787
T7C0.1083
%
G90
G05
T1
X4.4Y-2.8
X4.4Y-3.2
X4.5Y-3.2
X4.75Y-2.82
X4.75Y-2.91
X4.85Y-2.82
X4.85Y-2.91
X4.95Y-2.82
X4.95Y-3.5
X4.95Y-3.7
X5.1Y-2.7
X5.1Y-3.07
X5.1Y-3.55
X5.15Y-2.6624
X5.15Y-3.0
X5.25Y-3.2
X5.3Y-3.15
X5.4823Y-2.82
X5.4823Y-2.9
X5.61Y-2.9
X5.65Y-3.75
X5.67Y-2.6
X5.675Y-3.475
X5.75Y-2.6
X5.75Y-2.9
X5.83Y-3.56
X5.85Y-2.75
X5.85Y-3.1
X5.9Y-2.7
X5.9Y-3.15
X5.95Y-2.66
X5.95Y-3.23
T2
X4.6924Y-4.0618
X4.7974Y-4.0618
X5.4306Y-4.0618
X5.5356Y-4.0618
T3
X6.5975Y-2.71
X6.5975Y-2.91
X6.6Y-2.61
X6.6Y-3.11
X6.6025Y-2.81
X6.6025Y-3.01
T4
X4.4831Y-2.3516
X4.4831Y-2.4516
X4.5831Y-2.3491
X4.5831Y-2.4541
X4.6831Y-2.3516
X4.6831Y-2.4516
X4.7831Y-2.3516
X4.7831Y-2.4516
X4.8831Y-2.3516
X4.8831Y-2.4516
X4.9831Y-2.3516
X4.9831Y-2.4516
X5.0831Y-2.3516
X5.0831Y-2.4516
X5.1831Y-2.3516
X5.1831Y-2.4516
X5.2831Y-2.3516
X5.2831Y-2.4516
X5.3831Y-2.3516
X5.3831Y-2.4516
X5.4831Y-2.3516
X5.4831Y-2.4516
X5.5831Y-2.3516
X5.5831Y-2.4516
X5.6831Y-2.3516
X5.6831Y-2.4516
X5.7831Y-2.3516
X5.7831Y-2.4516
X5.8831Y-2.3516
X5.8831Y-2.4516
X5.9831Y-2.3516
X5.9831Y-2.4516
X6.0831Y-2.3516
X6.0831Y-2.4516
X6.1831Y-2.3516
X6.1831Y-2.4516
X6.2831Y-2.3491
X6.2831Y-2.4541
X6.3831Y-2.3516
X6.3831Y-2.4516
T5
X5.9557Y-4.1759
X6.1557Y-4.1759
X6.3557Y-4.1759
X6.4042Y-3.5577
X6.4042Y-3.7577
X6.4042Y-3.9577
T6
X4.4955Y-4.2618
X4.8942Y-4.2618
X5.2337Y-4.2618
X5.6324Y-4.2618
T7
X4.2913Y-2.4231
X4.2913Y-3.3307
X4.2913Y-4.3522
X6.5748Y-2.4231
X6.5748Y-3.3307
X6.5748Y-4.3522
T0
M30
